<?xml version="1.0" encoding="UTF-8" standalone="no"?>
<!-- Created with Inkscape (http://www.inkscape.org/) -->

<svg
   version="1.1"
   id="svg9"
   width="687.80359"
   height="687.80402"
   viewBox="0 0 687.80359 687.80402"
   xmlns="http://www.w3.org/2000/svg"
   xmlns:svg="http://www.w3.org/2000/svg">
  <defs
     id="defs13" />
  <g
     id="g15"
     transform="translate(-115.26045,-55.777319)">
    <g
       id="g99"
       transform="translate(-0.81418483,14.655373)"
       style="fill:#000000">
      <path
         id="path115"
         style="fill:#000000;fill-opacity:1"
         transform="translate(0.81418483,-14.655373)"
         d="m 436.10352,55.779297 c -0.3474,-0.01431 -0.74454,0.04892 -1.10547,0.193359 -0.79773,0.319226 -0.56144,0.555536 0.60351,0.603516 1.05416,0.04342 1.64479,-0.193099 1.3125,-0.525391 -0.16614,-0.166147 -0.46315,-0.257174 -0.81054,-0.271484 z m 47,0 c -0.3474,-0.01431 -0.74454,0.04892 -1.10547,0.193359 -0.79773,0.319226 -0.56144,0.555536 0.60351,0.603516 1.05416,0.04342 1.64479,-0.193099 1.3125,-0.525391 -0.16614,-0.166147 -0.46315,-0.257174 -0.81054,-0.271484 z m -12,38 c -0.3474,-0.01431 -0.74454,0.04892 -1.10547,0.193359 -0.79773,0.319226 -0.56144,0.555536 0.60351,0.603516 1.05416,0.04342 1.64479,-0.193099 1.3125,-0.525391 -0.16614,-0.166147 -0.46315,-0.257174 -0.81054,-0.271484 z m 223.58203,54.376953 1.90429,2.25 c 1.79022,2.11444 2.59571,2.70455 2.59571,1.9043 0,-0.18976 -1.0125,-1.20226 -2.25,-2.25 z m -475.60743,4.5 c -0.275,0 -2.02679,1.575 -3.89257,3.5 -1.86578,1.925 -3.16758,3.5 -2.89258,3.5 0.275,0 2.0268,-1.575 3.89258,-3.5 1.86578,-1.925 3.16758,-3.5 2.89257,-3.5 z m 486.60743,6.5 1.90429,2.25 c 1.04774,1.2375 2.06024,2.25 2.25,2.25 0.80025,0 0.21015,-0.80548 -1.90429,-2.5957 z m -284.75,59.25 c -0.14645,-32.0375 -0.26563,-5.825 -0.26563,58.25 0,64.075 0.11918,90.2875 0.26563,58.25 0.14645,-32.0375 0.14645,-84.4625 0,-116.5 z m -112.75,19.25 c -0.0516,-0.0516 -0.45697,0.24916 -1.25,0.87109 -0.9625,0.75485 -1.75,1.54235 -1.75,1.75 0,0.82304 0.82058,0.29466 2.12695,-1.37109 0.62194,-0.79303 0.92466,-1.19838 0.87305,-1.25 z m -4,4 c -0.0516,-0.0516 -0.45697,0.24916 -1.25,0.87109 -0.9625,0.75485 -1.75,1.54235 -1.75,1.75 0,0.82304 0.82058,0.29466 2.12695,-1.37109 0.62194,-0.79303 0.92466,-1.19838 0.87305,-1.25 z m -4,4 c -0.0516,-0.0516 -0.45697,0.24916 -1.25,0.87109 -0.9625,0.75485 -1.75,1.54235 -1.75,1.75 0,0.82304 0.82058,0.29466 2.12695,-1.37109 0.62194,-0.79303 0.92466,-1.19838 0.87305,-1.25 z m 241.51172,14.8457 c -0.164,-0.0943 -0.2793,0.71055 -0.2793,2.1543 0,1.925 0.2055,2.7125 0.45703,1.75 0.25152,-0.9625 0.25152,-2.5375 0,-3.5 -0.0629,-0.24063 -0.12307,-0.37285 -0.17773,-0.4043 z m -177.51172,32.1543 c -0.0516,-0.0516 -0.45697,0.24916 -1.25,0.87109 -0.9625,0.75485 -1.75,1.54235 -1.75,1.75 0,0.82304 0.82058,0.29466 2.12695,-1.37109 0.62194,-0.79303 0.92466,-1.19838 0.87305,-1.25 z M 115.46484,375.0332 c -0.10513,0.10514 -0.17521,0.45659 -0.19922,1.03907 -0.0434,1.05416 0.19114,1.64479 0.52344,1.3125 0.33225,-0.33229 0.36891,-1.19415 0.0801,-1.91602 -0.15961,-0.39887 -0.29916,-0.54069 -0.4043,-0.43555 z m 122,14 c -0.10513,0.10514 -0.17519,0.45659 -0.19922,1.03907 -0.0434,1.05416 0.19114,1.64479 0.52344,1.3125 0.33225,-0.33229 0.36891,-1.19415 0.0801,-1.91602 -0.15961,-0.39887 -0.29916,-0.54069 -0.4043,-0.43555 z m 366,17 c -0.10513,0.10514 -0.1752,0.45659 -0.19922,1.03907 -0.0434,1.05416 0.19115,1.64479 0.52344,1.3125 0.33225,-0.33229 0.36891,-1.19415 0.0801,-1.91602 -0.15961,-0.39887 -0.29916,-0.54069 -0.4043,-0.43555 z m -366,3 c -0.10513,0.10514 -0.17519,0.45659 -0.19922,1.03907 -0.0434,1.05416 0.19114,1.64479 0.52344,1.3125 0.33225,-0.33229 0.36891,-1.19415 0.0801,-1.91602 -0.15961,-0.39887 -0.29916,-0.54069 -0.4043,-0.43555 z m -84,1 c -0.10513,0.10514 -0.17521,0.45659 -0.19922,1.03907 -0.0434,1.05416 0.19114,1.64479 0.52344,1.3125 0.33225,-0.33229 0.36891,-1.19415 0.0801,-1.91602 -0.15961,-0.39887 -0.29916,-0.54069 -0.4043,-0.43555 z m 610,5 c -0.10513,0.10514 -0.17521,0.45659 -0.19922,1.03907 -0.0434,1.05416 0.19115,1.64479 0.52344,1.3125 0.33225,-0.33229 0.36891,-1.19415 0.0801,-1.91602 -0.15961,-0.39887 -0.29916,-0.54069 -0.4043,-0.43555 z m -333.77929,0.12305 1.90429,2.25 c 1.04774,1.2375 2.06024,2.25 2.25,2.25 0.80025,0 0.21015,-0.80548 -1.90429,-2.5957 z m -314.22071,6.87695 c -0.10513,0.10514 -0.17519,0.45659 -0.19922,1.03907 -0.0434,1.05416 0.19114,1.64479 0.52344,1.3125 0.33225,-0.33229 0.36891,-1.19415 0.0801,-1.91602 -0.15961,-0.39887 -0.29916,-0.54069 -0.4043,-0.43555 z m 344.63868,6.7461 c -0.3474,-0.0143 -0.74454,0.0489 -1.10547,0.19336 -0.79773,0.31922 -0.56144,0.55551 0.60351,0.60351 1.05416,0.0434 1.64479,-0.1931 1.3125,-0.52539 -0.16614,-0.16612 -0.46315,-0.25718 -0.81054,-0.27148 z m 106.08203,68.87695 c -0.0516,-0.0516 -0.45697,0.24916 -1.25,0.87109 -0.9625,0.75485 -1.75,1.54235 -1.75,1.75 0,0.82304 0.82058,0.29466 2.12695,-1.37109 0.62194,-0.79303 0.92466,-1.19838 0.87305,-1.25 z m -6,6 c -0.0516,-0.0516 -0.45697,0.24916 -1.25,0.87109 -0.9625,0.75485 -1.75,1.54235 -1.75,1.75 0,0.82304 0.82058,0.29466 2.12695,-1.37109 0.62194,-0.79303 0.92466,-1.19838 0.87305,-1.25 z M 454.10352,543.7793 c -0.3474,-0.0143 -0.74454,0.0489 -1.10547,0.19336 -0.79773,0.31922 -0.56144,0.55551 0.60351,0.60351 1.05416,0.0434 1.64479,-0.1931 1.3125,-0.52539 -0.16614,-0.16612 -0.46315,-0.25718 -0.81054,-0.27148 z m 13,0 c -0.3474,-0.0143 -0.74454,0.0489 -1.10547,0.19336 -0.79773,0.31922 -0.56144,0.55551 0.60351,0.60351 1.05416,0.0434 1.64479,-0.1931 1.3125,-0.52539 -0.16614,-0.16612 -0.46315,-0.25718 -0.81054,-0.27148 z m 155.00781,8.87695 c -0.275,0 -2.71713,2.25 -5.42578,5 -2.70865,2.75 -4.69883,5 -4.42383,5 0.275,0 2.71518,-2.25 5.42383,-5 2.70865,-2.75 4.70078,-5 4.42578,-5 z m 91.07422,80 c -0.0516,-0.0516 -0.45697,0.24916 -1.25,0.87109 -0.9625,0.75485 -1.75,1.54235 -1.75,1.75 0,0.82304 0.82058,0.29466 2.12695,-1.37109 0.62194,-0.79303 0.92466,-1.19838 0.87305,-1.25 z m -505.5,2.5 1.90429,2.25 c 1.04774,1.2375 2.06024,2.25 2.25,2.25 0.80025,0 0.21015,-0.80548 -1.90429,-2.5957 z m 11,11 1.90429,2.25 c 1.04774,1.2375 2.06024,2.25 2.25,2.25 0.80025,0 0.21015,-0.80548 -1.90429,-2.5957 z m 476.5,4.5 c -0.0516,-0.0516 -0.45697,0.24916 -1.25,0.87109 -0.9625,0.75485 -1.75,1.54235 -1.75,1.75 0,0.82304 0.82058,0.29466 2.12695,-1.37109 0.62194,-0.79303 0.92466,-1.19838 0.87305,-1.25 z m -217.66797,15.50977 c 0.0489,0.14904 0.0509,0.30053 0.13672,0.43945 0.0322,0.0521 0.0862,0.0254 0.12109,0.0703 0.28302,-0.10435 0.56754,-0.20416 0.85352,-0.30078 -0.0131,-0.002 -0.0267,-0.005 -0.0391,-0.008 -0.11127,0.0902 -0.20627,0.0558 -0.25586,-0.0469 -0.27679,-0.0512 -0.5356,-0.10252 -0.8164,-0.15429 z m -13.35547,0.63281 c -0.10475,0.003 -0.21315,0.006 -0.32617,0.01 0.0924,0.0202 0.17227,0.0367 0.26367,0.0566 0.0456,-0.0187 0.0246,-0.0463 0.0625,-0.0664 z m 11.94141,36.98047 c -0.3474,-0.0143 -0.74454,0.0489 -1.10547,0.19336 -0.79773,0.31922 -0.56144,0.55551 0.60351,0.60351 1.05416,0.0434 1.64479,-0.1931 1.3125,-0.52539 -0.16614,-0.16612 -0.46315,-0.25718 -0.81054,-0.27148 z" />
      <path
         id="path113"
         style="fill:#000000;fill-opacity:1"
         transform="translate(0.81418483,-14.655373)"
         d="m 698.68555,152.15625 3.44726,3.75 c 1.89539,2.0625 3.58289,3.75 3.75,3.75 0.76362,0 0.0432,-0.84708 -3.44726,-4.05469 z M 802.46484,374.0332 c -0.10513,0.10514 -0.17521,0.45659 -0.19922,1.03907 -0.0434,1.05416 0.19115,1.64479 0.52344,1.3125 0.33225,-0.33229 0.36891,-1.19415 0.0801,-1.91602 -0.15961,-0.39887 -0.29916,-0.54069 -0.4043,-0.43555 z m -121,9 c -0.10513,0.10514 -0.1752,0.45659 -0.19922,1.03907 -0.0434,1.05416 0.19115,1.64479 0.52344,1.3125 0.33225,-0.33229 0.36891,-1.19415 0.0801,-1.91602 -0.15961,-0.39887 -0.29916,-0.54069 -0.4043,-0.43555 z m -443.97265,9.22461 c -0.0914,0.22657 -0.14844,0.71094 -0.14844,1.39844 0,1.375 0.2265,1.9375 0.50391,1.25 0.27741,-0.6875 0.27741,-1.8125 0,-2.5 -0.13871,-0.34375 -0.26405,-0.375 -0.35547,-0.14844 z m 0,13 c -0.0914,0.22657 -0.14844,0.71094 -0.14844,1.39844 0,1.375 0.2265,1.9375 0.50391,1.25 0.27741,-0.6875 0.27741,-1.8125 0,-2.5 -0.13871,-0.34375 -0.26405,-0.375 -0.35547,-0.14844 z m 434.54297,212.39844 c -0.275,0 -1.55786,1.125 -2.84961,2.5 -1.29175,1.375 -2.12266,2.5 -1.84766,2.5 0.275,0 1.55591,-1.125 2.84766,-2.5 1.29175,-1.375 2.12461,-2.5 1.84961,-2.5 z m 38.15039,18 c -0.0516,-0.0516 -0.45697,0.24916 -1.25,0.87109 -0.9625,0.75485 -1.75,1.54235 -1.75,1.75 0,0.82304 0.82058,0.29466 2.12695,-1.37109 0.62194,-0.79303 0.92466,-1.19838 0.87305,-1.25 z m -498.5,3.5 3.44726,3.75 c 3.20761,3.49037 4.05274,4.20893 4.05274,3.44531 0,-0.16711 -1.6875,-1.85461 -3.75,-3.75 z m 487.31054,7.5 c -0.275,0 -1.31505,0.9 -2.31054,2 -0.99549,1.1 -1.58555,2 -1.31055,2 0.275,0 1.31506,-0.9 2.31055,-2 0.99549,-1.1 1.58554,-2 1.31054,-2 z m -225.38476,19.70508 c -0.14563,0.008 -0.30188,0.0152 -0.44727,0.0234 0.15602,0.0858 0.30497,0.0695 0.44727,-0.0234 z m -9.00977,0.42383 c -0.24199,0.007 -0.50031,0.015 -0.76562,0.0234 0.19995,0.0437 0.37498,0.0804 0.57031,0.12305 0.0683,-0.0392 0.1275,-0.10448 0.19531,-0.14648 z m -29.49804,75.99414 c -0.3474,-0.0143 -0.74454,0.0489 -1.10547,0.19336 -0.79773,0.31922 -0.56144,0.55551 0.60351,0.60351 1.05416,0.0434 1.64479,-0.1931 1.3125,-0.52539 -0.16614,-0.16612 -0.46315,-0.25718 -0.81054,-0.27148 z" />
      <path
         style="fill:#000000;fill-opacity:1"
         d="m 703.5,628 c 2.14824,-2.2 4.1309,-4 4.4059,-4 0.275,0 -1.25766,1.8 -3.4059,4 -2.14824,2.2 -4.1309,4 -4.4059,4 -0.275,0 1.25766,-1.8 3.4059,-4 z M 473.8125,607.31689 c 0.72187,-0.28887 1.58438,-0.25335 1.91667,0.0789 0.33229,0.33229 -0.25834,0.56864 -1.3125,0.52522 -1.16495,-0.048 -1.4019,-0.28494 -0.60417,-0.60416 z M 242.92431,600.25 240.5,597.5 l 2.75,2.42431 c 2.57029,2.26589 3.20859,3.07569 2.42431,3.07569 -0.17912,0 -1.41662,-1.2375 -2.75,-2.75 z M 154.07895,400.41667 c 0.048,-1.16495 0.28494,-1.4019 0.60416,-0.60417 0.28887,0.72187 0.25335,1.58438 -0.0789,1.91667 -0.3323,0.33229 -0.56864,-0.25834 -0.52522,-1.3125 z m 528,-1 c 0.048,-1.16495 0.28494,-1.4019 0.60416,-0.60417 0.28887,0.72187 0.25335,1.58438 -0.0789,1.91667 -0.33229,0.33229 -0.56864,-0.25834 -0.52522,-1.3125 z M 238.28601,385.5 c 0.008,-2.75 0.20172,-3.75631 0.43157,-2.23625 0.22986,1.52006 0.22371,3.77006 -0.0136,5 -0.23736,1.22994 -0.42542,-0.0138 -0.41792,-2.76375 z M 498.48396,263 c 0,-65.725 0.11965,-92.6125 0.26589,-59.75 0.14624,32.8625 0.14624,86.6375 0,119.5 -0.14624,32.8625 -0.26589,5.975 -0.26589,-59.75 z M 674.92431,168.25 672.5,165.5 l 2.75,2.42431 c 1.5125,1.33338 2.75,2.57088 2.75,2.75 0,0.78428 -0.8098,0.14598 -3.07569,-2.42431 z"
         id="path111" />
      <path
         style="fill:#000000;fill-opacity:1"
         d="M 247.40499,604.75 245.5,602.5 l 2.25,1.90499 c 1.2375,1.04774 2.25,2.06024 2.25,2.25 0,0.80025 -0.80479,0.20945 -2.59501,-1.90499 z m -9,-9 -1.90499,-2.25 2.25,1.90499 c 2.11444,1.79022 2.70524,2.59501 1.90499,2.59501 -0.18976,0 -1.20226,-1.0125 -2.25,-2.25 z m 118,-110 -1.90499,-2.25 2.25,1.90499 c 1.2375,1.04774 2.25,2.06024 2.25,2.25 0,0.80025 -0.80479,0.20945 -2.59501,-1.90499 z M 316.28601,385.5 c 0.008,-2.75 0.20172,-3.75631 0.43157,-2.23625 0.22986,1.52006 0.22371,3.77006 -0.0136,5 -0.23736,1.22994 -0.42542,-0.0138 -0.41792,-2.76375 z M 560.40499,281.75 558.5,279.5 l 2.25,1.90499 c 1.2375,1.04774 2.25,2.06024 2.25,2.25 0,0.80025 -0.80479,0.20945 -2.59501,-1.90499 z M 377.15789,249 c 0,-1.375 0.22698,-1.9375 0.50439,-1.25 0.27741,0.6875 0.27741,1.8125 0,2.5 -0.27741,0.6875 -0.50439,0.125 -0.50439,-1.25 z m -39.88886,-38.69299 c 0.97297,-0.25354 2.32297,-0.23687 3,0.0371 0.67703,0.27393 -0.11903,0.48137 -1.76903,0.46099 -1.65,-0.0204 -2.20394,-0.2445 -1.23097,-0.49804 z M 679.92431,173.25 677.5,170.5 l 2.75,2.42431 c 1.5125,1.33338 2.75,2.57088 2.75,2.75 0,0.78428 -0.8098,0.14598 -3.07569,-2.42431 z m -9.51932,-9.5 -1.90499,-2.25 2.25,1.90499 c 1.2375,1.04774 2.25,2.06024 2.25,2.25 0,0.80025 -0.80479,0.20945 -2.59501,-1.90499 z M 476.8125,79.316886 c 0.72187,-0.288871 1.58438,-0.253344 1.91667,0.07895 0.33229,0.332292 -0.25834,0.568641 -1.3125,0.52522 -1.16495,-0.04798 -1.4019,-0.284941 -0.60417,-0.604167 z"
         id="path109" />
      <path
         style="fill:#000000;fill-opacity:1"
         d="m 449.8125,607.31689 c 0.72187,-0.28887 1.58438,-0.25335 1.91667,0.0789 0.33229,0.33229 -0.25834,0.56864 -1.3125,0.52522 -1.16495,-0.048 -1.4019,-0.28494 -0.60417,-0.60416 z M 303.43709,542.75 300.5,539.5 l 3.25,2.93709 c 3.02946,2.73778 3.70965,3.56291 2.93709,3.56291 -0.1721,0 -1.6346,-1.4625 -3.25,-3.25 z M 316.15789,392 c 0,-1.375 0.22698,-1.9375 0.50439,-1.25 0.27741,0.6875 0.27741,1.8125 0,2.5 -0.27741,0.6875 -0.50439,0.125 -0.50439,-1.25 z m 0,-13 c 0,-1.375 0.22698,-1.9375 0.50439,-1.25 0.27741,0.6875 0.27741,1.8125 0,2.5 -0.27741,0.6875 -0.50439,0.125 -0.50439,-1.25 z m 365.92106,-3.58333 c 0.048,-1.16495 0.28494,-1.4019 0.60416,-0.60417 0.28887,0.72187 0.25335,1.58438 -0.0789,1.91667 -0.33229,0.33229 -0.56864,-0.25834 -0.52522,-1.3125 z M 617.43709,228.75 614.5,225.5 l 3.25,2.93709 c 1.7875,1.6154 3.25,3.0779 3.25,3.25 0,0.77256 -0.82513,0.0924 -3.56291,-2.93709 z M 458.25,110.31067 c 0.9625,-0.25152 2.5375,-0.25152 3.5,0 0.9625,0.25153 0.175,0.45733 -1.75,0.45733 -1.925,0 -2.7125,-0.2058 -1.75,-0.45733 z"
         id="path107" />
      <path
         id="path105"
         style="fill:#000000;fill-opacity:1"
         transform="translate(0.81418483,-14.655373)"
         d="m 434.18555,134.65625 c -0.0516,-0.0516 -0.45697,0.24916 -1.25,0.87109 -0.9625,0.75485 -1.75,1.54235 -1.75,1.75 0,0.82304 0.82058,0.29466 2.12695,-1.37109 0.62194,-0.79303 0.92466,-1.19838 0.87305,-1.25 z m -224,28 c -0.0516,-0.0516 -0.45697,0.24916 -1.25,0.87109 -0.9625,0.75485 -1.75,1.54235 -1.75,1.75 0,0.82304 0.82058,0.29466 2.12695,-1.37109 0.62193,-0.79303 0.92466,-1.19838 0.87305,-1.25 z m 38.84961,14 c -0.275,0 -1.55786,1.125 -2.84961,2.5 -1.29175,1.375 -2.12266,2.5 -1.84766,2.5 0.275,0 1.55591,-1.125 2.84766,-2.5 1.29175,-1.375 2.12461,-2.5 1.84961,-2.5 z m -8,8 c -0.275,0 -1.55786,1.125 -2.84961,2.5 -1.29175,1.375 -2.12266,2.5 -1.84766,2.5 0.275,0 1.55591,-1.125 2.84766,-2.5 1.29175,-1.375 2.12461,-2.5 1.84961,-2.5 z m 313.15039,106 c -0.0516,0.0516 0.25111,0.45697 0.87304,1.25 0.75485,0.9625 1.54235,1.75 1.75,1.75 0.82304,0 0.29271,-0.82254 -1.37304,-2.12891 -0.79303,-0.62193 -1.19839,-0.92271 -1.25,-0.87109 z m 127.35742,101.90039 c -0.0903,0.22311 -0.15191,0.77461 -0.16211,1.59961 -0.0204,1.65 0.18701,2.44461 0.46094,1.76758 0.27397,-0.67703 0.29067,-2.02703 0.0371,-3 -0.12677,-0.48649 -0.24567,-0.5903 -0.33594,-0.36719 z m 83.21875,2.45898 c -0.14247,-0.28631 -0.24505,1.25313 -0.24805,4.14063 -0.004,3.85 0.17362,5.54672 0.39453,3.77148 0.22084,-1.77523 0.22393,-4.92523 0.008,-7 -0.0541,-0.51869 -0.10681,-0.81665 -0.1543,-0.91211 z m -83.06445,9.48633 c -0.164,-0.0943 -0.2793,0.71055 -0.2793,2.1543 0,1.925 0.2055,2.7125 0.45703,1.75 0.25152,-0.9625 0.25152,-2.5375 0,-3.5 -0.0629,-0.24063 -0.12307,-0.37285 -0.17773,-0.4043 z m -217.75,217.44532 c -1.24391,0.23919 -0.46172,0.44397 1.73828,0.45507 2.19996,0.0111 3.21781,-0.1833 2.26172,-0.43359 -0.95609,-0.25031 -2.75609,-0.26063 -4,-0.0215 z m -11.51172,0.0195 c -0.9625,0.25153 -0.175,0.45703 1.75,0.45703 1.925,0 2.7125,-0.2055 1.75,-0.45703 -0.9625,-0.25152 -2.5375,-0.25152 -3.5,0 z m 9.47851,82.95898 c -2.07477,-0.21654 -5.22477,-0.21348 -7,0.008 -1.77524,0.22091 -0.0785,0.39855 3.77149,0.39453 3.85,-0.004 5.30327,-0.18586 3.22851,-0.40234 z" />
      <path
         id="path103"
         style="fill:#000000;fill-opacity:1"
         transform="translate(0.81418483,-14.655373)"
         d="m 482.10352,93.779297 c -0.3474,-0.01431 -0.74454,0.04892 -1.10547,0.193359 -0.79773,0.319226 -0.56144,0.555536 0.60351,0.603516 1.05416,0.04342 1.64479,-0.193099 1.3125,-0.525391 -0.16614,-0.166147 -0.46315,-0.257174 -0.81054,-0.271484 z M 221.99609,150.65625 c -0.275,0 -1.31505,0.9 -2.31054,2 -0.99549,1.1 -1.58555,2 -1.31055,2 0.275,0 1.31506,-0.9 2.31055,-2 0.99549,-1.1 1.58554,-2 1.31054,-2 z m -8,8 c -0.275,0 -1.31505,0.9 -2.31054,2 -0.99549,1.1 -1.58555,2 -1.31055,2 0.275,0 1.31506,-0.9 2.31055,-2 0.99549,-1.1 1.58554,-2 1.31054,-2 z m 207.93946,59.25 c -0.14637,-32.3125 -0.26563,-5.875 -0.26563,58.75 0,64.625 0.11926,91.0625 0.26563,58.75 0.14638,-32.3125 0.14638,-85.1875 0,-117.5 z m -111.75,18.75 c -0.0516,-0.0516 -0.45697,0.24916 -1.25,0.87109 -0.9625,0.75485 -1.75,1.54235 -1.75,1.75 0,0.82304 0.82058,0.29466 2.12695,-1.37109 0.62194,-0.79303 0.92466,-1.19838 0.87305,-1.25 z m -11,11 c -0.0516,-0.0516 -0.45697,0.24916 -1.25,0.87109 -0.9625,0.75485 -1.75,1.54235 -1.75,1.75 0,0.82304 0.82058,0.29466 2.12695,-1.37109 0.62194,-0.79303 0.92466,-1.19838 0.87305,-1.25 z m 61.89257,47 c -0.27499,0 -2.02679,1.575 -3.89257,3.5 -1.86578,1.925 -3.16758,3.5 -2.89258,3.5 0.275,0 2.0268,-1.575 3.89258,-3.5 1.86578,-1.925 3.16759,-3.5 2.89257,-3.5 z m 441.38672,86.37695 c -0.10513,0.10514 -0.17519,0.45659 -0.19922,1.03907 -0.0434,1.05416 0.19115,1.64479 0.52344,1.3125 0.33225,-0.33229 0.36891,-1.19415 0.0801,-1.91602 -0.15961,-0.39887 -0.29916,-0.54069 -0.4043,-0.43555 z m -37.92187,7.52344 c -0.0903,0.22311 -0.15191,0.77461 -0.16211,1.59961 -0.0204,1.65 0.18701,2.44461 0.46094,1.76758 0.27397,-0.67703 0.29067,-2.02703 0.0371,-3 -0.12677,-0.48649 -0.24567,-0.5903 -0.33594,-0.36719 z m -82.96289,9.4375 c -0.0825,0.31507 -0.13703,1.06211 -0.14258,2.16211 -0.0111,2.19996 0.18526,3.21781 0.43555,2.26172 0.25031,-0.95609 0.25878,-2.75609 0.0195,-4 -0.1196,-0.62196 -0.23002,-0.7389 -0.3125,-0.42383 z m 82.96289,8.5625 c -0.0903,0.22311 -0.15191,0.77461 -0.16211,1.59961 -0.0204,1.65 0.18701,2.44461 0.46094,1.76758 0.27397,-0.67703 0.29067,-2.02703 0.0371,-3 -0.12677,-0.48649 -0.24567,-0.5903 -0.33594,-0.36719 z m 37.92187,9.47656 c -0.10513,0.10514 -0.17519,0.45659 -0.19922,1.03907 -0.0434,1.05416 0.19115,1.64479 0.52344,1.3125 0.33225,-0.33229 0.36891,-1.19415 0.0801,-1.91602 -0.15961,-0.39887 -0.29916,-0.54069 -0.4043,-0.43555 z m -649,5 c -0.10513,0.10514 -0.17521,0.45659 -0.19922,1.03907 -0.0434,1.05416 0.19114,1.64479 0.52344,1.3125 0.33225,-0.33229 0.36891,-1.19415 0.0801,-1.91602 -0.15961,-0.39887 -0.29916,-0.54069 -0.4043,-0.43555 z m 308.63868,6.7461 c -0.3474,-0.0143 -0.74454,0.0489 -1.10547,0.19336 -0.79773,0.31922 -0.56144,0.55551 0.60351,0.60351 1.05416,0.0434 1.64479,-0.1931 1.3125,-0.52539 -0.16614,-0.16612 -0.46315,-0.25718 -0.81054,-0.27148 z m 103.58203,71.37695 -3.25,2.93555 c -1.7875,1.6154 -3.25,3.0779 -3.25,3.25 0,0.77256 0.82472,0.0939 3.5625,-2.93555 z m 56.5,52.5 c -0.0516,-0.0516 -0.45697,0.24916 -1.25,0.87109 -0.9625,0.75485 -1.75,1.54235 -1.75,1.75 0,0.82304 0.82058,0.29466 2.12695,-1.37109 0.62194,-0.79303 0.92466,-1.19838 0.87305,-1.25 z m -163.73047,70.30664 c -0.97297,0.25354 -0.41953,0.47765 1.23047,0.49805 1.65,0.0204 2.44656,-0.18701 1.76953,-0.46094 -0.67703,-0.27397 -2.02703,-0.29067 -3,-0.0371 z m -10,83 c -0.97297,0.25354 -0.41953,0.47765 1.23047,0.49805 1.65,0.0204 2.44656,-0.18701 1.76953,-0.46094 -0.67703,-0.27397 -2.02703,-0.29067 -3,-0.0371 z m 18,0 c -0.97297,0.25354 -0.41953,0.47765 1.23047,0.49805 1.65,0.0204 2.44656,-0.18701 1.76953,-0.46094 -0.67703,-0.27397 -2.02703,-0.29067 -3,-0.0371 z m -24.35156,37.81641 c -0.3474,-0.0143 -0.74454,0.0489 -1.10547,0.19336 -0.79773,0.31922 -0.56144,0.55551 0.60351,0.60351 1.05416,0.0434 1.64479,-0.1931 1.3125,-0.52539 -0.16614,-0.16612 -0.46315,-0.25718 -0.81054,-0.27148 z m 35,0 c -0.3474,-0.0143 -0.74454,0.0489 -1.10547,0.19336 -0.79773,0.31922 -0.56144,0.55551 0.60351,0.60351 1.05416,0.0434 1.64479,-0.1931 1.3125,-0.52539 -0.16614,-0.16612 -0.46315,-0.25718 -0.81054,-0.27148 z" />
      <path
         id="path101"
         style="fill:#000000;fill-opacity:1"
         transform="translate(0.81418483,-14.655373)"
         d="m 457.27344,56.333984 c -13.45327,0.109597 -27.01937,0.689977 -35.58789,1.699219 -55.06412,6.485718 -104.37476,24.088979 -149.36133,53.320317 -79.32193,51.54173 -133.71298,132.84612 -151.0586,225.80273 -7.44499,39.89848 -7.42845,86.32637 0.0469,125.5 28.43242,148.99754 148.48415,261.04225 298.37305,278.47461 7.15,0.83155 15.475,1.69072 18.5,1.9082 13.12307,0.94352 49.05182,-0.35278 64.15039,-2.31445 76.92778,-9.99474 145.47347,-43.61019 199.89062,-98.02734 55.39356,-55.39356 88.41391,-123.56218 98.59375,-203.54102 2.4187,-19.00241 2.42569,-60.50261 0.0117,-79 C 790.43387,280.47753 757.51608,212.19119 703.20898,157.63867 646.36442,100.53722 574.2062,66.282007 492.18555,57.458984 c -8.11841,-0.873303 -21.45885,-1.234596 -34.91211,-1.125 z m 1.91211,37.332032 c 39.91866,0.01456 74.25647,6.387634 110.5,20.509764 81.96625,31.93779 147.55524,99.07708 176.80273,180.98047 12.78379,35.79916 18.00391,65.95251 18.00391,104 0,31.59304 -3.4342,56.43196 -11.82422,85.51367 -10.4408,36.19018 -31.132,75.99503 -55.09375,105.98633 -9.63357,12.05769 -36.00312,38.23948 -48.38867,48.04492 -44.72172,35.40547 -98.65595,57.89285 -154.56446,64.44531 -102.53113,12.0166 -203.68417,-28.2277 -270.17187,-107.49023 -30.92508,-36.86697 -52.89863,-80.72759 -63.625,-127 -11.75392,-50.70519 -10.02009,-108.16759 4.72266,-156.5 25.35277,-83.11636 81.84254,-149.67918 159.13867,-187.51563 43.53872,-21.31219 85.57288,-30.992449 134.5,-30.974604 z m -2.84375,32.130864 c -4.88094,0.35899 -9.61019,1.4628 -13.15625,3.23632 -7.16438,3.58319 -14.05996,10.41685 -17.63672,17.47461 l -2.86328,5.64844 v 124.5 124.5 l 2.81836,5.73828 c 5.33725,10.86895 16.42255,19.09669 27.91015,20.7168 2.89966,0.40894 6.17149,0.61493 7.27149,0.45703 1.1,-0.1579 3.99808,-0.55984 6.43945,-0.89258 10.36063,-1.4121 21.81778,-10.50355 26.90039,-21.3457 l 2.66016,-5.67383 0.26953,-121 c 0.26293,-118.48104 0.22593,-121.13532 -1.72852,-127.5 -3.59695,-11.71347 -13.207,-21.24949 -24.81836,-24.625 -4.15282,-1.20726 -9.18547,-1.5934 -14.0664,-1.23437 z m 124.84375,99.35937 c -9.28003,0 -11.16001,0.30886 -16.17578,2.66016 -15.58855,7.30763 -25.01715,25.01397 -21.86133,41.05468 1.91831,9.75059 5.3908,15.33281 16.97851,27.28516 22.76029,23.4765 34.424,44.24091 41.20899,73.36914 2.87205,12.32985 3.64521,39.25205 1.51367,52.68555 -4.38157,27.61377 -16.10215,52.73411 -34.44336,73.8164 -21.67253,24.91145 -52.85779,41.9285 -86.66602,47.29297 -13.4335,2.13154 -40.35374,1.35643 -52.68359,-1.51562 -16.11932,-3.75476 -33.94894,-11.05344 -46.27344,-18.94531 -34.10961,-21.8418 -57.34967,-56.2684 -65.28125,-96.70313 -2.63861,-13.45147 -2.37475,-40.55815 0.52735,-54.18945 6.1694,-28.978 19.065,-52.66696 40.7832,-74.91797 14.00125,-14.34473 16.87305,-20.02536 16.87305,-33.37305 0,-8.2373 -0.36098,-10.29118 -2.67969,-15.23828 -3.74393,-7.98791 -10.76436,-15.13775 -18.69727,-19.04102 -6.12002,-3.01127 -7.2988,-3.23983 -16.60547,-3.21093 -8.78476,0.0273 -10.69439,0.36184 -15.51757,2.70703 -14.40826,7.0058 -37.64449,32.64406 -53.09766,58.58594 -47.68648,80.05327 -39.22209,183.57069 20.86523,255.17773 35.81122,42.67681 85.0674,69.8067 140.73243,77.51367 14.9018,2.06319 45.76208,1.80364 61.57226,-0.51758 96.64737,-14.18958 172.73425,-90.27645 186.92383,-186.92382 2.48735,-16.94168 2.7188,-45.64027 0.49414,-61.48829 -5.67562,-40.4318 -21.29274,-77.28394 -46.13867,-108.875 -9.77642,-12.43052 -29.08751,-30.86712 -35.85156,-34.22851 -5.51095,-2.73865 -6.85585,-2.98047 -16.5,-2.98047 z" />
    </g>
  </g>
</svg>
