<?xml version="1.0" encoding="UTF-8" standalone="no"?>
<!-- Created with Inkscape (http://www.inkscape.org/) -->

<svg
   version="1.1"
   id="svg825"
   width="957.38391"
   height="1015.2972"
   viewBox="0 0 957.38391 1015.2972"
   xmlns="http://www.w3.org/2000/svg"
   xmlns:svg="http://www.w3.org/2000/svg">
  <defs
     id="defs829" />
  <g
     id="g831"
     transform="translate(-23.141079,-167.48774)">
    <path
       style="fill:#000000;fill-opacity:1"
       d="m 488.28269,1175.7269 c -6.875,-3.847 -16.325,-9.0408 -21,-11.5419 -4.675,-2.501 -8.95,-4.8834 -9.5,-5.2943 -0.55,-0.4109 -5.725,-3.2354 -11.5,-6.2769 -5.775,-3.0414 -15.80521,-8.5079 -22.28936,-12.1478 -6.48415,-3.6399 -11.96199,-6.618 -12.17298,-6.618 -0.21099,0 -5.48077,-2.8489 -11.71064,-6.3308 -6.22986,-3.4819 -14.70202,-8.1455 -18.82702,-10.3635 -4.125,-2.218 -12.12853,-6.5692 -17.78562,-9.6692 -5.65709,-3.1001 -10.71959,-5.6365 -11.25,-5.6365 -0.53041,0 -0.96438,-0.45 -0.96438,-1 0,-0.55 -0.38247,-1 -0.84994,-1 -0.46747,0 -5.07997,-2.3114 -10.25,-5.1365 -5.17003,-2.825 -13.22506,-7.1641 -17.90006,-9.6423 -4.675,-2.4782 -8.95,-4.8391 -9.5,-5.2462 -0.55,-0.4072 -6.625,-3.7793 -13.5,-7.4934 -6.875,-3.7142 -17.225,-9.3304 -23,-12.4805 -5.775,-3.1501 -13.2,-7.1903 -16.5,-8.9782 -3.3,-1.7879 -10.275,-5.6327 -15.5,-8.544 -8.72833,-4.8633 -49.30334,-26.9973 -77,-42.0041 -13.26033,-7.1849 -37.91424,-20.68736 -46.11509,-25.25637 -14.10886,-7.86059 -24.256231,-13.21836 -25.034971,-13.21836 -0.46746,0 -0.85216,-0.5625 -0.85488,-1.25 -0.003,-0.6875 -1.11656,-10.7 -2.47521,-22.25 -1.35865,-11.55 -3.17276,-27.075 -4.03134,-34.5 -0.85859,-7.425 -2.21648,-19.125 -3.01753,-26 -0.80105,-6.875 -3.27372,-28.475 -5.49483,-48 -2.2211,-19.525 -5.13641,-44.725 -6.47848,-56 -1.34206,-11.275 -3.58031,-30.625 -4.97389,-43 -1.39357,-12.375 -2.98721,-26.1 -3.54142,-30.5 -1.11465,-8.8495 -4.27542,-36.18399 -9.53972,-82.5 -1.90666,-16.775 -4.15298,-36.35 -4.99183,-43.5 -0.83885,-7.15 -3.08563,-26.725 -4.99284,-43.5 -1.90722,-16.775 -4.13001,-35.9 -4.93954,-42.5 -1.65059,-13.45703 -3.8543,-32.56109 -8.99755,-78 -1.9299,-17.05 -4.66846,-40.62064 -6.0857,-52.3792 l -2.57679,-21.37919 0.82081,-0.70257 c 0.45144,-0.38642 8.2458,-3.30886 17.3208,-6.49433 9.075,-3.18546 24.15,-8.47901 33.5,-11.76344 9.35,-3.28444 25.775001,-9.04312 36.500001,-12.79707 10.725,-3.75395 23.325,-8.18075 28,-9.83733 14.67519,-5.20015 42.93394,-15.10198 57.5,-20.14793 7.7,-2.66742 18.5,-6.47816 24,-8.46832 5.5,-1.99015 16.975,-6.04517 25.5,-9.01115 25.55418,-8.89068 78.43216,-27.4763 104,-36.55405 9.075,-3.22204 21,-7.41707 26.5,-9.32229 12.14853,-4.20829 46.81569,-16.35534 58.5,-20.49785 16.27624,-5.77051 43.57855,-15.35209 55.32297,-19.41526 l 11.82298,-4.09035 6.17702,2.07592 c 7.47031,2.51054 55.34809,19.04698 87.67703,30.28264 12.925,4.49198 31.15,10.78438 40.5,13.98311 9.35,3.19873 30.275,10.40356 46.5,16.01075 16.225,5.60718 36.475,12.59409 45,15.52646 8.525,2.93236 25.4,8.76853 37.5,12.96925 12.1,4.20072 36.4,12.60079 54,18.66681 17.6,6.06603 39.2,13.51415 48,16.55139 8.8,3.03723 22.3,7.67845 30,10.31382 7.7,2.63537 23.9,8.23482 36,12.44324 12.1,4.20842 27.4,9.46344 34,11.67782 6.6,2.21438 12.32426,4.33533 12.72057,4.71321 0.39631,0.37787 -4.68307,43.65279 -11.28752,96.16648 -14.75113,117.28998 -21.79774,173.22799 -22.48338,178.47943 -0.87429,6.69642 -5.35159,42.57426 -8.5483,68.5 -1.66151,13.475 -3.37131,27.2 -3.79956,30.5 -0.42825,3.3 -7.71385,61.37961 -16.19022,129.0658 l -15.41159,123.06579 -12,6.688 c -6.6,3.6784 -20.1,11.2395 -30,16.80243 -9.9,5.56294 -21.375,12.00902 -25.5,14.32463 -4.125,2.31565 -11.775,6.61648 -17,9.55738 -10.85006,6.107 -18.66649,10.4963 -31.5,17.6885 -4.95,2.7742 -10.8,6.0674 -13,7.3183 -12.08863,6.8736 -53.05409,29.8738 -65,36.4945 -11.18975,6.2017 -37.30825,20.9926 -41.76502,23.6517 -2.62077,1.5636 -4.99543,2.8429 -5.27704,2.8429 -0.46071,0 -22.11909,12.1446 -36.61921,20.5336 -3.1137,1.8014 -6.6012,3.5736 -7.75,3.9382 -1.1488,0.3647 -2.08873,1.0827 -2.08873,1.5956 0,0.5129 -0.47615,0.9326 -1.0581,0.9326 -0.90396,0 -24.79824,13.225 -46.9419,25.9814 -3.575,2.0595 -9.2,5.222 -12.5,7.0279 -3.3,1.8058 -16.24009,9.0675 -28.75577,16.137 -12.51567,7.0695 -23.31567,12.8252 -24,12.7905 -0.68432,-0.035 -6.86923,-3.2108 -13.74423,-7.0579 z M 315.99254,930.34807 c 2.37657,-6.05 5.64214,-14.15 7.25682,-18 3.49314,-8.32892 30.24157,-75.26502 40.56056,-101.5 l 7.27659,-18.5 132.12144,-0.25368 132.12145,-0.25368 0.85839,2.25368 c 0.78075,2.04985 10.93797,25.48186 13.11424,30.25368 0.50168,1.1 4.79612,11 9.54321,22 4.74708,11 10.12382,23.375 11.94831,27.5 1.82449,4.125 7.3814,16.95 12.34869,28.5 4.96729,11.55 10.79582,25.05 12.95228,30 l 3.92085,9 52.13366,0.25892 52.13366,0.25892 v -0.98041 c 0,-1.01677 -2.18225,-6.04183 -8.37602,-19.28743 -7.47809,-15.99216 -11.1295,-23.88308 -21.86423,-47.25 -6.06406,-13.2 -13.94342,-30.3 -17.5097,-38 -3.56627,-7.7 -7.8185,-16.925 -9.44938,-20.5 -1.63089,-3.575 -4.55188,-9.875 -6.4911,-14 -1.93921,-4.125 -12.30598,-26.625 -23.03726,-50 -10.73129,-23.375 -22.15763,-48.06324 -25.39187,-54.86276 -3.23424,-6.79952 -5.88044,-12.51038 -5.88044,-12.6908 0,-0.18043 -1.85077,-4.29218 -4.11281,-9.13724 -2.26205,-4.84506 -10.62478,-22.9842 -18.58384,-40.3092 -7.95906,-17.325 -17.31753,-37.575 -20.7966,-45 -3.47906,-7.425 -14.28574,-30.825 -24.01483,-52 -9.7291,-21.175 -20.73927,-45.025 -24.46705,-53 -3.72778,-7.975 -14.31622,-30.925 -23.52986,-51 -9.21364,-20.075 -18.98721,-41.225 -21.71905,-47 -2.73185,-5.775 -6.77791,-14.55 -8.99125,-19.5 -2.21335,-4.95 -6.353,-13.95 -9.19923,-20 -2.84623,-6.05 -10.32983,-22.34698 -16.63022,-36.21552 -6.30039,-13.86853 -11.71254,-25.23103 -12.027,-25.25 -0.31446,-0.019 -1.62125,2.32802 -2.90398,5.21552 -1.28272,2.8875 -4.51294,9.9012 -7.17825,15.58601 -2.66532,5.6848 -4.84603,10.50969 -4.84603,10.72197 0,0.21227 -2.08793,4.78607 -4.63984,10.16399 -4.74378,9.99707 -8.9273,19.12656 -23.26865,50.77803 -4.48571,9.9 -9.03958,19.84572 -10.11971,22.1016 -1.08013,2.25587 -4.60725,9.90587 -7.83804,17 -8.63795,18.96708 -16.85378,36.88559 -20.81565,45.3984 -1.91978,4.125 -5.52403,12 -8.00944,17.5 -3.94481,8.72951 -9.86572,21.69042 -17.8163,39 -1.26312,2.75 -3.86212,8.375 -5.77555,12.5 -1.91343,4.125 -6.04987,13.125 -9.19209,20 -3.14221,6.875 -6.75302,14.75 -8.024,17.5 -1.27099,2.75 -3.53288,7.7 -5.02642,11 -1.49355,3.3 -4.07549,8.925 -5.73765,12.5 -3.16432,6.80585 -10.50984,22.88568 -18.95786,41.5 -2.74577,6.05 -6.4569,14.15 -8.24696,18 -1.79007,3.85 -5.61503,12.175 -8.49992,18.5 -10.01558,21.95874 -14.88066,32.57826 -21.53192,47 -10.10856,21.91811 -16.04593,34.85526 -19.04599,41.5 -5.52929,12.24661 -8.24691,18.17732 -11.45573,25 -1.81072,3.85 -5.42283,11.725 -8.02691,17.5 -4.58771,10.17403 -12.32204,27.11977 -18.94133,41.5 -1.77217,3.85 -5.69023,12.4 -8.70679,19 -7.33952,16.05829 -13.70206,29.88011 -22.23518,48.30318 -3.89844,8.41674 -7.08807,15.49235 -7.08807,15.72356 0,0.23122 -1.575,3.65667 -3.5,7.61211 -1.925,3.95545 -3.5,7.34616 -3.5,7.5349 0,0.18875 24.83748,0.22687 55.19441,0.0847 l 55.19441,-0.25847 4.32103,-11 z m 93.29015,-226.86158 c 0,-0.19886 1.74316,-4.13636 3.87368,-8.75 2.13053,-4.61363 7.79272,-17.16342 12.58266,-27.88842 4.78993,-10.725 9.56107,-21.38481 10.60252,-23.68847 1.04145,-2.30367 6.01261,-13.32867 11.04702,-24.5 5.03441,-11.17134 10.37874,-23.01153 11.87629,-26.31153 1.49755,-3.3 4.4237,-9.825 6.50254,-14.5 2.07884,-4.675 5.74522,-12.71359 8.1475,-17.86353 2.40229,-5.14994 4.36779,-9.58934 4.36779,-9.86534 0,-0.276 1.50077,-3.71242 3.33504,-7.63648 1.83427,-3.92406 7.09629,-15.57215 11.69337,-25.88465 4.59708,-10.3125 8.67245,-18.75 9.05638,-18.75 0.38393,0 1.46263,1.9125 2.39712,4.25 0.93449,2.3375 2.74801,6.5 4.03004,9.25 1.28203,2.75 7.11596,15.73308 12.96429,28.85129 5.84833,13.11822 11.0389,24.59322 11.5346,25.5 0.49569,0.90679 3.57637,7.72371 6.84594,15.14871 3.26957,7.425 9.30032,20.925 13.40165,30 4.10133,9.075 11.18236,24.825 15.73562,35 4.55326,10.175 11.40135,25.475 15.21797,34 3.81662,8.525 7.80526,17.20136 8.86364,19.28079 1.05839,2.07944 1.92434,3.99194 1.92434,4.25 0,0.25807 -41.85,0.46921 -93,0.46921 -51.15,0 -93,-0.16271 -93,-0.36158 z"
       id="path1031" />
  </g>
</svg>
