<?xml version="1.0" encoding="UTF-8" standalone="no"?>
<!-- Created with Inkscape (http://www.inkscape.org/) -->

<svg
   version="1.1"
   id="svg9"
   width="303.4649"
   height="639.91443"
   viewBox="0 0 303.4649 639.91443"
   xmlns="http://www.w3.org/2000/svg"
   xmlns:svg="http://www.w3.org/2000/svg">
  <defs
     id="defs13" />
  <g
     id="g15"
     transform="translate(-274.5058,-62.298377)">
    <path
       style="fill:#000000;fill-opacity:1"
       d="m 415.25728,659.71281 c 0,-23.375 0.15455,-42.5 0.34345,-42.5 0.1889,0 2.91984,0.88641 6.06876,1.9698 5.6957,1.9596 5.75211,1.95961 10.90655,5e-4 2.84968,-1.08311 5.51874,-1.96952 5.93124,-1.9698 0.4125,-2.7e-4 0.75,19.1245 0.75,42.4995 v 42.5 h -12 -12 z m -14,-48.85299 c -5.225,-2.35944 -11.525,-5.33309 -14,-6.6081 -5.62429,-2.89739 -24.32559,-14.1124 -25,-14.99229 -0.275,-0.35879 -2.3,-1.96824 -4.5,-3.57655 -7.50116,-5.48373 -16.98912,-13.88028 -24.78143,-21.9308 -56.03092,-57.8875 -72.63401,-148.18641 -46.15814,-251.03927 6.62308,-25.72917 14.50515,-48.90583 23.89607,-70.26463 1.94892,-4.43265 3.5435,-8.33601 3.5435,-8.67412 0,-1.6342 22.76046,-45.79364 30.19917,-58.5919 22.56361,-38.82055 49.45022,-76.751179 75.97066,-107.176565 l 4.97472,-5.707218 9.53602,11.207218 C 478.12832,124.26526 515.2746,182.6751 539.049,237.21281 c 1.07892,2.475 2.94962,6.75 4.15711,9.5 14.4303,32.86422 26.81318,76.82897 31.54533,112 3.92845,29.19764 4.24276,53.49305 1.04563,80.8245 -5.55495,47.48779 -24.22167,89.08765 -54.99988,122.5704 -7.94191,8.63977 -24.23511,22.36329 -35.81764,30.16865 -11.92794,8.03814 -41.04312,23.22857 -43.53873,22.71572 -1.11214,-0.22854 -1.33741,-5.72878 -1.24015,-30.27927 0.0654,-16.5 -0.33643,-42.375 -0.89289,-57.5 -0.55646,-15.125 -1.47524,-43.25 -2.04172,-62.5 -0.56648,-19.25 -1.68214,-55.25 -2.47925,-80 -0.7971,-24.75 -1.69638,-55.125 -1.9984,-67.5 -0.30201,-12.375 -0.78997,-28.35 -1.08434,-35.5 -0.72428,-17.59234 -3.43073,-102.89861 -3.43965,-108.41667 -0.004,-2.42916 -0.18913,-4.22916 -0.41156,-4 -0.39653,0.40855 -1.59877,33.29025 -5.60932,153.41667 -3.87598,116.09582 -5.06799,150.21646 -6.04377,173 -0.54177,12.65 -1.24743,44.6 -1.56814,71 -0.52879,43.53016 -0.73633,48.02034 -2.22872,48.21845 -0.9051,0.12015 -5.92063,-1.71199 -11.14563,-4.07144 z"
       id="path99" />
  </g>
</svg>
