<?xml version="1.0" encoding="UTF-8" standalone="no"?>
<!-- Created with Inkscape (http://www.inkscape.org/) -->

<svg
   version="1.1"
   id="svg9"
   width="1915.8296"
   height="992.04871"
   viewBox="0 0 1915.8296 992.04871"
   xmlns="http://www.w3.org/2000/svg"
   xmlns:svg="http://www.w3.org/2000/svg">
  <defs
     id="defs13" />
  <g
     id="g15"
     transform="translate(-65.163105,-68.009322)">
    <path
       style="fill:#000000;fill-opacity:1"
       d="M 557,1039.529 V 1019 h 100.54216 c 109.59677,0 109.51451,0 120.89874,-5.6902 6.33885,-3.1705 9.22856,-5.7857 11.68379,-10.5736 1.68678,-3.28942 1.89509,-5.55826 1.65268,-18.00002 L 791.5,970.5 l -21,-0.24328 c -11.55,-0.1338 -47.1,-0.40136 -79,-0.59458 -63.545,-0.38488 -64.38416,-0.4523 -84.24313,-6.76869 -28.54623,-9.07948 -48.31913,-26.73789 -51.06025,-45.59993 -0.38314,-2.63643 -0.55944,-37.08102 -0.39178,-76.54352 L 556.10967,769 H 587.05484 618 v 71.80366 71.80365 l 2.53311,5.08329 c 2.98896,5.99806 7.69684,9.57482 16.63532,12.63851 6.27505,2.15078 6.9966,2.17016 80.83157,2.17052 l 74.5,3.7e-4 0.5,-81.7804 0.5,-81.78041 31,3e-4 31,2.9e-4 v 116.78011 c 0,110.52327 -0.0985,117.10161 -1.83871,122.78011 -7.32635,23.9071 -27.73467,39.646 -62.66129,48.3245 l -10.5,2.6089 -111.75,0.3123 -111.75,0.3123 z m 931.0398,-26.5066 c -1.5458,-1.3873 -7.2073,-6.5724 -12.5812,-11.5224 -5.3739,-4.95 -11.5993,-10.575 -13.8342,-12.5 -2.235,-1.925 -7.3709,-6.65 -11.4133,-10.5 -4.0423,-3.85 -8.214,-7.40426 -9.2704,-7.89835 -1.169,-0.54677 -7.893,-0.4019 -17.1807,0.37015 -8.393,0.69769 -36.635,1.48448 -62.76,1.74844 -45.123,0.45591 -48.1255,0.37331 -60,-1.65075 -34.8013,-5.93206 -58.4183,-19.65013 -68.0288,-39.51489 -7.0902,-14.65546 -6.9733,-12.88384 -6.9538,-105.36998 0.019,-90.67018 0,-90.38556 5.9787,-102.52521 10.5987,-21.52892 33.3603,-34.70475 69.5039,-40.23306 6.9714,-1.06631 25.2288,-1.39483 81,-1.45751 68.0158,-0.0764 72.6462,0.0312 83.6777,1.94578 40.6053,7.04711 64.8206,24.9863 70.9827,52.58538 1.0632,4.76221 1.3351,23.63856 1.3179,91.5 -0.024,93.89603 0.1184,91.4731 -6.1523,104.8118 -3.6623,7.79028 -13.8473,17.73416 -23.076,22.52982 -3.9875,2.07209 -7.25,4.1929 -7.25,4.71291 0,0.52001 0.8065,1.73297 1.7922,2.69547 2.8362,2.76946 22.3013,20.5349 26.6462,24.31947 2.1661,1.88679 6.8911,6.16915 10.5,9.51635 3.6089,3.3472 9.3313,8.52218 12.7164,11.49998 3.3852,2.9778 6.0477,5.8642 5.9167,6.4142 -0.1529,0.642 -12.496,1.008 -34.4797,1.0224 l -34.2416,0.022 -2.8104,-2.5223 z M 1397,930.98237 c 0,-0.43147 -2.7994,-3.19151 -6.221,-6.13343 -3.4215,-2.94192 -8.934,-7.87872 -12.25,-10.97068 -3.3159,-3.09196 -7.7401,-7.21737 -9.8315,-9.16759 -2.0914,-1.95022 -5.2943,-4.82044 -7.1177,-6.37826 -5.5565,-4.74738 -12.3264,-11.11343 -13.0312,-12.25385 -0.4719,-0.76354 9.5266,-1.07856 34.233,-1.07856 h 34.8995 l 7.9095,7.14081 c 4.3502,3.92745 9.7094,8.74083 11.9094,10.69641 2.2,1.95558 8.7835,7.96722 14.6301,13.35919 5.8465,5.39198 11.3389,9.80359 12.2053,9.80359 2.2904,0 11.9191,-9.82768 14.2064,-14.5 1.8866,-3.85381 1.9682,-6.89129 2.2314,-83.11303 0.2686,-77.78163 0.2387,-79.1933 -1.7717,-83.88345 -1.1247,-2.62373 -3.4189,-6.50533 -5.0983,-8.62578 -4.1326,-5.21777 -17.0062,-11.50245 -26.4572,-12.91596 -4.5299,-0.67749 -27.4313,-0.93585 -64,-0.722 -49.9199,0.29193 -57.651,0.54171 -62.6598,2.02448 -9.0932,2.69188 -14.9436,5.85095 -19.8801,10.73482 -8.3632,8.27403 -8.0038,3.94316 -7.6856,92.59789 L 1293.5,905.5 l 2.6019,5.54726 c 4.1535,8.85542 12.1955,15.39335 23.3981,19.02205 2.7966,0.90585 14.3795,1.4664 38.5,1.86317 34.8417,0.57314 39,0.47184 39,-0.95011 z M 264.13086,974.459 C 249.47825,971.27963 237.8042,962.68149 230.66625,949.81172 228.74088,946.34027 222.45557,932.925 216.69889,920 196.48042,874.60511 133.43911,734.04265 130.13971,727 c -1.5325,-3.27116 -1.6724,4.6401 -2.13971,121 l -0.5,124.5 h -31 -31 L 65.2243,845 C 65.033902,756.94888 65.283666,715.47226 66.031543,710.94629 68.208967,697.76904 76.489848,687.65452 89,682.89191 c 18.92545,-7.20492 44.43199,-9.96946 59.27553,-6.4246 16.55221,3.95291 30.90548,14.92566 37.97714,29.03269 1.92996,3.85 19.71456,44.575 39.52134,90.5 19.80678,45.925 38.14908,88.45 40.76067,94.5 2.61158,6.05 6.95945,16.175 9.66193,22.5 2.70248,6.325 5.27322,11.86191 5.71275,12.30425 0.43953,0.44234 2.62688,-3.38266 4.86079,-8.5 5.00084,-11.45575 25.62362,-57.82472 28.15481,-63.30425 1.01625,-2.2 6.436,-14.35 12.04388,-27 5.60787,-12.65 10.8228,-24.35 11.58872,-26 0.76593,-1.65 10.38628,-23.19922 21.37857,-47.88714 10.99229,-24.68793 21.42376,-47.25947 23.18104,-50.15896 6.89697,-11.37996 18.25589,-20.36078 31.05525,-24.55356 6.51425,-2.13391 9.10351,-2.39787 23.32758,-2.37809 14.23836,0.0198 17.15608,0.32687 26.5,2.78893 23.17094,6.1054 32.44883,13.49638 36.64065,29.18882 1.08143,4.04844 1.33787,29.79098 1.34748,135.26445 L 502,973.0289 471.25,972.76445 440.5,972.5 440.24609,848.25 c -0.13964,-68.3375 -0.58964,-124.24469 -1,-124.23821 -0.41035,0.006 -7.01209,14.06899 -14.67053,31.25 -7.65844,17.18102 -18.08783,40.46321 -23.17642,51.73821 -5.08858,11.275 -21.00962,46.825 -35.38008,79 -14.37046,32.175 -27.86375,61.425 -29.98509,65 -7.65716,12.90432 -18.10248,20.4457 -32.53397,23.48908 -8.81557,1.85907 -30.73992,1.84232 -39.36914,-0.0301 z m 1656.96864,-1.59765 c -27.0376,-8.5597 -39.4886,-38.54198 -26.7085,-64.31441 13.9418,-28.11481 52.6581,-33.54309 74.0951,-10.3886 16.8918,18.24512 16.6449,45.36203 -0.5722,62.84851 -12.3052,12.4977 -30.3497,17.06699 -46.8144,11.8545 z m 29.056,-9.10487 c 14.7399,-6.83046 22.9362,-21.19479 21.5472,-37.76238 -0.9343,-11.14462 -6.3068,-20.89552 -15.0958,-27.39831 -6.7019,-4.95858 -13.8329,-6.8772 -23.9523,-6.44449 -6.5581,0.28043 -9.2674,0.91258 -13.8388,3.22891 -26.7876,13.57348 -27.5678,53.52137 -1.3158,67.37301 9.4909,5.00779 23.1109,5.42623 32.6555,1.00326 z m -32.9225,-34.4451 0.267,-25.81138 13.2173,0.2651 c 7.2695,0.1458 14.903,0.8208 16.9634,1.5 8.276,2.72814 11.3609,14.959 5.415,21.46896 -1.5973,1.74889 -4.1848,3.48622 -5.75,3.86075 -4.8023,1.14916 -5.5138,2.2347 -3.439,5.24647 1.7855,2.59164 9.9992,15.41258 11.4732,17.90872 0.5396,0.91372 -0.3258,1.25 -3.2166,1.25 -3.6905,0 -4.1725,-0.35087 -7.2127,-5.25 -1.7918,-2.8875 -4.4099,-6.98792 -5.8179,-9.11204 -1.408,-2.12412 -3.0371,-4.82412 -3.6202,-6 -0.8189,-1.65148 -2.1356,-2.20731 -5.7863,-2.44275 -2.5994,-0.16764 -4.7809,0.0574 -4.8477,0.5 -0.067,0.44263 -0.2313,5.52979 -0.3654,11.30479 l -0.2438,10.5 -3.6516,0.31138 -3.6517,0.31138 z m 28.1841,-5.42483 c 2.2512,-1.77076 2.6378,-2.76796 2.3849,-6.15003 -0.4373,-5.84583 -3.6241,-7.89712 -13.2258,-8.51333 -9.817,-0.63001 -10.5762,-0.003 -10.5762,8.73259 0,3.69099 0.3,7.01089 0.6667,7.37755 0.3666,0.36667 4.5809,0.66667 9.3651,0.66667 7.3399,0 9.1181,-0.33008 11.3853,-2.11345 z M 905.40653,969.48359 c -0.46312,-1.84519 0.008,-36.48517 0.52026,-38.23359 0.0403,-0.1375 41.18679,-0.25 91.43672,-0.25 57.18959,0 93.35089,-0.37691 96.67679,-1.00765 11.465,-2.17428 21.8159,-9.01112 26.0444,-17.20251 1.7192,-3.33026 1.9149,-5.99252 1.9116,-26 0,-19.87709 -0.2029,-22.61633 -1.8432,-25.30603 -4.6022,-7.54669 -11.5777,-12.05396 -23.4305,-15.13987 -5.125,-1.33431 -15.1304,-1.74908 -56.7226,-2.35143 -52.16219,-0.75544 -56.6342,-1.09051 -74.2913,-5.56635 -28.41118,-7.20187 -47.95302,-20.16326 -55.99364,-37.13856 L 906.5,794.5 v -30 -30 l 2.78197,-7.86629 c 3.25081,-9.19198 6.61253,-14.40014 13.34528,-20.67523 9.89641,-9.22368 20.52647,-14.84479 36.87275,-19.49809 17.60353,-5.01119 16.3233,-4.96039 125,-4.96039 h 102 l 0.2717,19.27307 c 0.2223,15.77183 0.018,19.37057 -1.127,19.80979 -0.7693,0.2952 -43.1916,0.66906 -94.2717,0.8308 -98.88819,0.31312 -102.46153,0.47891 -112.17399,5.20427 -8.04002,3.91167 -10.11321,7.74706 -11.37428,21.04242 -1.51231,15.94407 -0.59943,33.46058 2.11407,40.56549 3.23899,8.48078 10.07978,13.86211 21.54931,16.95182 2.47903,0.66782 25.40829,1.35831 60.01189,1.80721 51.4111,0.66694 56.7602,0.89625 65.2772,2.79833 8.6373,1.92895 20.0695,5.25566 24.7228,7.19418 4.5198,1.88293 16.0352,7.55531 16.5,8.12776 0.275,0.33869 1.9875,1.37808 3.8056,2.30975 3.7784,1.93625 12.8167,10.53601 16.0765,15.29643 1.2095,1.76623 3.0808,5.77418 4.1585,8.90656 1.7717,5.1498 1.9583,8.48146 1.9475,34.78867 -0.013,31.19335 -0.4248,34.64111 -5.2837,44.20395 -10.0635,19.80584 -39.9647,35.82612 -74.5468,39.94025 -9.1357,1.08684 -31.8263,1.39361 -104.88855,1.41806 L 906.0381,972 Z M 1679,971.31646 c -20.2542,-1.5039 -41.4727,-5.57965 -54,-10.37255 -22.1066,-8.45793 -37.7123,-24.10524 -42.9724,-43.08697 -1.9073,-6.88253 -1.9748,-10.87473 -2.0577,-121.73642 l -0.086,-114.62052 30.5332,-0.26442 30.5332,-0.26441 0.2747,113.26441 c 0.2729,112.53277 0.2882,113.29349 2.3665,117.76442 3.0612,6.58523 6.8291,10.56958 12.7219,13.45267 11.1271,5.44399 13.1706,5.54733 109.6925,5.54733 48.8566,0 89.542,0.27314 90.412,0.60699 1.369,0.52535 1.5818,3.28267 1.5818,20.5 V 972 l -87.25,-0.17471 c -47.9875,-0.0961 -89.275,-0.32506 -91.75,-0.50883 z M 1963.8586,763.5517 C 1938.1569,741.65963 1925.868,733.56411 1896,718.84862 c -14.575,-7.18087 -30.249,-15.49812 -34.831,-18.48277 -14.7103,-9.58192 -31.7788,-23.0708 -37.8068,-29.87789 -6.3196,-7.13651 -16.3542,-21.18267 -16.3749,-22.92117 -0.01,-0.58673 -1.3774,-3.7582 -3.0454,-7.04771 -4.5561,-8.98532 -3.4032,-10.37463 13.431,-16.18489 15.6624,-5.40581 29.1433,-9.18899 38.5464,-10.8174 10.598,-1.83535 33.0081,-3.49631 47.3307,-3.50801 9.5239,-0.008 10.75,-0.20625 10.75,-1.7401 0,-2.69964 -11.7961,-13.20029 -21.6101,-19.23688 -4.8894,-3.00751 -14.9649,-9.79208 -22.3899,-15.07682 -20.0167,-14.24687 -33.8194,-23.33436 -40.5287,-26.68353 -6.9341,-3.46134 -33.2223,-13.20895 -51.9713,-19.27085 -17.2364,-5.57283 -23.9743,-9.20513 -28.7536,-15.5006 -7.4836,-9.85756 -18.3713,-30.25435 -28.0243,-52.5 -2.506,-5.775 -8.918,-19.725 -14.249,-31 -19.1548,-40.51236 -23.2729,-49.70809 -28.4368,-63.5 -18.0867,-48.30712 -62.1281,-108.2424 -109.9697,-149.65625 -35.7541,-30.95036 -77.8378,-56.48035 -111.8447,-67.85043 -10.0514,-3.36065 -14.4392,-4.26553 -24.484,-5.04927 -6.7308,-0.52517 -16.5129,-1.40677 -21.7379,-1.9591 -5.225,-0.55233 -11.8112,-0.9999 -14.636,-0.9946 -4.3797,0.008 -5.9997,-0.58701 -11,-4.04185 -3.2252,-2.22832 -8.564,-6.30327 -11.864,-9.05544 -11.0894,-9.24845 -39.4818,-23.93091 -58.7353,-30.37353 -17.8081,-5.958953 -26.6724,-4.503694 -30.9093,5.07438 -1.5057,3.40396 -1.8386,5.58761 -1.3297,8.72333 1.0614,6.54127 7.576,19.41197 14.265,28.18276 3.3556,4.4 9.5504,12.5 13.7663,18 10.5603,13.77686 20.8998,29.46954 25.684,38.9818 2.2079,4.38999 9.3078,23.97968 15.7775,43.53263 6.4697,19.55295 13.759,39.81114 16.1984,45.0182 6.7361,14.37869 15.1822,27.2757 23.9774,36.61305 4.3661,4.63523 8.5836,9.97173 9.3721,11.85889 3.1919,7.63931 1.3496,18.11149 -7.2999,41.49543 -8.67,23.43945 -11.0211,35.67845 -11.9185,62.04411 -1.2019,35.30854 3.7973,63.17998 16.0262,89.34907 5.36,11.47003 9.4025,16.87509 15.5255,20.75814 8.4274,5.34454 9.3945,4.19948 11.1066,-13.15132 1.5872,-16.08501 4.4191,-33.98588 6.9606,-44 3.1553,-12.43261 8.7311,-22.96621 18.8925,-35.69139 8.6493,-10.83147 8.9923,-11.13001 10.6638,-9.28298 0.9499,1.04962 2.5178,4.73574 3.4843,8.19138 3.7077,13.25645 18.7458,46.20906 32.6403,71.52347 25.447,46.36196 47.8838,78.188 69.6058,98.73404 6.1204,5.78902 10.6802,10.52548 10.1329,10.52548 -2.3199,0 -10.5285,-6.40932 -19.3881,-15.13838 -5.2259,-5.14889 -14.0009,-12.96162 -19.5,-17.36162 -12.2018,-9.76298 -33.5133,-30.33197 -41.9619,-40.5 -9.6444,-11.6071 -13.5174,-17.90465 -24.5149,-39.86161 -6.0128,-12.00482 -10.5663,-19.99372 -11.0947,-19.46524 -1.1063,1.10627 -3.3404,13.22448 -5.9598,32.32685 -1.0935,7.975 -2.6939,16.975 -3.5563,20 -4.2064,14.75345 -13.4055,22.02961 -27.7865,21.97804 -11.1684,-0.04 -21.8781,-6.95138 -32.2579,-20.8171 -7.4162,-9.90673 -16.9861,-28.77786 -20.794,-41.00371 -12.046,-38.67631 -12.6296,-85.83093 -1.5676,-126.65723 1.6393,-6.05 3.9042,-15.24914 5.0331,-20.44254 1.1289,-5.1934 3.1878,-12.28012 4.5753,-15.74828 1.5993,-3.99757 2.2765,-7.12995 1.8502,-8.55745 -0.3699,-1.23845 -3.0587,-4.72673 -5.9751,-7.75173 -12.5033,-12.96887 -27.42,-41.63658 -39.0249,-75 -1.8174,-5.225 -4.6372,-13.1 -6.2662,-17.5 -1.629,-4.4 -4.3773,-13.10004 -6.1072,-19.33341 -3.0811,-11.10176 -6.693,-19.46777 -11.9154,-27.59869 -2.5011,-3.89409 -18.4334,-25.31596 -31.183,-41.92742 -8.1786,-10.65578 -13.4439,-19.74564 -16.6091,-28.67366 -8.2239,-23.19656 2.4269,-47.448711 23.7532,-54.086176 8.1514,-2.537025 21.7653,-2.489707 32.6233,0.113389 22.5048,5.395295 54.5746,21.111062 70.7768,34.684017 12.0674,10.10917 11.5468,9.92884 32.4642,11.24463 16.1714,1.01725 20.7028,1.71245 36,5.52307 28.9424,7.2097 34.9965,9.89448 66.1737,29.34572 68.0798,42.47452 119.082,93.70297 161.2212,161.93646 7.8074,12.64211 12.5107,22.29104 18.967,38.91145 8.4372,21.71959 19.0974,45.79397 33.0759,74.69656 23.3652,48.31099 31.6802,64.56213 34.9724,68.35125 2.4995,2.87669 5.4302,4.85726 9.364,6.32812 7.4457,2.78401 39.4563,17.08499 49.7258,22.21539 20.5491,10.26584 77.4825,52.52012 94.1687,69.88912 8.8314,9.19285 20.4737,24.88287 20.1374,27.13861 -0.2562,1.71838 -2.4946,2.68159 -13.7344,5.91007 -7.5059,2.15597 -18.7524,4.51415 -25.5,5.34688 -23.4916,2.89911 -27.5253,3.60348 -39.7347,6.93843 -6.7853,1.8534 -15.1495,3.91806 -18.587,4.58812 -3.4375,0.67005 -6.25,1.52163 -6.25,1.89239 0,0.37077 1.2771,2.67472 2.838,5.1199 5.2362,8.20246 14.4744,15.34241 38.662,29.88092 21.7336,13.06349 43.6252,31.65537 58.1194,49.35924 3.6949,4.51309 10.2189,11.80562 14.4976,16.20562 5.7738,5.93735 8.5723,9.77746 10.8541,14.89392 1.6909,3.79165 2.888,7.08026 2.6603,7.30802 -0.2278,0.22776 -2.8255,-1.63985 -5.7728,-4.15024 z M 1423.0321,221.75 c -3.161,-6.75922 -7.1115,-13.37835 -9.8966,-16.5818 -2.5495,-2.9325 -6.0933,-7.41723 -7.8751,-9.96608 -3.9176,-5.60414 -3.6207,-5.87508 7.4472,-6.79811 l 8.0145,-0.66839 6.389,4.96184 c 10.7006,8.31041 14.1636,18.27026 10.2976,29.61633 -1.5471,4.54065 -6.2418,10.68621 -8.1633,10.68621 -0.5237,0 -3.3197,-5.0625 -6.2133,-11.25 z"
       id="path99" />
  </g>
</svg>
