<?xml version="1.0" encoding="UTF-8" standalone="no"?>
<!-- Created with Inkscape (http://www.inkscape.org/) -->

<svg
   version="1.1"
   id="svg222"
   width="1165.9613"
   height="1166.621"
   viewBox="0 0 1165.9613 1166.621"
   xmlns="http://www.w3.org/2000/svg"
   xmlns:svg="http://www.w3.org/2000/svg">
  <defs
     id="defs226" />
  <g
     id="g228"
     transform="translate(-260.39991,-246.75522)">
    <g
       id="g587"
       transform="translate(29.821192,16.774419)"
       style="fill:#000000">
      <path
         style="fill:#000000;fill-opacity:1;stroke-width:2.71186"
         d="m 785.06028,1069.1527 0.0245,-216.27131 69.15255,-0.0686 69.15254,-0.0686 -68.45836,0.79241 -68.45836,0.79238 -0.71867,215.54762 -0.7187,215.5476 0.0244,-216.2713 z m 458.32962,170.1694 c 2.6996,-2.9831 5.5186,-5.4238 6.2643,-5.4238 0.7458,0 -0.8528,2.4407 -3.5525,5.4238 -2.6996,2.983 -5.5186,5.4237 -6.2643,5.4237 -0.7458,0 0.8528,-2.4407 3.5525,-5.4237 z m 1.1506,-208.1356 -6.5744,-7.4577 7.4577,6.5744 c 6.9702,6.1448 8.7012,8.3409 6.5744,8.3409 -0.4858,0 -3.8417,-3.3559 -7.4577,-7.4576 z M 570.00943,852.21218 c 18.92892,-0.46552 50.65774,-0.46677 70.50848,-0.003 19.85076,0.46397 4.36347,0.84485 -34.41619,0.8464 -38.77967,0.002 -55.02119,-0.37806 -36.09229,-0.84358 z m 575.07537,-10.69169 c 2.6102,-0.68209 6.8813,-0.68209 9.4915,0 2.6102,0.68212 0.4746,1.24022 -4.7458,1.24022 -5.2203,0 -7.3559,-0.5581 -4.7457,-1.24022 z m 116.3604,-11.68995 c 0,-3.72882 0.6155,-5.25424 1.3678,-3.38983 0.7523,1.8644 0.7523,4.91525 0,6.77966 -0.7523,1.8644 -1.3678,0.33898 -1.3678,-3.38983 z M 987.11868,807.11173 c 0,-0.56312 2.13559,-2.69871 4.74576,-4.74576 4.30118,-3.37321 4.3971,-3.27729 1.02389,1.02389 -3.5427,4.51729 -5.76965,5.95384 -5.76965,3.72187 z"
         id="path593" />
      <path
         style="fill:#000000;fill-opacity:1;stroke-width:2.71186"
         d="m 1149.8305,1178.6372 c 0,-0.5632 2.1356,-2.6987 4.7458,-4.7458 4.3012,-3.3732 4.3971,-3.2773 1.0239,1.0239 -3.5427,4.5173 -5.7697,5.9538 -5.7697,3.7219 z M 923.14924,805.42376 c 0,-26.1017 0.40672,-36.77967 0.90386,-23.72882 0.49711,13.05085 0.49711,34.40678 0,47.45763 -0.49714,13.05085 -0.90386,2.37288 -0.90386,-23.72881 z"
         id="path591" />
      <path
         style="fill:#000000;fill-opacity:1;stroke-width:2.71186"
         d="m 246.77967,1391.8603 c -6.46536,-3.2299 -10.5235,-7.7678 -12.72829,-14.2331 -2.46435,-7.2265 -3.2733,-142.0177 -3.38983,-564.83292 -0.16944,-614.70566 -1.49195,-570.46827 17.28935,-578.3156 14.35326,-5.99717 1116.8636,-5.99717 1131.2169,0 18.7813,7.84733 17.4588,-36.39006 17.2894,578.3156 -0.1167,422.81522 -0.9255,557.60642 -3.3899,564.83292 -2.2048,6.4653 -6.2629,11.0032 -12.7283,14.2331 -8.9439,4.4679 -41.6447,4.7415 -566.77965,4.7415 -525.13499,0 -557.83578,-0.2736 -566.77968,-4.7415 z M 1342.3729,813.55935 V 284.74577 H 813.55935 284.74577 V 813.55935 1342.3729 H 813.55935 1342.3729 Z M 675.25426,1068.4746 V 851.52545 h -69.15254 -69.15255 v -46.10169 -46.1017 h 192.54238 192.54238 v 46.1017 46.10169 h -69.15254 -69.15255 v 216.94915 216.9492 h -54.23729 -54.23729 z m 366.80954,210.1677 c -13.7801,-2.1002 -38.492,-7.0315 -54.91521,-10.9585 l -29.86042,-7.1399 v -55.3567 c 0,-30.4461 0.40187,-55.3567 0.89304,-55.3567 0.49118,0 10.26609,5.3415 21.72204,11.87 11.45594,6.5284 32.71505,15.9506 47.24255,20.9381 24.7716,8.5045 28.6894,9.0731 63.0237,9.147 33.1312,0.071 37.8513,-0.5322 49.6705,-6.3514 15.6446,-7.7026 25.5389,-21.4373 27.9111,-38.7446 4.0277,-29.3849 -8.6717,-42.5399 -74.064,-76.7218 -25.0533,-13.0959 -54.0789,-29.4488 -64.5014,-36.3398 -50.23491,-33.2135 -74.66784,-75.51789 -74.56931,-129.11299 0.21749,-118.22951 100.52711,-166.95772 278.42811,-135.25416 13.6999,2.44147 26.2939,5.29495 27.9866,6.34113 2.2264,1.37595 2.5523,15.32816 1.1784,50.43821 l -1.8994,48.53611 -20.3627,-9.97416 c -31.4856,-15.4225 -59.4549,-22.13469 -91.4728,-21.95202 -29.7474,0.16976 -44.8718,4.19083 -60.4479,16.07135 -17.1349,13.06942 -24.7621,42.65936 -15.5752,60.42476 7.7609,15.00789 28.894,29.80347 73.937,51.76431 54.096,26.37462 82.3991,44.17366 100.1952,63.01016 26.4182,27.9625 37.0335,55.392 36.9863,95.5709 -0.09,76.9359 -34.9457,124.3758 -106.6651,145.1769 -26.3808,7.6513 -97.0479,9.7339 -134.8411,3.9738 z"
         id="path589" />
    </g>
  </g>
</svg>
