<?xml version="1.0" encoding="UTF-8" standalone="no"?>
<!-- Created with Inkscape (http://www.inkscape.org/) -->

<svg
   version="1.1"
   id="svg9"
   width="300"
   height="300"
   viewBox="0 0 300 300"
   xmlns="http://www.w3.org/2000/svg"
   xmlns:svg="http://www.w3.org/2000/svg">
  <defs
     id="defs13" />
  <g
     id="g15">
    <path
       style="fill:#000000;fill-opacity:1"
       d="m 146.25923,298.89295 c -1.40712,-0.42697 -3.65712,-1.34212 -5,-2.03366 -1.34288,-0.69153 -32.52796,-31.24101 -69.300181,-67.88772 C 2.2887873,159.53909 0.30975728,157.33827 0.35362128,149.34118 0.39068128,142.58405 3.5144013,139.00563 49.771747,92.729476 L 95.725866,46.75667 112.50956,63.548928 129.29325,80.341186 128.1741,83.97247 c -2.39551,7.772602 2.1871,19.28631 9.58348,24.07827 l 3.53529,2.29044 -0.0487,41 -0.0487,41 -4.13305,3.00036 c -4.77975,3.46983 -7.11506,7.08043 -8.89315,13.74964 -3.54112,13.28196 8.05043,27.7169 22.27629,27.74062 9.86076,0.0164 17.44267,-4.72542 21.50525,-13.44975 4.4617,-9.58144 2.67568,-18.3544 -5.34346,-26.24721 l -5.28972,-5.20634 v -39.78116 -39.78115 l 14.9453,14.92038 14.94529,14.92038 -0.57511,6.15875 c -0.96203,10.30215 2.79929,18.11427 11.04937,22.94915 15.47225,9.06734 34.63515,-1.89949 34.63515,-19.82151 0,-3.14402 -0.61871,-7.19717 -1.3749,-9.00701 -3.83809,-9.18583 -14.33909,-15.38424 -24.15373,-14.25718 l -5.02862,0.57746 -16.23335,-16.25575 -16.23336,-16.255739 0.61506,-4.487315 c 1.25975,-9.190922 -4.09511,-19.247333 -12.5911,-23.646021 -3.57036,-1.848508 -5.91023,-2.295312 -11.32632,-2.162793 l -6.82633,0.167024 -16.42367,-16.401049 c -9.03303,-9.020577 -16.42368,-16.656425 -16.42368,-16.968551 0,-0.312126 6.4125,-7.015712 14.25,-14.896857 14.35156,-14.4314831 19.37364,-18.01444924 25.25,-18.01444924 7.7595,0 9.71165,1.75226654 78.81686,70.74650924 36.74927,36.690251 67.62291,68.284561 68.6081,70.209561 2.9126,5.69108 3.27158,8.8158 1.64812,14.34582 -1.43662,4.89355 -4.96767,8.60706 -69.82937,73.43772 -63.09302,63.06282 -68.68878,68.39567 -73.1889,69.75 -5.36833,1.61563 -5.9019,1.64439 -9.61321,0.51823 z"
       id="path99" />
  </g>
</svg>
