<?xml version="1.0" encoding="UTF-8" standalone="no"?>
<!-- Created with Inkscape (http://www.inkscape.org/) -->

<svg
   version="1.1"
   id="svg9"
   width="6816"
   height="2598"
   viewBox="0 0 6816 2598"
   xmlns="http://www.w3.org/2000/svg"
   xmlns:svg="http://www.w3.org/2000/svg">
  <defs
     id="defs13" />
  <g
     id="g15">
    <g
       id="g311">
      <path
         style="fill:#e6e6e6;fill-opacity:1"
         d="M 69,1297.5 V 75 H 601.5 1134 V 1297.5 2520 H 601.5 69 Z M 1050,2160 V 1959 H 601.5 153 v 201 201 H 601.5 1050 Z m 0,-537 V 1422 H 601.5 153 v 201 201 H 601.5 1050 Z m 0,-537 V 885 H 601.5 153 v 201 201 H 601.5 1050 Z m 0,-537 V 348 H 601.5 153 V 549 750 H 601.5 1050 Z M 302.16459,264.24032 c 11.63535,-5.72909 17.87766,-15.12226 19.99379,-30.08587 3.04731,-21.54815 -4.8634,-39.58226 -20.54095,-46.82738 -5.75968,-2.66174 -6.90814,-2.82707 -19.63846,-2.82707 -13.26902,0 -13.64566,0.0614 -20.20802,3.292 -14.3973,7.08776 -20.57151,20.15647 -19.53712,41.35344 0.98568,20.19893 8.62609,31.74461 24.44374,36.93775 4.6189,1.51645 8.20413,1.86045 17.34463,1.6642 10.73335,-0.23045 11.97545,-0.47056 18.14239,-3.50707 z m -29.66151,-18.53724 c -4.15331,-4.15331 -5.49193,-8.9558 -5.49193,-19.70308 0,-10.74728 1.33862,-15.54977 5.49193,-19.70308 2.95115,-2.95115 3.88944,-3.29692 8.94658,-3.29692 12.0092,0 15.9333,5.66451 15.9333,23 0,17.33549 -3.9241,23 -15.9333,23 -5.05714,0 -5.99543,-0.34577 -8.94658,-3.29692 z M 441.5,265.53257 c 14.97968,-4.24232 26.46553,-12.61082 31.82519,-23.1876 4.56234,-9.00334 6.07372,-16.67879 6.07372,-30.84497 0,-19.42696 -3.68894,-30.63962 -13.48973,-41.00251 -5.72915,-6.05774 -11.56412,-9.42861 -21.90918,-12.65698 -6.92937,-2.16244 -9.09776,-2.33161 -28.5,-2.22353 -13.92174,0.0775 -23.02236,0.58314 -27,1.5 l -6,1.38302 v 54 54 l 4.5,0.65223 c 2.475,0.35873 14.4,0.52338 26.5,0.3659 17.00223,-0.22129 23.36303,-0.67235 28,-1.98556 z M 413.75,247.2001 408,246.90019 v -34.83346 -34.83347 l 2.25,-0.60297 c 4.28155,-1.14742 19.40692,-0.62435 24.3185,0.84099 6.39704,1.9085 11.88712,6.52092 14.94542,12.55619 4.72147,9.31737 5.5891,26.5279 1.95437,38.76736 -1.85983,6.26272 -8.14115,13.4549 -13.70194,15.68887 -4.85385,1.94997 -15.53917,3.15854 -24.01635,2.7164 z m 139.41459,17.04022 c 11.63535,-5.72909 17.87766,-15.12226 19.99379,-30.08587 3.04731,-21.54815 -4.8634,-39.58226 -20.54095,-46.82738 -5.75968,-2.66174 -6.90814,-2.82707 -19.63846,-2.82707 -13.26902,0 -13.64566,0.0614 -20.20802,3.292 -14.3973,7.08776 -20.57151,20.15647 -19.53712,41.35344 0.98568,20.19893 8.62609,31.74461 24.44374,36.93775 4.6189,1.51645 8.20413,1.86045 17.34463,1.6642 10.73335,-0.23045 11.97545,-0.47056 18.14239,-3.50707 z m -29.66151,-18.53724 c -4.15331,-4.15331 -5.49193,-8.9558 -5.49193,-19.70308 0,-10.74728 1.33862,-15.54977 5.49193,-19.70308 2.95115,-2.95115 3.88944,-3.29692 8.94658,-3.29692 12.0092,0 15.9333,5.66451 15.9333,23 0,17.33549 -3.9241,23 -15.9333,23 -5.05714,0 -5.99543,-0.34577 -8.94658,-3.29692 z M 214,221.5 V 176 h 17.5 17.5 v -10 -10 h -48 -48 v 10 10 h 18 18 v 45.5 45.5 h 12.5 12.5 z m 977,1076 V 75 H 1723.5 2256 V 1297.5 2520 H 1723.5 1191 Z M 2172,549 V 348 H 1723.5 1275 V 549 750 H 1723.5 2172 Z M 1651.3113,299.41933 c 8.0896,-2.09622 11.3345,-3.82029 16.5212,-8.77807 10.2426,-9.79041 11.1282,-14.86173 11.1501,-63.85272 l 0.017,-38.71145 -3.75,-0.98731 c -15.1814,-3.99702 -40.3998,-4.10713 -50.3948,-0.22005 -11.1792,4.34758 -19.0065,12.37798 -22.5451,23.13027 -2.6375,8.01414 -2.5611,28.47569 0.1335,35.739 3.0636,8.25792 8.2087,14.26084 15.4246,17.99633 5.4239,2.80774 7.3231,3.26467 13.5699,3.26467 8.5549,0 12.721,-1.20236 17.7533,-5.1236 2.0302,-1.58202 4.0043,-2.8764 4.3869,-2.8764 0.3825,0 0.4564,2.97909 0.1641,6.62021 -0.5624,7.00672 -2.1602,10.10938 -7.1087,13.80399 -3.8072,2.84242 -21.0951,3.47395 -32.3988,1.18353 -4.364,-0.88425 -8.2271,-1.60773 -8.5847,-1.60773 -0.3576,0 -0.6502,4.26643 -0.6502,9.48095 0,9.00355 0.1133,9.50845 2.25,10.02727 11.8838,2.88551 34.627,3.3558 44.0613,0.91111 z m -20.6426,-55.40539 c -4.4346,-3.89357 -5.9799,-9.53997 -5.5227,-20.17877 0.6373,-14.82951 6.0805,-20.78679 19.0222,-20.81872 10.5814,-0.0261 9.8318,-1.59706 9.8318,20.60524 v 19.40771 l -3.25,1.98156 c -2.3857,1.45459 -5.0358,1.98256 -9.9652,1.9853 -6.0311,0.003 -7.0617,-0.30046 -10.1161,-2.98232 z M 1343.5,265.53257 c 14.9797,-4.24232 26.4655,-12.61082 31.8252,-23.1876 4.5623,-9.00334 6.0737,-16.67879 6.0737,-30.84497 0,-19.42696 -3.6889,-30.63962 -13.4897,-41.00251 -5.7292,-6.05774 -11.5641,-9.42861 -21.9092,-12.65698 -6.9294,-2.16244 -9.0978,-2.33161 -28.5,-2.22353 -13.9217,0.0775 -23.0224,0.58314 -27,1.5 l -6,1.38302 v 54 54 l 4.5,0.65223 c 2.475,0.35873 14.4,0.52338 26.5,0.3659 17.0022,-0.22129 23.363,-0.67235 28,-1.98556 z m -27.75,-18.33247 -5.75,-0.29991 v -34.83346 -34.83347 l 2.25,-0.60297 c 4.2816,-1.14742 19.4069,-0.62435 24.3185,0.84099 6.397,1.9085 11.8871,6.52092 14.9454,12.55619 4.7215,9.31737 5.5891,26.5279 1.9544,38.76736 -1.8598,6.26272 -8.1412,13.4549 -13.702,15.68887 -4.8538,1.94997 -15.5391,3.15854 -24.0163,2.7164 z m 142.9181,19.69725 6.3319,-1.10266 v -9.40916 -9.40917 l -4.25,0.76182 c -7.8457,1.40636 -29.9472,0.91514 -33.2127,-0.73818 -3.782,-1.91484 -7.5373,-7.46902 -7.5373,-11.14788 V 233 h 24.5 24.5 l -0.012,-8.75 c -0.027,-19.77068 -7.4324,-32.88853 -21.5693,-38.20651 -5.117,-1.92489 -7.3413,-2.16865 -16.4188,-1.7993 -12.2676,0.49914 -17.4562,2.36984 -24.4478,8.81442 -8.543,7.87469 -12.1078,19.39143 -11.3214,36.57562 0.6302,13.7685 3.124,20.82364 9.6625,27.33555 8.1921,8.15881 16.8466,10.86807 35.0248,10.96441 6.8299,0.0362 15.2674,-0.43038 18.75,-1.03684 z M 1420,215.02024 c 0,-5.24843 2.5849,-11.51825 5.5496,-13.46079 1.4121,-0.92527 4.5716,-1.55945 7.7692,-1.55945 4.2882,0 5.9132,0.48564 7.9543,2.37729 2.7498,2.5484 4.7123,8.10706 4.7213,13.37271 l 0.01,3.25 h -13 -13 v -3.97976 z m 106.2298,50.9905 C 1539.0439,262.05287 1546,253.58817 1546,241.95288 c 0,-7.47414 -1.5076,-11.65739 -5.8418,-16.20931 -4.3057,-4.52206 -10.313,-6.87679 -23.5209,-9.21959 -13.3754,-2.3725 -16.3092,-5.30452 -11.2252,-11.21822 2.4101,-2.80338 2.423,-2.80576 15.25,-2.80576 7.0609,0 14.7504,0.37705 17.0879,0.8379 l 4.25,0.8379 v -8.99709 -8.99708 l -6.814,-1.21773 c -10.5293,-1.88169 -30.203,-0.8289 -37.686,2.01667 -11.8483,4.50554 -18.7116,15.16344 -17.1415,26.61862 1.7436,12.72089 8.6543,17.92773 28.5632,21.52078 5.951,1.074 11.206,2.59065 12.25,3.53543 2.707,2.44979 2.328,6.80636 -0.8066,9.27202 -2.31,1.81706 -4.0052,2.07065 -13.75,2.05696 -6.1133,-0.009 -13.8033,-0.64792 -17.0889,-1.42073 -3.2855,-0.77281 -6.323,-1.18922 -6.75,-0.92536 -1.3143,0.81233 -0.9189,16.15551 0.4381,16.99415 6.0023,3.70964 32.6981,4.56503 43.0155,1.3783 z M 1585,226 v -41 h -12.5 -12.5 v 41 41 h 12.5 12.5 z m 138,13.67431 c 0,-27.04657 0.023,-27.34721 2.25,-29.43338 3.1923,-2.99045 7.0889,-4.24578 13.0651,-4.20913 5.786,0.0355 8.1111,1.32867 9.6456,5.36479 0.6239,1.64108 1.0393,13.29873 1.0393,29.16851 V 267 h 12.5753 12.5754 l -0.3254,-31.25 c -0.3139,-30.15496 -0.406,-31.42521 -2.6289,-36.25 -4.9067,-10.65007 -12.8284,-15.47432 -25.4357,-15.49023 -8.6228,-0.0109 -15.6049,2.10857 -21.329,6.47449 -3.6298,2.7686 -3.6659,2.7483 -4.8672,-2.73426 L 1718.9619,185 H 1708.4809 1698 v 41 41 h 12.5 12.5 z m -140.9673,-68.19124 c 8.0218,-4.14822 7.8992,-17.8813 -0.1969,-22.068 -2.3107,-1.19488 -5.0831,-1.52018 -10.5872,-1.24224 -6.933,0.3501 -7.6602,0.60421 -10.3527,3.61764 -2.3844,2.66858 -2.8959,4.13311 -2.8959,8.29105 0,6.09853 1.1205,8.41142 5.3138,10.96825 3.9796,2.42651 14.3981,2.66767 18.7189,0.4333 z M 2313,1297.5 V 75 H 2845.5 3378 V 1297.5 2520 H 2845.5 2313 Z M 3294,1623 V 1422 H 2845.5 2397 v 201 201 h 448.5 448.5 z m 0,-537 V 885 H 2845.5 2397 v 201 201 h 448.5 448.5 z m 0,-537 V 348 H 2845.5 2397 v 201 201 h 448.5 448.5 z m -811.5,-283.08785 4,-1.41566 0.2914,-8.9191 c 0.1603,-4.90551 0.082,-9.46599 -0.1749,-10.13441 -0.3621,-0.94371 -1.7682,-0.90902 -6.2914,0.15523 -7.8222,1.84043 -25.6218,1.80165 -31.8936,-0.0695 -10.6851,-3.18781 -16.7982,-11.75843 -18.5393,-25.99215 -1.2982,-10.61373 0.1502,-22.00632 3.7328,-29.35938 3.0218,-6.20229 8.342,-10.49599 15.7201,-12.68705 6.3064,-1.8728 23.1356,-1.9341 30.8762,-0.11248 3.1467,0.74054 5.9592,1.10851 6.25,0.81772 0.2908,-0.29079 0.5287,-4.96485 0.5287,-10.3868 0,-9.81583 -0.012,-9.86289 -2.75,-10.97915 -1.5125,-0.61659 -9.5742,-1.33414 -17.9149,-1.59456 -11.9203,-0.37217 -16.7886,-0.11225 -22.7536,1.21483 -20.9783,4.66722 -34.8773,18.30082 -39.1346,38.38722 -1.826,8.61575 -1.8081,25.79422 0.036,34.49787 4.0743,19.22946 15.8801,31.35768 35.7188,36.69424 6.1133,1.64446 9.8151,1.90928 22.7983,1.631 10.0155,-0.21467 16.9154,-0.83314 19.5,-1.74788 z m 74.6646,-1.67183 c 11.6353,-5.72909 17.8777,-15.12226 19.9938,-30.08587 3.0473,-21.54815 -4.8634,-39.58226 -20.541,-46.82738 -5.7597,-2.66174 -6.9081,-2.82707 -19.6384,-2.82707 -13.269,0 -13.6457,0.0614 -20.2081,3.292 -14.3972,7.08776 -20.5715,20.15647 -19.5371,41.35344 0.9857,20.19893 8.6261,31.74461 24.4438,36.93775 4.6189,1.51645 8.2041,1.86045 17.3446,1.6642 10.7333,-0.23045 11.9755,-0.47056 18.1424,-3.50707 z m -29.6615,-18.53724 c -4.1533,-4.15331 -5.4919,-8.9558 -5.4919,-19.70308 0,-10.74728 1.3386,-15.54977 5.4919,-19.70308 2.9511,-2.95115 3.8894,-3.29692 8.9466,-3.29692 12.0092,0 15.9333,5.66451 15.9333,23 0,17.33549 -3.9241,23 -15.9333,23 -5.0572,0 -5.9955,-0.34577 -8.9466,-3.29692 z M 2636.5,265.63197 c 2.75,-1.29168 5.8572,-3.31228 6.905,-4.49024 2.4854,-2.79433 3.595,-2.70899 3.595,0.27648 0,5.36528 0.4502,5.58179 11.607,5.58179 H 2669 v -60 -60 h -12.5 -12.5 v 18.5 18.5 l -9.75,0.0119 c -16.0272,0.0195 -26.0267,3.6809 -34.0609,12.4716 -7.7119,8.43803 -9.6983,14.92654 -9.6488,31.51653 0.035,11.78671 0.3406,14.25826 2.406,19.47474 3.1366,7.92211 10.5998,15.82348 17.4257,18.44878 7.608,2.92609 19.5616,2.7927 26.128,-0.29155 z m -15.9048,-21.68253 c -4.3727,-3.83931 -6.0529,-10.55855 -5.3988,-21.59065 0.5322,-8.97698 2.3132,-13.15958 7.0385,-16.52995 2.8378,-2.02409 4.4428,-2.32884 12.2651,-2.32884 h 9 l 0.2711,19.75184 0.2712,19.75184 -3.2712,1.99442 c -2.4083,1.46836 -5.0424,1.99541 -9.9863,1.99816 -6.0628,0.003 -7.0528,-0.29265 -10.1896,-3.04682 z m 127.0729,22.94791 6.3319,-1.10266 v -9.40916 -9.40917 l -4.25,0.76182 c -7.8457,1.40636 -29.9472,0.91514 -33.2127,-0.73818 -3.782,-1.91484 -7.5373,-7.46902 -7.5373,-11.14788 V 233 h 24.5 24.5 l -0.012,-8.75 c -0.027,-19.77068 -7.4324,-32.88853 -21.5693,-38.20651 -5.117,-1.92489 -7.3413,-2.16865 -16.4188,-1.7993 -12.2676,0.49914 -17.4562,2.36984 -24.4478,8.81442 -8.543,7.87469 -12.1078,19.39143 -11.3214,36.57562 0.6302,13.7685 3.124,20.82364 9.6625,27.33555 8.1921,8.15881 16.8466,10.86807 35.0248,10.96441 6.8299,0.0362 15.2674,-0.43038 18.75,-1.03684 z M 2709,215.02024 c 0,-5.24843 2.5849,-11.51825 5.5496,-13.46079 1.4121,-0.92527 4.5716,-1.55945 7.7692,-1.55945 4.2882,0 5.9132,0.48564 7.9543,2.37729 2.7498,2.5484 4.7123,8.10706 4.7213,13.37271 l 0.01,3.25 h -13 -13 v -3.97976 z M 3435,1297.5 V 75 H 3967.5 4500 V 1297.5 2520 H 3967.5 3435 Z M 4416,1086 V 885 H 3967.5 3519 v 201 201 h 448.5 448.5 z m 0,-537 V 348 H 3967.5 3519 V 549 750 H 3967.5 4416 Z M 3671.6681,266.89735 3678,265.79469 v -9.40916 -9.40917 l -4.25,0.76182 c -7.8457,1.40636 -29.9472,0.91514 -33.2127,-0.73818 -3.782,-1.91484 -7.5373,-7.46902 -7.5373,-11.14788 V 233 h 24.5 24.5 l -0.012,-8.75 c -0.027,-19.77068 -7.4324,-32.88853 -21.5693,-38.20651 -5.117,-1.92489 -7.3413,-2.16865 -16.4188,-1.7993 -12.2676,0.49914 -17.4562,2.36984 -24.4478,8.81442 -8.543,7.87469 -12.1078,19.39143 -11.3214,36.57562 0.6302,13.7685 3.124,20.82364 9.6625,27.33555 8.1921,8.15881 16.8466,10.86807 35.0248,10.96441 6.8299,0.0362 15.2674,-0.43038 18.75,-1.03684 z M 3633,215.02024 c 0,-5.24843 2.5849,-11.51825 5.5496,-13.46079 1.4121,-0.92527 4.5716,-1.55945 7.7692,-1.55945 4.2882,0 5.9132,0.48564 7.9543,2.37729 2.7498,2.5484 4.7123,8.10706 4.7213,13.37271 l 0.01,3.25 h -13 -13 v -3.97976 z m 107.2298,50.9905 C 3753.0439,262.05287 3760,253.58817 3760,241.95288 c 0,-7.47414 -1.5076,-11.65739 -5.8418,-16.20931 -4.3057,-4.52206 -10.313,-6.87679 -23.5209,-9.21959 -13.3754,-2.3725 -16.3092,-5.30452 -11.2252,-11.21822 2.4101,-2.80338 2.423,-2.80576 15.25,-2.80576 7.0609,0 14.7504,0.37705 17.0879,0.8379 l 4.25,0.8379 v -8.99709 -8.99708 l -6.814,-1.21773 c -10.5293,-1.88169 -30.203,-0.8289 -37.686,2.01667 -11.8483,4.50554 -18.7116,15.16344 -17.1415,26.61862 1.7436,12.72089 8.6543,17.92773 28.5632,21.52078 5.951,1.074 11.206,2.59065 12.25,3.53543 2.707,2.44979 2.328,6.80636 -0.8066,9.27202 -2.31,1.81706 -4.0052,2.07065 -13.75,2.05696 -6.1133,-0.009 -13.8033,-0.64792 -17.0889,-1.42073 -3.2855,-0.77281 -6.323,-1.18922 -6.75,-0.92536 -1.3143,0.81233 -0.9189,16.15551 0.4381,16.99415 6.0023,3.70964 32.6981,4.56503 43.0155,1.3783 z M 3823.875,267.375 3827,266.75 V 256.875 247 h -7.5657 C 3805.9516,247 3805,245.28804 3805,221.03212 V 204 h 11 11 v -9.5 -9.5 h -11 -11 V 170.5 156 h -10.2994 -10.2994 l -1.778,12.75 c -2.4671,17.69231 -1.6514,16.25 -9.1906,16.25 H 3767 v 9.5 9.5 h 6.4155 6.4154 l 0.4282,21.75 c 0.2942,14.94284 0.8619,23.00189 1.8141,25.75 1.9983,5.767 9.6122,13.03914 15.5669,14.86803 4.9783,1.52904 20.6223,2.1295 26.2349,1.00697 z M 3580,221.5 V 176 h 17.5 17.5 v -10 -10 h -48 -48 v 10 10 h 18 18 v 45.5 45.5 h 12.5 12.5 z m 977,1076 V 75 H 5089.5 5622 V 1297.5 2520 H 5089.5 4557 Z M 5538,549 V 348 H 5089.5 4641 V 549 750 H 5089.5 5538 Z M 4875,284 v -16 h 9.7899 c 15.5964,0 25.7069,-3.5209 33.8337,-11.78236 14.4239,-14.6628 14.6989,-48.51329 0.5125,-63.07792 -10.9138,-11.20476 -32.2539,-12.5257 -42.4458,-2.62737 -3.38,3.2826 -3.5018,3.31805 -4.0736,1.18571 -0.3242,-1.20893 -0.5955,-3.21056 -0.603,-4.44806 -0.013,-2.19614 -0.277,-2.25 -11.0137,-2.25 h -11 v 57.5 57.5 h 12.5 12.5 z m 0.2285,-54.6139 0.2715,-19.80843 3.3979,-2.28883 c 2.5872,-1.74275 4.806,-2.28884 9.2996,-2.28884 11.9497,0 15.7437,5.05813 15.7805,21.03811 0.018,7.94801 -0.3531,10.27219 -2.228,13.94146 -3.6116,7.06797 -6.3406,8.46343 -17.3424,8.86769 l -9.4505,0.34726 z m 263.0276,14.72502 c 10.8468,-30.73888 19.9996,-56.61388 20.3396,-57.5 0.5481,-1.42826 -0.7843,-1.60994 -11.7387,-1.60073 l -12.357,0.0104 -9.4564,29.49644 c -5.2011,16.22304 -9.7587,28.93087 -10.1281,28.23961 -0.3693,-0.69125 -4.664,-13.96752 -9.5435,-29.50282 l -8.872,-28.24599 -12.75,-0.004 c -7.0125,-0.002 -12.7486,0.3335 -12.7469,0.746 0,0.4125 6.3018,18.67838 14,40.59084 7.6983,21.91247 13.9969,40.02497 13.9969,40.25 0,0.22504 1.5559,0.40916 3.4575,0.40916 h 3.4574 l -4.5565,12.75 c -2.5061,7.0125 -5.167,14.4375 -5.9131,16.5 l -1.3566,3.75 h 12.223 12.223 l 19.7214,-55.88888 z M 4709.5,265.53257 c 14.9797,-4.24232 26.4655,-12.61082 31.8252,-23.1876 4.5623,-9.00334 6.0737,-16.67879 6.0737,-30.84497 0,-19.42696 -3.6889,-30.63962 -13.4897,-41.00251 -5.7292,-6.05774 -11.5641,-9.42861 -21.9092,-12.65698 -6.9294,-2.16244 -9.0978,-2.33161 -28.5,-2.22353 -13.9217,0.0775 -23.0224,0.58314 -27,1.5 l -6,1.38302 v 54 54 l 4.5,0.65223 c 2.475,0.35873 14.4,0.52338 26.5,0.3659 17.0022,-0.22129 23.363,-0.67235 28,-1.98556 z m -27.75,-18.33247 -5.75,-0.29991 v -34.83346 -34.83347 l 2.25,-0.60297 c 4.2816,-1.14742 19.4069,-0.62435 24.3185,0.84099 6.397,1.9085 11.8871,6.52092 14.9454,12.55619 4.7215,9.31737 5.5891,26.5279 1.9544,38.76736 -1.8598,6.26272 -8.1412,13.4549 -13.702,15.68887 -4.8538,1.94997 -15.5391,3.15854 -24.0163,2.7164 z m 142.9181,19.69725 6.3319,-1.10266 v -9.40916 -9.40917 l -4.25,0.76182 c -7.8457,1.40636 -29.9472,0.91514 -33.2127,-0.73818 -3.782,-1.91484 -7.5373,-7.46902 -7.5373,-11.14788 V 233 h 24.5 24.5 l -0.012,-8.75 c -0.027,-19.77068 -7.4324,-32.88853 -21.5693,-38.20651 -5.117,-1.92489 -7.3413,-2.16865 -16.4188,-1.7993 -12.2676,0.49914 -17.4562,2.36984 -24.4478,8.81442 -8.543,7.87469 -12.1078,19.39143 -11.3214,36.57562 0.6302,13.7685 3.124,20.82364 9.6625,27.33555 8.1921,8.15881 16.8466,10.86807 35.0248,10.96441 6.8299,0.0362 15.2674,-0.43038 18.75,-1.03684 z M 4786,215.02024 c 0,-5.24843 2.5849,-11.51825 5.5496,-13.46079 1.4121,-0.92527 4.5716,-1.55945 7.7692,-1.55945 4.2882,0 5.9132,0.48564 7.9543,2.37729 2.7498,2.5484 4.7123,8.10706 4.7213,13.37271 l 0.01,3.25 h -13 -13 v -3.97976 z m 260.1646,49.22008 c 11.6353,-5.72909 17.8777,-15.12226 19.9938,-30.08587 3.0473,-21.54815 -4.8634,-39.58226 -20.541,-46.82738 -5.7597,-2.66174 -6.9081,-2.82707 -19.6384,-2.82707 -13.269,0 -13.6457,0.0614 -20.2081,3.292 -14.3972,7.08776 -20.5715,20.15647 -19.5371,41.35344 0.9857,20.19893 8.6261,31.74461 24.4438,36.93775 4.6189,1.51645 8.2041,1.86045 17.3446,1.6642 10.7333,-0.23045 11.9755,-0.47056 18.1424,-3.50707 z m -29.6615,-18.53724 c -4.1533,-4.15331 -5.4919,-8.9558 -5.4919,-19.70308 0,-10.74728 1.3386,-15.54977 5.4919,-19.70308 2.9511,-2.95115 3.8894,-3.29692 8.9466,-3.29692 12.0092,0 15.9333,5.66451 15.9333,23 0,17.33549 -3.9241,23 -15.9333,23 -5.0572,0 -5.9955,-0.34577 -8.9466,-3.29692 z M 4970,207 v -60 h -12.5 -12.5 v 60 60 h 12.5 12.5 z m 709,1090.5 V 75 H 6211.5 6744 V 1297.5 2520 H 6211.5 5679 Z M 6660,1623 V 1422 H 6211.5 5763 v 201 201 h 448.5 448.5 z m 0,-537 V 885 H 6211.5 5763 v 201 201 h 448.5 448.5 z m 0,-537 V 348 H 6211.5 5763 V 549 750 H 6211.5 6660 Z M 5831.5,265.53257 c 14.9797,-4.24232 26.4655,-12.61082 31.8252,-23.1876 4.5623,-9.00334 6.0737,-16.67879 6.0737,-30.84497 0,-19.42696 -3.6889,-30.63962 -13.4897,-41.00251 -5.7292,-6.05774 -11.5641,-9.42861 -21.9092,-12.65698 -6.9294,-2.16244 -9.0978,-2.33161 -28.5,-2.22353 -13.9217,0.0775 -23.0224,0.58314 -27,1.5 l -6,1.38302 v 54 54 l 4.5,0.65223 c 2.475,0.35873 14.4,0.52338 26.5,0.3659 17.0022,-0.22129 23.363,-0.67235 28,-1.98556 z m -27.75,-18.33247 -5.75,-0.29991 v -34.83346 -34.83347 l 2.25,-0.60297 c 4.2816,-1.14742 19.4069,-0.62435 24.3185,0.84099 6.397,1.9085 11.8871,6.52092 14.9454,12.55619 4.7215,9.31737 5.5891,26.5279 1.9544,38.76736 -1.8598,6.26272 -8.1412,13.4549 -13.702,15.68887 -4.8538,1.94997 -15.5391,3.15854 -24.0163,2.7164 z m 139.4146,17.04022 c 11.6353,-5.72909 17.8777,-15.12226 19.9938,-30.08587 3.0473,-21.54815 -4.8634,-39.58226 -20.541,-46.82738 -5.7597,-2.66174 -6.9081,-2.82707 -19.6384,-2.82707 -13.269,0 -13.6457,0.0614 -20.2081,3.292 -14.3972,7.08776 -20.5715,20.15647 -19.5371,41.35344 0.9857,20.19893 8.6261,31.74461 24.4438,36.93775 4.6189,1.51645 8.2041,1.86045 17.3446,1.6642 10.7333,-0.23045 11.9755,-0.47056 18.1424,-3.50707 z m -29.6615,-18.53724 c -4.1533,-4.15331 -5.4919,-8.9558 -5.4919,-19.70308 0,-10.74728 1.3386,-15.54977 5.4919,-19.70308 2.9511,-2.95115 3.8894,-3.29692 8.9466,-3.29692 12.0092,0 15.9333,5.66451 15.9333,23 0,17.33549 -3.9241,23 -15.9333,23 -5.0572,0 -5.9955,-0.34577 -8.9466,-3.29692 z m 220.165,21.19427 6.3319,-1.10266 v -9.40916 -9.40917 l -4.25,0.76182 c -7.8457,1.40636 -29.9472,0.91514 -33.2127,-0.73818 -3.782,-1.91484 -7.5373,-7.46902 -7.5373,-11.14788 V 233 h 24.5 24.5 l -0.012,-8.75 c -0.027,-19.77068 -7.4324,-32.88853 -21.5693,-38.20651 -5.117,-1.92489 -7.3413,-2.16865 -16.4188,-1.7993 -12.2676,0.49914 -17.4562,2.36984 -24.4478,8.81442 -8.543,7.87469 -12.1078,19.39143 -11.3214,36.57562 0.6302,13.7685 3.124,20.82364 9.6625,27.33555 8.1921,8.15881 16.8466,10.86807 35.0248,10.96441 6.8299,0.0362 15.2674,-0.43038 18.75,-1.03684 z M 6095,215.02024 c 0,-5.24843 2.5849,-11.51825 5.5496,-13.46079 1.4121,-0.92527 4.5716,-1.55945 7.7692,-1.55945 4.2882,0 5.9132,0.48564 7.9543,2.37729 2.7498,2.5484 4.7123,8.10706 4.7213,13.37271 l 0.01,3.25 h -13 -13 v -3.97976 z m -91,24.65407 c 0,-27.04657 0.023,-27.34721 2.25,-29.43338 3.1923,-2.99045 7.0889,-4.24578 13.0651,-4.20913 5.786,0.0355 8.1111,1.32867 9.6456,5.36479 0.6239,1.64108 1.0393,13.29873 1.0393,29.16851 V 267 h 12.5753 12.5754 l -0.3254,-31.25 c -0.3139,-30.15496 -0.406,-31.42521 -2.6289,-36.25 -4.9067,-10.65007 -12.8284,-15.47432 -25.4357,-15.49023 -8.6228,-0.0109 -15.6049,2.10857 -21.329,6.47449 -3.6298,2.7686 -3.6659,2.7483 -4.8672,-2.73426 L 5999.9619,185 H 5989.4809 5979 v 41 41 h 12.5 12.5 z"
         id="path319" />
      <path
         style="fill:#aaaaaa;fill-opacity:1"
         d="M 153,2160 V 1959 H 601.5 1050 v 201 201 H 601.5 153 Z m 0,-537 V 1422 H 601.5 1050 v 201 201 H 601.5 153 Z m 5610,0 v -201 h 448.5 448.5 v 201 201 H 6211.5 5763 Z M 153,1086 V 885 H 601.5 1050 v 201 201 H 601.5 153 Z m 2244,0 V 885 h 448.5 448.5 v 201 201 H 2845.5 2397 Z m 1122,0 V 885 h 448.5 448.5 v 201 201 H 3967.5 3519 Z m 2244,0 V 885 h 448.5 448.5 v 201 201 H 6211.5 5763 Z M 1275,549 V 348 H 1723.5 2172 V 549 750 H 1723.5 1275 Z m 1122,0 V 348 H 2845.5 3294 V 549 750 H 2845.5 2397 Z m 1122,0 V 348 H 3967.5 4416 V 549 750 H 3967.5 3519 Z m 2244,0 V 348 H 6211.5 6660 V 549 750 H 6211.5 5763 Z M 1618.75,300.33772 c 0.6875,-0.27741 1.8125,-0.27741 2.5,0 0.6875,0.27741 0.125,0.50439 -1.25,0.50439 -1.375,0 -1.9375,-0.22698 -1.25,-0.50439 z m 26.0625,-0.0208 c 0.7219,-0.28887 1.5844,-0.25335 1.9167,0.0789 0.3323,0.33229 -0.2584,0.56864 -1.3125,0.52522 -1.165,-0.048 -1.4019,-0.28494 -0.6042,-0.60416 z M 4850.4683,242.5 c -1e-4,-31.9 0.1263,-45.09463 0.281,-29.32139 0.1546,15.77323 0.1547,41.87323 2e-4,58 -0.1545,16.12676 -0.281,3.22139 -0.2812,-28.67861 z m -3245.1031,46 c 0,-5.5 0.1706,-7.62242 0.3732,-4.71648 0.2026,2.90594 0.2005,7.40594 0,10 -0.2053,2.59406 -0.3711,0.21648 -0.3685,-5.28352 z m 21.8848,-6.22847 c 2.0625,-0.21574 5.4375,-0.21574 7.5,0 2.0625,0.21575 0.375,0.39226 -3.75,0.39226 -4.125,0 -5.8125,-0.17651 -3.75,-0.39226 z m -10.4375,-0.95464 c 0.7219,-0.28887 1.5844,-0.25335 1.9167,0.0789 0.3323,0.33229 -0.2584,0.56864 -1.3125,0.52522 -1.165,-0.048 -1.4019,-0.28494 -0.6042,-0.60416 z M 1648,278.62244 c 0,-0.20765 0.7875,-0.99515 1.75,-1.75 1.5861,-1.24387 1.6214,-1.2085 0.3776,0.37756 -1.3064,1.66575 -2.1276,2.19548 -2.1276,1.37244 z M 290.8125,267.31689 c 0.72187,-0.28887 1.58438,-0.25335 1.91667,0.0789 0.33229,0.33229 -0.25834,0.56864 -1.3125,0.52522 -1.16495,-0.048 -1.4019,-0.28494 -0.60417,-0.60416 z m 101.45653,-0.01 c 0.97297,-0.25354 2.32297,-0.23687 3,0.0371 0.67703,0.27393 -0.11903,0.48137 -1.76903,0.46099 -1.65,-0.0204 -2.20394,-0.2445 -1.23097,-0.49804 z m 34.48097,0.0307 c 0.6875,-0.27741 1.8125,-0.27741 2.5,0 0.6875,0.27741 0.125,0.50439 -1.25,0.50439 -1.375,0 -1.9375,-0.22698 -1.25,-0.50439 z m 115.0625,-0.0208 c 0.72187,-0.28887 1.58438,-0.25335 1.91667,0.0789 0.33229,0.33229 -0.25834,0.56864 -1.3125,0.52522 -1.16495,-0.048 -1.4019,-0.28494 -0.60417,-0.60416 z m 752.4565,-0.01 c 0.973,-0.25354 2.323,-0.23687 3,0.0371 0.6771,0.27393 -0.119,0.48137 -1.769,0.46099 -1.65,-0.0204 -2.2039,-0.2445 -1.231,-0.49804 z m 34.481,0.0307 c 0.6875,-0.27741 1.8125,-0.27741 2.5,0 0.6875,0.27741 0.125,0.50439 -1.25,0.50439 -1.375,0 -1.9375,-0.22698 -1.25,-0.50439 z m 99.0625,-0.0208 c 0.7219,-0.28887 1.5844,-0.25335 1.9167,0.0789 0.3323,0.33229 -0.2584,0.56864 -1.3125,0.52522 -1.165,-0.048 -1.4019,-0.28494 -0.6042,-0.60416 z m 23.9375,0.0208 c 0.6875,-0.27741 1.8125,-0.27741 2.5,0 0.6875,0.27741 0.125,0.50439 -1.25,0.50439 -1.375,0 -1.9375,-0.22698 -1.25,-0.50439 z m 43,0 c 0.6875,-0.27741 1.8125,-0.27741 2.5,0 0.6875,0.27741 0.125,0.50439 -1.25,0.50439 -1.375,0 -1.9375,-0.22698 -1.25,-0.50439 z m 24.0625,-0.0208 c 0.7219,-0.28887 1.5844,-0.25335 1.9167,0.0789 0.3323,0.33229 -0.2584,0.56864 -1.3125,0.52522 -1.165,-0.048 -1.4019,-0.28494 -0.6042,-0.60416 z m 929,0 c 0.7219,-0.28887 1.5844,-0.25335 1.9167,0.0789 0.3323,0.33229 -0.2584,0.56864 -1.3125,0.52522 -1.165,-0.048 -1.4019,-0.28494 -0.6042,-0.60416 z m 23.9375,0.0208 c 0.6875,-0.27741 1.8125,-0.27741 2.5,0 0.6875,0.27741 0.125,0.50439 -1.25,0.50439 -1.375,0 -1.9375,-0.22698 -1.25,-0.50439 z m 74.0625,-0.0208 c 0.7219,-0.28887 1.5844,-0.25335 1.9167,0.0789 0.3323,0.33229 -0.2584,0.56864 -1.3125,0.52522 -1.165,-0.048 -1.4019,-0.28494 -0.6042,-0.60416 z m 171,0 c 0.7219,-0.28887 1.5844,-0.25335 1.9167,0.0789 0.3323,0.33229 -0.2584,0.56864 -1.3125,0.52522 -1.165,-0.048 -1.4019,-0.28494 -0.6042,-0.60416 z m 23.9375,0.0208 c 0.6875,-0.27741 1.8125,-0.27741 2.5,0 0.6875,0.27741 0.125,0.50439 -1.25,0.50439 -1.375,0 -1.9375,-0.22698 -1.25,-0.50439 z m 900.0625,-0.0208 c 0.7219,-0.28887 1.5844,-0.25335 1.9167,0.0789 0.3323,0.33229 -0.2584,0.56864 -1.3125,0.52522 -1.165,-0.048 -1.4019,-0.28494 -0.6042,-0.60416 z m 23.9375,0.0208 c 0.6875,-0.27741 1.8125,-0.27741 2.5,0 0.6875,0.27741 0.125,0.50439 -1.25,0.50439 -1.375,0 -1.9375,-0.22698 -1.25,-0.50439 z m 44,0 c 0.6875,-0.27741 1.8125,-0.27741 2.5,0 0.6875,0.27741 0.125,0.50439 -1.25,0.50439 -1.375,0 -1.9375,-0.22698 -1.25,-0.50439 z m 24.0625,-0.0208 c 0.7219,-0.28887 1.5844,-0.25335 1.9167,0.0789 0.3323,0.33229 -0.2584,0.56864 -1.3125,0.52522 -1.165,-0.048 -1.4019,-0.28494 -0.6042,-0.60416 z m 88,0 c 0.7219,-0.28887 1.5844,-0.25335 1.9167,0.0789 0.3323,0.33229 -0.2584,0.56864 -1.3125,0.52522 -1.165,-0.048 -1.4019,-0.28494 -0.6042,-0.60416 z m 839.4565,-0.01 c 0.973,-0.25354 2.323,-0.23687 3,0.0371 0.6771,0.27393 -0.119,0.48137 -1.769,0.46099 -1.65,-0.0204 -2.2039,-0.2445 -1.231,-0.49804 z m 34.481,0.0307 c 0.6875,-0.27741 1.8125,-0.27741 2.5,0 0.6875,0.27741 0.125,0.50439 -1.25,0.50439 -1.375,0 -1.9375,-0.22698 -1.25,-0.50439 z m 99.0625,-0.0208 c 0.7219,-0.28887 1.5844,-0.25335 1.9167,0.0789 0.3323,0.33229 -0.2584,0.56864 -1.3125,0.52522 -1.165,-0.048 -1.4019,-0.28494 -0.6042,-0.60416 z m 23.9375,0.0208 c 0.6875,-0.27741 1.8125,-0.27741 2.5,0 0.6875,0.27741 0.125,0.50439 -1.25,0.50439 -1.375,0 -1.9375,-0.22698 -1.25,-0.50439 z m 217.0625,-0.0208 c 0.7219,-0.28887 1.5844,-0.25335 1.9167,0.0789 0.3323,0.33229 -0.2584,0.56864 -1.3125,0.52522 -1.165,-0.048 -1.4019,-0.28494 -0.6042,-0.60416 z m 747.4565,-0.01 c 0.973,-0.25354 2.323,-0.23687 3,0.0371 0.6771,0.27393 -0.119,0.48137 -1.769,0.46099 -1.65,-0.0204 -2.2039,-0.2445 -1.231,-0.49804 z m 34.481,0.0307 c 0.6875,-0.27741 1.8125,-0.27741 2.5,0 0.6875,0.27741 0.125,0.50439 -1.25,0.50439 -1.375,0 -1.9375,-0.22698 -1.25,-0.50439 z m 115.0625,-0.0208 c 0.7219,-0.28887 1.5844,-0.25335 1.9167,0.0789 0.3323,0.33229 -0.2584,0.56864 -1.3125,0.52522 -1.165,-0.048 -1.4019,-0.28494 -0.6042,-0.60416 z m 171,0 c 0.7219,-0.28887 1.5844,-0.25335 1.9167,0.0789 0.3323,0.33229 -0.2584,0.56864 -1.3125,0.52522 -1.165,-0.048 -1.4019,-0.28494 -0.6042,-0.60416 z m 23.9375,0.0208 c 0.6875,-0.27741 1.8125,-0.27741 2.5,0 0.6875,0.27741 0.125,0.50439 -1.25,0.50439 -1.375,0 -1.9375,-0.22698 -1.25,-0.50439 z M 382.66667,266.33333 c -0.92534,-0.92533 -0.84317,-107.10615 0.0833,-107.67911 0.4125,-0.2551 0.6297,23.64947 0.48267,53.12126 -0.21153,42.40154 -0.003,53.75296 1,54.38948 0.73785,0.46833 0.81472,0.81081 0.184,0.81973 -0.59584,0.008 -1.38334,-0.28469 -1.75,-0.65136 z m 52.14583,-0.0164 c 0.72187,-0.28887 1.58438,-0.25335 1.91667,0.0789 0.33229,0.33229 -0.25834,0.56864 -1.3125,0.52522 -1.16495,-0.048 -1.4019,-0.28494 -0.60417,-0.60416 z m 849.8542,0.0164 c -0.9254,-0.92533 -0.8432,-107.10615 0.083,-107.67911 0.4125,-0.2551 0.6297,23.64947 0.4827,53.12126 -0.2116,42.40154 0,53.75296 1,54.38948 0.7378,0.46833 0.8147,0.81081 0.184,0.81973 -0.5959,0.008 -1.3834,-0.28469 -1.75,-0.65136 z m 52.1458,-0.0164 c 0.7219,-0.28887 1.5844,-0.25335 1.9167,0.0789 0.3323,0.33229 -0.2584,0.56864 -1.3125,0.52522 -1.165,-0.048 -1.4019,-0.28494 -0.6042,-0.60416 z M 1560.4571,226 c 0,-22.825 0.1313,-32.1625 0.2918,-20.75 0.1604,11.4125 0.1604,30.0875 0,41.5 -0.1605,11.4125 -0.2918,2.075 -0.2918,-20.75 z m 117.9986,1.5 c 3e-4,-22 0.1323,-30.85753 0.2933,-19.6834 0.1611,11.17413 0.1608,29.17413 -5e-4,40 -0.1613,10.82587 -0.2931,1.6834 -0.2928,-20.3166 z m 20.0014,-1.5 c 0,-22.825 0.1313,-32.1625 0.2918,-20.75 0.1604,11.4125 0.1604,30.0875 0,41.5 -0.1605,11.4125 -0.2918,2.075 -0.2918,-20.75 z m 74.9851,12 c 0,-16.225 0.1376,-22.8625 0.3057,-14.75 0.168,8.1125 0.168,21.3875 0,29.5 -0.1681,8.1125 -0.3057,1.475 -0.3057,-14.75 z m 895.0274,-31 c 0,-33.275 0.1259,-46.8875 0.2798,-30.25 0.154,16.6375 0.154,43.8625 0,60.5 -0.1539,16.6375 -0.2798,3.025 -0.2798,-30.25 z m 1982.1971,59.33333 c -0.9254,-0.92533 -0.8432,-107.10615 0.083,-107.67911 0.4125,-0.2551 0.6297,23.64947 0.4827,53.12126 -0.2116,42.40154 0,53.75296 1,54.38948 0.7378,0.46833 0.8147,0.81081 0.184,0.81973 -0.5959,0.008 -1.3834,-0.28469 -1.75,-0.65136 z m 52.1458,-0.0164 c 0.7219,-0.28887 1.5844,-0.25335 1.9167,0.0789 0.3323,0.33229 -0.2584,0.56864 -1.3125,0.52522 -1.165,-0.048 -1.4019,-0.28494 -0.6042,-0.60416 z M 4945.4696,207 c 0,-33.275 0.1259,-46.8875 0.2798,-30.25 0.154,16.6375 0.154,43.8625 0,60.5 -0.1539,16.6375 -0.2798,3.025 -0.2798,-30.25 z m 827.1971,59.33333 c -0.9254,-0.92533 -0.8432,-107.10615 0.083,-107.67911 0.4125,-0.2551 0.6297,23.64947 0.4827,53.12126 -0.2116,42.40154 0,53.75296 1,54.38948 0.7378,0.46833 0.8147,0.81081 0.184,0.81973 -0.5959,0.008 -1.3834,-0.28469 -1.75,-0.65136 z m 52.1458,-0.0164 c 0.7219,-0.28887 1.5844,-0.25335 1.9167,0.0789 0.3323,0.33229 -0.2584,0.56864 -1.3125,0.52522 -1.165,-0.048 -1.4019,-0.28494 -0.6042,-0.60416 z M 5979.4571,226 c 0,-22.825 0.1313,-32.1625 0.2918,-20.75 0.1604,11.4125 0.1604,30.0875 0,41.5 -0.1605,11.4125 -0.2918,2.075 -0.2918,-20.75 z m 74.9851,12 c 0,-16.225 0.1376,-22.8625 0.3057,-14.75 0.168,8.1125 0.168,21.3875 0,29.5 -0.1681,8.1125 -0.3057,1.475 -0.3057,-14.75 z m -4590.077,18.5 c 0,-5.5 0.1706,-7.62242 0.3732,-4.71648 0.2026,2.90594 0.2005,7.40594 0,10 -0.2053,2.59406 -0.3711,0.21648 -0.3685,-5.28352 z m 1289,0 c 0,-5.5 0.1706,-7.62242 0.3732,-4.71648 0.2026,2.90594 0.2005,7.40594 0,10 -0.2053,2.59406 -0.3711,0.21648 -0.3685,-5.28352 z m 924,0 c 0,-5.5 0.1706,-7.62242 0.3732,-4.71648 0.2026,2.90594 0.2005,7.40594 0,10 -0.2053,2.59406 -0.3711,0.21648 -0.3685,-5.28352 z m 1153,0 c 0,-5.5 0.1706,-7.62242 0.3732,-4.71648 0.2026,2.90594 0.2005,7.40594 0,10 -0.2053,2.59406 -0.3711,0.21648 -0.3685,-5.28352 z m 1309,0 c 0,-5.5 0.1706,-7.62242 0.3732,-4.71648 0.2026,2.90594 0.2005,7.40594 0,10 -0.2053,2.59406 -0.3711,0.21648 -0.3685,-5.28352 z M 1482.3494,256 c 0,-4.675 0.1723,-6.5875 0.3828,-4.25 0.2105,2.3375 0.2105,6.1625 0,8.5 -0.2105,2.3375 -0.3828,0.425 -0.3828,-4.25 z m 1003.6441,-1.7044 c -0.2714,-5.61242 -0.1382,-9.84708 0.2961,-9.41035 0.4344,0.43672 0.6564,5.0287 0.4935,10.2044 L 2486.487,264.5 Z M 3696.3494,256 c 0,-4.675 0.1723,-6.5875 0.3828,-4.25 0.2105,2.3375 0.2105,6.1625 0,8.5 -0.2105,2.3375 -0.3828,0.425 -0.3828,-4.25 z M 1538.5,259 c 0.9955,-1.1 2.035,-2 2.31,-2 0.275,0 -0.3145,0.9 -1.31,2 -0.9955,1.1 -2.035,2 -2.31,2 -0.275,0 0.3145,-0.9 1.31,-2 z m 2214,0 c 0.9955,-1.1 2.035,-2 2.31,-2 0.275,0 -0.3145,0.9 -1.31,2 -0.9955,1.1 -2.035,2 -2.31,2 -0.275,0 0.3145,-0.9 1.31,-2 z M 252.40499,257.75 250.5,255.5 l 2.25,1.90499 c 2.11444,1.79022 2.70524,2.59501 1.90499,2.59501 -0.18976,0 -1.20226,-1.0125 -2.25,-2.25 z m 251,0 -1.90499,-2.25 2.25,1.90499 c 1.2375,1.04774 2.25,2.06024 2.25,2.25 0,0.80025 -0.80479,0.20945 -2.59501,-1.90499 z m 2004.00001,0 -1.905,-2.25 2.25,1.90499 c 2.1144,1.79022 2.7052,2.59501 1.905,2.59501 -0.1898,0 -1.2023,-1.0125 -2.25,-2.25 z m 2489,0 -1.905,-2.25 2.25,1.90499 c 1.2375,1.04774 2.25,2.06024 2.25,2.25 0,0.80025 -0.8048,0.20945 -2.595,-1.90499 z m 897,0 -1.905,-2.25 2.25,1.90499 c 1.2375,1.04774 2.25,2.06024 2.25,2.25 0,0.80025 -0.8048,0.20945 -2.595,-1.90499 z M 462,255.62244 c 0,-0.20765 0.7875,-0.99515 1.75,-1.75 1.58606,-1.24387 1.62143,-1.2085 0.37756,0.37756 C 462.82119,255.91575 462,256.44548 462,255.62244 Z m 902,0 c 0,-0.20765 0.7875,-0.99515 1.75,-1.75 1.5861,-1.24387 1.6214,-1.2085 0.3776,0.37756 -1.3064,1.66575 -2.1276,2.19548 -2.1276,1.37244 z m 3366,0 c 0,-0.20765 0.7875,-0.99515 1.75,-1.75 1.5861,-1.24387 1.6214,-1.2085 0.3776,0.37756 -1.3064,1.66575 -2.1276,2.19548 -2.1276,1.37244 z m 1122,0 c 0,-0.20765 0.7875,-0.99515 1.75,-1.75 1.5861,-1.24387 1.6214,-1.2085 0.3776,0.37756 -1.3064,1.66575 -2.1276,2.19548 -2.1276,1.37244 z m -4349.25,-5.35465 c 2.3375,-0.21053 6.1625,-0.21053 8.5,0 2.3375,0.21054 0.425,0.3828 -4.25,0.3828 -4.675,0 -6.5875,-0.17226 -4.25,-0.3828 z m 2214,0 c 2.3375,-0.21053 6.1625,-0.21053 8.5,0 2.3375,0.21054 0.425,0.3828 -4.25,0.3828 -4.675,0 -6.5875,-0.17226 -4.25,-0.3828 z m -3437,-0.97352 c 1.2375,-0.23836 3.2625,-0.23836 4.5,0 1.2375,0.23835 0.225,0.43337 -2.25,0.43337 -2.475,0 -3.4875,-0.19502 -2.25,-0.43337 z m 251,0 c 1.2375,-0.23836 3.2625,-0.23836 4.5,0 1.2375,0.23835 0.225,0.43337 -2.25,0.43337 -2.475,0 -3.4875,-0.19502 -2.25,-0.43337 z m 909.0264,-0.0278 c 2.3521,-0.21124 5.9521,-0.20827 8,0.007 2.048,0.21487 0.1236,0.38771 -4.2764,0.38408 -4.4,-0.004 -6.0756,-0.17944 -3.7236,-0.39069 z m 1094.9736,0.0278 c 1.2375,-0.23836 3.2625,-0.23836 4.5,0 1.2375,0.23835 0.225,0.43337 -2.25,0.43337 -2.475,0 -3.4875,-0.19502 -2.25,-0.43337 z m 194.0264,-0.0278 c 2.3521,-0.21124 5.9521,-0.20827 8,0.007 2.048,0.21487 0.1236,0.38771 -4.2764,0.38408 -4.4,-0.004 -6.0756,-0.17944 -3.7236,-0.39069 z m 924,0 c 2.3521,-0.21124 5.9521,-0.20827 8,0.007 2.048,0.21487 0.1236,0.38771 -4.2764,0.38408 -4.4,-0.004 -6.0756,-0.17944 -3.7236,-0.39069 z m 1153,0 c 2.3521,-0.21124 5.9521,-0.20827 8,0.007 2.048,0.21487 0.1236,0.38771 -4.2764,0.38408 -4.4,-0.004 -6.0756,-0.17944 -3.7236,-0.39069 z m 74.9915,0.009 c 1.7974,-0.22256 4.4974,-0.21797 6,0.0102 1.5027,0.22818 0.032,0.41027 -3.2679,0.40466 -3.3,-0.006 -4.5294,-0.1923 -2.7321,-0.41486 z m 142.9821,0.019 c 1.2375,-0.23836 3.2625,-0.23836 4.5,0 1.2375,0.23835 0.225,0.43337 -2.25,0.43337 -2.475,0 -3.4875,-0.19502 -2.25,-0.43337 z m 897,0 c 1.2375,-0.23836 3.2625,-0.23836 4.5,0 1.2375,0.23835 0.225,0.43337 -2.25,0.43337 -2.475,0 -3.4875,-0.19502 -2.25,-0.43337 z m 194.0264,-0.0278 c 2.3521,-0.21124 5.9521,-0.20827 8,0.007 2.048,0.21487 0.1236,0.38771 -4.2764,0.38408 -4.4,-0.004 -6.0756,-0.17944 -3.7236,-0.39069 z M 271.40499,245.75 269.5,243.5 l 2.25,1.90499 c 1.2375,1.04774 2.25,2.06024 2.25,2.25 0,0.80025 -0.80479,0.20945 -2.59501,-1.90499 z m 136.05021,0.99385 c -0.26512,-0.69088 -0.35739,-16.77838 -0.20505,-35.75 l 0.27699,-34.49385 0.23643,35.2001 0.23643,35.20009 5.75,0.36082 5.75,0.36082 -5.78138,0.18909 c -3.86629,0.12645 -5.94106,-0.22702 -6.26342,-1.06707 z m 14.30646,0.54889 c 1.24391,-0.23919 3.04391,-0.23011 4,0.0202 0.95609,0.25029 -0.0617,0.446 -2.26166,0.4349 -2.2,-0.0111 -2.98225,-0.21589 -1.73834,-0.45508 z M 522.40499,245.75 520.5,243.5 l 2.25,1.90499 c 1.2375,1.04774 2.25,2.06024 2.25,2.25 0,0.80025 -0.80479,0.20945 -2.59501,-1.90499 z m 787.05021,0.99385 c -0.2651,-0.69088 -0.3574,-16.77838 -0.205,-35.75 l 0.2769,-34.49385 0.2365,35.2001 0.2364,35.20009 5.75,0.36082 5.75,0.36082 -5.7814,0.18909 c -3.8663,0.12645 -5.941,-0.22702 -6.2634,-1.06707 z m 14.3065,0.54889 c 1.2439,-0.23919 3.0439,-0.23011 4,0.0202 0.956,0.25029 -0.062,0.446 -2.2617,0.4349 -2.2,-0.0111 -2.9823,-0.21589 -1.7383,-0.45508 z m 314.9883,0.002 c 1.2375,-0.23836 3.2625,-0.23836 4.5,0 1.2375,0.23835 0.225,0.43337 -2.25,0.43337 -2.475,0 -3.4875,-0.19502 -2.25,-0.43337 z m 821.0264,-0.0278 c 2.3521,-0.21124 5.9521,-0.20827 8,0.007 2.048,0.21487 0.1236,0.38771 -4.2764,0.38408 -4.4,-0.004 -6.0756,-0.17944 -3.7236,-0.39069 z m 66.6286,-1.5165 -1.905,-2.25 2.25,1.90499 c 1.2375,1.04774 2.25,2.06024 2.25,2.25 0,0.80025 -0.8048,0.20945 -2.595,-1.90499 z m 102.345,1.54427 c 1.2375,-0.23836 3.2625,-0.23836 4.5,0 1.2375,0.23835 0.225,0.43337 -2.25,0.43337 -2.475,0 -3.4875,-0.19502 -2.25,-0.43337 z m 1186.5,-0.0105 c 1.5125,-0.22913 3.9875,-0.22913 5.5,0 1.5125,0.22912 0.275,0.41659 -2.75,0.41659 -3.025,0 -4.2625,-0.18747 -2.75,-0.41659 z m 860.2052,-0.5399 c -0.2651,-0.69088 -0.3574,-16.77838 -0.205,-35.75 l 0.2769,-34.49385 0.2365,35.2001 0.2364,35.20009 5.75,0.36082 5.75,0.36082 -5.7814,0.18909 c -3.8663,0.12645 -5.941,-0.22702 -6.2634,-1.06707 z m 14.3065,0.54889 c 1.2439,-0.23919 3.0439,-0.23011 4,0.0202 0.956,0.25029 -0.062,0.446 -2.2617,0.4349 -2.2,-0.0111 -2.9823,-0.21589 -1.7383,-0.45508 z m 325.6433,-1.54274 -1.905,-2.25 2.25,1.90499 c 1.2375,1.04774 2.25,2.06024 2.25,2.25 0,0.80025 -0.8048,0.20945 -2.595,-1.90499 z m 782.0502,0.99385 c -0.2651,-0.69088 -0.3574,-16.77838 -0.205,-35.75 l 0.2769,-34.49385 0.2365,35.2001 0.2364,35.20009 5.75,0.36082 5.75,0.36082 -5.7814,0.18909 c -3.8663,0.12645 -5.941,-0.22702 -6.2634,-1.06707 z m 14.3065,0.54889 c 1.2439,-0.23919 3.0439,-0.23011 4,0.0202 0.956,0.25029 -0.062,0.446 -2.2617,0.4349 -2.2,-0.0111 -2.9823,-0.21589 -1.7383,-0.45508 z m 100.6433,-1.54274 -1.905,-2.25 2.25,1.90499 c 1.2375,1.04774 2.25,2.06024 2.25,2.25 0,0.80025 -0.8048,0.20945 -2.595,-1.90499 z m -4283.5326,-2.5 c -1.2438,-1.58606 -1.2085,-1.62143 0.3776,-0.37756 1.6657,1.30637 2.1955,2.12756 1.3724,2.12756 -0.2076,0 -0.9951,-0.7875 -1.75,-1.75 z m 990,0 c -1.2438,-1.58606 -1.2085,-1.62143 0.3776,-0.37756 1.6657,1.30637 2.1955,2.12756 1.3724,2.12756 -0.2076,0 -0.9951,-0.7875 -1.75,-1.75 z M 3780.4218,224 c 0,-11.275 0.1458,-15.8875 0.3241,-10.25 0.1782,5.6375 0.1782,14.8625 0,20.5 -0.1783,5.6375 -0.3241,1.025 -0.3241,-10.25 z M 444,240.62244 c 0,-0.20765 0.7875,-0.99515 1.75,-1.75 1.58606,-1.24387 1.62143,-1.2085 0.37756,0.37756 C 444.82119,240.91575 444,241.44548 444,240.62244 Z m 902,0 c 0,-0.20765 0.7875,-0.99515 1.75,-1.75 1.5861,-1.24387 1.6214,-1.2085 0.3776,0.37756 -1.3064,1.66575 -2.1276,2.19548 -2.1276,1.37244 z m 3366,0 c 0,-0.20765 0.7875,-0.99515 1.75,-1.75 1.5861,-1.24387 1.6214,-1.2085 0.3776,0.37756 -1.3064,1.66575 -2.1276,2.19548 -2.1276,1.37244 z m 1122,0 c 0,-0.20765 0.7875,-0.99515 1.75,-1.75 1.5861,-1.24387 1.6214,-1.2085 0.3776,0.37756 -1.3064,1.66575 -2.1276,2.19548 -2.1276,1.37244 z m -4233.9211,-4.20577 c 0.048,-1.16495 0.285,-1.4019 0.6042,-0.60417 0.2889,0.72187 0.2534,1.58437 -0.079,1.91667 -0.3323,0.33229 -0.5687,-0.25834 -0.5253,-1.3125 z m 990,0 c 0.048,-1.16495 0.285,-1.4019 0.6042,-0.60417 0.2889,0.72187 0.2534,1.58437 -0.079,1.91667 -0.3323,0.33229 -0.5687,-0.25834 -0.5253,-1.3125 z m -1195,-1 c 0.048,-1.16495 0.285,-1.4019 0.6042,-0.60417 0.2889,0.72187 0.2534,1.58437 -0.079,1.91667 -0.3323,0.33229 -0.5687,-0.25834 -0.5253,-1.3125 z m 1289,0 c 0.048,-1.16495 0.285,-1.4019 0.6042,-0.60417 0.2889,0.72187 0.2534,1.58437 -0.079,1.91667 -0.3323,0.33229 -0.5687,-0.25834 -0.5253,-1.3125 z m 924,0 c 0.048,-1.16495 0.285,-1.4019 0.6042,-0.60417 0.2889,0.72187 0.2534,1.58437 -0.079,1.91667 -0.3323,0.33229 -0.5687,-0.25834 -0.5253,-1.3125 z m 1153,0 c 0.048,-1.16495 0.285,-1.4019 0.6042,-0.60417 0.2889,0.72187 0.2534,1.58437 -0.079,1.91667 -0.3323,0.33229 -0.5687,-0.25834 -0.5253,-1.3125 z m 167,0 c 0.048,-1.16495 0.285,-1.4019 0.6042,-0.60417 0.2889,0.72187 0.2534,1.58437 -0.079,1.91667 -0.3323,0.33229 -0.5687,-0.25834 -0.5253,-1.3125 z m 1142,0 c 0.048,-1.16495 0.285,-1.4019 0.6042,-0.60417 0.2889,0.72187 0.2534,1.58437 -0.079,1.91667 -0.3323,0.33229 -0.5687,-0.25834 -0.5253,-1.3125 z m -5827.99995,-1 c 0.048,-1.16495 0.28494,-1.4019 0.60416,-0.60417 0.28887,0.72187 0.25335,1.58437 -0.0789,1.91667 -0.3323,0.33229 -0.56864,-0.25834 -0.52522,-1.3125 z m 251,0 c 0.048,-1.16495 0.28494,-1.4019 0.60416,-0.60417 0.28887,0.72187 0.25335,1.58437 -0.0789,1.91667 -0.33229,0.33229 -0.56864,-0.25834 -0.52522,-1.3125 z m 925.99995,0 c 0.048,-1.16495 0.285,-1.4019 0.6042,-0.60417 0.2889,0.72187 0.2534,1.58437 -0.079,1.91667 -0.3323,0.33229 -0.5687,-0.25834 -0.5253,-1.3125 z m 1078,0 c 0.048,-1.16495 0.285,-1.4019 0.6042,-0.60417 0.2889,0.72187 0.2534,1.58437 -0.079,1.91667 -0.3323,0.33229 -0.5687,-0.25834 -0.5253,-1.3125 z m 211,0 c 0.048,-1.16495 0.285,-1.4019 0.6042,-0.60417 0.2889,0.72187 0.2534,1.58437 -0.079,1.91667 -0.3323,0.33229 -0.5687,-0.25834 -0.5253,-1.3125 z m 924,0 c 0.048,-1.16495 0.285,-1.4019 0.6042,-0.60417 0.2889,0.72187 0.2534,1.58437 -0.079,1.91667 -0.3323,0.33229 -0.5687,-0.25834 -0.5253,-1.3125 z m 1153,0 c 0.048,-1.16495 0.285,-1.4019 0.6042,-0.60417 0.2889,0.72187 0.2534,1.58437 -0.079,1.91667 -0.3323,0.33229 -0.5687,-0.25834 -0.5253,-1.3125 z m 201,0 c 0.048,-1.16495 0.285,-1.4019 0.6042,-0.60417 0.2889,0.72187 0.2534,1.58437 -0.079,1.91667 -0.3323,0.33229 -0.5687,-0.25834 -0.5253,-1.3125 z m 897,0 c 0.048,-1.16495 0.285,-1.4019 0.6042,-0.60417 0.2889,0.72187 0.2534,1.58437 -0.079,1.91667 -0.3323,0.33229 -0.5687,-0.25834 -0.5253,-1.3125 z m 211,0 c 0.048,-1.16495 0.285,-1.4019 0.6042,-0.60417 0.2889,0.72187 0.2534,1.58437 -0.079,1.91667 -0.3323,0.33229 -0.5687,-0.25834 -0.5253,-1.3125 z M 297.15789,233 c 0,-1.375 0.22698,-1.9375 0.50439,-1.25 0.27741,0.6875 0.27741,1.8125 0,2.5 -0.27741,0.6875 -0.50439,0.125 -0.50439,-1.25 z m 251,0 c 0,-1.375 0.22698,-1.9375 0.50439,-1.25 0.27741,0.6875 0.27741,1.8125 0,2.5 -0.27741,0.6875 -0.50439,0.125 -0.50439,-1.25 z m 2004.00001,0 c 0,-1.375 0.227,-1.9375 0.5044,-1.25 0.2774,0.6875 0.2774,1.8125 0,2.5 -0.2774,0.6875 -0.5044,0.125 -0.5044,-1.25 z m 2489,0 c 0,-1.375 0.227,-1.9375 0.5044,-1.25 0.2774,0.6875 0.2774,1.8125 0,2.5 -0.2774,0.6875 -0.5044,0.125 -0.5044,-1.25 z m 897,0 c 0,-1.375 0.227,-1.9375 0.5044,-1.25 0.2774,0.6875 0.2774,1.8125 0,2.5 -0.2774,0.6875 -0.5044,0.125 -0.5044,-1.25 z m -1033.8217,-7 c 0,-4.125 0.1765,-5.8125 0.3923,-3.75 0.2157,2.0625 0.2157,5.4375 0,7.5 -0.2158,2.0625 -0.3923,0.375 -0.3923,-3.75 z m -4582.01613,0 c 0,-3.575 0.1815,-5.0375 0.40333,-3.25 0.22182,1.7875 0.22182,4.7125 0,6.5 -0.22183,1.7875 -0.40333,0.325 -0.40333,-3.25 z m 251,0 c 0,-3.575 0.1815,-5.0375 0.40333,-3.25 0.22182,1.7875 0.22182,4.7125 0,6.5 -0.22183,1.7875 -0.40333,0.325 -0.40333,-3.25 z m 2004.00003,0 c 0,-3.575 0.1815,-5.0375 0.4033,-3.25 0.2218,1.7875 0.2218,4.7125 0,6.5 -0.2218,1.7875 -0.4033,0.325 -0.4033,-3.25 z m 2489,0 c 0,-3.575 0.1815,-5.0375 0.4033,-3.25 0.2218,1.7875 0.2218,4.7125 0,6.5 -0.2218,1.7875 -0.4033,0.325 -0.4033,-3.25 z m 897,0 c 0,-3.575 0.1815,-5.0375 0.4033,-3.25 0.2218,1.7875 0.2218,4.7125 0,6.5 -0.2218,1.7875 -0.4033,0.325 -0.4033,-3.25 z m -5697.02044,0 c 0,-3.025 0.18747,-4.2625 0.41659,-2.75 0.22913,1.5125 0.22913,3.9875 0,5.5 -0.22912,1.5125 -0.41659,0.275 -0.41659,-2.75 z m 251,0 c 0,-3.025 0.18747,-4.2625 0.41659,-2.75 0.22913,1.5125 0.22913,3.9875 0,5.5 -0.22912,1.5125 -0.41659,0.275 -0.41659,-2.75 z m 2004.00004,0 c 0,-3.025 0.1874,-4.2625 0.4166,-2.75 0.2291,1.5125 0.2291,3.9875 0,5.5 -0.2292,1.5125 -0.4166,0.275 -0.4166,-2.75 z m 2489,0 c 0,-3.025 0.1874,-4.2625 0.4166,-2.75 0.2291,1.5125 0.2291,3.9875 0,5.5 -0.2292,1.5125 -0.4166,0.275 -0.4166,-2.75 z m 897,0 c 0,-3.025 0.1874,-4.2625 0.4166,-2.75 0.2291,1.5125 0.2291,3.9875 0,5.5 -0.2292,1.5125 -0.4166,0.275 -0.4166,-2.75 z m -4283.0273,0 c 0,-2.475 0.195,-3.4875 0.4333,-2.25 0.2384,1.2375 0.2384,3.2625 0,4.5 -0.2383,1.2375 -0.4333,0.225 -0.4333,-2.25 z m 990,0 c 0,-2.475 0.195,-3.4875 0.4333,-2.25 0.2384,1.2375 0.2384,3.2625 0,4.5 -0.2383,1.2375 -0.4333,0.225 -0.4333,-2.25 z m 2315.0136,-1.5 c 0.01,-2.75 0.2017,-3.75631 0.4316,-2.23625 0.2298,1.52006 0.2237,3.77006 -0.014,5 -0.2373,1.22994 -0.4254,-0.0137 -0.4179,-2.76375 z m -3443.881,1.25 -1.905,-2.25 2.25,1.90499 c 2.1144,1.79022 2.7052,2.59501 1.905,2.59501 -0.1898,0 -1.2023,-1.0125 -2.25,-2.25 z m 2214,0 -1.905,-2.25 2.25,1.90499 c 1.2375,1.04774 2.25,2.06024 2.25,2.25 0,0.80025 -0.8048,0.20945 -2.595,-1.90499 z M 2403.1579,222 c 0,-1.375 0.227,-1.9375 0.5044,-1.25 0.2774,0.6875 0.2774,1.8125 0,2.5 -0.2774,0.6875 -0.5044,0.125 -0.5044,-1.25 z M 453.15789,220 c 0,-1.375 0.22698,-1.9375 0.50439,-1.25 0.27741,0.6875 0.27741,1.8125 0,2.5 -0.27741,0.6875 -0.50439,0.125 -0.50439,-1.25 z m 902.00001,0 c 0,-1.375 0.227,-1.9375 0.5044,-1.25 0.2774,0.6875 0.2774,1.8125 0,2.5 -0.2774,0.6875 -0.5044,0.125 -0.5044,-1.25 z m 3366,0 c 0,-1.375 0.227,-1.9375 0.5044,-1.25 0.2774,0.6875 0.2774,1.8125 0,2.5 -0.2774,0.6875 -0.5044,0.125 -0.5044,-1.25 z m 1122,0 c 0,-1.375 0.227,-1.9375 0.5044,-1.25 0.2774,0.6875 0.2774,1.8125 0,2.5 -0.2774,0.6875 -0.5044,0.125 -0.5044,-1.25 z M 297.15789,219 c 0,-1.375 0.22698,-1.9375 0.50439,-1.25 0.27741,0.6875 0.27741,1.8125 0,2.5 -0.27741,0.6875 -0.50439,0.125 -0.50439,-1.25 z m 251,0 c 0,-1.375 0.22698,-1.9375 0.50439,-1.25 0.27741,0.6875 0.27741,1.8125 0,2.5 -0.27741,0.6875 -0.50439,0.125 -0.50439,-1.25 z m 1881.03701,-0.5 c 0.02,-1.65 0.2445,-2.20394 0.4981,-1.23097 0.2535,0.97297 0.2369,2.32297 -0.037,3 -0.2739,0.67703 -0.4813,-0.11903 -0.461,-1.76903 z m 122.963,0.5 c 0,-1.375 0.227,-1.9375 0.5044,-1.25 0.2774,0.6875 0.2774,1.8125 0,2.5 -0.2774,0.6875 -0.5044,0.125 -0.5044,-1.25 z m 2489,0 c 0,-1.375 0.227,-1.9375 0.5044,-1.25 0.2774,0.6875 0.2774,1.8125 0,2.5 -0.2774,0.6875 -0.5044,0.125 -0.5044,-1.25 z m 897,0 c 0,-1.375 0.227,-1.9375 0.5044,-1.25 0.2774,0.6875 0.2774,1.8125 0,2.5 -0.2774,0.6875 -0.5044,0.125 -0.5044,-1.25 z M 479.35496,211.5 c -0.003,-4.95 0.16605,-7.10108 0.37577,-4.78017 0.20972,2.3209 0.21222,6.3709 0.006,9 -0.20667,2.62909 -0.37827,0.73017 -0.38131,-4.21983 z m 902.00004,0 c 0,-4.95 0.166,-7.10108 0.3757,-4.78017 0.2098,2.3209 0.2122,6.3709 0.01,9 -0.2067,2.62909 -0.3783,0.73017 -0.3813,-4.21983 z m 218.7239,6.91667 c 0.048,-1.16495 0.285,-1.4019 0.6042,-0.60417 0.2889,0.72187 0.2534,1.58437 -0.079,1.91667 -0.3323,0.33229 -0.5687,-0.25834 -0.5253,-1.3125 z m 990,0 c 0.048,-1.16495 0.285,-1.4019 0.6042,-0.60417 0.2889,0.72187 0.2534,1.58437 -0.079,1.91667 -0.3323,0.33229 -0.5687,-0.25834 -0.5253,-1.3125 z M 4747.355,211.5 c 0,-4.95 0.166,-7.10108 0.3757,-4.78017 0.2098,2.3209 0.2122,6.3709 0.01,9 -0.2067,2.62909 -0.3783,0.73017 -0.3813,-4.21983 z m 1122,0 c 0,-4.95 0.166,-7.10108 0.3757,-4.78017 0.2098,2.3209 0.2122,6.3709 0.01,9 -0.2067,2.62909 -0.3783,0.73017 -0.3813,-4.21983 z m -4450.1601,5 c 0.02,-1.65 0.2445,-2.20394 0.4981,-1.23097 0.2535,0.97297 0.2369,2.32297 -0.037,3 -0.2739,0.67703 -0.4813,-0.11903 -0.461,-1.76903 z m 1289,0 c 0.02,-1.65 0.2445,-2.20394 0.4981,-1.23097 0.2535,0.97297 0.2369,2.32297 -0.037,3 -0.2739,0.67703 -0.4813,-0.11903 -0.461,-1.76903 z m 924,0 c 0.02,-1.65 0.2445,-2.20394 0.4981,-1.23097 0.2535,0.97297 0.2369,2.32297 -0.037,3 -0.2739,0.67703 -0.4813,-0.11903 -0.461,-1.76903 z m 1153,0 c 0.02,-1.65 0.2445,-2.20394 0.4981,-1.23097 0.2535,0.97297 0.2369,2.32297 -0.037,3 -0.2739,0.67703 -0.4813,-0.11903 -0.461,-1.76903 z m 1309,0 c 0.02,-1.65 0.2445,-2.20394 0.4981,-1.23097 0.2535,0.97297 0.2369,2.32297 -0.037,3 -0.2739,0.67703 -0.4813,-0.11903 -0.461,-1.76903 z M 242.07895,216.4167 c 0.048,-1.16495 0.28494,-1.4019 0.60416,-0.60417 0.28887,0.72187 0.25335,1.58437 -0.0789,1.91667 -0.3323,0.33229 -0.56864,-0.25834 -0.52522,-1.3125 z m 251,0 c 0.048,-1.16495 0.28494,-1.4019 0.60416,-0.60417 0.28887,0.72187 0.25335,1.58437 -0.0789,1.91667 -0.33229,0.33229 -0.56864,-0.25834 -0.52522,-1.3125 z m 901.99995,0 c 0.048,-1.16495 0.285,-1.4019 0.6042,-0.60417 0.2889,0.72187 0.2534,1.58437 -0.079,1.91667 -0.3323,0.33229 -0.5687,-0.25834 -0.5253,-1.3125 z m 1102,0 c 0.048,-1.16495 0.285,-1.4019 0.6042,-0.60417 0.2889,0.72187 0.2534,1.58437 -0.079,1.91667 -0.3323,0.33229 -0.5687,-0.25834 -0.5253,-1.3125 z m 187,0 c 0.048,-1.16495 0.285,-1.4019 0.6042,-0.60417 0.2889,0.72187 0.2534,1.58437 -0.079,1.91667 -0.3323,0.33229 -0.5687,-0.25834 -0.5253,-1.3125 z m 924,0 c 0.048,-1.16495 0.285,-1.4019 0.6042,-0.60417 0.2889,0.72187 0.2534,1.58437 -0.079,1.91667 -0.3323,0.33229 -0.5687,-0.25834 -0.5253,-1.3125 z m 1153,0 c 0.048,-1.16495 0.285,-1.4019 0.6042,-0.60417 0.2889,0.72187 0.2534,1.58437 -0.079,1.91667 -0.3323,0.33229 -0.5687,-0.25834 -0.5253,-1.3125 z m 225,0 c 0.048,-1.16495 0.285,-1.4019 0.6042,-0.60417 0.2889,0.72187 0.2534,1.58437 -0.079,1.91667 -0.3323,0.33229 -0.5687,-0.25834 -0.5253,-1.3125 z m 897,0 c 0.048,-1.16495 0.285,-1.4019 0.6042,-0.60417 0.2889,0.72187 0.2534,1.58437 -0.079,1.91667 -0.3323,0.33229 -0.5687,-0.25834 -0.5253,-1.3125 z m 187,0 c 0.048,-1.16495 0.285,-1.4019 0.6042,-0.60417 0.2889,0.72187 0.2534,1.58437 -0.079,1.91667 -0.3323,0.33229 -0.5687,-0.25834 -0.5253,-1.3125 z m -4602,-1 c 0.048,-1.16495 0.285,-1.4019 0.6042,-0.60417 0.2889,0.72187 0.2534,1.58437 -0.079,1.91667 -0.3323,0.33229 -0.5687,-0.25834 -0.5253,-1.3125 z m 1289,0 c 0.048,-1.16495 0.285,-1.4019 0.6042,-0.60417 0.2889,0.72187 0.2534,1.58437 -0.079,1.91667 -0.3323,0.33229 -0.5687,-0.25834 -0.5253,-1.3125 z m 924,0 c 0.048,-1.16495 0.285,-1.4019 0.6042,-0.60417 0.2889,0.72187 0.2534,1.58437 -0.079,1.91667 -0.3323,0.33229 -0.5687,-0.25834 -0.5253,-1.3125 z m 1153,0 c 0.048,-1.16495 0.285,-1.4019 0.6042,-0.60417 0.2889,0.72187 0.2534,1.58437 -0.079,1.91667 -0.3323,0.33229 -0.5687,-0.25834 -0.5253,-1.3125 z m 1309,0 c 0.048,-1.16495 0.285,-1.4019 0.6042,-0.60417 0.2889,0.72187 0.2534,1.58437 -0.079,1.91667 -0.3323,0.33229 -0.5687,-0.25834 -0.5253,-1.3125 z M 1480.286,210.5 c 0.01,-2.75 0.2017,-3.75631 0.4316,-2.23625 0.2298,1.52006 0.2237,3.77006 -0.014,5 -0.2373,1.22994 -0.4254,-0.0137 -0.4179,-2.76375 z m 2214,0 c 0.01,-2.75 0.2017,-3.75631 0.4316,-2.23625 0.2298,1.52006 0.2237,3.77006 -0.014,5 -0.2373,1.22994 -0.4254,-0.0137 -0.4179,-2.76375 z M 271.5,206 c 0.99549,-1.1 2.03498,-2 2.30998,-2 0.275,0 -0.31449,0.9 -1.30998,2 -0.99549,1.1 -2.03498,2 -2.30998,2 -0.275,0 0.31449,-0.9 1.30998,-2 z m 251,0 c 0.99549,-1.1 2.03498,-2 2.30998,-2 0.275,0 -0.31449,0.9 -1.30998,2 -0.99549,1.1 -2.03498,2 -2.30998,2 -0.275,0 0.31449,-0.9 1.30998,-2 z m 2004,0 c 0.9955,-1.1 2.035,-2 2.31,-2 0.275,0 -0.3145,0.9 -1.31,2 -0.9955,1.1 -2.035,2 -2.31,2 -0.275,0 0.3145,-0.9 1.31,-2 z m 2489,0 c 0.9955,-1.1 2.035,-2 2.31,-2 0.275,0 -0.3145,0.9 -1.31,2 -0.9955,1.1 -2.035,2 -2.31,2 -0.275,0 0.3145,-0.9 1.31,-2 z m 897,0 c 0.9955,-1.1 2.035,-2 2.31,-2 0.275,0 -0.3145,0.9 -1.31,2 -0.9955,1.1 -2.035,2 -2.31,2 -0.275,0 0.3145,-0.9 1.31,-2 z m -3483.3051,-1.5 c 0.02,-1.65 0.2445,-2.20394 0.4981,-1.23097 0.2535,0.97297 0.2369,2.32297 -0.037,3 -0.2739,0.67703 -0.4813,-0.11903 -0.461,-1.76903 z m -693.4449,0.79427 c 1.2375,-0.23836 3.2625,-0.23836 4.5,0 1.2375,0.23835 0.225,0.43337 -2.25,0.43337 -2.475,0 -3.4875,-0.19502 -2.25,-0.43337 z m 4281,0 c 1.2375,-0.23836 3.2625,-0.23836 4.5,0 1.2375,0.23835 0.225,0.43337 -2.25,0.43337 -2.475,0 -3.4875,-0.19502 -2.25,-0.43337 z m -5563.67105,-1.8776 c 0.048,-1.16495 0.28494,-1.4019 0.60416,-0.60417 0.28887,0.72187 0.25335,1.58437 -0.0789,1.91667 -0.33229,0.33229 -0.56864,-0.25834 -0.52522,-1.3125 z m 901.99995,0 c 0.048,-1.16495 0.285,-1.4019 0.6042,-0.60417 0.2889,0.72187 0.2534,1.58437 -0.079,1.91667 -0.3323,0.33229 -0.5687,-0.25834 -0.5253,-1.3125 z m 3366,0 c 0.048,-1.16495 0.285,-1.4019 0.6042,-0.60417 0.2889,0.72187 0.2534,1.58437 -0.079,1.91667 -0.3323,0.33229 -0.5687,-0.25834 -0.5253,-1.3125 z m 165.1848,0.86575 c 1.5201,-0.22986 3.7701,-0.22371 5,0.0136 1.23,0.23736 -0.014,0.42542 -2.7637,0.41792 -2.75,-0.008 -3.7563,-0.20172 -2.2363,-0.43157 z m 956.8152,-0.86575 c 0.048,-1.16495 0.285,-1.4019 0.6042,-0.60417 0.2889,0.72187 0.2534,1.58437 -0.079,1.91667 -0.3323,0.33229 -0.5687,-0.25834 -0.5253,-1.3125 z M 1541.3605,195 c 0,-5.225 0.1685,-7.3625 0.3745,-4.75 0.206,2.6125 0.206,6.8875 0,9.5 -0.206,2.6125 -0.3745,0.475 -0.3745,-4.75 z m 861.7974,7 c 0,-1.375 0.227,-1.9375 0.5044,-1.25 0.2774,0.6875 0.2774,1.8125 0,2.5 -0.2774,0.6875 -0.5044,0.125 -0.5044,-1.25 z m 1352.2026,-7 c 0,-5.225 0.1685,-7.3625 0.3745,-4.75 0.206,2.6125 0.206,6.8875 0,9.5 -0.206,2.6125 -0.3745,0.475 -0.3745,-4.75 z m 71.0047,-0.5 c 0,-5.5 0.1706,-7.62242 0.3732,-4.71648 0.2026,2.90594 0.2005,7.40594 0,10 -0.2053,2.59406 -0.3711,0.21648 -0.3685,-5.28352 z m -3545.60354,7.79274 c 1.24391,-0.23919 3.04391,-0.23011 4,0.0202 0.95609,0.25029 -0.0617,0.446 -2.26166,0.4349 -2.2,-0.0111 -2.98225,-0.21589 -1.73834,-0.45508 z m 251,0 c 1.24391,-0.23919 3.04391,-0.23011 4,0.0202 0.95609,0.25029 -0.0617,0.446 -2.26166,0.4349 -2.2,-0.0111 -2.98225,-0.21589 -1.73834,-0.45508 z m 1110.50204,-0.0103 c 1.5201,-0.22986 3.7701,-0.22371 5,0.0136 1.23,0.23736 -0.014,0.42542 -2.7637,0.41792 -2.75,-0.008 -3.7563,-0.20172 -2.2363,-0.43157 z m 893.498,0.0103 c 1.2439,-0.23919 3.0439,-0.23011 4,0.0202 0.956,0.25029 -0.062,0.446 -2.2617,0.4349 -2.2,-0.0111 -2.9823,-0.21589 -1.7383,-0.45508 z m 96.4883,-0.009 c 1.5125,-0.22913 3.9875,-0.22913 5.5,0 1.5125,0.22912 0.275,0.41659 -2.75,0.41659 -3.025,0 -4.2625,-0.18747 -2.75,-0.41659 z m 2392.5117,0.009 c 1.2439,-0.23919 3.0439,-0.23011 4,0.0202 0.956,0.25029 -0.062,0.446 -2.2617,0.4349 -2.2,-0.0111 -2.9823,-0.21589 -1.7383,-0.45508 z m 897,0 c 1.2439,-0.23919 3.0439,-0.23011 4,0.0202 0.956,0.25029 -0.062,0.446 -2.2617,0.4349 -2.2,-0.0111 -2.9823,-0.21589 -1.7383,-0.45508 z M 1516.75,201.26779 c 2.3375,-0.21053 6.1625,-0.21053 8.5,0 2.3375,0.21054 0.425,0.3828 -4.25,0.3828 -4.675,0 -6.5875,-0.17226 -4.25,-0.3828 z m 2214,0 c 2.3375,-0.21053 6.1625,-0.21053 8.5,0 2.3375,0.21054 0.425,0.3828 -4.25,0.3828 -4.675,0 -6.5875,-0.17226 -4.25,-0.3828 z m -2300,-1.97352 c 1.2375,-0.23836 3.2625,-0.23836 4.5,0 1.2375,0.23835 0.225,0.43337 -2.25,0.43337 -2.475,0 -3.4875,-0.19502 -2.25,-0.43337 z m 1289,0 c 1.2375,-0.23836 3.2625,-0.23836 4.5,0 1.2375,0.23835 0.225,0.43337 -2.25,0.43337 -2.475,0 -3.4875,-0.19502 -2.25,-0.43337 z m 924,0 c 1.2375,-0.23836 3.2625,-0.23836 4.5,0 1.2375,0.23835 0.225,0.43337 -2.25,0.43337 -2.475,0 -3.4875,-0.19502 -2.25,-0.43337 z m 1153,0 c 1.2375,-0.23836 3.2625,-0.23836 4.5,0 1.2375,0.23835 0.225,0.43337 -2.25,0.43337 -2.475,0 -3.4875,-0.19502 -2.25,-0.43337 z m 1309,0 c 1.2375,-0.23836 3.2625,-0.23836 4.5,0 1.2375,0.23835 0.225,0.43337 -2.25,0.43337 -2.475,0 -3.4875,-0.19502 -2.25,-0.43337 z M 271.8125,184.31689 c 0.72187,-0.28887 1.58438,-0.25335 1.91667,0.0789 0.33229,0.33229 -0.25834,0.56864 -1.3125,0.52522 -1.16495,-0.048 -1.4019,-0.28494 -0.60417,-0.60416 z m 251,0 c 0.72187,-0.28887 1.58438,-0.25335 1.91667,0.0789 0.33229,0.33229 -0.25834,0.56864 -1.3125,0.52522 -1.16495,-0.048 -1.4019,-0.28494 -0.60417,-0.60416 z m 1008,0 c 0.7219,-0.28887 1.5844,-0.25335 1.9167,0.0789 0.3323,0.33229 -0.2584,0.56864 -1.3125,0.52522 -1.165,-0.048 -1.4019,-0.28494 -0.6042,-0.60416 z m 104,0 c 0.7219,-0.28887 1.5844,-0.25335 1.9167,0.0789 0.3323,0.33229 -0.2584,0.56864 -1.3125,0.52522 -1.165,-0.048 -1.4019,-0.28494 -0.6042,-0.60416 z m 23.9375,0.0208 c 0.6875,-0.27741 1.8125,-0.27741 2.5,0 0.6875,0.27741 0.125,0.50439 -1.25,0.50439 -1.375,0 -1.9375,-0.22698 -1.25,-0.50439 z m 868.0625,-0.0208 c 0.7219,-0.28887 1.5844,-0.25335 1.9167,0.0789 0.3323,0.33229 -0.2584,0.56864 -1.3125,0.52522 -1.165,-0.048 -1.4019,-0.28494 -0.6042,-0.60416 z m 97,0 c 0.7219,-0.28887 1.5844,-0.25335 1.9167,0.0789 0.3323,0.33229 -0.2584,0.56864 -1.3125,0.52522 -1.165,-0.048 -1.4019,-0.28494 -0.6042,-0.60416 z m 1121,0 c 0.7219,-0.28887 1.5844,-0.25335 1.9167,0.0789 0.3323,0.33229 -0.2584,0.56864 -1.3125,0.52522 -1.165,-0.048 -1.4019,-0.28494 -0.6042,-0.60416 z m 1271,0 c 0.7219,-0.28887 1.5844,-0.25335 1.9167,0.0789 0.3323,0.33229 -0.2584,0.56864 -1.3125,0.52522 -1.165,-0.048 -1.4019,-0.28494 -0.6042,-0.60416 z m 897,0 c 0.7219,-0.28887 1.5844,-0.25335 1.9167,0.0789 0.3323,0.33229 -0.2584,0.56864 -1.3125,0.52522 -1.165,-0.048 -1.4019,-0.28494 -0.6042,-0.60416 z M 2485.994,168.20426 2486.4879,157.5 l 0.2942,9.91184 c 0.1618,5.45151 -0.06,10.26842 -0.4939,10.70425 -0.4335,0.43583 -0.5659,-4.02449 -0.2942,-9.91183 z m 1295.0849,9.21241 c 0.048,-1.16495 0.285,-1.4019 0.6042,-0.60417 0.2889,0.72187 0.2534,1.58437 -0.079,1.91667 -0.3323,0.33229 -0.5687,-0.25834 -0.5253,-1.3125 z M 153.36996,166 c 0,-5.775 0.16528,-8.1375 0.36728,-5.25 0.202,2.8875 0.202,7.6125 0,10.5 -0.202,2.8875 -0.36728,0.525 -0.36728,-5.25 z m 95,0 c 0,-5.775 0.16528,-8.1375 0.36728,-5.25 0.202,2.8875 0.202,7.6125 0,10.5 -0.202,2.8875 -0.36728,0.525 -0.36728,-5.25 z m 168.35774,9.27827 c 1.77523,-0.22091 4.92523,-0.22454 7,-0.008 2.07476,0.21648 0.6223,0.39722 -3.2277,0.40166 -3.85,0.004 -5.54754,-0.17268 -3.7723,-0.39359 z m 902,0 c 1.7752,-0.22091 4.9252,-0.22454 7,-0.008 2.0748,0.21648 0.6223,0.39722 -3.2277,0.40166 -3.85,0.004 -5.5475,-0.17268 -3.7723,-0.39359 z m 1142.0487,-0.0118 c 2.3521,-0.21124 5.9521,-0.20827 8,0.007 2.048,0.21487 0.1236,0.38771 -4.2764,0.38408 -4.4,-0.004 -6.0756,-0.17944 -3.7236,-0.39069 z M 3519.37,166 c 0,-5.775 0.1652,-8.1375 0.3672,-5.25 0.202,2.8875 0.202,7.6125 0,10.5 -0.202,2.8875 -0.3672,0.525 -0.3672,-5.25 z m 95,0 c 0,-5.775 0.1652,-8.1375 0.3672,-5.25 0.202,2.8875 0.202,7.6125 0,10.5 -0.202,2.8875 -0.3672,0.525 -0.3672,-5.25 z m 1070.3577,9.27827 c 1.7752,-0.22091 4.9252,-0.22454 7,-0.008 2.0748,0.21648 0.6223,0.39722 -3.2277,0.40166 -3.85,0.004 -5.5475,-0.17268 -3.7723,-0.39359 z m 1122,0 c 1.7752,-0.22091 4.9252,-0.22454 7,-0.008 2.0748,0.21648 0.6223,0.39722 -3.2277,0.40166 -3.85,0.004 -5.5475,-0.17268 -3.7723,-0.39359 z m -2024.6488,-4.8616 c 0.048,-1.16495 0.285,-1.4019 0.6042,-0.60417 0.2889,0.72187 0.2534,1.58437 -0.079,1.91667 -0.3323,0.33229 -0.5687,-0.25834 -0.5253,-1.3125 z m 2,-13 c 0.048,-1.16495 0.285,-1.4019 0.6042,-0.60417 0.2889,0.72187 0.2534,1.58437 -0.079,1.91667 -0.3323,0.33229 -0.5687,-0.25834 -0.5253,-1.3125 z M 401.26903,155.30701 c 0.97297,-0.25354 2.32297,-0.23687 3,0.0371 0.67703,0.27393 -0.11903,0.48137 -1.76903,0.46099 -1.65,-0.0204 -2.20394,-0.2445 -1.23097,-0.49804 z m 29.54347,0.01 c 0.72187,-0.28887 1.58438,-0.25335 1.91667,0.0789 0.33229,0.33229 -0.25834,0.56864 -1.3125,0.52522 -1.16495,-0.048 -1.4019,-0.28494 -0.60417,-0.60416 z m 872.4565,-0.01 c 0.973,-0.25354 2.323,-0.23687 3,0.0371 0.6771,0.27393 -0.119,0.48137 -1.769,0.46099 -1.65,-0.0204 -2.2039,-0.2445 -1.231,-0.49804 z m 29.5435,0.01 c 0.7219,-0.28887 1.5844,-0.25335 1.9167,0.0789 0.3323,0.33229 -0.2584,0.56864 -1.3125,0.52522 -1.165,-0.048 -1.4019,-0.28494 -0.6042,-0.60416 z m 1115.9375,0.0208 c 0.6875,-0.27741 1.8125,-0.27741 2.5,0 0.6875,0.27741 0.125,0.50439 -1.25,0.50439 -1.375,0 -1.9375,-0.22698 -1.25,-0.50439 z m 26.0625,-0.0208 c 0.7219,-0.28887 1.5844,-0.25335 1.9167,0.0789 0.3323,0.33229 -0.2584,0.56864 -1.3125,0.52522 -1.165,-0.048 -1.4019,-0.28494 -0.6042,-0.60416 z m 2194.4565,-0.01 c 0.973,-0.25354 2.323,-0.23687 3,0.0371 0.6771,0.27393 -0.119,0.48137 -1.769,0.46099 -1.65,-0.0204 -2.2039,-0.2445 -1.231,-0.49804 z m 29.5435,0.01 c 0.7219,-0.28887 1.5844,-0.25335 1.9167,0.0789 0.3323,0.33229 -0.2584,0.56864 -1.3125,0.52522 -1.165,-0.048 -1.4019,-0.28494 -0.6042,-0.60416 z m 1092.4565,-0.01 c 0.973,-0.25354 2.323,-0.23687 3,0.0371 0.6771,0.27393 -0.119,0.48137 -1.769,0.46099 -1.65,-0.0204 -2.2039,-0.2445 -1.231,-0.49804 z m 29.5435,0.01 c 0.7219,-0.28887 1.5844,-0.25335 1.9167,0.0789 0.3323,0.33229 -0.2584,0.56864 -1.3125,0.52522 -1.165,-0.048 -1.4019,-0.28494 -0.6042,-0.60416 z"
         id="path317" />
      <path
         style="fill:#6e6e6e;fill-opacity:1"
         d="m 2397,1623 v -201 h 448.5 448.5 v 201 201 H 2845.5 2397 Z M 153,549 V 348 H 601.5 1050 V 549 750 H 601.5 153 Z m 4488,0 V 348 H 5089.5 5538 V 549 750 H 5089.5 4641 Z M 1622.8125,300.31689 c 0.7219,-0.28887 1.5844,-0.25335 1.9167,0.0789 0.3323,0.33229 -0.2584,0.56864 -1.3125,0.52522 -1.165,-0.048 -1.4019,-0.28494 -0.6042,-0.60416 z m 19,0 c 0.7219,-0.28887 1.5844,-0.25335 1.9167,0.0789 0.3323,0.33229 -0.2584,0.56864 -1.3125,0.52522 -1.165,-0.048 -1.4019,-0.28494 -0.6042,-0.60416 z m -20,-18 c 0.7219,-0.28887 1.5844,-0.25335 1.9167,0.0789 0.3323,0.33229 -0.2584,0.56864 -1.3125,0.52522 -1.165,-0.048 -1.4019,-0.28494 -0.6042,-0.60416 z M 397.26903,267.30701 c 0.97297,-0.25354 2.32297,-0.23687 3,0.0371 0.67703,0.27393 -0.11903,0.48137 -1.76903,0.46099 -1.65,-0.0204 -2.20394,-0.2445 -1.23097,-0.49804 z m 26.54347,0.01 c 0.72187,-0.28887 1.58438,-0.25335 1.91667,0.0789 0.33229,0.33229 -0.25834,0.56864 -1.3125,0.52522 -1.16495,-0.048 -1.4019,-0.28494 -0.60417,-0.60416 z m 875.4565,-0.01 c 0.973,-0.25354 2.323,-0.23687 3,0.0371 0.6771,0.27393 -0.119,0.48137 -1.769,0.46099 -1.65,-0.0204 -2.2039,-0.2445 -1.231,-0.49804 z m 26.5435,0.01 c 0.7219,-0.28887 1.5844,-0.25335 1.9167,0.0789 0.3323,0.33229 -0.2584,0.56864 -1.3125,0.52522 -1.165,-0.048 -1.4019,-0.28494 -0.6042,-0.60416 z m 105,0 c 0.7219,-0.28887 1.5844,-0.25335 1.9167,0.0789 0.3323,0.33229 -0.2584,0.56864 -1.3125,0.52522 -1.165,-0.048 -1.4019,-0.28494 -0.6042,-0.60416 z m 18,0 c 0.7219,-0.28887 1.5844,-0.25335 1.9167,0.0789 0.3323,0.33229 -0.2584,0.56864 -1.3125,0.52522 -1.165,-0.048 -1.4019,-0.28494 -0.6042,-0.60416 z m 50,0 c 0.7219,-0.28887 1.5844,-0.25335 1.9167,0.0789 0.3323,0.33229 -0.2584,0.56864 -1.3125,0.52522 -1.165,-0.048 -1.4019,-0.28494 -0.6042,-0.60416 z m 952,0 c 0.7219,-0.28887 1.5844,-0.25335 1.9167,0.0789 0.3323,0.33229 -0.2584,0.56864 -1.3125,0.52522 -1.165,-0.048 -1.4019,-0.28494 -0.6042,-0.60416 z m 269,0 c 0.7219,-0.28887 1.5844,-0.25335 1.9167,0.0789 0.3323,0.33229 -0.2584,0.56864 -1.3125,0.52522 -1.165,-0.048 -1.4019,-0.28494 -0.6042,-0.60416 z m 18,0 c 0.7219,-0.28887 1.5844,-0.25335 1.9167,0.0789 0.3323,0.33229 -0.2584,0.56864 -1.3125,0.52522 -1.165,-0.048 -1.4019,-0.28494 -0.6042,-0.60416 z m 906,0 c 0.7219,-0.28887 1.5844,-0.25335 1.9167,0.0789 0.3323,0.33229 -0.2584,0.56864 -1.3125,0.52522 -1.165,-0.048 -1.4019,-0.28494 -0.6042,-0.60416 z m 18,0 c 0.7219,-0.28887 1.5844,-0.25335 1.9167,0.0789 0.3323,0.33229 -0.2584,0.56864 -1.3125,0.52522 -1.165,-0.048 -1.4019,-0.28494 -0.6042,-0.60416 z m 51,0 c 0.7219,-0.28887 1.5844,-0.25335 1.9167,0.0789 0.3323,0.33229 -0.2584,0.56864 -1.3125,0.52522 -1.165,-0.048 -1.4019,-0.28494 -0.6042,-0.60416 z m 952.4565,-0.01 c 0.973,-0.25354 2.323,-0.23687 3,0.0371 0.6771,0.27393 -0.119,0.48137 -1.769,0.46099 -1.65,-0.0204 -2.2039,-0.2445 -1.231,-0.49804 z m 26.5435,0.01 c 0.7219,-0.28887 1.5844,-0.25335 1.9167,0.0789 0.3323,0.33229 -0.2584,0.56864 -1.3125,0.52522 -1.165,-0.048 -1.4019,-0.28494 -0.6042,-0.60416 z m 105,0 c 0.7219,-0.28887 1.5844,-0.25335 1.9167,0.0789 0.3323,0.33229 -0.2584,0.56864 -1.3125,0.52522 -1.165,-0.048 -1.4019,-0.28494 -0.6042,-0.60416 z m 18,0 c 0.7219,-0.28887 1.5844,-0.25335 1.9167,0.0789 0.3323,0.33229 -0.2584,0.56864 -1.3125,0.52522 -1.165,-0.048 -1.4019,-0.28494 -0.6042,-0.60416 z m 61,0 c 0.7219,-0.28887 1.5844,-0.25335 1.9167,0.0789 0.3323,0.33229 -0.2584,0.56864 -1.3125,0.52522 -1.165,-0.048 -1.4019,-0.28494 -0.6042,-0.60416 z m 16,0 c 0.7219,-0.28887 1.5844,-0.25335 1.9167,0.0789 0.3323,0.33229 -0.2584,0.56864 -1.3125,0.52522 -1.165,-0.048 -1.4019,-0.28494 -0.6042,-0.60416 z m 895.4565,-0.01 c 0.973,-0.25354 2.323,-0.23687 3,0.0371 0.6771,0.27393 -0.119,0.48137 -1.769,0.46099 -1.65,-0.0204 -2.2039,-0.2445 -1.231,-0.49804 z m 26.5435,0.01 c 0.7219,-0.28887 1.5844,-0.25335 1.9167,0.0789 0.3323,0.33229 -0.2584,0.56864 -1.3125,0.52522 -1.165,-0.048 -1.4019,-0.28494 -0.6042,-0.60416 z m 292,0 c 0.7219,-0.28887 1.5844,-0.25335 1.9167,0.0789 0.3323,0.33229 -0.2584,0.56864 -1.3125,0.52522 -1.165,-0.048 -1.4019,-0.28494 -0.6042,-0.60416 z m 18,0 c 0.7219,-0.28887 1.5844,-0.25335 1.9167,0.0789 0.3323,0.33229 -0.2584,0.56864 -1.3125,0.52522 -1.165,-0.048 -1.4019,-0.28494 -0.6042,-0.60416 z M 213.46092,221.5 c 2.1e-4,-25.3 0.12996,-35.50664 0.28833,-22.68142 0.15837,12.82521 0.1582,33.52521 -3.8e-4,46 C 213.59028,257.29336 213.46071,246.8 213.46092,221.5 Z M 1749.4367,241 c 0,-14.575 0.1398,-20.5375 0.3107,-13.25 0.1709,7.2875 0.1709,19.2125 0,26.5 -0.1709,7.2875 -0.3107,1.325 -0.3107,-13.25 z m 1830.0242,-19.5 c 2e-4,-25.3 0.13,-35.50664 0.2883,-22.68142 0.1584,12.82521 0.1582,33.52521 -3e-4,46 -0.1586,12.47478 -0.2882,1.98142 -0.288,-23.31858 z m 246.5326,35.2044 0.4935,-10.2044 0.2961,9.41035 c 0.1629,5.1757 -0.059,9.76768 -0.4935,10.2044 -0.4343,0.43673 -0.5675,-3.79793 -0.2961,-9.41035 z M 6030.4367,241 c 0,-14.575 0.1398,-20.5375 0.3107,-13.25 0.1709,7.2875 0.1709,19.2125 0,26.5 -0.1709,7.2875 -0.3107,1.325 -0.3107,-13.25 z m -4376.1845,21.5 c 0.011,-2.2 0.2159,-2.98225 0.4551,-1.73834 0.2392,1.24391 0.2301,3.04391 -0.02,4 -0.2503,0.95609 -0.446,-0.0617 -0.4349,-2.26166 z m -249.3798,-5.25 c -1.2438,-1.58606 -1.2085,-1.62143 0.3776,-0.37756 1.6657,1.30637 2.1955,2.12756 1.3724,2.12756 -0.2076,0 -0.9951,-0.7875 -1.75,-1.75 z m 1289,0 c -1.2438,-1.58606 -1.2085,-1.62143 0.3776,-0.37756 0.9625,0.75485 1.75,1.54235 1.75,1.75 0,0.82304 -0.8212,0.29331 -2.1276,-1.37244 z m 924,0 c -1.2438,-1.58606 -1.2085,-1.62143 0.3776,-0.37756 1.6657,1.30637 2.1955,2.12756 1.3724,2.12756 -0.2076,0 -0.9951,-0.7875 -1.75,-1.75 z m 1153,0 c -1.2438,-1.58606 -1.2085,-1.62143 0.3776,-0.37756 1.6657,1.30637 2.1955,2.12756 1.3724,2.12756 -0.2076,0 -0.9951,-0.7875 -1.75,-1.75 z m 1309,0 c -1.2438,-1.58606 -1.2085,-1.62143 0.3776,-0.37756 1.6657,1.30637 2.1955,2.12756 1.3724,2.12756 -0.2076,0 -0.9951,-0.7875 -1.75,-1.75 z M 1545.0789,245.41667 c 0.048,-1.16495 0.285,-1.4019 0.6042,-0.60417 0.2889,0.72187 0.2534,1.58437 -0.079,1.91667 -0.3323,0.33229 -0.5687,-0.25834 -0.5253,-1.3125 z m 2214,0 c 0.048,-1.16495 0.285,-1.4019 0.6042,-0.60417 0.2889,0.72187 0.2534,1.58437 -0.079,1.91667 -0.3323,0.33229 -0.5687,-0.25834 -0.5253,-1.3125 z m -2236,-3 c 0.048,-1.16495 0.285,-1.4019 0.6042,-0.60417 0.2889,0.72187 0.2534,1.58437 -0.079,1.91667 -0.3323,0.33229 -0.5687,-0.25834 -0.5253,-1.3125 z m 2214,0 c 0.048,-1.16495 0.285,-1.4019 0.6042,-0.60417 0.2889,0.72187 0.2534,1.58437 -0.079,1.91667 -0.3323,0.33229 -0.5687,-0.25834 -0.5253,-1.3125 z M 1653.998,223.29793 c -0.2739,-11.11114 -0.1505,-19.85364 0.2742,-19.42778 0.4247,0.42585 0.6488,9.51678 0.498,20.20207 L 1654.4959,243.5 Z m 783.407,16.45207 -1.905,-2.25 2.25,1.90499 c 2.1144,1.79022 2.7052,2.59501 1.905,2.59501 -0.1898,0 -1.2023,-1.0125 -2.25,-2.25 z M 2644.4186,223 c 0,-10.725 0.1471,-15.1125 0.3269,-9.75 0.1798,5.3625 0.1798,14.1375 0,19.5 -0.1798,5.3625 -0.3269,0.975 -0.3269,-9.75 z m -1099.3397,14.41667 c 0.048,-1.16495 0.285,-1.4019 0.6042,-0.60417 0.2889,0.72187 0.2534,1.58437 -0.079,1.91667 -0.3323,0.33229 -0.5687,-0.25834 -0.5253,-1.3125 z m 2214,0 c 0.048,-1.16495 0.285,-1.4019 0.6042,-0.60417 0.2889,0.72187 0.2534,1.58437 -0.079,1.91667 -0.3323,0.33229 -0.5687,-0.25834 -0.5253,-1.3125 z M 3804.4071,220 c 0,-9.075 0.1516,-12.7875 0.3369,-8.25 0.1853,4.5375 0.1853,11.9625 0,16.5 -0.1853,4.5375 -0.3369,0.825 -0.3369,-8.25 z m -2204.2492,13 c 0,-1.375 0.227,-1.9375 0.5044,-1.25 0.2774,0.6875 0.2774,1.8125 0,2.5 -0.2774,0.6875 -0.5044,0.125 -0.5044,-1.25 z m 989.921,0.41667 c 0.048,-1.16495 0.285,-1.4019 0.6042,-0.60417 0.2889,0.72187 0.2534,1.58437 -0.079,1.91667 -0.3323,0.33229 -0.5687,-0.25834 -0.5253,-1.3125 z M 1395.1579,232 c 0,-1.375 0.227,-1.9375 0.5044,-1.25 0.2774,0.6875 0.2774,1.8125 0,2.5 -0.2774,0.6875 -0.5044,0.125 -0.5044,-1.25 z m 1289,0 c 0,-1.375 0.227,-1.9375 0.5044,-1.25 0.2774,0.6875 0.2774,1.8125 0,2.5 -0.2774,0.6875 -0.5044,0.125 -0.5044,-1.25 z m 924,0 c 0,-1.375 0.227,-1.9375 0.5044,-1.25 0.2774,0.6875 0.2774,1.8125 0,2.5 -0.2774,0.6875 -0.5044,0.125 -0.5044,-1.25 z m 1153,0 c 0,-1.375 0.227,-1.9375 0.5044,-1.25 0.2774,0.6875 0.2774,1.8125 0,2.5 -0.2774,0.6875 -0.5044,0.125 -0.5044,-1.25 z m 1309,0 c 0,-1.375 0.227,-1.9375 0.5044,-1.25 0.2774,0.6875 0.2774,1.8125 0,2.5 -0.2774,0.6875 -0.5044,0.125 -0.5044,-1.25 z M 242.07895,231.41667 c 0.048,-1.16495 0.28494,-1.4019 0.60416,-0.60417 0.28887,0.72187 0.25335,1.58437 -0.0789,1.91667 -0.3323,0.33229 -0.56864,-0.25834 -0.52522,-1.3125 z m 251,0 c 0.048,-1.16495 0.28494,-1.4019 0.60416,-0.60417 0.28887,0.72187 0.25335,1.58437 -0.0789,1.91667 -0.33229,0.33229 -0.56864,-0.25834 -0.52522,-1.3125 z m 2003.99995,0 c 0.048,-1.16495 0.285,-1.4019 0.6042,-0.60417 0.2889,0.72187 0.2534,1.58437 -0.079,1.91667 -0.3323,0.33229 -0.5687,-0.25834 -0.5253,-1.3125 z m 2489,0 c 0.048,-1.16495 0.285,-1.4019 0.6042,-0.60417 0.2889,0.72187 0.2534,1.58437 -0.079,1.91667 -0.3323,0.33229 -0.5687,-0.25834 -0.5253,-1.3125 z m 897,0 c 0.048,-1.16495 0.285,-1.4019 0.6042,-0.60417 0.2889,0.72187 0.2534,1.58437 -0.079,1.91667 -0.3323,0.33229 -0.5687,-0.25834 -0.5253,-1.3125 z M 1600.1579,222 c 0,-1.375 0.227,-1.9375 0.5044,-1.25 0.2774,0.6875 0.2774,1.8125 0,2.5 -0.2774,0.6875 -0.5044,0.125 -0.5044,-1.25 z m 990,0 c 0,-1.375 0.227,-1.9375 0.5044,-1.25 0.2774,0.6875 0.2774,1.8125 0,2.5 -0.2774,0.6875 -0.5044,0.125 -0.5044,-1.25 z M 242.15789,220 c 0,-1.375 0.22698,-1.9375 0.50439,-1.25 0.27741,0.6875 0.27741,1.8125 0,2.5 -0.27741,0.6875 -0.50439,0.125 -0.50439,-1.25 z m 251,0 c 0,-1.375 0.22698,-1.9375 0.50439,-1.25 0.27741,0.6875 0.27741,1.8125 0,2.5 -0.27741,0.6875 -0.50439,0.125 -0.50439,-1.25 z m 902.00001,0 c 0,-1.375 0.227,-1.9375 0.5044,-1.25 0.2774,0.6875 0.2774,1.8125 0,2.5 -0.2774,0.6875 -0.5044,0.125 -0.5044,-1.25 z m 1102,0 c 0,-1.375 0.227,-1.9375 0.5044,-1.25 0.2774,0.6875 0.2774,1.8125 0,2.5 -0.2774,0.6875 -0.5044,0.125 -0.5044,-1.25 z m 116.921,0.41667 c 0.048,-1.16495 0.285,-1.4019 0.6042,-0.60417 0.2889,0.72187 0.2534,1.58437 -0.079,1.91667 -0.3323,0.33229 -0.5687,-0.25834 -0.5253,-1.3125 z M 2684.1579,220 c 0,-1.375 0.227,-1.9375 0.5044,-1.25 0.2774,0.6875 0.2774,1.8125 0,2.5 -0.2774,0.6875 -0.5044,0.125 -0.5044,-1.25 z m 924,0 c 0,-1.375 0.227,-1.9375 0.5044,-1.25 0.2774,0.6875 0.2774,1.8125 0,2.5 -0.2774,0.6875 -0.5044,0.125 -0.5044,-1.25 z m 1153,0 c 0,-1.375 0.227,-1.9375 0.5044,-1.25 0.2774,0.6875 0.2774,1.8125 0,2.5 -0.2774,0.6875 -0.5044,0.125 -0.5044,-1.25 z m 225,0 c 0,-1.375 0.227,-1.9375 0.5044,-1.25 0.2774,0.6875 0.2774,1.8125 0,2.5 -0.2774,0.6875 -0.5044,0.125 -0.5044,-1.25 z m 897,0 c 0,-1.375 0.227,-1.9375 0.5044,-1.25 0.2774,0.6875 0.2774,1.8125 0,2.5 -0.2774,0.6875 -0.5044,0.125 -0.5044,-1.25 z m 187,0 c 0,-1.375 0.227,-1.9375 0.5044,-1.25 0.2774,0.6875 0.2774,1.8125 0,2.5 -0.2774,0.6875 -0.5044,0.125 -0.5044,-1.25 z m -4602.079,-1.58333 c 0.048,-1.16495 0.285,-1.4019 0.6042,-0.60417 0.2889,0.72187 0.2534,1.58437 -0.079,1.91667 -0.3323,0.33229 -0.5687,-0.25834 -0.5253,-1.3125 z M 2403.1949,217.5 c 0.02,-1.65 0.2445,-2.20394 0.4981,-1.23097 0.2535,0.97297 0.2369,2.32297 -0.037,3 -0.2739,0.67703 -0.4813,-0.11903 -0.461,-1.76903 z m 353.884,0.91667 c 0.048,-1.16495 0.285,-1.4019 0.6042,-0.60417 0.2889,0.72187 0.2534,1.58437 -0.079,1.91667 -0.3323,0.33229 -0.5687,-0.25834 -0.5253,-1.3125 z m 924,0 c 0.048,-1.16495 0.285,-1.4019 0.6042,-0.60417 0.2889,0.72187 0.2534,1.58437 -0.079,1.91667 -0.3323,0.33229 -0.5687,-0.25834 -0.5253,-1.3125 z m 1153,0 c 0.048,-1.16495 0.285,-1.4019 0.6042,-0.60417 0.2889,0.72187 0.2534,1.58437 -0.079,1.91667 -0.3323,0.33229 -0.5687,-0.25834 -0.5253,-1.3125 z m 1309,0 c 0.048,-1.16495 0.285,-1.4019 0.6042,-0.60417 0.2889,0.72187 0.2534,1.58437 -0.079,1.91667 -0.3323,0.33229 -0.5687,-0.25834 -0.5253,-1.3125 z m -4697,-3 c 0.048,-1.16495 0.285,-1.4019 0.6042,-0.60417 0.2889,0.72187 0.2534,1.58437 -0.079,1.91667 -0.3323,0.33229 -0.5687,-0.25834 -0.5253,-1.3125 z m 1289,0 c 0.048,-1.16495 0.285,-1.4019 0.6042,-0.60417 0.2889,0.72187 0.2534,1.58437 -0.079,1.91667 -0.3323,0.33229 -0.5687,-0.25834 -0.5253,-1.3125 z m 924,0 c 0.048,-1.16495 0.285,-1.4019 0.6042,-0.60417 0.2889,0.72187 0.2534,1.58437 -0.079,1.91667 -0.3323,0.33229 -0.5687,-0.25834 -0.5253,-1.3125 z m 1153,0 c 0.048,-1.16495 0.285,-1.4019 0.6042,-0.60417 0.2889,0.72187 0.2534,1.58437 -0.079,1.91667 -0.3323,0.33229 -0.5687,-0.25834 -0.5253,-1.3125 z m 1309,0 c 0.048,-1.16495 0.285,-1.4019 0.6042,-0.60417 0.2889,0.72187 0.2534,1.58437 -0.079,1.91667 -0.3323,0.33229 -0.5687,-0.25834 -0.5253,-1.3125 z M 1723,211.62244 c 0,-0.20765 0.7875,-0.99515 1.75,-1.75 1.5861,-1.24387 1.6214,-1.2085 0.3776,0.37756 -1.3064,1.66575 -2.1276,2.19548 -2.1276,1.37244 z m 4281,0 c 0,-0.20765 0.7875,-0.99515 1.75,-1.75 1.5861,-1.24387 1.6214,-1.2085 0.3776,0.37756 -1.3064,1.66575 -2.1276,2.19548 -2.1276,1.37244 z M 2403.1949,206.5 c 0.02,-1.65 0.2445,-2.20394 0.4981,-1.23097 0.2535,0.97297 0.2369,2.32297 -0.037,3 -0.2739,0.67703 -0.4813,-0.11903 -0.461,-1.76903 z m 1364.1703,-12 c 0,-5.5 0.1706,-7.62242 0.3732,-4.71648 0.2026,2.90594 0.2005,7.40594 0,10 -0.2053,2.59406 -0.3711,0.21648 -0.3685,-5.28352 z M 1611,195.5 c 1.2917,-1.375 2.5736,-2.5 2.8486,-2.5 0.275,0 -0.5569,1.125 -1.8486,2.5 -1.2917,1.375 -2.5736,2.5 -2.8486,2.5 -0.275,0 0.5569,-1.125 1.8486,-2.5 z m -1360,0.12244 c 0,-0.20765 0.7875,-0.99515 1.75,-1.75 1.58606,-1.24387 1.62143,-1.2085 0.37756,0.37756 C 251.82119,195.91575 251,196.44548 251,195.62244 Z m 251,0 c 0,-0.20765 0.7875,-0.99515 1.75,-1.75 1.58606,-1.24387 1.62143,-1.2085 0.37756,0.37756 C 502.82119,195.91575 502,196.44548 502,195.62244 Z m 2004,0 c 0,-0.20765 0.7875,-0.99515 1.75,-1.75 1.5861,-1.24387 1.6214,-1.2085 0.3776,0.37756 -1.3064,1.66575 -2.1276,2.19548 -2.1276,1.37244 z m 2489,0 c 0,-0.20765 0.7875,-0.99515 1.75,-1.75 1.5861,-1.24387 1.6214,-1.2085 0.3776,0.37756 -1.3064,1.66575 -2.1276,2.19548 -2.1276,1.37244 z m 897,0 c 0,-0.20765 0.7875,-0.99515 1.75,-1.75 1.5861,-1.24387 1.6214,-1.2085 0.3776,0.37756 -1.3064,1.66575 -2.1276,2.19548 -2.1276,1.37244 z m -4172,-2.01545 c 0,-0.21616 0.6984,-0.661 1.5519,-0.98855 0.89,-0.34149 1.2914,-0.17385 0.941,0.39301 -0.5872,0.95021 -2.4929,1.40545 -2.4929,0.59554 z M 4917.8724,192.25 c -1.2438,-1.58606 -1.2085,-1.62143 0.3776,-0.37756 1.6657,1.30637 2.1955,2.12756 1.3724,2.12756 -0.2076,0 -0.9951,-0.7875 -1.75,-1.75 z M 6001,193.60699 c 0,-0.21616 0.6984,-0.661 1.5519,-0.98855 0.89,-0.34149 1.2914,-0.17385 0.941,0.39301 -0.5872,0.95021 -2.4929,1.40545 -2.4929,0.59554 z m -5712.1875,-9.2901 c 0.72187,-0.28887 1.58438,-0.25335 1.91667,0.0789 0.33229,0.33229 -0.25834,0.56864 -1.3125,0.52522 -1.16495,-0.048 -1.4019,-0.28494 -0.60417,-0.60416 z M 444.40499,182.75 442.5,180.5 l 2.25,1.90499 c 1.2375,1.04774 2.25,2.06024 2.25,2.25 0,0.80025 -0.80479,0.20945 -2.59501,-1.90499 z m 95.40751,1.56689 c 0.72187,-0.28887 1.58438,-0.25335 1.91667,0.0789 0.33229,0.33229 -0.25834,0.56864 -1.3125,0.52522 -1.16495,-0.048 -1.4019,-0.28494 -0.60417,-0.60416 z m 806.5925,-1.56689 -1.905,-2.25 2.25,1.90499 c 2.1144,1.79022 2.7052,2.59501 1.905,2.59501 -0.1898,0 -1.2023,-1.0125 -2.25,-2.25 z m 79.4075,1.56689 c 0.7219,-0.28887 1.5844,-0.25335 1.9167,0.0789 0.3323,0.33229 -0.2584,0.56864 -1.3125,0.52522 -1.165,-0.048 -1.4019,-0.28494 -0.6042,-0.60416 z m 84,0 c 0.7219,-0.28887 1.5844,-0.25335 1.9167,0.0789 0.3323,0.33229 -0.2584,0.56864 -1.3125,0.52522 -1.165,-0.048 -1.4019,-0.28494 -0.6042,-0.60416 z m 18,0 c 0.7219,-0.28887 1.5844,-0.25335 1.9167,0.0789 0.3323,0.33229 -0.2584,0.56864 -1.3125,0.52522 -1.165,-0.048 -1.4019,-0.28494 -0.6042,-0.60416 z m 110,0 c 0.7219,-0.28887 1.5844,-0.25335 1.9167,0.0789 0.3323,0.33229 -0.2584,0.56864 -1.3125,0.52522 -1.165,-0.048 -1.4019,-0.28494 -0.6042,-0.60416 z m 18,0 c 0.7219,-0.28887 1.5844,-0.25335 1.9167,0.0789 0.3323,0.33229 -0.2584,0.56864 -1.3125,0.52522 -1.165,-0.048 -1.4019,-0.28494 -0.6042,-0.60416 z m 888,0 c 0.7219,-0.28887 1.5844,-0.25335 1.9167,0.0789 0.3323,0.33229 -0.2584,0.56864 -1.3125,0.52522 -1.165,-0.048 -1.4019,-0.28494 -0.6042,-0.60416 z m 171,0 c 0.7219,-0.28887 1.5844,-0.25335 1.9167,0.0789 0.3323,0.33229 -0.2584,0.56864 -1.3125,0.52522 -1.165,-0.048 -1.4019,-0.28494 -0.6042,-0.60416 z m 924,0 c 0.7219,-0.28887 1.5844,-0.25335 1.9167,0.0789 0.3323,0.33229 -0.2584,0.56864 -1.3125,0.52522 -1.165,-0.048 -1.4019,-0.28494 -0.6042,-0.60416 z m 85,0 c 0.7219,-0.28887 1.5844,-0.25335 1.9167,0.0789 0.3323,0.33229 -0.2584,0.56864 -1.3125,0.52522 -1.165,-0.048 -1.4019,-0.28494 -0.6042,-0.60416 z m 18,0 c 0.7219,-0.28887 1.5844,-0.25335 1.9167,0.0789 0.3323,0.33229 -0.2584,0.56864 -1.3125,0.52522 -1.165,-0.048 -1.4019,-0.28494 -0.6042,-0.60416 z M 3804.3999,170.5 c 0,-8.25 0.1563,-11.49193 0.3442,-7.20429 0.1879,4.28763 0.1868,11.03763 0,15 -0.1893,3.96236 -0.3431,0.45429 -0.3417,-7.79571 z m 908.0051,12.25 -1.905,-2.25 2.25,1.90499 c 1.2375,1.04774 2.25,2.06024 2.25,2.25 0,0.80025 -0.8048,0.20945 -2.595,-1.90499 z m 79.4075,1.56689 c 0.7219,-0.28887 1.5844,-0.25335 1.9167,0.0789 0.3323,0.33229 -0.2584,0.56864 -1.3125,0.52522 -1.165,-0.048 -1.4019,-0.28494 -0.6042,-0.60416 z m 241,0 c 0.7219,-0.28887 1.5844,-0.25335 1.9167,0.0789 0.3323,0.33229 -0.2584,0.56864 -1.3125,0.52522 -1.165,-0.048 -1.4019,-0.28494 -0.6042,-0.60416 z m 801.5925,-1.56689 -1.905,-2.25 2.25,1.90499 c 1.2375,1.04774 2.25,2.06024 2.25,2.25 0,0.80025 -0.8048,0.20945 -2.595,-1.90499 z m 95.4075,1.56689 c 0.7219,-0.28887 1.5844,-0.25335 1.9167,0.0789 0.3323,0.33229 -0.2584,0.56864 -1.3125,0.52522 -1.165,-0.048 -1.4019,-0.28494 -0.6042,-0.60416 z m 171,0 c 0.7219,-0.28887 1.5844,-0.25335 1.9167,0.0789 0.3323,0.33229 -0.2584,0.56864 -1.3125,0.52522 -1.165,-0.048 -1.4019,-0.28494 -0.6042,-0.60416 z M 2644.4168,165.5 c 0,-10.45 0.1492,-14.58913 0.3293,-9.19806 0.1802,5.39107 0.1794,13.94107 0,19 -0.1811,5.05893 -0.3285,0.64806 -0.3276,-9.80194 z m -1083.5444,3.75 c -1.2438,-1.58606 -1.2085,-1.62143 0.3776,-0.37756 1.6657,1.30637 2.1955,2.12756 1.3724,2.12756 -0.2076,0 -0.9951,-0.7875 -1.75,-1.75 z m 26.3798,-8.75 c 0.011,-2.2 0.2159,-2.98225 0.4551,-1.73834 0.2392,1.24391 0.2301,3.04391 -0.02,4 -0.2503,0.95609 -0.446,-0.0617 -0.4349,-2.26166 z M 405.75,155.33772 c 0.6875,-0.27741 1.8125,-0.27741 2.5,0 0.6875,0.27741 0.125,0.50439 -1.25,0.50439 -1.375,0 -1.9375,-0.22698 -1.25,-0.50439 z m 22.0625,-0.0208 c 0.72187,-0.28887 1.58438,-0.25335 1.91667,0.0789 0.33229,0.33229 -0.25834,0.56864 -1.3125,0.52522 -1.16495,-0.048 -1.4019,-0.28494 -0.60417,-0.60416 z m 879.9375,0.0208 c 0.6875,-0.27741 1.8125,-0.27741 2.5,0 0.6875,0.27741 0.125,0.50439 -1.25,0.50439 -1.375,0 -1.9375,-0.22698 -1.25,-0.50439 z m 22.0625,-0.0208 c 0.7219,-0.28887 1.5844,-0.25335 1.9167,0.0789 0.3323,0.33229 -0.2584,0.56864 -1.3125,0.52522 -1.165,-0.048 -1.4019,-0.28494 -0.6042,-0.60416 z m 1123,0 c 0.7219,-0.28887 1.5844,-0.25335 1.9167,0.0789 0.3323,0.33229 -0.2584,0.56864 -1.3125,0.52522 -1.165,-0.048 -1.4019,-0.28494 -0.6042,-0.60416 z m 17.9375,0.0208 c 0.6875,-0.27741 1.8125,-0.27741 2.5,0 0.6875,0.27741 0.125,0.50439 -1.25,0.50439 -1.375,0 -1.9375,-0.22698 -1.25,-0.50439 z m 2203,0 c 0.6875,-0.27741 1.8125,-0.27741 2.5,0 0.6875,0.27741 0.125,0.50439 -1.25,0.50439 -1.375,0 -1.9375,-0.22698 -1.25,-0.50439 z m 22.0625,-0.0208 c 0.7219,-0.28887 1.5844,-0.25335 1.9167,0.0789 0.3323,0.33229 -0.2584,0.56864 -1.3125,0.52522 -1.165,-0.048 -1.4019,-0.28494 -0.6042,-0.60416 z m 1099.9375,0.0208 c 0.6875,-0.27741 1.8125,-0.27741 2.5,0 0.6875,0.27741 0.125,0.50439 -1.25,0.50439 -1.375,0 -1.9375,-0.22698 -1.25,-0.50439 z m 22.0625,-0.0208 c 0.7219,-0.28887 1.5844,-0.25335 1.9167,0.0789 0.3323,0.33229 -0.2584,0.56864 -1.3125,0.52522 -1.165,-0.048 -1.4019,-0.28494 -0.6042,-0.60416 z"
         id="path315" />
      <path
         style="fill:#333333;fill-opacity:1"
         d="m 1622.5,300.43129 c -1.65,-0.22476 -6.0375,-0.90461 -9.75,-1.51078 l -6.75,-1.10214 v -9.2627 -9.2627 l 5.25,1.49469 c 3.2601,0.92818 9.9877,1.53594 17.75,1.60352 13.7277,0.11951 18.4359,-1.23795 22.2015,-6.40116 2.1331,-2.92482 4.4171,-13.93567 3.4262,-16.51779 -0.6368,-1.65952 -0.8209,-1.64272 -2.9038,0.26512 -5.07,4.64376 -10.8422,6.65614 -19.2239,6.70208 -9.3691,0.0514 -15.7358,-2.33229 -21.669,-8.11267 -7.8042,-7.60318 -11.7989,-23.30519 -9.8466,-38.70373 3.3355,-26.30749 23.0336,-38.38549 56.7082,-34.77089 5.9441,0.63804 12.9449,1.64376 15.5574,2.23495 l 4.75,1.07488 v 40.20892 c 0,32.88314 -0.2795,41.2948 -1.5342,46.16901 -4.4744,17.38228 -16.4174,25.13019 -39.9658,25.92756 -6.05,0.20486 -12.35,0.18858 -14,-0.0362 z m 27.5381,-54.68129 4.4619,-2.25 0.2712,-19.76669 0.2712,-19.76669 -2.5863,-0.98331 c -7.2148,-2.74308 -17.9814,-0.35808 -22.8848,5.06943 -6.7153,7.43307 -7.46,26.73392 -1.332,34.52441 4.4629,5.67366 14.0673,7.0716 21.7988,3.17285 z M 4851,242.5 V 185 h 9.9387 9.9388 l 0.6748,4.5 c 0.7597,5.06641 1.3241,5.40034 4.0427,2.39191 1.0478,-1.15944 4.155,-3.2787 6.905,-4.70945 4.2432,-2.20762 6.2866,-2.60054 13.5,-2.5959 10.5262,0.007 17.0594,2.58453 23.0662,9.10104 7.5166,8.15455 10.6899,19.87979 9.5867,35.42223 -1.8151,25.57081 -16.12,38.20761 -43.4014,38.34032 l -10.2486,0.0498 v 16.25 16.25 h -12 -12 v -57.5 z m 41.4883,6.38162 c 5.481,-1.52163 10.0041,-6.59742 11.5237,-12.93181 1.7258,-7.19368 0.8678,-19.75858 -1.6426,-24.05706 -4.5568,-7.80224 -13.6061,-10.08107 -22.4075,-5.64275 l -4.4619,2.25 -0.2717,19.92755 c -0.2083,15.27409 0.025,20.11603 1,20.73469 1.8503,1.17438 11.6267,1.00566 16.26,-0.28062 z M 5095,299.58035 c 0,-0.26571 2.475,-7.44204 5.5,-15.94738 3.025,-8.50535 5.5,-15.69872 5.5,-15.98526 0,-0.28655 -1.4329,-0.662 -3.1842,-0.83435 l -3.1842,-0.31336 -14.2133,-40.5 -14.2133,-40.5 12.0323,-0.28186 c 6.6178,-0.15502 12.218,-0.0962 12.4448,0.13067 0.2269,0.2269 4.4618,13.17873 9.4108,28.78186 11.0674,34.89305 9.9222,31.82837 10.9745,29.36933 0.4708,-1.1 4.9528,-14.7125 9.9601,-30.25 l 9.1042,-28.25 h 11.4341 c 6.2888,0 11.4342,0.37651 11.4342,0.83668 0,0.46017 -8.9573,26.22267 -19.905,57.25 l -19.9051,56.41332 -11.5949,0.28174 c -6.3773,0.15495 -11.595,0.0643 -11.595,-0.20139 z M 271,266.7045 c -16.67488,-3.82522 -25.76132,-14.37828 -28.04216,-32.56838 -2.72713,-21.74924 4.86593,-39.74715 19.4997,-46.22036 6.97054,-3.0834 18.16816,-4.41444 26.86768,-3.19369 23.07281,3.23765 33.88751,18.36617 32.36715,45.27793 -0.60212,10.65802 -2.31264,16.40312 -6.84794,23 -4.04554,5.8845 -7.74453,8.78821 -14.85251,11.65925 -7.22146,2.91688 -20.96567,3.88647 -28.99192,2.04525 z m 18.43509,-18.24072 c 5.54409,-2.63085 7.94545,-8.34606 8.39052,-19.96932 0.46045,-12.02477 -0.80426,-17.40934 -5.22103,-22.22888 -2.83363,-3.09202 -4.0049,-3.6278 -8.68982,-3.97502 -7.52072,-0.5574 -11.67451,1.72894 -14.91476,8.20944 -2.19467,4.38934 -2.49817,6.28239 -2.48505,15.5 0.0177,12.45001 2.17041,18.61842 7.66702,21.96959 3.99404,2.43508 10.7048,2.65251 15.25312,0.49419 z M 396.5,267.32455 c -2.75,-0.17322 -6.9125,-0.56968 -9.25,-0.88102 L 383,265.87745 v -53.37134 c 0,-49.96089 0.11183,-53.40527 1.75,-53.90234 3.69886,-1.12236 15.2011,-2.54007 25.75,-3.17381 28.23665,-1.69635 49.198,5.52711 59.22733,20.41024 6.1611,9.14282 8.39851,17.1563 8.97923,32.1598 1.76604,45.62833 -22.43055,63.08985 -82.20656,59.32455 z m 41.78829,-22.67717 C 449.41214,239.20499 454,229.52587 454,211.5 c 0,-20.16757 -5.85063,-30.27088 -20.02187,-34.57526 -5.88629,-1.7879 -8.81381,-2.09749 -15.97403,-1.68923 -4.82181,0.27493 -9.27028,0.81097 -9.88551,1.1912 -1.28518,0.79428 -1.64286,69.70215 -0.36859,71.00933 0.4125,0.42315 6.17642,0.59307 12.8087,0.37761 10.70024,-0.34763 12.69755,-0.70432 17.72959,-3.16627 z M 522,266.7045 c -16.67488,-3.82522 -25.76132,-14.37828 -28.04216,-32.56838 -2.72713,-21.74924 4.86593,-39.74715 19.4997,-46.22036 6.97054,-3.0834 18.16816,-4.41444 26.86768,-3.19369 23.07281,3.23765 33.88751,18.36617 32.36715,45.27793 -0.60212,10.65802 -2.31264,16.40312 -6.84794,23 -4.04554,5.8845 -7.74453,8.78821 -14.85251,11.65925 -7.22146,2.91688 -20.96567,3.88647 -28.99192,2.04525 z m 18.43509,-18.24072 c 5.54409,-2.63085 7.94545,-8.34606 8.39052,-19.96932 0.46045,-12.02477 -0.80426,-17.40934 -5.22103,-22.22888 -2.83363,-3.09202 -4.0049,-3.6278 -8.68982,-3.97502 -7.52072,-0.5574 -11.67451,1.72894 -14.91476,8.20944 -2.19467,4.38934 -2.49817,6.28239 -2.48505,15.5 0.0177,12.45001 2.17041,18.61842 7.66702,21.96959 3.99404,2.43508 10.7048,2.65251 15.25312,0.49419 z M 1298.5,267.32455 c -2.75,-0.17322 -6.9125,-0.56968 -9.25,-0.88102 l -4.25,-0.56608 v -53.37134 c 0,-49.96089 0.1118,-53.40527 1.75,-53.90234 3.6989,-1.12236 15.2011,-2.54007 25.75,-3.17381 28.2366,-1.69635 49.198,5.52711 59.2273,20.41024 6.1611,9.14282 8.3985,17.1563 8.9793,32.1598 1.766,45.62833 -22.4306,63.08985 -82.2066,59.32455 z m 41.7883,-22.67717 C 1351.4121,239.20499 1356,229.52587 1356,211.5 c 0,-20.16757 -5.8506,-30.27088 -20.0219,-34.57526 -5.8863,-1.7879 -8.8138,-2.09749 -15.974,-1.68923 -4.8218,0.27493 -9.2703,0.81097 -9.8855,1.1912 -1.2852,0.79428 -1.6429,69.70215 -0.3686,71.00933 0.4125,0.42315 6.1764,0.59307 12.8087,0.37761 10.7002,-0.34763 12.6976,-0.70432 17.7296,-3.16627 z m 86.7279,22.24963 c -9.4965,-1.45687 -17.3198,-5.32858 -22.5728,-11.17121 -12.8082,-14.24582 -11.8275,-48.27506 1.7836,-61.88616 12.465,-12.46499 39.5932,-12.86555 51.6955,-0.7633 6.7397,6.73967 11.0027,20.10738 11.0577,34.67366 l 0.02,5.25 h -25 c -28.3093,0 -27.0311,-0.45162 -22.75,8.03811 3.4333,6.80852 7.5854,8.46189 21.25,8.46189 6.05,0 13.3803,-0.35536 16.2895,-0.78968 l 5.2895,-0.78969 -0.2895,8.77514 -0.2895,8.77514 -4,0.71181 c -7.3677,1.31111 -25.9324,1.71933 -32.4838,0.71429 z M 1446.5184,214.25 c -1.6501,-11.05931 -5.0425,-14.75 -13.5577,-14.75 -5.0448,0 -6.2293,0.38314 -8.8007,2.84668 -2.9173,2.795 -5.16,8.92154 -5.16,14.09614 V 219 h 14.1135 14.1136 z M 1499,267.43812 c -1.375,-0.23459 -5.5375,-0.92 -9.25,-1.52314 l -6.75,-1.09661 v -8.40919 c 0,-4.62505 0.3377,-8.40918 0.7504,-8.40918 0.4127,0 3.9002,0.66719 7.75,1.48264 9.0794,1.92317 22.5144,1.95584 27.0381,0.0657 6.1064,-2.55143 6.8531,-10.1762 1.2262,-12.52196 -1.2456,-0.51927 -7.1617,-1.88386 -13.147,-3.03242 -12.146,-2.33082 -17.1579,-4.47035 -20.906,-8.92474 -5.8513,-6.95394 -6.354,-19.25607 -1.1324,-27.71343 6.2725,-10.15931 23.5193,-15.00243 44.6122,-12.52767 5.5012,0.64544 10.4086,1.42471 10.9053,1.7317 0.4968,0.307 0.9032,4.29638 0.9032,8.8653 v 8.30711 l -6.25,-1.4585 c -4.0356,-0.94174 -9.6948,-1.32507 -15.9725,-1.08189 -11.2519,0.43585 -15.0536,2.2758 -15.5822,7.54137 -0.4316,4.29877 2.9984,6.63813 11.9657,8.16098 23.5484,3.99904 30.1461,9.39925 30.164,24.68947 0.01,5.62912 -0.4879,7.98095 -2.4083,11.4533 -3.0395,5.49563 -9.4712,10.44862 -16.2108,12.48367 -5.0979,1.53931 -22.7584,2.76156 -27.7059,1.91746 z m 951,-0.0896 c -23.0084,-3.07494 -36.8539,-12.98457 -42.9671,-30.75289 -3.9908,-11.59957 -4.4608,-32.86531 -1.0096,-45.68212 4.5756,-16.99246 17.0252,-28.61432 35.9767,-33.58472 7.1952,-1.88707 30.8717,-2.29699 39,-0.67522 l 4.5,0.89785 0.2864,10.35042 0.2864,10.35043 -2.2864,-0.65299 c -12.1048,-3.4571 -29.111,-3.32531 -37.2864,0.28896 -11.7766,5.20631 -16.5965,13.74779 -17.2848,30.63076 -1.1205,27.48763 9.3095,39.51722 34.2163,39.46362 4.4377,-0.01 11.2183,-0.68455 15.0681,-1.5 3.8498,-0.81545 7.1123,-1.48264 7.25,-1.48264 0.1377,0 0.2504,4.43788 0.2504,9.86195 v 9.86195 l -5.75,1.18836 c -6.3063,1.30334 -24.7073,2.17703 -30.25,1.43628 z m 76,-0.64404 c -16.6749,-3.82522 -25.7613,-14.37828 -28.0422,-32.56838 -2.7271,-21.74924 4.866,-39.74715 19.4997,-46.22036 6.9706,-3.0834 18.1682,-4.41444 26.8677,-3.19369 23.0728,3.23765 33.8875,18.36617 32.3672,45.27793 -0.6021,10.65802 -2.3127,16.40312 -6.848,23 -4.0455,5.8845 -7.7445,8.78821 -14.8525,11.65925 -7.2214,2.91688 -20.9657,3.88647 -28.9919,2.04525 z m 18.4351,-18.24072 c 5.5441,-2.63085 7.9454,-8.34606 8.3905,-19.96932 0.4605,-12.02477 -0.8042,-17.40934 -5.221,-22.22888 -2.8336,-3.09202 -4.0049,-3.6278 -8.6898,-3.97502 -7.5208,-0.5574 -11.6746,1.72894 -14.9148,8.20944 -2.1947,4.38934 -2.4982,6.28239 -2.485,15.5 0.018,12.45001 2.1704,18.61842 7.667,21.96959 3.994,2.43508 10.7048,2.65251 15.2531,0.49419 z M 2614,266.45522 c -13.5401,-3.77373 -20.9366,-13.52666 -23.0518,-30.39611 -2.1252,-16.94895 2.9928,-34.88423 11.9874,-42.00813 8.6142,-6.82252 21.7929,-10.5336 35.0644,-9.87402 l 6.5,0.32304 0.2721,-18.75 0.272,-18.75 h 11.478 H 2668 v 60 60 h -9.8683 -9.8684 l -0.5476,-4.08259 c -0.3011,-2.24542 -0.8036,-4.3386 -1.1165,-4.65151 -0.3129,-0.31291 -1.8132,0.69037 -3.334,2.2295 -6.2968,6.3725 -18.7125,8.90095 -29.2652,5.95982 z m 24.3218,-19.81631 c 6.6713,-2.78747 6.6782,-2.81183 6.6782,-23.73509 V 203.9505 l -2.75,-1.07014 c -1.5125,-0.58857 -5.7841,-0.86276 -9.4925,-0.60931 -8.2508,0.56392 -12.8617,3.3327 -15.8926,9.5432 -4.0692,8.33793 -3.3432,24.76538 1.3586,30.74272 4.0203,5.11101 13.182,6.97175 20.0983,4.08194 z m 77.6944,20.2581 c -9.4965,-1.45687 -17.3198,-5.32858 -22.5728,-11.17121 -12.8082,-14.24582 -11.8275,-48.27506 1.7836,-61.88616 12.465,-12.46499 39.5932,-12.86555 51.6955,-0.7633 6.7397,6.73967 11.0027,20.10738 11.0577,34.67366 l 0.02,5.25 h -25 c -28.3093,0 -27.0311,-0.45162 -22.75,8.03811 3.4333,6.80852 7.5854,8.46189 21.25,8.46189 6.05,0 13.3803,-0.35536 16.2895,-0.78968 l 5.2895,-0.78969 -0.2895,8.77514 -0.2895,8.77514 -4,0.71181 c -7.3677,1.31111 -25.9324,1.71933 -32.4838,0.71429 z M 2735.5184,214.25 c -1.6501,-11.05931 -5.0425,-14.75 -13.5577,-14.75 -5.0448,0 -6.2293,0.38314 -8.8007,2.84668 -2.9173,2.795 -5.16,8.92154 -5.16,14.09614 V 219 h 14.1135 14.1136 z m 904.4978,52.64701 c -9.4965,-1.45687 -17.3198,-5.32858 -22.5728,-11.17121 -12.8082,-14.24582 -11.8275,-48.27506 1.7836,-61.88616 12.465,-12.46499 39.5932,-12.86555 51.6955,-0.7633 6.7397,6.73967 11.0027,20.10738 11.0577,34.67366 l 0.02,5.25 h -25 c -28.3093,0 -27.0311,-0.45162 -22.75,8.03811 3.4333,6.80852 7.5854,8.46189 21.25,8.46189 6.05,0 13.3803,-0.35536 16.2895,-0.78968 l 5.2895,-0.78969 -0.2895,8.77514 -0.2895,8.77514 -4,0.71181 c -7.3677,1.31111 -25.9324,1.71933 -32.4838,0.71429 z M 3659.5184,214.25 c -1.6501,-11.05931 -5.0425,-14.75 -13.5577,-14.75 -5.0448,0 -6.2293,0.38314 -8.8007,2.84668 -2.9173,2.795 -5.16,8.92154 -5.16,14.09614 V 219 h 14.1135 14.1136 z M 3713,267.43812 c -1.375,-0.23459 -5.5375,-0.92 -9.25,-1.52314 l -6.75,-1.09661 v -8.40919 c 0,-4.62505 0.3377,-8.40918 0.7504,-8.40918 0.4127,0 3.9002,0.66719 7.75,1.48264 9.0794,1.92317 22.5144,1.95584 27.0381,0.0657 6.1064,-2.55143 6.8531,-10.1762 1.2262,-12.52196 -1.2456,-0.51927 -7.1617,-1.88386 -13.147,-3.03242 -12.146,-2.33082 -17.1579,-4.47035 -20.906,-8.92474 -5.8513,-6.95394 -6.354,-19.25607 -1.1324,-27.71343 6.2725,-10.15931 23.5193,-15.00243 44.6122,-12.52767 5.5012,0.64544 10.4086,1.42471 10.9053,1.7317 0.4968,0.307 0.9032,4.29638 0.9032,8.8653 v 8.30711 l -6.25,-1.4585 c -4.0356,-0.94174 -9.6948,-1.32507 -15.9725,-1.08189 -11.2519,0.43585 -15.0536,2.2758 -15.5822,7.54137 -0.4316,4.29877 2.9984,6.63813 11.9657,8.16098 23.5484,3.99904 30.1461,9.39925 30.164,24.68947 0.01,5.62912 -0.4879,7.98095 -2.4083,11.4533 -3.0395,5.49563 -9.4712,10.44862 -16.2108,12.48367 -5.0979,1.53931 -22.7584,2.76156 -27.7059,1.91746 z m 91,-0.064 c -10.0049,-1.94335 -15.7153,-5.6309 -19.6137,-12.66566 L 3781.5,249.5 3781.1682,226.75 3780.8363,204 H 3774.4182 3768 v -9.5 -9.5 h 6.3808 6.3809 l 1.6769,-11.25 c 0.9223,-6.1875 1.926,-12.7125 2.2304,-14.5 l 0.5536,-3.25 h 9.3887 9.3887 v 14.5 14.5 h 11 11 v 9.5 9.5 h -11.0971 -11.0972 l 0.3711,17.75 c 0.412,19.71069 1.2744,22.9516 6.7061,25.20149 1.6505,0.68366 5.6829,1.08065 9.049,0.89086 l 6.0717,-0.34235 v 9.19098 c 0,5.05504 -0.4122,9.44464 -0.9139,9.75466 -1.2672,0.78318 -18.0351,1.52146 -21.0879,0.92849 z m 860.5,-0.0496 c -2.75,-0.17322 -6.9125,-0.56968 -9.25,-0.88102 l -4.25,-0.56608 v -53.37134 c 0,-49.96089 0.1118,-53.40527 1.75,-53.90234 3.6989,-1.12236 15.2011,-2.54007 25.75,-3.17381 28.2366,-1.69635 49.198,5.52711 59.2273,20.41024 6.1611,9.14282 8.3985,17.1563 8.9793,32.1598 1.766,45.62833 -22.4306,63.08985 -82.2066,59.32455 z m 41.7883,-22.67717 C 4717.4121,239.20499 4722,229.52587 4722,211.5 c 0,-20.16757 -5.8506,-30.27088 -20.0219,-34.57526 -5.8863,-1.7879 -8.8138,-2.09749 -15.974,-1.68923 -4.8218,0.27493 -9.2703,0.81097 -9.8855,1.1912 -1.2852,0.79428 -1.6429,69.70215 -0.3686,71.00933 0.4125,0.42315 6.1764,0.59307 12.8087,0.37761 10.7002,-0.34763 12.6976,-0.70432 17.7296,-3.16627 z m 86.7279,22.24963 c -9.4965,-1.45687 -17.3198,-5.32858 -22.5728,-11.17121 -12.8082,-14.24582 -11.8275,-48.27506 1.7836,-61.88616 12.465,-12.46499 39.5932,-12.86555 51.6955,-0.7633 6.7397,6.73967 11.0027,20.10738 11.0577,34.67366 l 0.02,5.25 h -25 c -28.3093,0 -27.0311,-0.45162 -22.75,8.03811 3.4333,6.80852 7.5854,8.46189 21.25,8.46189 6.05,0 13.3803,-0.35536 16.2895,-0.78968 l 5.2895,-0.78969 -0.2895,8.77514 -0.2895,8.77514 -4,0.71181 c -7.3677,1.31111 -25.9324,1.71933 -32.4838,0.71429 z M 4812.5184,214.25 c -1.6501,-11.05931 -5.0425,-14.75 -13.5577,-14.75 -5.0448,0 -6.2293,0.38314 -8.8007,2.84668 -2.9173,2.795 -5.16,8.92154 -5.16,14.09614 V 219 h 14.1135 14.1136 z M 5015,266.7045 c -16.6749,-3.82522 -25.7613,-14.37828 -28.0422,-32.56838 -2.7271,-21.74924 4.866,-39.74715 19.4997,-46.22036 6.9706,-3.0834 18.1682,-4.41444 26.8677,-3.19369 23.0728,3.23765 33.8875,18.36617 32.3672,45.27793 -0.6021,10.65802 -2.3127,16.40312 -6.848,23 -4.0455,5.8845 -7.7445,8.78821 -14.8525,11.65925 -7.2214,2.91688 -20.9657,3.88647 -28.9919,2.04525 z m 18.4351,-18.24072 c 5.5441,-2.63085 7.9454,-8.34606 8.3905,-19.96932 0.4605,-12.02477 -0.8042,-17.40934 -5.221,-22.22888 -2.8336,-3.09202 -4.0049,-3.6278 -8.6898,-3.97502 -7.5208,-0.5574 -11.6746,1.72894 -14.9148,8.20944 -2.1947,4.38934 -2.4982,6.28239 -2.485,15.5 0.018,12.45001 2.1704,18.61842 7.667,21.96959 3.994,2.43508 10.7048,2.65251 15.2531,0.49419 z M 5786.5,267.32455 c -2.75,-0.17322 -6.9125,-0.56968 -9.25,-0.88102 l -4.25,-0.56608 v -53.37134 c 0,-49.96089 0.1118,-53.40527 1.75,-53.90234 3.6989,-1.12236 15.2011,-2.54007 25.75,-3.17381 28.2366,-1.69635 49.198,5.52711 59.2273,20.41024 6.1611,9.14282 8.3985,17.1563 8.9793,32.1598 1.766,45.62833 -22.4306,63.08985 -82.2066,59.32455 z m 41.7883,-22.67717 C 5839.4121,239.20499 5844,229.52587 5844,211.5 c 0,-20.16757 -5.8506,-30.27088 -20.0219,-34.57526 -5.8863,-1.7879 -8.8138,-2.09749 -15.974,-1.68923 -4.8218,0.27493 -9.2703,0.81097 -9.8855,1.1912 -1.2852,0.79428 -1.6429,69.70215 -0.3686,71.00933 0.4125,0.42315 6.1764,0.59307 12.8087,0.37761 10.7002,-0.34763 12.6976,-0.70432 17.7296,-3.16627 z M 5912,266.7045 c -16.6749,-3.82522 -25.7613,-14.37828 -28.0422,-32.56838 -2.7271,-21.74924 4.866,-39.74715 19.4997,-46.22036 6.9706,-3.0834 18.1682,-4.41444 26.8677,-3.19369 23.0728,3.23765 33.8875,18.36617 32.3672,45.27793 -0.6021,10.65802 -2.3127,16.40312 -6.848,23 -4.0455,5.8845 -7.7445,8.78821 -14.8525,11.65925 -7.2214,2.91688 -20.9657,3.88647 -28.9919,2.04525 z m 18.4351,-18.24072 c 5.5441,-2.63085 7.9454,-8.34606 8.3905,-19.96932 0.4605,-12.02477 -0.8042,-17.40934 -5.221,-22.22888 -2.8336,-3.09202 -4.0049,-3.6278 -8.6898,-3.97502 -7.5208,-0.5574 -11.6746,1.72894 -14.9148,8.20944 -2.1947,4.38934 -2.4982,6.28239 -2.485,15.5 0.018,12.45001 2.1704,18.61842 7.667,21.96959 3.994,2.43508 10.7048,2.65251 15.2531,0.49419 z m 171.5811,18.43323 c -9.4965,-1.45687 -17.3198,-5.32858 -22.5728,-11.17121 -12.8082,-14.24582 -11.8275,-48.27506 1.7836,-61.88616 12.465,-12.46499 39.5932,-12.86555 51.6955,-0.7633 6.7397,6.73967 11.0027,20.10738 11.0577,34.67366 l 0.02,5.25 h -25 c -28.3093,0 -27.0311,-0.45162 -22.75,8.03811 3.4333,6.80852 7.5854,8.46189 21.25,8.46189 6.05,0 13.3803,-0.35536 16.2895,-0.78968 l 5.2895,-0.78969 -0.2895,8.77514 -0.2895,8.77514 -4,0.71181 c -7.3677,1.31111 -25.9324,1.71933 -32.4838,0.71429 z M 6121.5184,214.25 c -1.6501,-11.05931 -5.0425,-14.75 -13.5577,-14.75 -5.0448,0 -6.2293,0.38314 -8.8007,2.84668 -2.9173,2.795 -5.16,8.92154 -5.16,14.09614 V 219 h 14.1135 14.1136 z M 189,221.5 V 176 H 171.5 154 v -10 -10 h 47 47 v 10 10 H 230.5 213 v 45.5 45.5 h -12 -12 z m 1372,4.5 v -41 h 12 12 v 41 41 h -12 -12 z m 138,0 v -41 h 9.8865 9.8864 l 0.6748,4.5 c 0.3712,2.475 0.8684,4.5 1.1049,4.5 0.2366,0 2.4392,-1.53356 4.8947,-3.40791 6.1764,-4.71454 10.6726,-6.02988 20.5527,-6.0126 7.4999,0.0131 9.1344,0.36067 13.8922,2.95401 3.0871,1.68272 6.4295,4.50657 7.8187,6.60577 4.8399,7.31358 5.2891,10.9675 5.2891,43.01966 V 267 h -11.5 -11.5 l -0.01,-25.25 c -0.01,-26.2659 -0.5919,-31.17082 -4.105,-34.35009 -3.4425,-3.11543 -13.3932,-2.65584 -18.7124,0.86428 l -4.177,2.76419 V 239.01419 267 h -12 -12 v -41 z m 1856,-4.5 V 176 h -17.5 -17.5 v -10 -10 h 47 47 v 10 10 h -17.5 -17.5 v 45.5 45.5 h -12 -12 z M 4946,207 v -60 h 12 12 v 60 60 h -12 -12 z m 1034,19 v -41 h 9.8865 9.8864 l 0.6748,4.5 c 0.3712,2.475 0.8684,4.5 1.1049,4.5 0.2366,0 2.4392,-1.53356 4.8947,-3.40791 6.1764,-4.71454 10.6726,-6.02988 20.5527,-6.0126 7.4999,0.0131 9.1344,0.36067 13.8922,2.95401 3.0871,1.68272 6.4295,4.50657 7.8187,6.60577 4.8399,7.31358 5.2891,10.9675 5.2891,43.01966 V 267 h -11.5 -11.5 l -0.01,-25.25 c -0.01,-26.2659 -0.5919,-31.17082 -4.105,-34.35009 -3.4425,-3.11543 -13.3932,-2.65584 -18.7124,0.86428 l -4.177,2.76419 V 239.01419 267 h -12 -12 V 226 Z M 1566.4449,171.93172 c -5.0591,-1.47032 -7.7879,-5.20736 -7.8719,-10.78039 -0.1249,-8.2863 2.9084,-11.57025 11.8147,-12.79099 5.629,-0.77155 12.0653,1.12885 14.5587,4.29862 2.8438,3.61538 2.8482,12.06113 0.01,15.67174 -3.2241,4.0988 -11.3544,5.68054 -18.5096,3.60102 z"
         id="path313" />
    </g>
  </g>
</svg>
