<?xml version="1.0" encoding="UTF-8" standalone="no"?>
<!-- Created with Inkscape (http://www.inkscape.org/) -->

<svg
   version="1.1"
   id="svg9"
   width="1200"
   height="1200"
   viewBox="0 0 1200 1200"
   xmlns="http://www.w3.org/2000/svg"
   xmlns:svg="http://www.w3.org/2000/svg">
  <defs
     id="defs13" />
  <g
     id="g15"
     transform="translate(6.7231343e-7,0.63525675)">
    <g
       id="g117"
       transform="translate(-6.7231343e-7,-0.63525675)"
       style="fill:#000000">
      <path
         style="fill:#000000;fill-opacity:1"
         d="m 670.4613,672 c 0,-25.575 0.1295,-36.0375 0.28778,-23.25 0.15828,12.7875 0.15828,33.7125 0,46.5 -0.15828,12.7875 -0.28778,2.325 -0.28778,-23.25 z M 504.48233,557.5 c 5e-5,-59.4 0.12043,-83.55299 0.26753,-53.67332 0.14709,29.87968 0.14705,78.47968 -8e-5,108 C 504.60264,641.34701 504.48229,616.9 504.48233,557.5 Z M 670.45974,538 c 0,-24.475 0.13017,-34.4875 0.28926,-22.25 0.15909,12.2375 0.15909,32.2625 0,44.5 -0.15909,12.2375 -0.28926,2.225 -0.28926,-22.25 z m -327.30185,-8 c 0,-1.375 0.22698,-1.9375 0.50439,-1.25 0.27741,0.6875 0.27741,1.8125 0,2.5 -0.27741,0.6875 -0.50439,0.125 -0.50439,-1.25 z"
         id="path125" />
      <path
         style="fill:#000000;fill-opacity:1"
         d="m 504.19495,667.5 c 0.0204,-1.65 0.2445,-2.20394 0.49804,-1.23097 0.25354,0.97297 0.23687,2.32297 -0.0371,3 -0.27393,0.67703 -0.48137,-0.11903 -0.46099,-1.76903 z m -161.116,-141.08333 c 0.048,-1.16495 0.28494,-1.4019 0.60416,-0.60417 0.28887,0.72187 0.25335,1.58438 -0.0789,1.91667 -0.33229,0.33229 -0.56864,-0.25834 -0.52522,-1.3125 z M 1033.4275,472 c 0,-12.375 0.1436,-17.4375 0.319,-11.25 0.1755,6.1875 0.1755,16.3125 0,22.5 -0.1754,6.1875 -0.319,1.125 -0.319,-11.25 z"
         id="path123" />
      <path
         style="fill:#000000;fill-opacity:1"
         d="m 553.48763,606 c 0,-86.075 0.11803,-121.2875 0.26228,-78.25 0.14425,43.0375 0.14425,113.4625 0,156.5 -0.14425,43.0375 -0.26228,7.825 -0.26228,-78.25 z m 66,0 c 0,-86.075 0.11803,-121.2875 0.26228,-78.25 0.14425,43.0375 0.14425,113.4625 0,156.5 -0.14425,43.0375 -0.26228,7.825 -0.26228,-78.25 z m -115.32974,66 c 0,-1.375 0.22698,-1.9375 0.50439,-1.25 0.27741,0.6875 0.27741,1.8125 0,2.5 -0.27741,0.6875 -0.50439,0.125 -0.50439,-1.25 z"
         id="path121" />
      <path
         style="fill:#000000;fill-opacity:1"
         d="M 0,600 V 0 h 600 600 v 600 600 H 600 0 Z m 225.29183,164.992 c 6.6544,-2.48973 12.86871,-7.70793 16.46522,-13.82596 2.44179,-4.15373 2.74295,-5.6542 2.74295,-13.66604 0,-8.00485 -0.30233,-9.51428 -2.7342,-13.6511 -3.70666,-6.30535 -10.86624,-12.38938 -16.96236,-14.41419 -7.64561,-2.53946 -20.04922,-1.6528 -26.04665,1.86193 -17.64032,10.33792 -21.12726,32.46332 -7.29599,46.2946 8.95385,8.95384 22.03296,11.81499 33.83103,7.40076 z M 343.78019,639.15687 343.5,516.31373 l 4,7.808 c 2.2,4.2944 36.83402,59.57381 76.96448,122.84313 L 497.42896,762 H 525.71448 554 V 606 450 h -25.05258 -25.05259 l 0.3649,118.25 c 0.2007,65.0375 0.69329,119.375 1.09466,120.75 1.01272,3.46935 6.67395,12.37436 -76.12444,-119.74238 L 354.5,450.01525 324.75,450.00762 295,450 v 156 156 h 24.53019 24.53019 z M 791,740 v -22 h -60 -60 v -46 -46 h 52 52 V 604 582 H 723 671 V 538 494 H 727.5 784 V 472 450 H 701.5 619 v 156 156 h 86 86 z M 946,628 V 494 h 44 44 V 472 450 H 921 808 v 22 22 h 43.5 43.5 v 134 134 h 25.5 25.5 z"
         id="path119" />
    </g>
    <g
       id="g251"
       transform="translate(-6.7231343e-7,-0.63525675)"
       style="fill:#000000">
      <path
         style="fill:#000000;fill-opacity:1"
         d="m 670.4613,672 c 0,-25.575 0.1295,-36.0375 0.28778,-23.25 0.15828,12.7875 0.15828,33.7125 0,46.5 -0.15828,12.7875 -0.28778,2.325 -0.28778,-23.25 z M 504.48233,557.5 c 5e-5,-59.4 0.12043,-83.55299 0.26753,-53.67332 0.14709,29.87968 0.14705,78.47968 -8e-5,108 C 504.60264,641.34701 504.48229,616.9 504.48233,557.5 Z M 670.45974,538 c 0,-24.475 0.13017,-34.4875 0.28926,-22.25 0.15909,12.2375 0.15909,32.2625 0,44.5 -0.15909,12.2375 -0.28926,2.225 -0.28926,-22.25 z m -327.30185,-8 c 0,-1.375 0.22698,-1.9375 0.50439,-1.25 0.27741,0.6875 0.27741,1.8125 0,2.5 -0.27741,0.6875 -0.50439,0.125 -0.50439,-1.25 z"
         id="path243" />
      <path
         style="fill:#000000;fill-opacity:1"
         d="m 504.19495,667.5 c 0.0204,-1.65 0.2445,-2.20394 0.49804,-1.23097 0.25354,0.97297 0.23687,2.32297 -0.0371,3 -0.27393,0.67703 -0.48137,-0.11903 -0.46099,-1.76903 z m -161.116,-141.08333 c 0.048,-1.16495 0.28494,-1.4019 0.60416,-0.60417 0.28887,0.72187 0.25335,1.58438 -0.0789,1.91667 -0.33229,0.33229 -0.56864,-0.25834 -0.52522,-1.3125 z M 1033.4275,472 c 0,-12.375 0.1436,-17.4375 0.319,-11.25 0.1755,6.1875 0.1755,16.3125 0,22.5 -0.1754,6.1875 -0.319,1.125 -0.319,-11.25 z"
         id="path245" />
      <path
         style="fill:#000000;fill-opacity:1"
         d="m 553.48763,606 c 0,-86.075 0.11803,-121.2875 0.26228,-78.25 0.14425,43.0375 0.14425,113.4625 0,156.5 -0.14425,43.0375 -0.26228,7.825 -0.26228,-78.25 z m 66,0 c 0,-86.075 0.11803,-121.2875 0.26228,-78.25 0.14425,43.0375 0.14425,113.4625 0,156.5 -0.14425,43.0375 -0.26228,7.825 -0.26228,-78.25 z m -115.32974,66 c 0,-1.375 0.22698,-1.9375 0.50439,-1.25 0.27741,0.6875 0.27741,1.8125 0,2.5 -0.27741,0.6875 -0.50439,0.125 -0.50439,-1.25 z"
         id="path247" />
      <path
         style="fill:#000000;fill-opacity:1"
         d="M 0,600 V 0 h 600 600 v 600 600 H 600 0 Z m 225.29183,164.992 c 6.6544,-2.48973 12.86871,-7.70793 16.46522,-13.82596 2.44179,-4.15373 2.74295,-5.6542 2.74295,-13.66604 0,-8.00485 -0.30233,-9.51428 -2.7342,-13.6511 -3.70666,-6.30535 -10.86624,-12.38938 -16.96236,-14.41419 -7.64561,-2.53946 -20.04922,-1.6528 -26.04665,1.86193 -17.64032,10.33792 -21.12726,32.46332 -7.29599,46.2946 8.95385,8.95384 22.03296,11.81499 33.83103,7.40076 z M 343.78019,639.15687 343.5,516.31373 l 4,7.808 c 2.2,4.2944 36.83402,59.57381 76.96448,122.84313 L 497.42896,762 H 525.71448 554 V 606 450 h -25.05258 -25.05259 l 0.3649,118.25 c 0.2007,65.0375 0.69329,119.375 1.09466,120.75 1.01272,3.46935 6.67395,12.37436 -76.12444,-119.74238 L 354.5,450.01525 324.75,450.00762 295,450 v 156 156 h 24.53019 24.53019 z M 791,740 v -22 h -60 -60 v -46 -46 h 52 52 V 604 582 H 723 671 V 538 494 H 727.5 784 V 472 450 H 701.5 619 v 156 156 h 86 86 z M 946,628 V 494 h 44 44 V 472 450 H 921 808 v 22 22 h 43.5 43.5 v 134 134 h 25.5 25.5 z"
         id="path249" />
    </g>
  </g>
</svg>
