<?xml version="1.0" encoding="UTF-8" standalone="no"?>
<!-- Created with Inkscape (http://www.inkscape.org/) -->

<svg
   version="1.1"
   id="svg6778"
   width="130.02673"
   height="70.423904"
   viewBox="0 0 130.02674 70.423907"
   xmlns="http://www.w3.org/2000/svg"
   xmlns:svg="http://www.w3.org/2000/svg">
  <defs
     id="defs6782" />
  <g
     id="g6784"
     transform="translate(-3.6477264,-32.019113)">
    <g
       id="g6868"
       transform="translate(0.93224014,-0.50197554)"
       style="fill:#000000">
      <path
         style="fill:#000000;fill-opacity:1;stroke-width:0.0846636"
         d="m 65.169772,97.476344 c 0.05821,-0.02349 0.153453,-0.02349 0.211659,0 0.05821,0.02349 0.01058,0.0427 -0.105829,0.0427 -0.116413,0 -0.164036,-0.01922 -0.10583,-0.0427 z m 4.910487,0 c 0.05821,-0.02349 0.153452,-0.02349 0.211659,0 0.05821,0.02349 0.01058,0.0427 -0.10583,0.0427 -0.116412,0 -0.164036,-0.01922 -0.105829,-0.0427 z m -30.219598,-27.0941 c 0.06112,-0.02446 0.134139,-0.02145 0.162272,0.0067 0.02813,0.02813 -0.02187,0.04814 -0.111121,0.04447 -0.09863,-0.0041 -0.11869,-0.02412 -0.05115,-0.05115 z m 56.893909,0 c 0.06112,-0.02446 0.134141,-0.02145 0.162275,0.0067 0.02813,0.02813 -0.02188,0.04814 -0.111121,0.04447 -0.09863,-0.0041 -0.11869,-0.02412 -0.05115,-0.05115 z M 65.169772,37.957866 c 0.05821,-0.02349 0.153453,-0.02349 0.211659,0 0.05821,0.02349 0.01058,0.0427 -0.105829,0.0427 -0.116413,0 -0.164036,-0.01922 -0.10583,-0.0427 z m 4.910487,0 c 0.05821,-0.02349 0.153452,-0.02349 0.211659,0 0.05821,0.02349 0.01058,0.0427 -0.10583,0.0427 -0.116412,0 -0.164036,-0.01922 -0.105829,-0.0427 z m -6.175148,-5.420231 c 0.06112,-0.02446 0.134139,-0.02145 0.162272,0.0067 0.02813,0.02813 -0.02187,0.04814 -0.111121,0.04447 -0.09863,-0.0041 -0.11869,-0.02412 -0.05115,-0.05115 z m 7.535056,0 c 0.06112,-0.02446 0.134139,-0.02145 0.162272,0.0067 0.02813,0.02813 -0.02187,0.04814 -0.111121,0.04447 -0.09863,-0.0041 -0.11869,-0.02412 -0.05115,-0.05115 z"
         id="path6882" />
      <path
         style="fill:#000000;fill-opacity:1;stroke-width:0.0846636"
         d="m 64.159101,102.89305 c 0.06112,-0.0245 0.134139,-0.0215 0.162272,0.007 0.02813,0.0281 -0.02187,0.0482 -0.111121,0.0445 -0.09863,-0.004 -0.118689,-0.0241 -0.05115,-0.0511 z m 7.027075,0 c 0.06112,-0.0245 0.13414,-0.0215 0.162272,0.007 0.02813,0.0281 -0.02187,0.0482 -0.11112,0.0445 -0.09863,-0.004 -0.11869,-0.0241 -0.05115,-0.0511 z m -6.265103,-5.418467 c 0.06112,-0.02446 0.134139,-0.02145 0.162272,0.0067 0.02813,0.02813 -0.02187,0.04815 -0.111121,0.04447 -0.09863,-0.0041 -0.118689,-0.02413 -0.05115,-0.05115 z m 5.503131,0 c 0.06112,-0.02446 0.13414,-0.02145 0.162272,0.0067 0.02813,0.02813 -0.02187,0.04815 -0.11112,0.04447 -0.09863,-0.0041 -0.11869,-0.02413 -0.05115,-0.05115 z M 11.672771,85.785348 c -0.10531,-0.134284 -0.102316,-0.137273 0.03197,-0.03197 0.08149,0.06391 0.148161,0.130585 0.148161,0.148162 0,0.06969 -0.06953,0.02483 -0.180127,-0.116193 z m 2.593038,-31.092691 c 0.08428,-0.09313 0.172289,-0.169327 0.195571,-0.169327 0.02328,0 -0.02663,0.0762 -0.110907,0.169327 -0.08428,0.09313 -0.172289,0.169327 -0.195571,0.169327 -0.02328,0 0.02663,-0.0762 0.110907,-0.169327 z m 106.876941,0.02117 c -0.10531,-0.134281 -0.10232,-0.137276 0.032,-0.03196 0.0815,0.06391 0.14817,0.13058 0.14817,0.148161 0,0.06968 -0.0695,0.02483 -0.18013,-0.116196 z M 64.921073,37.956102 c 0.06112,-0.02446 0.134139,-0.02145 0.162272,0.0067 0.02813,0.02813 -0.02187,0.04814 -0.111121,0.04447 -0.09863,-0.0041 -0.118689,-0.02412 -0.05115,-0.05115 z m 5.503131,0 c 0.06112,-0.02446 0.13414,-0.02145 0.162272,0.0067 0.02813,0.02813 -0.02187,0.04814 -0.11112,0.04447 -0.09863,-0.0041 -0.11869,-0.02412 -0.05115,-0.05115 z"
         id="path6880" />
      <path
         style="fill:#000000;fill-opacity:1;stroke-width:0.0846636"
         d="m 64.4078,102.89481 c 0.05821,-0.0235 0.153453,-0.0235 0.211659,0 0.05821,0.0235 0.01058,0.0427 -0.105829,0.0427 -0.116413,0 -0.164036,-0.0192 -0.10583,-0.0427 z m 6.434431,0 c 0.05821,-0.0235 0.153452,-0.0235 0.211659,0 0.05821,0.0235 0.01058,0.0427 -0.10583,0.0427 -0.116412,0 -0.164036,-0.0192 -0.105829,-0.0427 z m -6.305824,-5.421065 c 0.08237,-0.02146 0.196671,-0.02006 0.253991,0.0031 0.05732,0.02319 -0.01008,0.04075 -0.149773,0.03903 -0.139695,-0.0017 -0.186593,-0.0207 -0.104218,-0.04217 z m 6.18044,0 c 0.08237,-0.02146 0.19667,-0.02006 0.25399,0.0031 0.05732,0.02319 -0.01008,0.04075 -0.149772,0.03903 -0.139695,-0.0017 -0.186594,-0.0207 -0.104218,-0.04217 z M 14.427092,80.917194 c -0.161283,-0.190493 -0.161283,-0.190493 0.02921,-0.02921 0.179016,0.151567 0.229035,0.219703 0.161283,0.219703 -0.01606,0 -0.101787,-0.08572 -0.190493,-0.190493 z m 106.472468,0.07386 c 0,-0.01758 0.0667,-0.08425 0.14816,-0.148161 0.13428,-0.105311 0.13727,-0.102316 0.032,0.03196 -0.11061,0.141028 -0.18013,0.185877 -0.18013,0.116196 z M 39.437343,75.800712 c 0.06112,-0.02446 0.134139,-0.02145 0.162272,0.0067 0.02813,0.02813 -0.02187,0.04814 -0.111121,0.04447 -0.09863,-0.0041 -0.11869,-0.02412 -0.05115,-0.05115 z m 56.89391,0 c 0.06112,-0.02446 0.134141,-0.02145 0.162274,0.0067 0.02813,0.02813 -0.02188,0.04814 -0.111121,0.04447 -0.09863,-0.0041 -0.11869,-0.02412 -0.05115,-0.05115 z M 45.041012,68.630179 c 0,-0.01758 0.06667,-0.08425 0.148161,-0.148162 0.134282,-0.10531 0.137276,-0.102316 0.03197,0.03197 -0.110602,0.141028 -0.180127,0.185877 -0.180127,0.116196 z m 56.893908,0 c 0,-0.01758 0.0667,-0.08425 0.14816,-0.148162 0.13429,-0.10531 0.13728,-0.102316 0.032,0.03197 -0.1106,0.141028 -0.18013,0.185877 -0.18013,0.116196 z m 18.87357,-14.25501 c -0.20525,-0.232825 -0.20525,-0.232825 0.0276,-0.02757 0.21761,0.191838 0.27165,0.260399 0.20525,0.260399 -0.0152,0 -0.11993,-0.104771 -0.23282,-0.232825 z M 14.604463,54.354003 c 0.08428,-0.09313 0.172289,-0.169327 0.195572,-0.169327 0.02328,0 -0.02663,0.0762 -0.110908,0.169327 -0.08428,0.09313 -0.172289,0.169327 -0.195571,0.169327 -0.02328,0 0.02663,-0.0762 0.110907,-0.169327 z M 64.536407,37.955266 c 0.08237,-0.02147 0.196671,-0.02005 0.253991,0.0031 0.05732,0.02319 -0.01008,0.04075 -0.149773,0.03903 -0.139695,-0.0017 -0.186593,-0.0207 -0.104218,-0.04217 z m 6.18044,0 c 0.08237,-0.02147 0.19667,-0.02005 0.25399,0.0031 0.05732,0.02319 -0.01008,0.04075 -0.149772,0.03903 -0.139695,-0.0017 -0.186594,-0.0207 -0.104218,-0.04217 z M 64.36708,32.536798 c 0.08237,-0.02146 0.196671,-0.02005 0.25399,0.0031 0.05732,0.02319 -0.01008,0.04076 -0.149772,0.03903 -0.139695,-0.0017 -0.186593,-0.0207 -0.104218,-0.04217 z m 6.519094,0 c 0.08237,-0.02146 0.196671,-0.02005 0.25399,0.0031 0.05732,0.02319 -0.01008,0.04076 -0.149772,0.03903 -0.139695,-0.0017 -0.186593,-0.0207 -0.104218,-0.04217 z"
         id="path6878" />
      <path
         style="fill:#000000;fill-opacity:1;stroke-width:0.0846636"
         d="m 64.746455,102.89481 c 0.05821,-0.0235 0.153452,-0.0235 0.211659,0 0.05821,0.0235 0.01058,0.0427 -0.10583,0.0427 -0.116412,0 -0.164036,-0.0192 -0.105829,-0.0427 z m 5.757121,0 c 0.05821,-0.0235 0.153453,-0.0235 0.211659,0 0.05821,0.0235 0.01058,0.0427 -0.105829,0.0427 -0.116412,0 -0.164036,-0.0192 -0.10583,-0.0427 z M 121.32288,80.56774 c 0,-0.01758 0.0667,-0.08425 0.14816,-0.148161 0.13428,-0.105311 0.13727,-0.102316 0.032,0.03196 -0.11061,0.141029 -0.18013,0.185877 -0.18013,0.116196 z M 51.718633,56.915076 c -0.10531,-0.134282 -0.102316,-0.137276 0.03197,-0.03197 0.141028,0.110602 0.185877,0.180127 0.116195,0.180127 -0.01758,0 -0.08425,-0.06667 -0.148161,-0.148161 z m 56.893907,0 c -0.1053,-0.134282 -0.10232,-0.137276 0.032,-0.03197 0.0815,0.06391 0.14816,0.130581 0.14816,0.148161 0,0.06968 -0.0695,0.02483 -0.18013,-0.116195 z M 14.816122,54.15271 c 0,-0.01758 0.06667,-0.08425 0.148162,-0.148161 0.134281,-0.10531 0.137276,-0.102316 0.03197,0.03197 -0.110602,0.141028 -0.180127,0.185877 -0.180127,0.116195 z M 120.46544,54.036515 c -0.10531,-0.134282 -0.10232,-0.137276 0.032,-0.03197 0.0815,0.06391 0.14816,0.130581 0.14816,0.148161 0,0.06968 -0.0695,0.02483 -0.18013,-0.116195 z M 64.746455,32.539398 c 0.05821,-0.02349 0.153452,-0.02349 0.211659,0 0.05821,0.02349 0.01058,0.0427 -0.10583,0.0427 -0.116412,0 -0.164036,-0.01922 -0.105829,-0.0427 z m 5.757121,0 c 0.05821,-0.02349 0.153453,-0.02349 0.211659,0 0.05821,0.02349 0.01058,0.0427 -0.105829,0.0427 -0.116412,0 -0.164036,-0.01922 -0.10583,-0.0427 z"
         id="path6876" />
      <path
         style="fill:#000000;fill-opacity:1;stroke-width:0.0846636"
         d="m 65.0904,102.89305 c 0.06112,-0.0245 0.13414,-0.0215 0.162272,0.007 0.02813,0.0281 -0.02187,0.0482 -0.11112,0.0445 -0.09863,-0.004 -0.11869,-0.0241 -0.05115,-0.0511 z m 5.164477,0 c 0.06112,-0.0245 0.13414,-0.0215 0.162272,0.007 0.02813,0.0281 -0.02187,0.0482 -0.111121,0.0445 -0.09863,-0.004 -0.118689,-0.0241 -0.05115,-0.0511 z M 125.59839,83.901584 c 0.0843,-0.09313 0.17229,-0.169327 0.19557,-0.169327 0.0233,0 -0.0266,0.0762 -0.11091,0.169327 -0.0843,0.09313 -0.17229,0.169327 -0.19557,0.169327 -0.0233,0 0.0266,-0.0762 0.11091,-0.169327 z M 9.7255093,83.838087 c -0.1053105,-0.134282 -0.1023159,-0.137276 0.031966,-0.03197 0.1410283,0.110602 0.1858771,0.180127 0.1161956,0.180127 -0.01758,0 -0.084253,-0.06667 -0.1481612,-0.148161 z M 46.924961,63.370672 c 9.39e-4,-0.18626 0.01828,-0.252488 0.03853,-0.147174 0.02025,0.105314 0.01948,0.257708 -0.0017,0.338654 -0.02119,0.08095 -0.03776,-0.0052 -0.03682,-0.19148 z m 56.893909,0 c 9.3e-4,-0.18626 0.0183,-0.252488 0.0385,-0.147174 0.0203,0.105314 0.0195,0.257708 -0.002,0.338654 -0.0212,0.08095 -0.0378,-0.0052 -0.0368,-0.19148 z M 60.349241,38.125429 c 0.06112,-0.02446 0.134139,-0.02145 0.162272,0.0067 0.02813,0.02813 -0.02187,0.04814 -0.111121,0.04447 -0.09863,-0.0041 -0.118689,-0.02412 -0.05115,-0.05115 z m 14.646795,0 c 0.06112,-0.02446 0.13414,-0.02145 0.162273,0.0067 0.02813,0.02813 -0.02187,0.04814 -0.111121,0.04447 -0.09863,-0.0041 -0.11869,-0.02412 -0.05115,-0.05115 z M 65.0904,32.537635 c 0.06112,-0.02446 0.13414,-0.02145 0.162272,0.0067 0.02813,0.02813 -0.02187,0.04814 -0.11112,0.04447 -0.09863,-0.0041 -0.11869,-0.02412 -0.05115,-0.05115 z m 5.164477,0 c 0.06112,-0.02446 0.13414,-0.02145 0.162272,0.0067 0.02813,0.02813 -0.02187,0.04814 -0.111121,0.04447 -0.09863,-0.0041 -0.118689,-0.02412 -0.05115,-0.05115 z"
         id="path6874" />
      <path
         style="fill:#000000;fill-opacity:1;stroke-width:0.0846636"
         d="m 65.3391,102.89481 c 0.05821,-0.0235 0.153452,-0.0235 0.211658,0 0.05821,0.0235 0.01058,0.0427 -0.105829,0.0427 -0.116412,0 -0.164036,-0.0192 -0.105829,-0.0427 z m 4.571832,0 c 0.05821,-0.0235 0.153452,-0.0235 0.211658,0 0.05821,0.0235 0.01058,0.0427 -0.105829,0.0427 -0.116412,0 -0.164036,-0.0192 -0.105829,-0.0427 z m -6.005821,-5.420227 c 0.06112,-0.02446 0.134139,-0.02145 0.162272,0.0067 0.02813,0.02813 -0.02187,0.04815 -0.111121,0.04447 -0.09863,-0.0041 -0.11869,-0.02413 -0.05115,-0.05115 z m 7.535056,0 c 0.06112,-0.02446 0.134139,-0.02145 0.162272,0.0067 0.02813,0.02813 -0.02187,0.04815 -0.111121,0.04447 -0.09863,-0.0041 -0.11869,-0.02413 -0.05115,-0.05115 z M 9.9795,84.092077 c -0.1053105,-0.134281 -0.102316,-0.137276 0.031966,-0.03196 0.141028,0.110602 0.185877,0.180126 0.116195,0.180126 -0.01758,0 -0.08425,-0.06667 -0.148161,-0.148161 z m 111.68203,-3.862991 c 0,-0.01758 0.0667,-0.08425 0.14816,-0.148161 0.13429,-0.105311 0.13728,-0.102316 0.032,0.03196 -0.1106,0.141028 -0.18013,0.185877 -0.18013,0.116196 z M 38.844698,75.800712 c 0.06112,-0.02446 0.134139,-0.02145 0.162272,0.0067 0.02813,0.02813 -0.02187,0.04814 -0.111121,0.04447 -0.09863,-0.0041 -0.11869,-0.02412 -0.05115,-0.05115 z m 56.89391,0 c 0.06112,-0.02446 0.134141,-0.02145 0.162274,0.0067 0.02813,0.02813 -0.02188,0.04814 -0.111121,0.04447 -0.09863,-0.0041 -0.118689,-0.02412 -0.05115,-0.05115 z M 2.7159177,68.612757 c 0.00406,-0.09863 0.024124,-0.11869 0.051151,-0.05115 0.024457,0.06112 0.021449,0.134139 -0.00668,0.162272 -0.028133,0.02813 -0.048143,-0.02187 -0.044467,-0.111121 z M 132.67447,68.528094 c 0.004,-0.09863 0.0241,-0.11869 0.0512,-0.05115 0.0245,0.06112 0.0215,0.134139 -0.007,0.162272 -0.0281,0.02813 -0.0481,-0.02187 -0.0445,-0.111121 z m 0,-1.608608 c 0.004,-0.09863 0.0241,-0.11869 0.0512,-0.05115 0.0245,0.06112 0.0215,0.134139 -0.007,0.162272 -0.0281,0.02813 -0.0481,-0.02187 -0.0445,-0.111121 z M 2.7159177,66.834823 c 0.00406,-0.09863 0.024124,-0.11869 0.051151,-0.05115 0.024457,0.06112 0.021449,0.13414 -0.00668,0.162273 -0.028133,0.02813 -0.048143,-0.02187 -0.044467,-0.111121 z M 73.387429,54.211505 c 0.06112,-0.02446 0.134139,-0.02145 0.162272,0.0067 0.02813,0.02813 -0.02187,0.04814 -0.111121,0.04447 -0.09863,-0.0041 -0.11869,-0.02412 -0.05115,-0.05115 z M 63.905111,37.956102 c 0.06112,-0.02446 0.134139,-0.02145 0.162272,0.0067 0.02813,0.02813 -0.02187,0.04814 -0.111121,0.04447 -0.09863,-0.0041 -0.11869,-0.02412 -0.05115,-0.05115 z m 7.535056,0 c 0.06112,-0.02446 0.134139,-0.02145 0.162272,0.0067 0.02813,0.02813 -0.02187,0.04814 -0.111121,0.04447 -0.09863,-0.0041 -0.11869,-0.02412 -0.05115,-0.05115 z M 65.3391,32.539398 c 0.05821,-0.02349 0.153452,-0.02349 0.211658,0 0.05821,0.02349 0.01058,0.0427 -0.105829,0.0427 -0.116412,0 -0.164036,-0.01922 -0.105829,-0.0427 z m 4.571832,0 c 0.05821,-0.02349 0.153452,-0.02349 0.211658,0 0.05821,0.02349 0.01058,0.0427 -0.105829,0.0427 -0.116412,0 -0.164036,-0.01922 -0.105829,-0.0427 z"
         id="path6872" />
      <path
         style="fill:#000000;fill-opacity:1;stroke-width:0.0846636"
         d="m 64.767621,102.90012 c -5.888065,-0.18793 -11.22096,-0.6859 -16.26127,-1.51845 C 29.815289,98.294304 14.796671,90.872189 7.4820617,81.107687 4.9890066,77.779629 3.4528231,74.179117 2.9125915,70.397747 2.7158793,69.020853 2.7160882,66.438309 2.913023,65.063943 3.8811622,58.307502 7.9251909,52.289453 15.101266,46.926229 25.374105,39.248559 41.3524,34.108643 58.841172,32.855926 c 5.657011,-0.40521 12.122335,-0.40521 17.779346,0 18.672226,1.337487 35.460992,7.069324 45.696282,15.601122 4.55651,3.798154 7.69489,8.059179 9.25733,12.56882 0.79466,2.293624 1.12005,4.260385 1.11628,6.747309 -0.005,2.996167 -0.59716,5.736944 -1.8369,8.495365 -3.50529,7.799322 -11.8939,14.715945 -23.70165,19.542622 -9.722826,3.974421 -20.979845,6.319766 -33.452234,6.969586 -1.7202,0.0896 -7.460419,0.16634 -8.932005,0.11937 z m 10.328953,-5.572572 c 13.234074,-0.913926 24.834658,-3.757259 34.246406,-8.393892 7.98152,-3.932047 13.57535,-8.817984 16.25457,-14.1976 1.19863,-2.40674 1.73644,-4.576394 1.73644,-7.005211 0,-3.763966 -1.39597,-7.333416 -4.28785,-10.963931 -0.8767,-1.100638 -2.86043,-3.106713 -4.05151,-4.097163 -10.13608,-8.428709 -27.072274,-13.799287 -46.212053,-14.654142 -2.481739,-0.110844 -7.621725,-0.110844 -10.103464,0 -13.828294,0.617623 -26.607291,3.590347 -36.560406,8.504889 -9.432498,4.657479 -15.552234,10.66419 -17.4086617,17.087146 -0.4715712,1.631564 -0.5382232,2.15082 -0.5346906,4.165533 0.00282,1.610165 0.02929,1.983078 0.195283,2.751565 0.795281,3.681853 2.7646853,7.072574 5.9773963,10.291275 9.052322,9.069198 26.443738,15.294069 46.101745,16.5011 3.199208,0.196437 3.068014,0.193668 8.043038,0.169886 3.167341,-0.01514 5.238023,-0.06514 6.603757,-0.159455 z M 24.383104,83.853079 c 0,-0.07324 1.201159,-6.654777 2.669243,-14.62563 1.468084,-7.970853 2.69148,-14.61628 2.718657,-14.767616 0.04941,-0.275157 0.04941,-0.275157 7.426885,-0.275086 4.385107,4.2e-5 7.755216,0.03533 8.308772,0.087 2.506152,0.233944 4.54794,1.073965 6.028243,2.480108 2.306083,2.190554 3.035513,5.602889 2.003035,9.370377 -1.140378,4.161213 -3.003279,6.612596 -6.138581,8.077731 -2.615723,1.222333 -5.696711,1.653217 -11.847898,1.656954 -3.024887,0.0018 -2.554746,-0.711051 -3.644204,5.525813 -0.454745,2.603297 -0.454745,2.603297 -3.989448,2.603404 -3.158395,8.5e-5 -3.534704,-0.01407 -3.534704,-0.13306 z M 41.019493,70.346226 c 3.17595,-0.389198 4.845457,-1.76076 5.587128,-4.590032 0.884762,-3.375134 0.06928,-5.193911 -2.666235,-5.946553 -0.479791,-0.132008 -1.02788,-0.155724 -4.276975,-0.185066 -3.726662,-0.03366 -3.726662,-0.03366 -4.651367,4.861777 -0.508588,2.692487 -0.969996,5.133549 -1.025353,5.42458 -0.100646,0.529147 -0.100646,0.529147 3.085092,0.528908 1.803325,-1.69e-4 3.516386,-0.04076 3.94771,-0.09361 z m 40.257521,13.506853 c 0,-0.07324 1.201159,-6.654777 2.669243,-14.62563 1.468087,-7.970853 2.691476,-14.61628 2.718653,-14.767616 0.04942,-0.275157 0.04942,-0.275157 7.42689,-0.275086 4.385107,4.2e-5 7.75522,0.03533 8.30877,0.087 2.50615,0.233944 4.54794,1.073965 6.02824,2.480108 2.30608,2.190554 3.03552,5.602889 2.00304,9.370377 -1.14038,4.161213 -3.00328,6.612596 -6.13858,8.077731 -2.61573,1.222333 -5.696717,1.653217 -11.847897,1.656954 -3.024893,0.0018 -2.554748,-0.711051 -3.644207,5.525813 -0.454745,2.603297 -0.454745,2.603297 -3.989449,2.603404 -3.158395,8.5e-5 -3.534703,-0.01407 -3.534703,-0.13306 z M 97.913403,70.346226 c 3.175947,-0.389198 4.845457,-1.76076 5.587127,-4.590032 0.88477,-3.375134 0.0693,-5.193911 -2.66623,-5.946553 -0.47979,-0.132008 -1.027888,-0.155724 -4.276979,-0.185066 -3.726661,-0.03366 -3.726661,-0.03366 -4.651365,4.861777 -0.508591,2.692487 -0.969999,5.133549 -1.025352,5.42458 -0.100648,0.529147 -0.100648,0.529147 3.08509,0.528908 1.803325,-1.69e-4 3.516382,-0.04076 3.947709,-0.09361 z M 54.48678,74.525095 c 0.154368,-0.733398 1.683014,-8.048159 3.396991,-16.255025 3.116321,-14.921575 3.116321,-14.921575 6.652638,-14.921952 3.536316,-3.77e-4 3.536316,-3.77e-4 3.489095,0.190116 -0.02597,0.104771 -0.534909,2.533557 -1.130972,5.397302 -1.083751,5.206808 -1.083751,5.206808 3.241658,5.258246 5.065571,0.06024 6.149692,0.159509 7.965941,0.729408 0.840708,0.263797 1.293152,0.490358 1.959152,0.981044 1.431253,1.0545 2.120217,3.062441 1.890308,5.509178 -0.08921,0.949406 -0.209697,1.537729 -2.013332,9.830971 -0.994294,4.571832 -0.994294,4.571832 -4.568929,4.593916 -2.230957,0.01378 -3.574634,-0.0083 -3.574634,-0.05881 0,-0.04449 0.569234,-2.702282 1.264966,-5.906202 0.695732,-3.20392 1.309643,-6.084903 1.364248,-6.402182 0.14894,-0.865421 0.07156,-2.132622 -0.157047,-2.571941 -0.321337,-0.617512 -0.917615,-0.96334 -2.02696,-1.175594 -0.480379,-0.09191 -1.449657,-0.120429 -4.093188,-0.120429 -1.905067,0 -3.463758,0.01762 -3.463758,0.03915 0,0.02154 -0.745462,3.574229 -1.656581,7.894877 -0.91112,4.320647 -1.677854,7.960493 -1.703854,8.088547 -0.04727,0.232824 -0.04727,0.232824 -3.581842,0.232824 -3.534568,0 -3.534568,0 -3.2539,-1.333451 z"
         id="path6870" />
    </g>
  </g>
</svg>
