<?xml version="1.0" encoding="UTF-8" standalone="no"?>
<!-- Created with Inkscape (http://www.inkscape.org/) -->

<svg
   version="1.1"
   id="svg274"
   width="1977.2172"
   height="1182.4642"
   viewBox="0 0 1977.2172 1182.4642"
   xmlns="http://www.w3.org/2000/svg"
   xmlns:svg="http://www.w3.org/2000/svg">
  <defs
     id="defs278" />
  <g
     id="g280"
     transform="translate(-14.960592,-1.8322074)">
    <g
       id="g364"
       transform="translate(3.2992393,-5.278786)"
       style="fill:#000000">
      <path
         style="fill:#000000;fill-opacity:1"
         d="m 985.19458,1189.2543 c 5.88201,-0.1764 15.78202,-0.1771 22.00002,0 6.218,0.1757 1.4054,0.3201 -10.6946,0.3209 -12.1,7e-4 -17.18744,-0.1431 -11.30542,-0.3196 z m -45.92555,-0.9473 c 0.97297,-0.2535 2.32297,-0.2369 3,0.037 0.67703,0.2739 -0.11903,0.4813 -1.76903,0.461 -1.65,-0.02 -2.20394,-0.2445 -1.23097,-0.4981 z m 110.48097,0.031 c 0.6875,-0.2774 1.8125,-0.2774 2.5,0 0.6875,0.2774 0.125,0.5044 -1.25,0.5044 -1.375,0 -1.9375,-0.227 -1.25,-0.5044 z m -132,-1 c 0.6875,-0.2774 1.8125,-0.2774 2.5,0 0.6875,0.2774 0.125,0.5044 -1.25,0.5044 -1.375,0 -1.9375,-0.227 -1.25,-0.5044 z m 153,0 c 0.6875,-0.2774 1.8125,-0.2774 2.5,0 0.6875,0.2774 0.125,0.5044 -1.25,0.5044 -1.375,0 -1.9375,-0.227 -1.25,-0.5044 z m -169.9375,-1.0208 c 0.72187,-0.2889 1.58438,-0.2534 1.91667,0.079 0.33229,0.3323 -0.25834,0.5687 -1.3125,0.5253 -1.16495,-0.048 -1.4019,-0.285 -0.60417,-0.6042 z m 213,-2 c 0.7219,-0.2889 1.5844,-0.2534 1.9167,0.079 0.3323,0.3323 -0.2584,0.5687 -1.3125,0.5253 -1.165,-0.048 -1.4019,-0.285 -0.6042,-0.6042 z M 1830.1579,1098 c 0,-1.375 0.227,-1.9375 0.5044,-1.25 0.2774,0.6875 0.2774,1.8125 0,2.5 -0.2774,0.6875 -0.5044,0.125 -0.5044,-1.25 z m 45.3421,-12 c 2.7086,-2.75 5.1498,-5 5.4248,-5 0.275,0 -1.7162,2.25 -4.4248,5 -2.7086,2.75 -5.1498,5 -5.4248,5 -0.275,0 1.7162,-2.25 4.4248,-5 z m -892.23625,-38.7176 c 1.52006,-0.2298 3.77006,-0.2237 5,0.014 1.22994,0.2373 -0.0137,0.4254 -2.76375,0.4179 -2.75,-0.01 -3.75631,-0.2017 -2.23625,-0.4316 z m 68.98625,0 c 1.5125,-0.2291 3.9875,-0.2291 5.5,0 1.5125,0.2292 0.275,0.4166 -2.75,0.4166 -3.025,0 -4.2625,-0.1874 -2.75,-0.4166 z m -104.5,-0.946 c 0.6875,-0.2774 1.8125,-0.2774 2.5,0 0.6875,0.2774 0.125,0.5044 -1.25,0.5044 -1.375,0 -1.9375,-0.227 -1.25,-0.5044 z m 141,0 c 0.6875,-0.2774 1.8125,-0.2774 2.5,0 0.6875,0.2774 0.125,0.5044 -1.25,0.5044 -1.375,0 -1.9375,-0.227 -1.25,-0.5044 z m -164.48097,-1.0307 c 0.97297,-0.2535 2.32297,-0.2369 3,0.037 0.67703,0.2739 -0.11903,0.4813 -1.76903,0.461 -1.65,-0.02 -2.20394,-0.2445 -1.23097,-0.4981 z m 186.48097,0.031 c 0.6875,-0.2774 1.8125,-0.2774 2.5,0 0.6875,0.2774 0.125,0.5044 -1.25,0.5044 -1.375,0 -1.9375,-0.227 -1.25,-0.5044 z m -203.9375,-1.0208 c 0.72187,-0.2889 1.58438,-0.2534 1.91667,0.079 0.33229,0.3323 -0.25834,0.5687 -1.3125,0.5253 -1.16495,-0.048 -1.4019,-0.285 -0.60417,-0.6042 z m 221.9375,0.021 c 0.6875,-0.2774 1.8125,-0.2774 2.5,0 0.6875,0.2774 0.125,0.5044 -1.25,0.5044 -1.375,0 -1.9375,-0.227 -1.25,-0.5044 z m -238.9375,-1.0208 c 0.72187,-0.2889 1.58438,-0.2534 1.91667,0.079 0.33229,0.3323 -0.25834,0.5687 -1.3125,0.5253 -1.16495,-0.048 -1.4019,-0.285 -0.60417,-0.6042 z m 255,0 c 0.7219,-0.2889 1.5844,-0.2534 1.9167,0.079 0.3323,0.3323 -0.2584,0.5687 -1.3125,0.5253 -1.165,-0.048 -1.4019,-0.285 -0.6042,-0.6042 z m -281,-2 c 0.72187,-0.2889 1.58438,-0.2534 1.91667,0.079 0.33229,0.3323 -0.25834,0.5687 -1.3125,0.5253 -1.16495,-0.048 -1.4019,-0.285 -0.60417,-0.6042 z M 1804.5,940 c 0.9955,-1.1 2.035,-2 2.31,-2 0.275,0 -0.3145,0.9 -1.31,2 -0.9955,1.1 -2.035,2 -2.31,2 -0.275,0 0.3145,-0.9 1.31,-2 z m -21.25,-48.68933 c 0.9625,-0.25152 2.5375,-0.25152 3.5,0 0.9625,0.25153 0.175,0.45733 -1.75,0.45733 -1.925,0 -2.7125,-0.2058 -1.75,-0.45733 z m 204.8289,-68.894 c 0.048,-1.16495 0.285,-1.4019 0.6042,-0.60417 0.2889,0.72187 0.2534,1.58438 -0.079,1.91667 -0.3323,0.33229 -0.5687,-0.25834 -0.5253,-1.3125 z m -234.2664,-0.0998 c 0.7219,-0.28887 1.5844,-0.25335 1.9167,0.0789 0.3323,0.33229 -0.2584,0.56864 -1.3125,0.52522 -1.165,-0.048 -1.4019,-0.28494 -0.6042,-0.60416 z m 26.4375,-1.04536 c 2.0625,-0.21574 5.4375,-0.21574 7.5,0 2.0625,0.21575 0.375,0.39226 -3.75,0.39226 -4.125,0 -5.8125,-0.17651 -3.75,-0.39226 z m 24.0137,0.0109 c 1.5201,-0.22986 3.7701,-0.22371 5,0.0136 1.23,0.23736 -0.014,0.42542 -2.7637,0.41792 -2.75,-0.008 -3.7563,-0.20172 -2.2363,-0.43157 z M 17.872445,815.25 c -1.243871,-1.58606 -1.208501,-1.62143 0.377555,-0.37756 0.9625,0.75485 1.75,1.54235 1.75,1.75 0,0.82304 -0.821186,0.29331 -2.127555,-1.37244 z M 1988.0789,798.41667 c 0.048,-1.16495 0.285,-1.4019 0.6042,-0.60417 0.2889,0.72187 0.2534,1.58438 -0.079,1.91667 -0.3323,0.33229 -0.5687,-0.25834 -0.5253,-1.3125 z M 1820.75,745.33772 c 0.6875,-0.27741 1.8125,-0.27741 2.5,0 0.6875,0.27741 0.125,0.50439 -1.25,0.50439 -1.375,0 -1.9375,-0.22698 -1.25,-0.50439 z m 58,0 c 0.6875,-0.27741 1.8125,-0.27741 2.5,0 0.6875,0.27741 0.125,0.50439 -1.25,0.50439 -1.375,0 -1.9375,-0.22698 -1.25,-0.50439 z M 1669.269,625.30701 c 0.973,-0.25354 2.323,-0.23687 3,0.0371 0.6771,0.27393 -0.119,0.48137 -1.769,0.46099 -1.65,-0.0204 -2.2039,-0.2445 -1.231,-0.49804 z m 8.481,0.0307 c 0.6875,-0.27741 1.8125,-0.27741 2.5,0 0.6875,0.27741 0.125,0.50439 -1.25,0.50439 -1.375,0 -1.9375,-0.22698 -1.25,-0.50439 z m -496.4388,-17.08593 c 8.1461,-0.16828 21.1961,-0.16789 29,8.6e-4 7.8038,0.16876 1.1388,0.30644 -14.8112,0.30596 -15.95,-4.7e-4 -22.335,-0.13854 -14.1888,-0.30682 z M 135.87244,570.25 c -1.24387,-1.58606 -1.2085,-1.62143 0.37756,-0.37756 0.9625,0.75485 1.75,1.54235 1.75,1.75 0,0.82304 -0.82119,0.29331 -2.12756,-1.37244 z M 447,552.5 c 1.29175,-1.375 2.57363,-2.5 2.84863,-2.5 0.275,0 -0.55688,1.125 -1.84863,2.5 -1.29175,1.375 -2.57363,2.5 -2.84863,2.5 -0.275,0 0.55688,-1.125 1.84863,-2.5 z M 295.75,536.33772 c 0.6875,-0.27741 1.8125,-0.27741 2.5,0 0.6875,0.27741 0.125,0.50439 -1.25,0.50439 -1.375,0 -1.9375,-0.22698 -1.25,-0.50439 z m 8.0625,-0.0208 c 0.72187,-0.28887 1.58438,-0.25335 1.91667,0.0789 0.33229,0.33229 -0.25834,0.56864 -1.3125,0.52522 -1.16495,-0.048 -1.4019,-0.28494 -0.60417,-0.60416 z m 1346,-1 c 0.7219,-0.28887 1.5844,-0.25335 1.9167,0.0789 0.3323,0.33229 -0.2584,0.56864 -1.3125,0.52522 -1.165,-0.048 -1.4019,-0.28494 -0.6042,-0.60416 z M 231.40499,511.75 229.5,509.5 l 2.25,1.90499 c 2.11444,1.79022 2.70524,2.59501 1.90499,2.59501 -0.18976,0 -1.20226,-1.0125 -2.25,-2.25 z M 1487.75,496.33772 c 0.6875,-0.27741 1.8125,-0.27741 2.5,0 0.6875,0.27741 0.125,0.50439 -1.25,0.50439 -1.375,0 -1.9375,-0.22698 -1.25,-0.50439 z M 301.26903,262.30701 c 0.97297,-0.25354 2.32297,-0.23687 3,0.0371 0.67703,0.27393 -0.11903,0.48137 -1.76903,0.46099 -1.65,-0.0204 -2.20394,-0.2445 -1.23097,-0.49804 z m 23.54347,0.01 c 0.72187,-0.28887 1.58438,-0.25335 1.91667,0.0789 0.33229,0.33229 -0.25834,0.56864 -1.3125,0.52522 -1.16495,-0.048 -1.4019,-0.28494 -0.60417,-0.60416 z M 131.41683,103.5 c 9.6e-4,-10.45 0.14915,-14.589126 0.3293,-9.198059 0.18015,5.391068 0.17936,13.941069 -0.002,18.999999 -0.18111,5.05893 -0.32851,0.64806 -0.32755,-9.80194 z M 1874.4071,93 c 0,-9.075 0.1516,-12.7875 0.3369,-8.25 0.1853,4.5375 0.1853,11.9625 0,16.5 -0.1853,4.5375 -0.3369,0.825 -0.3369,-8.25 z m -150.5946,3.316886 c 0.7219,-0.288871 1.5844,-0.253344 1.9167,0.07895 0.3323,0.332292 -0.2584,0.568641 -1.3125,0.52522 -1.165,-0.04798 -1.4019,-0.284941 -0.6042,-0.604167 z M 335.26903,8.3070093 c 0.97297,-0.2535434 2.32297,-0.2368691 3,0.037054 0.67703,0.2739231 -0.11903,0.4813677 -1.76903,0.460988 -1.65,-0.02038 -2.20394,-0.2444986 -1.23097,-0.498042 z m 7,0 c 0.97297,-0.2535434 2.32297,-0.2368691 3,0.037054 0.67703,0.2739231 -0.11903,0.4813677 -1.76903,0.460988 -1.65,-0.02038 -2.20394,-0.2444986 -1.23097,-0.498042 z"
         id="path378" />
      <path
         style="fill:#000000;fill-opacity:1"
         d="m 944.25,1188.3107 c 0.9625,-0.2516 2.5375,-0.2516 3.5,0 0.9625,0.2515 0.175,0.4573 -1.75,0.4573 -1.925,0 -2.7125,-0.2058 -1.75,-0.4573 z m 100,0 c 0.9625,-0.2516 2.5375,-0.2516 3.5,0 0.9625,0.2515 0.175,0.4573 -1.75,0.4573 -1.925,0 -2.7125,-0.2058 -1.75,-0.4573 z m -122.4375,-0.9938 c 0.72187,-0.2889 1.58438,-0.2534 1.91667,0.079 0.33229,0.3323 -0.25834,0.5687 -1.3125,0.5253 -1.16495,-0.048 -1.4019,-0.285 -0.60417,-0.6042 z m 144.9375,0.021 c 0.6875,-0.2774 1.8125,-0.2774 2.5,0 0.6875,0.2774 0.125,0.5044 -1.25,0.5044 -1.375,0 -1.9375,-0.227 -1.25,-0.5044 z m -162.9375,-1.0208 c 0.72187,-0.2889 1.58438,-0.2534 1.91667,0.079 0.33229,0.3323 -0.25834,0.5687 -1.3125,0.5253 -1.16495,-0.048 -1.4019,-0.285 -0.60417,-0.6042 z m 181,0 c 0.7219,-0.2889 1.5844,-0.2534 1.9167,0.079 0.3323,0.3323 -0.2584,0.5687 -1.3125,0.5253 -1.165,-0.048 -1.4019,-0.285 -0.6042,-0.6042 z m 15,-1 c 0.7219,-0.2889 1.5844,-0.2534 1.9167,0.079 0.3323,0.3323 -0.2584,0.5687 -1.3125,0.5253 -1.165,-0.048 -1.4019,-0.285 -0.6042,-0.6042 z M 1863,1097.6224 c 0,-0.2076 0.7875,-0.9951 1.75,-1.75 1.5861,-1.2438 1.6214,-1.2085 0.3776,0.3776 -1.3064,1.6657 -2.1276,2.1955 -2.1276,1.3724 z M 1886.5,1074 c 0.9955,-1.1 2.035,-2 2.31,-2 0.275,0 -0.3145,0.9 -1.31,2 -0.9955,1.1 -2.035,2 -2.31,2 -0.275,0 0.3145,-0.9 1.31,-2 z m -911.75,-26.7057 c 1.2375,-0.2384 3.2625,-0.2384 4.5,0 1.2375,0.2383 0.225,0.4333 -2.25,0.4333 -2.475,0 -3.4875,-0.195 -2.25,-0.4333 z m 87.5137,-0.012 c 1.5201,-0.2298 3.7701,-0.2237 5,0.014 1.23,0.2373 -0.014,0.4254 -2.7637,0.4179 -2.75,-0.01 -3.7563,-0.2017 -2.2363,-0.4316 z m -118.99467,-0.9754 c 0.97297,-0.2535 2.32297,-0.2369 3,0.037 0.67703,0.2739 -0.11903,0.4813 -1.76903,0.461 -1.65,-0.02 -2.20394,-0.2445 -1.23097,-0.4981 z m 149.99997,0 c 0.973,-0.2535 2.323,-0.2369 3,0.037 0.6771,0.2739 -0.119,0.4813 -1.769,0.461 -1.65,-0.02 -2.2039,-0.2445 -1.231,-0.4981 z m -172.4565,-0.9901 c 0.72187,-0.2889 1.58438,-0.2534 1.91667,0.079 0.33229,0.3323 -0.25834,0.5687 -1.3125,0.5253 -1.16495,-0.048 -1.4019,-0.285 -0.60417,-0.6042 z m 194,0 c 0.7219,-0.2889 1.5844,-0.2534 1.9167,0.079 0.3323,0.3323 -0.2584,0.5687 -1.3125,0.5253 -1.165,-0.048 -1.4019,-0.285 -0.6042,-0.6042 z m -211,-1 c 0.72187,-0.2889 1.58438,-0.2534 1.91667,0.079 0.33229,0.3323 -0.25834,0.5687 -1.3125,0.5253 -1.16495,-0.048 -1.4019,-0.285 -0.60417,-0.6042 z m 229,0 c 0.7219,-0.2889 1.5844,-0.2534 1.9167,0.079 0.3323,0.3323 -0.2584,0.5687 -1.3125,0.5253 -1.165,-0.048 -1.4019,-0.285 -0.6042,-0.6042 z m 28,-2 c 0.7219,-0.2889 1.5844,-0.2534 1.9167,0.079 0.3323,0.3323 -0.2584,0.5687 -1.3125,0.5253 -1.165,-0.048 -1.4019,-0.285 -0.6042,-0.6042 z m 735.2664,-158.90023 c 0.048,-1.16495 0.285,-1.4019 0.6042,-0.60417 0.2889,0.72187 0.2534,1.58438 -0.079,1.91667 -0.3323,0.33229 -0.5687,-0.25834 -0.5253,-1.3125 z M 41.872445,836.25 c -1.243871,-1.58606 -1.208501,-1.62143 0.377555,-0.37756 0.9625,0.75485 1.75,1.54235 1.75,1.75 0,0.82304 -0.821186,0.29331 -2.127555,-1.37244 z m -8,-7 c -1.243871,-1.58606 -1.208501,-1.62143 0.377555,-0.37756 0.9625,0.75485 1.75,1.54235 1.75,1.75 0,0.82304 -0.821186,0.29331 -2.127555,-1.37244 z M 1734.8125,823.31689 c 0.7219,-0.28887 1.5844,-0.25335 1.9167,0.0789 0.3323,0.33229 -0.2584,0.56864 -1.3125,0.52522 -1.165,-0.048 -1.4019,-0.28494 -0.6042,-0.60416 z M 24.872445,821.25 c -1.243871,-1.58606 -1.208501,-1.62143 0.377555,-0.37756 0.9625,0.75485 1.75,1.54235 1.75,1.75 0,0.82304 -0.821186,0.29331 -2.127555,-1.37244 z m 1725.940055,1.06689 c 0.7219,-0.28887 1.5844,-0.25335 1.9167,0.0789 0.3323,0.33229 -0.2584,0.56864 -1.3125,0.52522 -1.165,-0.048 -1.4019,-0.28494 -0.6042,-0.60416 z m 22.4565,-1.00988 c 0.973,-0.25354 2.323,-0.23687 3,0.0371 0.6771,0.27393 -0.119,0.48137 -1.769,0.46099 -1.65,-0.0204 -2.2039,-0.2445 -1.231,-0.49804 z m 39,0 c 0.973,-0.25354 2.323,-0.23687 3,0.0371 0.6771,0.27393 -0.119,0.48137 -1.769,0.46099 -1.65,-0.0204 -2.2039,-0.2445 -1.231,-0.49804 z M 1988.232,818 c 0,-1.925 0.2058,-2.7125 0.4573,-1.75 0.2516,0.9625 0.2516,2.5375 0,3.5 -0.2515,0.9625 -0.4573,0.175 -0.4573,-1.75 z M 1625.5,809 c 0.9955,-1.1 2.035,-2 2.31,-2 0.275,0 -0.3145,0.9 -1.31,2 -0.9955,1.1 -2.035,2 -2.31,2 -0.275,0 0.3145,-0.9 1.31,-2 z m 362.6579,-7 c 0,-1.375 0.227,-1.9375 0.5044,-1.25 0.2774,0.6875 0.2774,1.8125 0,2.5 -0.2774,0.6875 -0.5044,0.125 -0.5044,-1.25 z m -163.3454,-56.68311 c 0.7219,-0.28887 1.5844,-0.25335 1.9167,0.0789 0.3323,0.33229 -0.2584,0.56864 -1.3125,0.52522 -1.165,-0.048 -1.4019,-0.28494 -0.6042,-0.60416 z m 49.9375,0.0208 c 0.6875,-0.27741 1.8125,-0.27741 2.5,0 0.6875,0.27741 0.125,0.50439 -1.25,0.50439 -1.375,0 -1.9375,-0.22698 -1.25,-0.50439 z m -201,-120 c 0.6875,-0.27741 1.8125,-0.27741 2.5,0 0.6875,0.27741 0.125,0.50439 -1.25,0.50439 -1.375,0 -1.9375,-0.22698 -1.25,-0.50439 z m -1387.9375,-3.0208 c 0.72187,-0.28887 1.58438,-0.25335 1.91667,0.0789 0.33229,0.33229 -0.25834,0.56864 -1.3125,0.52522 -1.16495,-0.048 -1.4019,-0.28494 -0.60417,-0.60416 z M 1138.8724,600.25 c -1.2438,-1.58606 -1.2085,-1.62143 0.3776,-0.37756 1.6657,1.30637 2.1955,2.12756 1.3724,2.12756 -0.2076,0 -0.9951,-0.7875 -1.75,-1.75 z m -998.94809,-26 -2.42431,-2.75 2.75,2.42431 c 2.57029,2.26589 3.20859,3.07569 2.42431,3.07569 -0.17912,0 -1.41662,-1.2375 -2.75,-2.75 z M 450,549.62244 c 0,-0.20765 0.7875,-0.99515 1.75,-1.75 1.58606,-1.24387 1.62143,-1.2085 0.37756,0.37756 C 450.82119,549.91575 450,550.44548 450,549.62244 Z M 306.75,536.33772 c 0.6875,-0.27741 1.8125,-0.27741 2.5,0 0.6875,0.27741 0.125,0.50439 -1.25,0.50439 -1.375,0 -1.9375,-0.22698 -1.25,-0.50439 z M 568.27236,442 c 0,-2.475 0.19502,-3.4875 0.43337,-2.25 0.23836,1.2375 0.23836,3.2625 0,4.5 -0.23835,1.2375 -0.43337,0.225 -0.43337,-2.25 z M 460.40918,372.5 c -10e-4,-9.35 0.14916,-13.3096 0.33401,-8.7991 0.18486,4.51049 0.1858,12.16049 0.002,17 -0.1837,4.8395 -0.33495,1.1491 -0.3361,-8.2009 z m 1404.51512,-37.25 -2.4243,-2.75 2.75,2.42431 c 2.5703,2.26589 3.2086,3.07569 2.4243,3.07569 -0.1791,0 -1.4166,-1.2375 -2.75,-2.75 z M 306.75,262.29427 c 1.2375,-0.23836 3.2625,-0.23836 4.5,0 1.2375,0.23835 0.225,0.43337 -2.25,0.43337 -2.475,0 -3.4875,-0.19502 -2.25,-0.43337 z m 11,0 c 1.2375,-0.23836 3.2625,-0.23836 4.5,0 1.2375,0.23835 0.225,0.43337 -2.25,0.43337 -2.475,0 -3.4875,-0.19502 -2.25,-0.43337 z m 248.32895,-59.8776 c 0.048,-1.16495 0.28494,-1.4019 0.60416,-0.60417 0.28887,0.72187 0.25335,1.58437 -0.0789,1.91667 -0.33229,0.33229 -0.56864,-0.25834 -0.52522,-1.3125 z M 1589.232,173 c 0,-1.925 0.2058,-2.7125 0.4573,-1.75 0.2516,0.9625 0.2516,2.5375 0,3.5 -0.2515,0.9625 -0.4573,0.175 -0.4573,-1.75 z m -109.0741,-2 c 0,-1.375 0.227,-1.9375 0.5044,-1.25 0.2774,0.6875 0.2774,1.8125 0,2.5 -0.2774,0.6875 -0.5044,0.125 -0.5044,-1.25 z M 1857.75,129.33772 c 0.6875,-0.27741 1.8125,-0.27741 2.5,0 0.6875,0.27741 0.125,0.50439 -1.25,0.50439 -1.375,0 -1.9375,-0.22698 -1.25,-0.50439 z M 1689.8125,96.316886 c 0.7219,-0.288871 1.5844,-0.253344 1.9167,0.07895 0.3323,0.332292 -0.2584,0.568641 -1.3125,0.52522 -1.165,-0.04798 -1.4019,-0.284941 -0.6042,-0.604167 z m -7,-89 c 0.7219,-0.2888706 1.5844,-0.2533443 1.9167,0.078947 0.3323,0.3322917 -0.2584,0.5686404 -1.3125,0.5252193 -1.165,-0.047984 -1.4019,-0.2849403 -0.6042,-0.6041663 z m 28,0 c 0.7219,-0.2888706 1.5844,-0.2533443 1.9167,0.078947 0.3323,0.3322917 -0.2584,0.5686404 -1.3125,0.5252193 -1.165,-0.047984 -1.4019,-0.2849403 -0.6042,-0.6041663 z"
         id="path376" />
      <path
         style="fill:#000000;fill-opacity:1"
         d="m 941.5,1188.3693 c -39.75048,-1.7307 -84.86955,-5.2715 -120,-9.417 C 541.87556,1145.9552 280.73327,1034.3577 66,856.0941 38.740752,833.46448 17.391013,814.36874 14.970173,810.45174 c -6.5717171,-10.63326 -3.032029,-22.25567 7.763159,-25.48999 6.909173,-2.07004 11.730204,-0.58637 28.378866,8.7336 C 117.83346,831.04609 179.1897,861.5107 241.5,888.22672 c 296.51258,127.13208 629.84057,180.82248 945,152.21468 191.6149,-17.3933 386.4716,-64.88891 562,-136.9854 23.9155,-9.82304 26.6414,-10.71814 34,-11.16456 13.329,-0.80861 23.1906,4.21217 28.9086,14.718 5.2274,9.60449 3.5939,20.49958 -4.5515,30.35717 -7.7172,9.33942 -62.1095,45.9276 -103.8571,69.86179 -134.2875,76.9878 -297.7899,133.5438 -467.5,161.7097 -53.1129,8.8148 -99.3347,14.09 -159,18.1464 -15.2566,1.0372 -118.18779,2.0168 -135,1.2848 z m 894.857,-80.3065 c -1.1787,-0.5056 -2.8662,-1.9516 -3.75,-3.2135 -3.2836,-4.688 -2.1236,-9.7388 8.3137,-36.1988 32.3917,-82.11811 49.0024,-135.68071 54.6274,-176.1505 2.042,-14.6918 1.5475,-33.3634 -1.0924,-41.24594 -5.3067,-15.84551 -22.4796,-24.13306 -58.9557,-28.4517 -13.8202,-1.63626 -70.6438,-1.6039 -93,0.053 -26.8189,1.98759 -58.6835,5.04657 -85.6945,8.22661 -20.638,2.42974 -26.482,2.81298 -29.6964,1.94745 -10.5168,-2.83188 -10.7292,-14.40037 -0.4438,-24.17291 2.1091,-2.00394 7.2097,-5.88092 11.3347,-8.61552 52.7986,-35.00191 130.6056,-55.22117 212.5,-55.22117 56.2482,0 108.747,9.75644 127.2592,23.65001 7.4841,5.61682 10.4871,17.46471 10.4759,41.33021 0,9.075 -0.5396,21.225 -1.1896,27 -9.2659,82.32298 -44.88,169.96956 -92.791,228.35936 -10.3831,12.6541 -33.8191,35.4398 -40.6705,39.5421 -5.9774,3.5789 -13.1742,4.8996 -17.227,3.1613 z M 460.15789,391 c 0,-1.375 0.22698,-1.9375 0.50439,-1.25 0.27741,0.6875 0.27741,1.8125 0,2.5 -0.27741,0.6875 -0.50439,0.125 -0.50439,-1.25 z M 366.8125,341.31689 c 0.72187,-0.28887 1.58438,-0.25335 1.91667,0.0789 0.33229,0.33229 -0.25834,0.56864 -1.3125,0.52522 -1.16495,-0.048 -1.4019,-0.28494 -0.60417,-0.60416 z m -53,-79 c 0.72187,-0.28887 1.58438,-0.25335 1.91667,0.0789 0.33229,0.33229 -0.25834,0.56864 -1.3125,0.52522 -1.16495,-0.048 -1.4019,-0.28494 -0.60417,-0.60416 z M 1480.1579,185 c 0,-1.375 0.227,-1.9375 0.5044,-1.25 0.2774,0.6875 0.2774,1.8125 0,2.5 -0.2774,0.6875 -0.5044,0.125 -0.5044,-1.25 z m 0,-10 c 0,-1.375 0.227,-1.9375 0.5044,-1.25 0.2774,0.6875 0.2774,1.8125 0,2.5 -0.2774,0.6875 -0.5044,0.125 -0.5044,-1.25 z m 108.921,-6.58333 c 0.048,-1.16495 0.285,-1.4019 0.6042,-0.60417 0.2889,0.72187 0.2534,1.58437 -0.079,1.91667 -0.3323,0.33229 -0.5687,-0.25834 -0.5253,-1.3125 z M 712.8125,24.316886 c 0.72187,-0.288871 1.58438,-0.253344 1.91667,0.07895 0.33229,0.332292 -0.25834,0.568641 -1.3125,0.52522 -1.16495,-0.04798 -1.4019,-0.284941 -0.60417,-0.604167 z m 284.9375,0.02083 c 0.6875,-0.277412 1.8125,-0.277412 2.5,0 0.6875,0.277413 0.125,0.504386 -1.25,0.504386 -1.375,0 -1.9375,-0.226973 -1.25,-0.504386 z m 58,0 c 0.6875,-0.277412 1.8125,-0.277412 2.5,0 0.6875,0.277413 0.125,0.504386 -1.25,0.504386 -1.375,0 -1.9375,-0.226973 -1.25,-0.504386 z m 291.0625,-0.02083 c 0.7219,-0.288871 1.5844,-0.253344 1.9167,0.07895 0.3323,0.332292 -0.2584,0.568641 -1.3125,0.52522 -1.165,-0.04798 -1.4019,-0.284941 -0.6042,-0.604167 z m 339,-17 c 0.7219,-0.2888706 1.5844,-0.2533443 1.9167,0.078947 0.3323,0.3322917 -0.2584,0.5686404 -1.3125,0.5252193 -1.165,-0.047984 -1.4019,-0.2849403 -0.6042,-0.6041663 z m 22,0 c 0.7219,-0.2888706 1.5844,-0.2533443 1.9167,0.078947 0.3323,0.3322917 -0.2584,0.5686404 -1.3125,0.5252193 -1.165,-0.047984 -1.4019,-0.2849403 -0.6042,-0.6041663 z"
         id="path374" />
      <path
         style="fill:#000000;fill-opacity:1"
         d="m 1696.8125,624.31689 c 0.7219,-0.28887 1.5844,-0.25335 1.9167,0.0789 0.3323,0.33229 -0.2584,0.56864 -1.3125,0.52522 -1.165,-0.048 -1.4019,-0.28494 -0.6042,-0.60416 z M 264.25,622.31067 c 0.9625,-0.25152 2.5375,-0.25152 3.5,0 0.9625,0.25153 0.175,0.45733 -1.75,0.45733 -1.925,0 -2.7125,-0.2058 -1.75,-0.45733 z m 15.01903,-0.004 c 0.97297,-0.25354 2.32297,-0.23687 3,0.0371 0.67703,0.27393 -0.11903,0.48137 -1.76903,0.46099 -1.65,-0.0204 -2.20394,-0.2445 -1.23097,-0.49804 z M 842.25,607.2519 c 8.6625,-0.16648 22.8375,-0.16648 31.5,0 8.6625,0.16648 1.575,0.30269 -15.75,0.30269 -17.325,0 -24.4125,-0.13621 -15.75,-0.30269 z M 1482.8724,576.25 c -1.2438,-1.58606 -1.2085,-1.62143 0.3776,-0.37756 0.9625,0.75485 1.75,1.54235 1.75,1.75 0,0.82304 -0.8212,0.29331 -2.1276,-1.37244 z M 1777,503.5 c 1.2917,-1.375 2.5736,-2.5 2.8486,-2.5 0.275,0 -0.5569,1.125 -1.8486,2.5 -1.2917,1.375 -2.5736,2.5 -2.8486,2.5 -0.275,0 0.5569,-1.125 1.8486,-2.5 z M 568.07895,449.41667 c 0.048,-1.16495 0.28494,-1.4019 0.60416,-0.60417 0.28887,0.72187 0.25335,1.58438 -0.0789,1.91667 -0.33229,0.33229 -0.56864,-0.25834 -0.52522,-1.3125 z m -108,-55 c 0.048,-1.16495 0.28494,-1.4019 0.60416,-0.60417 0.28887,0.72187 0.25335,1.58438 -0.0789,1.91667 -0.33229,0.33229 -0.56864,-0.25834 -0.52522,-1.3125 z M 333.75,340.2766 c 1.7875,-0.22182 4.7125,-0.22182 6.5,0 1.7875,0.22183 0.325,0.40333 -3.25,0.40333 -3.575,0 -5.0375,-0.1815 -3.25,-0.40333 z M 1480.232,180 c 0,-1.925 0.2058,-2.7125 0.4573,-1.75 0.2516,0.9625 0.2516,2.5375 0,3.5 -0.2515,0.9625 -0.4573,0.175 -0.4573,-1.75 z M 317.25,98.264961 c 2.6125,-0.205999 6.8875,-0.205999 9.5,0 2.6125,0.205998 0.475,0.374543 -4.75,0.374543 -5.225,0 -7.3625,-0.168545 -4.75,-0.374543 z m 345,-74.013264 c 9.2125,-0.16503 24.2875,-0.16503 33.5,0 9.2125,0.16503 1.675,0.300054 -16.75,0.300054 -18.425,0 -25.9625,-0.135024 -16.75,-0.300054 z m 352,7.38e-4 c 7.5625,-0.169881 19.9375,-0.169881 27.5,0 7.5625,0.16988 1.375,0.308873 -13.75,0.308873 -15.125,0 -21.3125,-0.138993 -13.75,-0.308873 z m 350,-5.35e-4 c 8.6625,-0.166477 22.8375,-0.166477 31.5,0 8.6625,0.166477 1.575,0.302686 -15.75,0.302686 -17.325,0 -24.4125,-0.136209 -15.75,-0.302686 z M 365.8125,9.316886 c 0.72187,-0.2888706 1.58438,-0.2533443 1.91667,0.078947 0.33229,0.3322917 -0.25834,0.5686404 -1.3125,0.5252193 -1.16495,-0.047984 -1.4019,-0.2849403 -0.60417,-0.6041663 z m 1326.971,-2.0552905 c 2.906,-0.2026419 7.406,-0.2005115 10,0.00473 2.5941,0.2052457 0.2165,0.3710436 -5.2835,0.3684398 -5.5,-0.0026 -7.6224,-0.170532 -4.7165,-0.3731739 z"
         id="path372" />
      <path
         style="fill:#000000;fill-opacity:1"
         d="m 271.26375,622.28242 c 1.52006,-0.22986 3.77006,-0.22371 5,0.0136 1.22994,0.23736 -0.0138,0.42542 -2.76375,0.41792 -2.75,-0.008 -3.75631,-0.20172 -2.23625,-0.43157 z M 425,489.5 c 1.29175,-1.375 2.57363,-2.5 2.84863,-2.5 0.275,0 -0.55688,1.125 -1.84863,2.5 -1.29175,1.375 -2.57363,2.5 -2.84863,2.5 -0.275,0 0.55688,-1.125 1.84863,-2.5 z M 327.75,340.33772 c 0.6875,-0.27741 1.8125,-0.27741 2.5,0 0.6875,0.27741 0.125,0.50439 -1.25,0.50439 -1.375,0 -1.9375,-0.22698 -1.25,-0.50439 z m 17,-0.0435 c 1.2375,-0.23836 3.2625,-0.23836 4.5,0 1.2375,0.23835 0.225,0.43337 -2.25,0.43337 -2.475,0 -3.4875,-0.19502 -2.25,-0.43337 z M 141.5,324 c 2.14824,-2.2 4.1309,-4 4.4059,-4 0.275,0 -1.25766,1.8 -3.4059,4 -2.14824,2.2 -4.1309,4 -4.4059,4 -0.275,0 1.25766,-1.8 3.4059,-4 z m 317.93869,-69 c 0,-15.125 0.13899,-21.3125 0.30888,-13.75 0.16988,7.5625 0.16988,19.9375 0,27.5 -0.16989,7.5625 -0.30888,1.375 -0.30888,-13.75 z M 310.8125,98.316886 c 0.72187,-0.288871 1.58438,-0.253344 1.91667,0.07895 0.33229,0.332292 -0.25834,0.568641 -1.3125,0.52522 -1.16495,-0.04798 -1.4019,-0.284941 -0.60417,-0.604167 z m 21,0 c 0.72187,-0.288871 1.58438,-0.253344 1.91667,0.07895 0.33229,0.332292 -0.25834,0.568641 -1.3125,0.52522 -1.16495,-0.04798 -1.4019,-0.284941 -0.60417,-0.604167 z M 1862.8724,50.25 c -1.2438,-1.586056 -1.2085,-1.621426 0.3776,-0.377555 1.6657,1.306369 2.1955,2.127555 1.3724,2.127555 -0.2076,0 -0.9951,-0.7875 -1.75,-1.75 z m -1125.99996,-18 c -1.24387,-1.586056 -1.2085,-1.621426 0.37756,-0.377555 0.9625,0.754844 1.75,1.542344 1.75,1.75 0,0.823034 -0.82119,0.293303 -2.12756,-1.372445 z M 315.8125,9.316886 c 0.72187,-0.2888706 1.58438,-0.2533443 1.91667,0.078947 0.33229,0.3322917 -0.25834,0.5686404 -1.3125,0.5252193 -1.16495,-0.047984 -1.4019,-0.2849403 -0.60417,-0.6041663 z"
         id="path370" />
      <path
         style="fill:#000000;fill-opacity:1"
         d="M 802.40499,598.75 800.5,596.5 l 2.25,1.90499 c 2.11444,1.79022 2.70524,2.59501 1.90499,2.59501 -0.18976,0 -1.20226,-1.0125 -2.25,-2.25 z M 912,600.62244 c 0,-0.20765 0.7875,-0.99515 1.75,-1.75 1.58606,-1.24387 1.62143,-1.2085 0.37756,0.37756 C 912.82119,600.91575 912,601.44548 912,600.62244 Z m 337,0 c 0,-0.20765 0.7875,-0.99515 1.75,-1.75 1.5861,-1.24387 1.6214,-1.2085 0.3776,0.37756 -1.3064,1.66575 -2.1276,2.19548 -2.1276,1.37244 z M 505.87244,596.25 c -1.24387,-1.58606 -1.2085,-1.62143 0.37756,-0.37756 1.66575,1.30637 2.19548,2.12756 1.37244,2.12756 -0.20765,0 -0.99515,-0.7875 -1.75,-1.75 z m -360,-17 c -1.24387,-1.58606 -1.2085,-1.62143 0.37756,-0.37756 0.9625,0.75485 1.75,1.54235 1.75,1.75 0,0.82304 -0.82119,0.29331 -2.12756,-1.37244 z M 590,575.62244 c 0,-0.20765 0.7875,-0.99515 1.75,-1.75 1.58606,-1.24387 1.62143,-1.2085 0.37756,0.37756 C 590.82119,575.91575 590,576.44548 590,575.62244 Z M 133.87244,567.25 c -1.24387,-1.58606 -1.2085,-1.62143 0.37756,-0.37756 0.9625,0.75485 1.75,1.54235 1.75,1.75 0,0.82304 -0.82119,0.29331 -2.12756,-1.37244 z M 1857.5,560 c 3.2656,-3.3 6.1624,-6 6.4374,-6 0.275,0 -2.1718,2.7 -5.4374,6 -3.2656,3.3 -6.1624,6 -6.4374,6 -0.275,0 2.1718,-2.7 5.4374,-6 z m -1416,-3 c 0.99549,-1.1 2.03498,-2 2.30998,-2 0.275,0 -0.31449,0.9 -1.30998,2 -0.99549,1.1 -2.03498,2 -2.30998,2 -0.275,0 0.31449,-0.9 1.30998,-2 z M 456,542.5 c 1.29175,-1.375 2.57363,-2.5 2.84863,-2.5 0.275,0 -0.55688,1.125 -1.84863,2.5 -1.29175,1.375 -2.57363,2.5 -2.84863,2.5 -0.275,0 0.55688,-1.125 1.84863,-2.5 z m -36,-48 c 1.29175,-1.375 2.57363,-2.5 2.84863,-2.5 0.275,0 -0.55688,1.125 -1.84863,2.5 -1.29175,1.375 -2.57363,2.5 -2.84863,2.5 -0.275,0 0.55688,-1.125 1.84863,-2.5 z m 10,-10 c 1.29175,-1.375 2.57363,-2.5 2.84863,-2.5 0.275,0 -0.55688,1.125 -1.84863,2.5 -1.29175,1.375 -2.57363,2.5 -2.84863,2.5 -0.275,0 0.55688,-1.125 1.84863,-2.5 z M 207.29966,443 c 0,-3.025 0.18747,-4.2625 0.41659,-2.75 0.22913,1.5125 0.22913,3.9875 0,5.5 -0.22912,1.5125 -0.41659,0.275 -0.41659,-2.75 z m 1571.64654,-38.75 -3.4462,-3.75 3.75,3.44617 c 3.4904,3.20761 4.2098,4.05383 3.4462,4.05383 -0.1671,0 -1.8546,-1.6875 -3.75,-3.75 z M 232.5,373 c 2.14824,-2.2 4.1309,-4 4.4059,-4 0.275,0 -1.25766,1.8 -3.4059,4 -2.14824,2.2 -4.1309,4 -4.4059,4 -0.275,0 1.25766,-1.8 3.4059,-4 z m 1637.3724,-31.75 c -1.2438,-1.58606 -1.2085,-1.62143 0.3776,-0.37756 1.6657,1.30637 2.1955,2.12756 1.3724,2.12756 -0.2076,0 -0.9951,-0.7875 -1.75,-1.75 z M 351.75,340.33772 c 0.6875,-0.27741 1.8125,-0.27741 2.5,0 0.6875,0.27741 0.125,0.50439 -1.25,0.50439 -1.375,0 -1.9375,-0.22698 -1.25,-0.50439 z M 1858.8724,330.25 c -1.2438,-1.58606 -1.2085,-1.62143 0.3776,-0.37756 1.6657,1.30637 2.1955,2.12756 1.3724,2.12756 -0.2076,0 -0.9951,-0.7875 -1.75,-1.75 z M 151,315.62244 c 0,-0.20765 0.7875,-0.99515 1.75,-1.75 1.58606,-1.24387 1.62143,-1.2085 0.37756,0.37756 C 151.82119,315.91575 151,316.44548 151,315.62244 Z M 1531.405,294.75 l -1.905,-2.25 2.25,1.90499 c 2.1144,1.79022 2.7052,2.59501 1.905,2.59501 -0.1898,0 -1.2023,-1.0125 -2.25,-2.25 z m -9,-9 -1.905,-2.25 2.25,1.90499 c 2.1144,1.79022 2.7052,2.59501 1.905,2.59501 -0.1898,0 -1.2023,-1.0125 -2.25,-2.25 z M 459.19495,225.5 c 0.0204,-1.65 0.2445,-2.20394 0.49804,-1.23097 0.25354,0.97297 0.23687,2.32297 -0.0371,3 -0.27393,0.67703 -0.48137,-0.11903 -0.46099,-1.76903 z m 1147.75125,-7.25 -3.4462,-3.75 3.75,3.44617 c 3.4904,3.20761 4.2098,4.05383 3.4462,4.05383 -0.1671,0 -1.8546,-1.6875 -3.75,-3.75 z M 566.232,213 c 0,-1.925 0.2058,-2.7125 0.45733,-1.75 0.25152,0.9625 0.25152,2.5375 0,3.5 -0.25153,0.9625 -0.45733,0.175 -0.45733,-1.75 z M 428.92431,129.25 426.5,126.5 l 2.75,2.42431 c 2.57029,2.26589 3.20859,3.07569 2.42431,3.07569 -0.17912,0 -1.41662,-1.2375 -2.75,-2.75 z M 1526.5,69 c 2.1482,-2.2 4.1309,-4 4.4059,-4 0.275,0 -1.2577,1.8 -3.4059,4 -2.1482,2.2 -4.1309,4 -4.4059,4 -0.275,0 1.2577,-1.8 3.4059,-4 z M 512.94617,63.25 509.5,59.5 l 3.75,3.446167 C 516.74042,66.153784 517.45979,67 516.69617,67 c -0.16711,0 -1.85461,-1.6875 -3.75,-3.75 z M 1426.1579,41 c 0,-1.375 0.227,-1.9375 0.5044,-1.25 0.2774,0.6875 0.2774,1.8125 0,2.5 -0.2774,0.6875 -0.5044,0.125 -0.5044,-1.25 z M 360.8125,9.316886 c 0.72187,-0.2888706 1.58438,-0.2533443 1.91667,0.078947 0.33229,0.3322917 -0.25834,0.5686404 -1.3125,0.5252193 -1.16495,-0.047984 -1.4019,-0.2849403 -0.60417,-0.6041663 z"
         id="path368" />
      <path
         style="fill:#000000;fill-opacity:1"
         d="m 1650,624.3162 c -35.8026,-2.04296 -78.392,-10.21883 -114.2735,-21.93705 -35.0431,-11.44439 -53.3258,-22.90374 -58.8386,-36.87915 -2.269,-5.75234 -2.3672,-7.05256 -2.3773,-31.5 -0.01,-23.78344 0.1274,-25.7631 2.0399,-29.40837 1.1278,-2.14961 3.6028,-4.76936 5.5,-5.82167 6.1681,-3.42121 12.9921,-2.00958 36.6438,7.58035 37.6219,15.25433 60.8427,21.52301 100.8057,27.2135 15.0418,2.14186 62.7622,3.0677 77.669,1.50687 53.1015,-5.56004 86.1668,-25.30378 97.2925,-58.0947 2.4561,-7.23888 2.94,-10.45419 3.3153,-22.02975 0.5196,-16.02774 -0.6942,-22.17648 -6.8621,-34.76027 -5.0581,-10.31976 -14.9174,-20.51593 -26.5623,-27.47007 -18.3761,-10.97387 -33.867,-16.60517 -114.669,-41.68494 -46.5568,-14.45059 -54.0239,-17.14337 -72.1834,-26.03083 -31.3109,-15.3239 -52.4461,-33.18308 -69.6146,-58.82395 -11.7176,-17.49989 -19.6425,-36.07843 -24.0957,-56.48776 -1.9089,-8.74867 -2.22,-13.15595 -2.2019,-31.18841 0.023,-22.787 1.5113,-33.15254 7.1083,-49.5 6.3547,-18.56068 19.9191,-40.191149 35.3178,-56.319561 34.903,-36.556959 83.9515,-58.289906 143.8225,-63.7264154 16.7899,-1.524586 58.4279,-0.7035854 73.6636,1.4524684 54.9407,7.774835 98.3684,21.323208 117.296,36.593508 13.5261,10.912449 15.5018,17.264917 15.036,48.344548 -0.3189,21.283232 -0.427,22.321342 -2.7458,26.369232 -2.6116,4.55912 -7.0588,7.28622 -11.882,7.28622 -4.2984,0 -14.2017,-3.24502 -27.8411,-9.12273 -23.5351,-10.14209 -46.8543,-16.69118 -75.3505,-21.161842 -11.6244,-1.823697 -17.9842,-2.126603 -45.5126,-2.167679 -33.6904,-0.05027 -40.5956,0.527656 -58.5515,4.900441 -33.0189,8.04104 -53.6069,25.12413 -60.4046,50.12135 -2.4998,9.19252 -3.0627,26.45089 -1.1545,35.39528 4.6616,21.84997 18.1995,37.0491 45.2251,50.77452 18.096,9.19032 30.3984,13.65961 87.3855,31.74584 64.8658,20.58672 67.4224,21.45913 83.7126,28.56591 57.5396,25.10232 88.7988,62.8915 98.3946,118.94891 1.6255,9.49578 1.6201,37.87435 -0.01,48.9293 -5.596,37.96833 -21.9903,69.44332 -50.3141,96.5969 -6.2957,6.03559 -15.0705,13.56848 -19.4995,16.73976 C 1789.6511,611.94037 1721.8817,628.41789 1650,624.3162 Z M 245,620.88451 C 182.39688,613.73921 135.35208,582.37455 110.92949,531.5 100.84639,510.49597 96.007071,491.52569 93.875644,464.64848 c -1.963081,-24.75436 1.356141,-54.30181 8.562556,-76.2232 3.93763,-11.97798 15.71371,-34.85402 22.93,-44.54345 27.79921,-37.32652 70.70685,-63.60349 121.27278,-74.26841 44.59798,-9.4062 99.69552,-8.5601 160.85902,2.47024 15.906,2.86851 46.66002,9.2471 50.88565,10.55402 1.83098,0.5663 1.8692,-0.48537 1.31827,-36.27724 C 459.10256,207.29303 458.01491,194.97545 453.57931,177 443.4153,135.80987 422.58664,114.93525 381.2674,104.5285 364.27029,100.24758 348.72069,98.668198 323,98.610253 c -32.16695,-0.07247 -49.15237,2.102987 -82.5,10.566387 -19.6097,4.97681 -42.81419,12.51909 -63.92653,20.77837 -21.40599,8.37416 -29.96189,10.52385 -35.11983,8.82392 -4.96067,-1.63492 -8.12106,-6.2689 -8.98359,-13.17234 -0.36369,-2.91086 -0.49707,-15.82565 -0.2964,-28.699533 0.41129,-26.386283 1.01668,-29.027025 8.26,-36.030559 C 155.20542,46.593744 215.39855,24.716389 265,15.602522 c 25.82542,-4.745212 41.12372,-5.9790023 74.5,-6.0083374 31.60435,-0.027778 43.22512,0.7628584 65.9413,4.4864144 88.79574,14.555087 139.59122,62.436013 155.51835,146.594991 5.2445,27.71191 5.22505,27.18501 6.02689,163.32441 0.49416,83.90055 1.14251,131.09054 1.896,138 1.43009,13.1137 3.62496,24.57764 6.31813,33 3.03711,9.49798 13.18443,32.95563 19.32323,44.66973 2.93122,5.59335 5.6414,12.24973 6.02263,14.79196 0.92024,6.13666 -1.32316,11.89757 -6.80848,17.48367 -4.72016,4.80689 -46.67893,33.25626 -53.49514,36.27139 -11.35736,5.0239 -22.71821,0.8441 -34.3878,-12.65169 -10.1335,-11.71933 -20.5199,-27.73368 -30.39413,-46.86342 -4.76896,-9.23909 -8.99694,-16.66409 -9.39552,-16.5 -0.39858,0.1641 -4.60094,4.57336 -9.33859,9.79836 -40.22223,44.3598 -93.0887,71.56298 -152.60487,78.52496 -13.66117,1.59803 -46.52027,1.79786 -59.122,0.35955 z m 87.5,-86.32613 c 41.35947,-7.37942 67.65804,-19.96324 92.07639,-44.05838 26.73066,-26.37684 34.99619,-51.09861 36.13756,-108.08559 l 0.54249,-27.0856 -14.87822,-3.17843 c -30.51345,-6.51857 -53.42194,-9.51727 -86.49268,-11.32181 -60.74364,-3.31453 -101.25695,6.797 -126.30482,31.52384 -15.3579,15.16106 -23.34927,33.69321 -25.59993,59.36675 -1.92913,22.00572 1.65629,44.7203 9.66219,61.21264 3.95166,8.14052 5.89817,10.74207 14.21776,19.00238 5.30159,5.26383 12.22171,11.08389 15.37805,12.93347 7.62173,4.46627 20.65392,8.87178 31.47196,10.63903 11.26063,1.83955 41.11399,1.31325 53.78925,-0.9483 z m 822.2315,72.43636 c -10.7662,-1.88352 -16.2486,-6.32958 -21.2347,-17.2208 -1.649,-3.60196 -21.3806,-83.83244 -54.5758,-221.91046 -28.5961,-118.94784 -52.1912,-216.467 -52.4334,-216.70926 -0.2423,-0.24226 -0.6495,0.18643 -0.905,0.95265 -0.2554,0.76622 -21.9008,91.16813 -48.10092,200.89313 -56.14832,235.14717 -54.67054,229.10884 -57.80535,236.19719 -3.49558,7.90414 -8.72297,13.30742 -14.98885,15.49321 -4.68333,1.63373 -9.22072,1.8096 -46.68748,1.8096 -37.59071,0 -41.94002,-0.1698 -46.1711,-1.80258 -5.96595,-2.30225 -12.1943,-9.02121 -15.86314,-17.11265 C 794.41078,584.15531 777.61645,530.30828 758.64504,467.9247 739.67364,405.54111 704.09487,288.54388 679.58113,207.93084 655.06738,127.31781 634.10828,57.833325 633.00534,53.520882 629.32011,39.111785 630.97116,30.262853 638,26.751554 c 3.15413,-1.575664 7.354,-1.747056 42.5,-1.734379 42.57175,0.01535 47.58042,0.518574 54.01561,5.42693 4.81267,3.670804 7.91004,8.598382 11.3732,18.093531 1.59727,4.3793 27.74464,105.837364 58.10527,225.462364 30.36063,119.625 55.38222,217.6875 55.60354,217.91667 0.22131,0.22916 0.54132,0.22916 0.71113,0 C 860.47857,491.6875 875.60164,427.825 893.91558,350 965.06102,47.667754 964.69995,49.164252 968.35845,41.460486 c 3.69466,-7.779908 7.31477,-11.262889 14.71022,-14.152991 3.85883,-1.508008 9.30492,-1.777301 42.15413,-2.084396 41.4373,-0.387381 46.6308,0.139654 53.5758,5.436881 4.6012,3.509487 8.8729,10.475863 11.2459,18.34002 1.0787,3.575 25.1427,104.825 53.4755,225 28.3328,120.175 51.9041,219.625 52.3807,221 0.6487,1.87185 1.0196,2.12311 1.476,1 0.3353,-0.825 26.2559,-100.81586 57.6014,-222.2019 31.3455,-121.38605 58.1414,-223.536051 59.5465,-227.000004 4.6406,-11.440217 9.898,-17.163163 18.3578,-19.983056 2.495,-0.831679 15.7678,-1.31684 42.7728,-1.563482 43.5188,-0.397466 44.5323,-0.272913 48.3192,5.938266 2.6177,4.293646 2.6774,13.615776 0.1523,23.810176 -1.5763,6.363873 -151.4426,487.63753 -161.7573,519.45977 -6.5367,20.16682 -11.9754,27.68415 -22.5598,31.18206 -4.6278,1.52937 -10.1252,1.78247 -42.8096,1.97093 -20.625,0.11892 -39.6458,-0.15919 -42.2685,-0.61802 z"
         id="path366" />
    </g>
  </g>
</svg>
