<?xml version="1.0" encoding="UTF-8" standalone="no"?>
<!-- Created with Inkscape (http://www.inkscape.org/) -->

<svg
   version="1.1"
   id="svg9"
   width="391.19489"
   height="466.98105"
   viewBox="0 0 391.19489 466.98105"
   xmlns="http://www.w3.org/2000/svg"
   xmlns:svg="http://www.w3.org/2000/svg">
  <defs
     id="defs13" />
  <g
     id="g15"
     transform="translate(-8.6995552,-2.5723184)">
    <g
       id="g198"
       transform="translate(127.47062,-2.5092642)"
       style="fill:#000000">
      <path
         id="path214"
         style="fill:#000000;fill-opacity:1"
         transform="translate(-127.47062,2.5092642)"
         d="m 129.9375,28.953125 c -0.18087,-0.06738 -0.30859,0.505859 -0.30859,1.537109 0,1.375 0.22649,1.9375 0.5039,1.25 0.27741,-0.6875 0.27741,-1.8125 0,-2.5 -0.0694,-0.171875 -0.13502,-0.264648 -0.19531,-0.287109 z M 372.36719,190.60156 c -1.63125,-0.001 -3.30264,0.049 -4.61719,0.15235 v 0.002 c -2.62909,0.20667 -0.7293,0.37786 4.2207,0.38086 4.95,0.003 7.10021,-0.16723 4.7793,-0.37695 -1.16045,-0.10509 -2.75156,-0.15715 -4.38281,-0.15821 z m -42.89649,50 c -1.17812,0 -2.35625,0.0551 -3.25,0.16602 -1.7875,0.22183 -0.325,0.40234 3.25,0.40234 3.575,0 5.0375,-0.18051 3.25,-0.40234 -0.89375,-0.11091 -2.07187,-0.16602 -3.25,-0.16602 z m 28,0.0195 c -0.45312,0 -0.90625,0.0683 -1.25,0.20703 -0.6875,0.27745 -0.125,0.50391 1.25,0.50391 1.375,0 1.9375,-0.22644 1.25,-0.50391 -0.34375,-0.1387 -0.79687,-0.20703 -1.25,-0.20703 z m -112.08398,28.99219 c -0.3474,-0.0143 -0.74258,0.0509 -1.10352,0.19531 v -0.002 c -0.79773,0.31922 -0.56143,0.55747 0.60352,0.60547 1.05416,0.0434 1.64479,-0.1931 1.3125,-0.52539 -0.16615,-0.16613 -0.4651,-0.25914 -0.8125,-0.27344 z m 8,0 c -0.3474,-0.0143 -0.74258,0.0509 -1.10352,0.19531 v -0.002 c -0.79773,0.31922 -0.56143,0.55747 0.60352,0.60547 1.05416,0.0434 1.64479,-0.1931 1.3125,-0.52539 -0.16615,-0.16613 -0.4651,-0.25914 -0.8125,-0.27344 z" />
      <path
         id="path212"
         style="fill:#000000;fill-opacity:1"
         transform="translate(-127.47062,2.5092642)"
         d="m 384.05469,190.6875 c -0.29626,0.0226 -0.57777,0.0483 -0.83399,0.0801 -1.29643,0.16089 -0.87628,0.29897 0.8125,0.36328 -0.0276,-0.14794 -0.0212,-0.29723 0.0215,-0.44336 z" />
      <path
         id="path210"
         style="fill:#000000;fill-opacity:1"
         transform="translate(-127.47062,2.5092642)"
         d="m 328.4707,324.62109 c -0.45312,0 -0.90625,0.0683 -1.25,0.20703 -0.6875,0.27741 -0.125,0.50391 1.25,0.50391 1.375,0 1.9375,-0.22649 1.25,-0.50391 -0.34375,-0.13868 -0.79687,-0.20703 -1.25,-0.20703 z" />
      <path
         id="path208"
         style="fill:#000000;fill-opacity:1"
         transform="translate(-127.47062,2.5092642)"
         d="m 325.4707,136.60156 c -1.54062,0 -3.08125,0.051 -4.25,0.15625 -2.3375,0.21054 -0.425,0.38281 4.25,0.38281 4.675,0 6.5875,-0.17227 4.25,-0.38281 -1.16875,-0.10526 -2.70937,-0.15625 -4.25,-0.15625 z" />
      <path
         id="path206"
         style="fill:#000000;fill-opacity:1"
         transform="translate(-127.47062,2.5092642)"
         d="m 314.61133,136.89648 c -0.0185,0.0128 -0.0391,0.0248 -0.0586,0.0371 0.0173,-0.0125 0.083,-0.0239 0.0586,-0.0371 z" />
      <path
         id="path204"
         style="fill:#000000;fill-opacity:1"
         transform="translate(-127.47062,2.5092642)"
         d="m 379.38672,241.61328 c -0.3474,-0.0143 -0.74258,0.0509 -1.10352,0.19531 v -0.002 c -0.79773,0.31922 -0.56143,0.55747 0.60352,0.60547 1.05416,0.0434 1.64479,-0.1931 1.3125,-0.52539 -0.16615,-0.16613 -0.4651,-0.25914 -0.8125,-0.27344 z M 162.75,398.86914 c -0.10514,0.10514 -0.17718,0.45659 -0.20117,1.03906 -0.0434,1.05416 0.1931,1.64479 0.52539,1.3125 0.33229,-0.33229 0.36865,-1.1961 0.0801,-1.91797 -0.15962,-0.39886 -0.29916,-0.53873 -0.4043,-0.43359 z" />
      <path
         id="path202"
         style="fill:#000000;fill-opacity:1"
         transform="translate(-127.47062,2.5092642)"
         d="m 375.35156,241.61914 c -0.54375,-0.007 -1.12484,0.051 -1.61133,0.17774 -0.97297,0.25353 -0.41953,0.47764 1.23047,0.49804 1.65,0.0204 2.44656,-0.18701 1.76953,-0.46094 -0.33851,-0.13698 -0.84492,-0.20812 -1.38867,-0.21484 z" />
      <path
         id="path200"
         style="fill:#000000;fill-opacity:1;stroke-width:0.978844"
         d="M 272.42382,5.0815826 77.068228,5.4202376 c -107.44558,0.186173 -195.550828,0.560319 -195.788678,0.831243 -0.23784,0.270924 0.38556,9.5808524 1.38665,20.6887294 4.13742,45.908128 18.603786,210.83298 21.301156,242.84628 1.59792,18.96466 4.856375,56.64761 7.240948,83.74009 2.384577,27.09238 4.580045,52.36217 4.877954,56.15512 1.253376,15.95789 1.352347,16.31597 4.923542,17.82748 1.796869,0.76052 34.245055,10.22982 72.1074711,21.04277 37.8624899,10.81294 71.2473819,20.53423 74.1893499,21.60272 6.937531,2.51966 11.041222,2.53881 18.077681,0.0866 3.155609,-1.09978 25.215658,-7.57361 49.022678,-14.38513 90.88995,-26.00489 99.40445,-28.55153 100.17851,-29.9671 0.87187,-1.59447 3.51802,-30.86275 20.44067,-226.05014 C 267.65156,54.216418 271.25285,13.516712 271.96604,8.3757796 Z m -320.412042,86.8803514 121.107356,0.0135 c 66.608726,0.0079 122.119816,0.289376 123.358286,0.625351 1.97217,0.535011 2.1835,1.053194 1.70196,4.173535 -0.40718,2.63845 -4.44106,44.17642 -4.44106,45.73186 0,0.1354 -26.00807,11.98206 -57.79654,26.32657 l -57.796529,26.08027 55.513319,0.25399 55.51142,0.25591 -0.63634,10.58104 c -0.3503,5.82038 -3.06338,40.95106 -6.02906,78.06763 -5.97172,74.73852 -5.09216,69.65663 -12.42852,71.77364 -1.69564,0.4893 -22.68317,6.92457 -46.64069,14.30048 -23.957523,7.3759 -44.526987,13.60435 -45.709921,13.84058 -1.182944,0.23621 -4.996863,-0.4546 -8.473734,-1.53549 -63.4261722,-19.71792 -92.070269,-28.82727 -92.800791,-29.50915 -0.742966,-0.69348 -7.167296,-68.24539 -7.322629,-76.99778 l -0.04939,-2.70923 h 24.7430741 c 17.4650609,0 24.9434569,0.33132 25.4269119,1.12371 0.376698,0.61742 1.335722,9.59485 2.129353,19.94985 0.793641,10.35499 1.743376,19.16784 2.112255,19.58425 1.211936,1.36815 48.098887,13.50718 52.210066,13.51733 2.209151,0.006 13.806828,-2.92289 25.772615,-6.50756 11.9658,-3.58468 23.40307,-6.96521 25.41551,-7.51198 2.48848,-0.67612 3.80428,-1.66434 4.11625,-3.0883 1.10737,-5.05454 4.01635,-62.2668 3.21208,-63.17451 -0.56481,-0.63746 -30.35993,-1.09963 -84.416338,-1.30844 l -83.542555,-0.32134 -0.526166,-4.11196 c -1.336198,-10.43353 -3.42949,-45.4161 -2.756196,-46.06283 0.414921,-0.39856 19.572981,-9.01449 42.573824,-19.14746 23.000846,-10.13297 49.005317,-21.58839 57.787039,-25.45683 l 15.967321,-7.03478 -60.70469,-0.84664 c -33.387275,-0.46562 -60.780394,-0.91239 -60.87375,-0.99288 -0.09336,-0.0805 -1.417738,-11.33688 -2.942348,-25.01428 z" />
    </g>
  </g>
</svg>
