<?xml version="1.0" encoding="UTF-8" standalone="no"?>
<!-- Created with Inkscape (http://www.inkscape.org/) -->

<svg
   version="1.1"
   id="svg3272"
   width="334.16992"
   height="341.63055"
   viewBox="0 0 334.16992 341.63055"
   xmlns="http://www.w3.org/2000/svg"
   xmlns:svg="http://www.w3.org/2000/svg">
  <defs
     id="defs3276" />
  <g
     id="g3278"
     transform="translate(0.25585938,-3.4453125)">
    <g
       id="g3362"
       transform="translate(36.93171,-80.660667)"
       style="fill:#000000">
      <path
         id="path3376"
         style="fill:#000000;fill-opacity:1"
         transform="translate(-36.93171,80.660667)"
         d="m 272.93164,144.46094 c -0.63437,0 -1.26875,0.0637 -1.75,0.18945 -0.9625,0.25153 -0.175,0.45703 1.75,0.45703 1.925,0 2.7125,-0.2055 1.75,-0.45703 -0.48125,-0.12576 -1.11562,-0.18945 -1.75,-0.18945 z m -135,35.99414 c -0.81562,0 -1.63125,0.0585 -2.25,0.17773 -1.2375,0.23835 -0.225,0.4336 2.25,0.4336 2.475,0 3.4875,-0.19525 2.25,-0.4336 -0.61875,-0.11918 -1.43437,-0.17773 -2.25,-0.17773 z m 82.75586,1.31836 c 0.0136,0.0718 0.0246,0.12636 0.0391,0.20312 0.0302,-0.0611 0.0197,-0.12906 -0.0391,-0.20312 z" />
      <path
         id="path3374"
         style="fill:#000000;fill-opacity:1"
         transform="translate(-36.93171,80.660667)"
         d="m 187.93164,105.4707 c -7.88437,0 -15.76875,0.0394 -21.75,0.11914 -11.9625,0.15953 -2.175,0.29102 21.75,0.29102 23.925,0 33.7125,-0.13149 21.75,-0.29102 -5.98125,-0.0798 -13.86562,-0.11914 -21.75,-0.11914 z m 90.88086,38.9961 c -0.54375,-0.007 -1.12484,0.0529 -1.61133,0.17968 -0.97297,0.25354 -0.41953,0.47765 1.23047,0.49805 1.65,0.0204 2.44656,-0.18701 1.76953,-0.46094 -0.33851,-0.13698 -0.84492,-0.21007 -1.38867,-0.21679 z m -148.88086,35.98828 c -0.81562,0 -1.63125,0.0585 -2.25,0.17773 -1.2375,0.23835 -0.225,0.4336 2.25,0.4336 2.475,0 3.4875,-0.19525 2.25,-0.4336 -0.61875,-0.11918 -1.43437,-0.17773 -2.25,-0.17773 z m 86.67188,1.02539 c -0.28319,0.0161 -0.57967,0.0638 -0.85938,0.17578 -0.79773,0.31922 -0.56143,0.55552 0.60352,0.60352 0.0878,0.004 0.15128,-0.006 0.23242,-0.006 0.0108,-0.0448 0.0213,-0.0894 0.0332,-0.13282 -1.1e-4,-0.001 1.2e-4,-0.005 0,-0.006 -0.0147,-0.15584 -0.0137,-0.31242 -0.0117,-0.46875 0.002,-0.0553 10e-4,-0.11067 0.002,-0.16601 z m 0.082,0.39062 c -0.0591,0.057 -0.0639,0.12469 -0.0566,0.19336 0.019,-0.0666 0.0385,-0.13322 0.0566,-0.19336 z" />
      <path
         id="path3372"
         style="fill:#000000;fill-opacity:1"
         transform="translate(-36.93171,80.660667)"
         d="m 243.93164,105.45312 c -2.44687,0 -4.89375,0.0483 -6.75,0.14454 -3.7125,0.19241 -0.675,0.34961 6.75,0.34961 7.425,0 10.4625,-0.1572 6.75,-0.34961 -1.85625,-0.0962 -4.30312,-0.14454 -6.75,-0.14454 z m 39,39.01563 c -0.45312,0 -0.90625,0.0703 -1.25,0.20898 -0.6875,0.27741 -0.125,0.50391 1.25,0.50391 1.375,0 1.9375,-0.2265 1.25,-0.50391 -0.34375,-0.1387 -0.79687,-0.20898 -1.25,-0.20898 z m -164.10937,35.98047 c -1.45,-0.001 -2.93727,0.0506 -4.11329,0.15625 -2.35203,0.21125 -0.67734,0.38662 3.72266,0.39062 4.4,0.004 6.32531,-0.16794 4.27734,-0.38281 -1.02398,-0.10763 -2.43671,-0.16281 -3.88671,-0.16406 z m 93.99023,1.01758 c -0.54375,-0.007 -1.12484,0.0529 -1.61133,0.17968 -0.97297,0.25354 -0.41953,0.47765 1.23047,0.49805 1.65,0.0204 2.44656,-0.18701 1.76953,-0.46094 -0.33851,-0.13698 -0.84492,-0.21007 -1.38867,-0.21679 z" />
      <path
         id="path3370"
         style="fill:#000000;fill-opacity:1"
         transform="translate(-36.93171,80.660667)"
         d="m 259.8125,105.4668 c -0.54375,-0.007 -1.12484,0.0529 -1.61133,0.17968 -0.97297,0.25354 -0.41953,0.47765 1.23047,0.49805 1.65,0.0204 2.44656,-0.18701 1.76953,-0.46094 -0.33851,-0.13698 -0.84492,-0.21007 -1.38867,-0.21679 z m -150.91211,72.85937 c -0.16315,0.10214 -0.35501,0.19451 -0.58008,0.26953 -0.0801,0.0267 -0.16015,0.0534 -0.24023,0.0801 0.026,0.42728 0.0942,0.85222 0.22656,1.19727 0.30962,0.80686 1.13899,1.43012 1.84375,1.38672 1.00365,-0.0618 1.01041,-0.18698 0.0312,-0.58204 -0.625,-0.25219 -1.15372,-1.27343 -1.28125,-2.35156 z m 98.91211,3.14063 c -0.54375,-0.007 -1.12484,0.0529 -1.61133,0.17968 -0.97297,0.25354 -0.41953,0.47765 1.23047,0.49805 1.65,0.0204 2.44656,-0.18701 1.76953,-0.46094 -0.33851,-0.13698 -0.84492,-0.21007 -1.38867,-0.21679 z" />
      <path
         id="path3368"
         style="fill:#000000;fill-opacity:1"
         transform="translate(-36.93171,80.660667)"
         d="m 263.93164,105.46875 c -0.45312,0 -0.90625,0.0703 -1.25,0.20898 -0.6875,0.27741 -0.125,0.50391 1.25,0.50391 1.375,0 1.9375,-0.2265 1.25,-0.50391 -0.34375,-0.1387 -0.79687,-0.20898 -1.25,-0.20898 z m 24.91797,38.99414 c -0.3474,-0.0143 -0.74453,0.0489 -1.10547,0.19336 -0.79773,0.31922 -0.56143,0.55552 0.60352,0.60352 1.05416,0.0434 1.64479,-0.1931 1.3125,-0.52539 -0.16615,-0.16614 -0.46315,-0.25719 -0.81055,-0.27149 z M 202.8125,181.4668 c -0.54375,-0.007 -1.12484,0.0529 -1.61133,0.17968 -0.97297,0.25354 -0.41953,0.47765 1.23047,0.49805 1.65,0.0204 2.44656,-0.18701 1.76953,-0.46094 -0.33851,-0.13698 -0.84492,-0.21007 -1.38867,-0.21679 z" />
      <path
         id="path3366"
         style="fill:#000000;fill-opacity:1"
         transform="translate(-36.93171,80.660667)"
         d="m 267.93164,105.46875 c -0.45312,0 -0.90625,0.0703 -1.25,0.20898 -0.6875,0.27741 -0.125,0.50391 1.25,0.50391 1.375,0 1.9375,-0.2265 1.25,-0.50391 -0.34375,-0.1387 -0.79687,-0.20898 -1.25,-0.20898 z m -71,75.99219 c -0.63437,0 -1.26875,0.0637 -1.75,0.18945 -0.9625,0.25153 -0.175,0.45703 1.75,0.45703 1.925,0 2.7125,-0.2055 1.75,-0.45703 -0.48125,-0.12576 -1.11562,-0.18945 -1.75,-0.18945 z" />
      <path
         id="path3364"
         style="fill:#000000;fill-opacity:1"
         transform="translate(-36.93171,80.660667)"
         d="m 166.83008,3.4453125 c -136.043661,0 -167.08593938,0.2411789 -167.08593938,1.2949219 1e-8,6.3157866 26.57241138,278.1454656 28.54101538,291.9687456 0.843051,5.91979 1.785532,11.42414 2.095703,12.23243 0.779948,2.03251 5.781951,3.43314 73.363281,20.54882 32.725,8.28795 59.95,15.22176 60.5,15.40821 1.31132,0.44454 -0.64329,0.89449 43,-9.89258 45.88162,-11.3403 69.13794,-17.44789 84.66406,-22.23633 11.25878,-3.47234 11.68524,-3.70621 12.22657,-6.71094 1.33345,-7.40156 25.00026,-247.102856 29.11328,-294.863278 l 0.66601,-7.7499995 z M 61.744141,65.445312 H 167.30469 272.86523 l -0.65625,7.25 c -1.08226,11.944142 -3.36278,28.981928 -3.95898,29.578128 -1.14941,1.14941 -43.93965,2.03731 -101.35938,2.10351 l -59.35546,0.0684 0.71093,7.75 c 0.3908,4.2625 1.45152,12.7 2.35547,18.75 l 1.64258,11 74.71484,0.5 c 68.26989,0.45687 74.85995,0.6445 76.39649,2.18164 1.57545,1.57608 1.57369,2.80679 -0.0293,19.5 -2.78908,29.04501 -9.22514,81.75825 -11.16797,91.47071 -0.33292,1.66432 -1.53377,3.05504 -3.22265,3.73242 -4.494,1.80243 -31.31797,8.73214 -56.45703,14.58398 -13.07072,3.04258 -25.44572,5.50315 -27.5,5.46875 -3.83688,-0.0643 -23.49982,-4.89027 -58.83204,-14.43945 -27.246454,-7.36386 -24.933254,-6.15956 -26.285152,-13.67383 -1.659451,-9.22374 -3.94422,-29.1176 -4.71875,-41.09765 -0.671572,-10.38759 -0.665094,-10.42364 1.714844,-11.06055 1.313081,-0.3514 10.766679,-0.64435 21.007812,-0.65235 l 18.619146,-0.0137 1.67187,13.25 c 0.91924,7.2875 1.87245,14.21069 2.11914,15.38477 0.3978,1.89332 3.00671,2.75379 23.06445,7.61523 l 22.61328,5.48242 23.14649,-5.48828 c 12.72984,-3.01833 23.31921,-5.64517 23.5332,-5.83789 0.79157,-0.7129 3.04673,-28.22549 3.07813,-37.55078 l 0.0332,-9.64453 -15.25,-0.70508 c -8.3875,-0.38728 -40.9,-0.99538 -72.25,-1.35351 l -56.999999,-0.65235 -0.292969,-5 c -0.161462,-2.75 -2.298962,-25.17363 -4.75,-49.83008 C 63.750135,99.458766 61.744141,76.171284 61.744141,72.365234 Z" />
    </g>
  </g>
</svg>
