<?xml version="1.0" encoding="UTF-8" standalone="no"?>
<!-- Created with Inkscape (http://www.inkscape.org/) -->

<svg
   version="1.1"
   id="svg4373"
   width="707.18549"
   height="668"
   viewBox="0 0 707.18549 668"
   xmlns="http://www.w3.org/2000/svg"
   xmlns:svg="http://www.w3.org/2000/svg">
  <defs
     id="defs4377" />
  <g
     id="g4379"
     transform="translate(-0.35351562)">
    <g
       id="g4463"
       transform="translate(113.86765,-59.409211)"
       style="fill:#000000">
      <path
         id="path4477"
         style="fill:#000000;fill-opacity:1"
         transform="translate(-113.86765,59.409211)"
         d="m 413.4043,451.78906 c -0.15903,-0.20164 -0.27683,0.65078 -0.28516,2.30078 -0.0111,2.19996 0.18526,3.21781 0.43555,2.26172 0.25031,-0.95609 0.25875,-2.75609 0.0195,-4 -0.0598,-0.31098 -0.11691,-0.49528 -0.16992,-0.5625 z m 211.46289,47.93164 c -0.45313,0 -0.90625,0.0683 -1.25,0.20703 -0.6875,0.27741 -0.125,0.50586 1.25,0.50586 1.375,0 1.9375,-0.22845 1.25,-0.50586 -0.34375,-0.1387 -0.79688,-0.20703 -1.25,-0.20703 z m -235.08203,55.99414 c -0.3474,-0.0143 -0.74454,0.0489 -1.10547,0.19336 -0.79773,0.31922 -0.55948,0.55552 0.60547,0.60352 1.05416,0.0434 1.64479,-0.1931 1.3125,-0.52539 -0.16615,-0.16613 -0.46511,-0.25718 -0.8125,-0.27149 z" />
      <path
         id="path4475"
         style="fill:#000000;fill-opacity:1"
         transform="translate(-113.86765,59.409211)"
         d="m 593.14648,326.96875 c -0.10513,0.10514 -0.17521,0.45659 -0.19921,1.03906 -0.0434,1.05416 0.1931,1.64479 0.52539,1.3125 0.33225,-0.33229 0.36711,-1.1961 0.0781,-1.91797 -0.15961,-0.39886 -0.29916,-0.53873 -0.4043,-0.43359 z m -42.77929,59.12109 3.95312,4.25 c 2.17412,2.3375 4.08662,4.25 4.25,4.25 0.75658,0 -6.6e-4,-0.87067 -3.95312,-4.54687 z M 413.4043,444.78906 c -0.15903,-0.20164 -0.27683,0.65078 -0.28516,2.30078 -0.0111,2.19996 0.18526,3.21781 0.43555,2.26172 0.25031,-0.95609 0.2589,-2.75609 0.0195,-4 -0.0598,-0.31098 -0.11691,-0.49528 -0.16992,-0.5625 z m 293.89648,83.54297 c -0.0197,0.063 -0.0485,0.12265 -0.0684,0.18555 0.0882,-0.0258 0.18678,-0.0749 0.30664,-0.16016 -0.0729,-0.008 -0.18074,-0.0196 -0.23828,-0.0254 z m -251.58398,1.25781 c -0.14389,0 -0.57431,0.32576 -1.12696,0.81641 0.0717,0.01 0.13013,0.0153 0.20899,0.0273 0.12184,0.0467 0.24341,0.0938 0.36523,0.14063 0.44443,-0.57054 0.70974,-0.98438 0.55274,-0.98438 z m -1.74805,1.42383 c -0.1987,0.19001 -0.3901,0.37328 -0.60156,0.58789 0.83717,0.0618 0.79753,0.34862 0.89453,-0.41406 -0.0994,-0.0462 -0.19209,-0.1379 -0.29297,-0.17383 z" />
      <path
         id="path4473"
         style="fill:#000000;fill-opacity:1"
         transform="translate(-113.86765,59.409211)"
         d="m 554.67773,267.58984 c -0.275,0 -1.31505,0.9 -2.31054,2 -0.99549,1.1 -1.5836,2 -1.3086,2 0.275,0 1.31311,-0.9 2.3086,-2 0.99549,-1.1 1.58554,-2 1.31054,-2 z M 413.37891,438.4375 c -0.164,-0.0943 -0.2793,0.70859 -0.2793,2.15234 0,1.925 0.2055,2.7125 0.45703,1.75 0.25152,-0.9625 0.25152,-2.5375 0,-3.5 -0.0629,-0.24062 -0.12307,-0.37089 -0.17773,-0.40234 z m 64.05468,36.125 c -0.14657,-0.25779 -0.25136,1.05234 -0.25586,3.52734 -0.006,3.30001 0.17612,4.77217 0.4043,3.26954 0.22817,-1.50266 0.23187,-4.20266 0.01,-6 -0.0556,-0.44935 -0.10935,-0.71095 -0.15821,-0.79688 z m 53.4336,46.02734 c -0.0516,0.0516 0.25111,0.45697 0.87304,1.25 0.75485,0.9625 1.54235,1.75 1.75,1.75 0.82304,0 0.29271,-0.82058 -1.37304,-2.12695 -0.79303,-0.62193 -1.19839,-0.92466 -1.25,-0.87305 z" />
      <path
         id="path4471"
         style="fill:#000000;fill-opacity:1"
         transform="translate(-113.86765,59.409211)"
         d="m 413.47266,416.28516 c -0.12545,-0.36387 -0.21289,2.73593 -0.21289,8.30468 0,7.425 0.15719,10.4625 0.34961,6.75 0.1924,-3.7125 0.19239,-9.7875 0,-13.5 -0.0481,-0.92812 -0.0949,-1.43339 -0.13672,-1.55468 z" />
      <path
         id="path4469"
         style="fill:#000000;fill-opacity:1"
         transform="translate(-113.86765,59.409211)"
         d="m 649.36719,309.08984 1.90625,2.25 c 1.79022,2.11444 2.59375,2.7065 2.59375,1.90625 0,-0.18976 -1.0125,-1.20226 -2.25,-2.25 z m -235.88867,77.96485 c -0.12222,-0.41778 -0.20899,3.1414 -0.20899,9.53515 0,8.525 0.15435,12.0125 0.3418,7.75 0.18745,-4.2625 0.18745,-11.2375 0,-15.5 -0.0469,-1.06562 -0.0921,-1.64589 -0.13281,-1.78515 z m -16.69336,168.66015 c -0.3474,-0.0143 -0.74454,0.0489 -1.10547,0.19336 -0.79773,0.31922 -0.55948,0.55552 0.60547,0.60352 1.05416,0.0434 1.64479,-0.1931 1.3125,-0.52539 -0.16615,-0.16613 -0.46511,-0.25718 -0.8125,-0.27149 z" />
      <path
         id="path4467"
         style="fill:#000000;fill-opacity:1"
         transform="translate(-113.86765,59.409211)"
         d="m 530.14648,320.96875 c -0.0605,0.0605 -0.0801,0.37704 -0.11523,0.59766 0.27447,0.0772 0.45842,0.10139 0.5625,0.082 -0.0242,-0.0829 -0.0108,-0.16575 -0.043,-0.2461 -0.15961,-0.39886 -0.29916,-0.53873 -0.4043,-0.43359 z m 68.72071,21.62109 c -0.0516,0.0516 0.25111,0.45697 0.87304,1.25 0.75485,0.9625 1.54235,1.75 1.75,1.75 0.82304,0 0.29271,-0.82058 -1.37304,-2.12695 -0.79303,-0.62193 -1.19839,-0.92466 -1.25,-0.87305 z m -185.38672,11.85938 c -0.12017,-0.35095 -0.20388,3.62812 -0.20313,10.64062 0.001,9.35 0.15224,13.04068 0.33594,8.20118 0.1838,-4.83951 0.18301,-12.48951 -0.002,-17 -0.0462,-1.12763 -0.0908,-1.72482 -0.13086,-1.8418 z m -56.79883,134.60742 c -0.13373,0.0203 -0.33839,0.0537 -0.57031,0.0918 l 0.0449,0.0527 c 0.20595,-0.0424 0.42101,-0.0864 0.55469,-0.11523 -0.0149,-0.0127 -0.0142,-0.0165 -0.0293,-0.0293 z m 1.6875,1.625 c -0.13629,0.0152 -0.38041,0.12149 -0.64453,0.25391 0.21281,0.21241 0.28256,0.23283 0.42187,0.3457 0.10031,-0.14761 0.18197,-0.24868 0.29297,-0.42383 0.0256,-0.0403 0.0198,-0.058 0.0254,-0.084 -0.0179,-0.0219 -0.0762,-0.0689 -0.0957,-0.0918 z" />
      <path
         id="path4465"
         style="fill:#000000;fill-opacity:1"
         transform="translate(-113.86765,59.409211)"
         d="M 0.35351562,0 V 334 668 H 334.35352 h 334 V 334 0 h -334 z M 502.58398,303.14062 c 13.24906,-0.30329 29.69339,0.78804 37.76954,2.80469 11.503,2.87235 25.03878,9.64048 33.4746,16.73828 9.93121,8.35598 24.5254,26.19268 24.5254,29.97266 0,1.81246 -45.96299,32.34375 -48.69141,32.34375 -0.60542,0 -2.50947,-2.19587 -4.23242,-4.88086 -4.46187,-6.95322 -13.12068,-14.78233 -19.82422,-17.92383 -5.04575,-2.36462 -6.98076,-2.69531 -15.75195,-2.69531 -11.76514,0 -16.9383,1.85618 -23.23047,8.33984 -4.66479,4.80675 -6.26953,9.56189 -6.26953,18.56641 0,8.37937 2.04378,12.61104 9.26757,19.19141 6.30001,5.73887 16.70959,11.35701 40.39258,21.80078 29.76737,13.12686 40.4569,18.80879 50.51367,26.84765 19.94086,15.93969 29.27894,29.23791 33.99805,48.42188 2.87572,11.69028 3.12539,37.07795 0.4707,47.83203 -2.3723,9.61011 -10.43801,25.97579 -15.73242,31.92188 -15.28845,17.17025 -35.04147,27.62556 -60.61914,32.08593 -7.85682,1.37011 -37.98456,1.90248 -46.79101,0.82617 -28.73637,-3.51208 -54.99636,-15.76002 -73.53516,-34.29882 -6.76926,-6.76926 -15.53656,-18.41968 -19.16602,-25.4668 -1.96924,-3.82356 -1.97386,-3.96777 -0.16211,-5.31055 C 402.42384,547.713 447.89431,522 448.96094,522 c 0.5793,0 2.57212,2.1375 4.42773,4.75 9.41309,13.25263 23.90072,24.95635 36.18945,29.23438 7.85909,2.7359 25.61525,3.81985 33.99415,2.07617 13.68847,-2.84862 25.29598,-12.13962 28.36914,-22.71094 2.79837,-9.62606 -0.25875,-18.91478 -8.91407,-27.0918 -6.61948,-6.25369 -13.65743,-10.14486 -37.48632,-20.72656 -53.37345,-23.70153 -68.89561,-35.50395 -81.12696,-61.6875 -6.27948,-13.44244 -7.3689,-19.00589 -7.4082,-37.84375 -0.0404,-19.3364 1.1557,-25.48369 7.47852,-38.41797 12.13047,-24.81483 36.80008,-41.79174 66.34374,-45.65625 3.27774,-0.42875 7.33951,-0.68406 11.75586,-0.78516 z M 300.35352,306 h 32 32 v 118.87305 118.87304 l -3.98829,12.37696 c -6.21748,19.29171 -13.90606,31.29874 -26.4414,41.30078 -11.09664,8.85408 -27.74615,15.5326 -43.7168,17.53515 -11.16429,1.39989 -34.68703,1.16383 -43.51172,-0.4375 -20.4754,-3.71546 -38.56703,-13.56616 -52.95898,-28.83398 -7.43436,-7.8868 -17.49153,-22.91614 -17.75977,-26.53906 -0.0843,-1.13875 7.7291,-6.36977 25.24024,-16.89844 13.94999,-8.3875 25.71035,-15.25 26.13476,-15.25 0.42442,0 2.72279,3.2625 5.10547,7.25 6.30397,10.54991 15.98619,19.96578 22.89649,22.26562 7.12112,2.37005 21.8899,2.47733 27.22851,0.19727 5.35884,-2.2887 13.53526,-10.29564 14.89649,-14.58789 1.14706,-3.61698 2.54675,-102.14782 2.77539,-195.375 z" />
    </g>
  </g>
</svg>
