<?xml version="1.0" encoding="UTF-8" standalone="no"?>
<!-- Created with Inkscape (http://www.inkscape.org/) -->

<svg
   version="1.1"
   id="svg9"
   width="1365.3333"
   height="1365.3333"
   viewBox="0 0 1365.3333 1365.3333"
   xmlns="http://www.w3.org/2000/svg"
   xmlns:svg="http://www.w3.org/2000/svg">
  <defs
     id="defs13" />
  <g
     id="g15">
    <g
       id="g99"
       transform="translate(-985.4875,-374.5826)"
       style="fill:#000000">
      <path
         id="path113"
         style="fill:#000000;fill-opacity:1;stroke-width:1.33333"
         transform="translate(460.09384,162.9941)"
         d="m -71.837891,-23.994141 c 0.0033,0.0377 0.0046,0.07557 0.0078,0.113282 -0.241946,-0.01029 6.097247,-0.01131 5.810547,-0.02148 0.216213,-0.03296 0.387501,-0.05886 0.603515,-0.0918 -2.01691,-0.0049 -4.392614,0.0032 -6.421875,0 z M 298.46875,31.066406 c -0.33223,0.04453 -0.62247,0.08561 -0.95313,0.13086 0.62865,0.493526 1.05665,0.59833 1.05665,-0.02734 0,-0.01228 -0.0995,-0.08826 -0.10352,-0.103516 z M 181.61133,134.84375 c -0.0884,0.0884 -0.11986,0.52897 -0.16797,0.87305 0.23243,-0.0189 0.46487,-0.0378 0.69726,-0.0566 -0.0283,-0.0915 0.0444,-0.14729 0.01,-0.23633 -0.21282,-0.53182 -0.39888,-0.72027 -0.53906,-0.58008 z m -63.82031,213.95508 c 0.10007,0.0879 0.18086,0.18687 0.24023,0.29297 0.0353,-0.0528 0.075,-0.11299 0.11328,-0.17188 -0.0111,-0.033 0.0138,-0.0532 0.002,-0.0859 -0.11851,-0.0115 -0.23691,-0.0238 -0.35546,-0.0351 z m 330.23242,44.88281 c -0.0288,1.30101 0.26,2.04446 0.68359,1.62891 -0.22952,-0.5446 -0.48558,-1.10454 -0.68359,-1.62891 z M -90.220703,501.38281 c 0.07373,0.14965 0.147047,0.29952 0.220703,0.44922 0.449424,0.0385 0.986742,0.0703 1.728516,0.0859 0.156905,-0.19639 0.318968,-0.34824 0.480468,-0.52735 -0.886069,0.0221 -1.671689,-0.1116 -2.429687,-0.008 z M 265.94141,896.61719 c -0.0552,10e-4 -0.14147,0.003 -0.19727,0.004 0.007,0.0471 -0.30485,0.38477 -0.25195,0.38477 0.0535,0 0.35574,-0.34056 0.44922,-0.38867 z m -106.03516,76.38867 c -0.0565,0.0566 0.39964,0.65213 0.95313,1.36914 0.25799,-0.0548 0.51933,-0.0897 0.77734,-0.14453 -0.0322,-0.0255 -0.0316,-0.0349 -0.0644,-0.0605 -1.05737,-0.8293 -1.5972,-1.23286 -1.66602,-1.16406 z m 244.80664,66.29294 c -0.33861,0.094 -0.6732,0.2021 -1.01172,0.2969 -0.87065,1.0163 -2.52457,2.7441 -2.33594,2.7441 0.20899,0 2.03996,-1.8272 3.34766,-3.041 z" />
      <path
         id="path111"
         style="fill:#000000;fill-opacity:1;stroke-width:1.33333"
         transform="translate(460.09384,162.9941)"
         d="m -207.2207,308.29102 c -0.22148,0.14896 -0.34849,0.28202 -0.16407,0.38086 0.0345,-0.114 0.0894,-0.24073 0.16407,-0.38086 z m 657.68164,347.54687 c -0.27742,-0.0114 -0.58142,0.0905 -0.88086,0.1543 0.13504,0.15878 0.30897,0.28592 0.43359,0.44922 0.43629,-0.1095 0.88031,-0.2219 1.28321,-0.32422 -0.22896,-0.13568 -0.47885,-0.2646 -0.83594,-0.2793 z m -144.84961,88.33984 c -0.0935,0.0935 -0.12961,0.54432 -0.17774,0.92383 0.20137,-0.15542 0.40883,-0.30461 0.60938,-0.46094 -0.16126,-0.31619 -0.3194,-0.57513 -0.43164,-0.46289 z" />
      <path
         id="path109"
         style="fill:#000000;fill-opacity:1;stroke-width:1.33333"
         transform="translate(460.09384,162.9941)"
         d="m 351.39453,180.62695 0.2168,0.23633 c 0.0384,-0.0118 0.0807,-0.0255 0.12305,-0.0391 -0.11573,-0.062 -0.22571,-0.13285 -0.33985,-0.19727 z m -165.7832,48.88477 c -0.0436,0.0436 -0.0496,0.3236 -0.084,0.42969 0.20689,0.0621 0.41422,0.13335 0.6211,0.1914 -0.005,-0.0158 0.008,-0.0268 0.002,-0.043 -0.21282,-0.53182 -0.39888,-0.71831 -0.53906,-0.57812 z m -72,94.66601 c -0.0107,0.0107 -0.009,0.091 -0.0195,0.10547 h 0.11718 c -0.0284,0.004 -0.072,-0.13096 -0.0977,-0.10547 z m 120.71094,86.58399 c -0.8616,0.34477 -0.58338,0.57736 0.31054,0.69922 -0.0236,-0.0622 -0.0452,-0.12727 -0.0605,-0.18164 -0.0135,-0.0488 -0.0231,-0.0988 -0.0332,-0.14844 -0.005,-0.0257 -0.008,-0.038 -0.0117,-0.0566 2.6e-4,-0.0177 -0.0289,-0.029 -0.0195,-0.041 0.004,-0.005 0.006,-0.007 0.01,-0.0117 -0.0168,-0.0845 -0.0154,-0.0828 -0.0332,-0.20703 v -0.002 c -0.003,-0.0186 -7.4e-4,-0.0322 0.006,-0.043 -0.055,-0.008 -0.1047,-0.0312 -0.16796,-0.008 z m 0.6875,0.0371 c 0.001,5.7e-4 0.003,6.5e-4 0.004,0.002 l 0.002,0.002 c 0.001,-5.1e-4 7.6e-4,-0.003 0.002,-0.004 -0.003,1.8e-4 -0.005,-2.4e-4 -0.008,0 z m -0.33985,0.52539 c 0.002,0.008 0.005,0.0156 0.008,0.0234 0.002,2.5e-4 0.002,0.002 0.004,0.002 -0.005,-0.01 -0.007,-0.0158 -0.0117,-0.0254 z m 0.0137,0.0312 -0.002,0.002 c 0.002,2e-5 0.003,0.002 0.004,0.002 -6e-4,-0.001 5.8e-4,-0.003 0,-0.004 z m 0.0449,0.13086 v 0.002 c 0.0106,10e-4 0.009,0.005 0.0195,0.006 -3.7e-4,-9e-4 -0.002,-0.005 -0.002,-0.006 -0.005,-2e-4 -0.0104,-0.002 -0.0176,-0.002 z m -561.82422,41.54101 c -0.0881,5.65475 -0.0841,11.31086 -0.13477,16.9668 0.0396,0.37642 0.0842,0.79804 0.13477,1.26953 0.0324,-6.34203 -0.01,-11.98099 0,-18.23633 z M 343.52539,988.3476 c -0.0175,0.003 -0.0352,0.005 -0.0527,0.008 -0.0344,0.0401 -0.0648,0.0836 -0.0977,0.125 0.0301,-0.0176 0.11684,-0.1111 0.15039,-0.13281 z" />
      <path
         id="path107"
         style="fill:#000000;fill-opacity:1;stroke-width:1.33333"
         transform="translate(460.09384,162.9941)"
         d="m 270.22461,101.57422 c -0.27707,0.0222 -0.50534,0.0382 -0.79102,0.0488 0.7206,0.60494 1.13868,0.78072 1.13868,0.29883 0,-0.0184 -0.30564,-0.29387 -0.34766,-0.34766 z m -82.67773,66.20703 c -0.0605,0.0362 -0.0905,0.0998 -0.15235,0.13477 0.0475,0.5642 0.0618,1.12923 0.10938,1.69336 0.21727,-0.46593 0.2416,-1.124 0.043,-1.82813 z M 64.255859,476.29492 c -0.0019,0.003 -0.0021,0.0166 -0.0039,0.0195 0.01227,-10e-4 0.01697,-4.2e-4 0.0293,-0.002 -0.01294,-0.005 -0.01252,-0.0124 -0.02539,-0.0176 z M 355.43555,604.38281 c -0.20041,-0.0174 -0.40266,0.0127 -0.60352,0.008 0.0368,0.10267 0.0988,0.0605 0.14649,0.11915 0.14624,-0.0418 0.6145,-0.11327 0.45703,-0.12696 z m -217.82422,65.12891 c -0.0623,0.0623 -0.0762,0.42521 -0.11914,0.61523 0.21625,0.0664 0.43071,0.11474 0.64843,0.1836 -0.0268,-0.0853 0.0424,-0.13761 0.01,-0.22071 -0.21281,-0.53182 -0.39888,-0.71831 -0.53906,-0.57812 z m 12,234.66601 c -0.056,0.056 -0.0669,0.3935 -0.10742,0.55274 0.0713,0.65726 0.0657,1.32015 0.21289,1.96094 0.046,0.2003 0.22645,0.33598 0.37304,0.49023 0.37112,-0.49362 0.42251,-1.52152 0.0605,-2.42578 -0.21281,-0.53185 -0.39888,-0.71831 -0.53906,-0.57813 z" />
      <path
         id="path105"
         style="fill:#000000;fill-opacity:1;stroke-width:1.33333"
         transform="translate(460.09384,162.9941)"
         d="m 349.30469,81.53125 c 0.0795,0.06744 0.1796,0.169943 0.31054,0.310547 0.26739,-0.0055 0.53517,-7.62e-4 0.80274,-0.0039 -0.0196,-0.04801 -0.001,-0.07276 -0.0312,-0.126953 -0.36176,-0.05174 -0.72013,-0.129087 -1.08203,-0.179688 z m -695.06446,167.25 c -0.0276,-22.23067 -0.0251,50.90958 -0.0508,40.28906 0.0204,-0.11518 0.0311,-0.16656 0.0508,-0.27734 -0.0117,-11.96836 0.0137,-28.99073 0,-40.01172 z m 706.46094,148.85352 c -0.0379,0.0413 -0.0757,0.0847 -0.11328,0.125 0.009,0.0235 0.0183,0.0468 0.0273,0.0703 0.0399,-0.0192 0.0793,-0.0394 0.11915,-0.0586 -0.01,-0.0458 -0.0233,-0.0909 -0.0332,-0.13671 z m 86.47461,82.3125 c -0.28859,0.0398 -0.57465,0.0368 -0.85351,0.14843 -1.06061,0.42441 -0.74298,0.73749 0.79882,0.80274 0.21547,-0.23936 0.4572,-0.46504 0.5586,-0.76367 0.0575,-0.16949 -0.36258,-0.0756 -0.50391,-0.1875 z m -695.26953,79.72656 c -0.006,-0.006 -0.12468,0.095 -0.13672,0.0957 -0.003,0.0339 -0.007,0.0807 -0.01,0.11328 0.006,-0.0236 0.15512,-0.20034 0.14648,-0.20898 z M 478.625,705.26172 c -0.39447,-0.003 -0.84849,0.0698 -1.27734,0.18359 -0.0319,0.006 -0.0617,0.012 -0.0918,0.0176 0.092,0.0908 0.14258,0.21243 0.23437,0.30469 0.21862,0.14477 0.43898,0.28677 0.65821,0.42969 1.11658,-0.0203 1.78959,-0.269 1.39648,-0.66211 -0.19053,-0.19051 -0.52545,-0.27014 -0.91992,-0.27344 z" />
      <path
         id="path103"
         style="fill:#000000;fill-opacity:1;stroke-width:1.33333"
         transform="translate(460.09384,162.9941)"
         d="m 248.57227,-15.660156 0.27343,0.322265 c 0.0593,0.02649 0.12713,0.03856 0.18555,0.06641 z M 94.945312,136.17773 c -0.01938,0.0194 -0.01984,0.15766 -0.03711,0.19141 0.01885,0.007 0.03772,0.0144 0.05664,0.0215 0.125097,0.0467 0.153279,0.0502 0.259765,0.0879 -0.09486,-0.10599 -0.206505,-0.37358 -0.279297,-0.30079 z M 496.78906,287.90234 c -0.1346,0.0369 -0.29272,0.0462 -0.43554,0.0742 0.10999,0.36142 0.24996,0.48922 0.43554,0.0293 0.0115,-0.0285 -0.008,-0.0737 0,-0.10352 z M 471.65625,476.0957 c -1.06364,0.42562 -0.74858,0.74069 0.80469,0.80469 0.0883,0.004 0.11395,-0.0203 0.19726,-0.0195 -0.0594,-0.21034 -0.27362,-0.60156 -0.28906,-0.75586 -0.27825,0.0409 -0.44431,-0.13678 -0.71289,-0.0293 z m -122.04492,92.08203 c -0.12081,0.12081 -0.1881,0.59795 -0.23047,1.19336 0.24906,0.18203 0.47381,0.39447 0.7207,0.57227 0.004,-0.43858 0.22794,-0.74044 0.0488,-1.1875 -0.21282,-0.53182 -0.39888,-0.71831 -0.53906,-0.57813 z m 90.99023,42.94727 c -0.10059,0.22304 0.16281,0.4009 1.19336,0.44336 0.47781,0.0197 0.75551,-0.0523 1.06641,-0.10938 0.12291,0.0578 0.89091,0.23972 -1.7793,-0.30078 -0.15735,-0.0319 -0.31791,-10e-4 -0.48047,-0.0332 z M 624.00391,757.5 c -0.22974,0.22681 -0.44192,0.47638 -0.66407,0.71289 1.23091,0.008 1.95237,-0.26447 1.53907,-0.67773 -0.15165,-0.15161 -0.59346,0.0223 -0.875,-0.0352 z M 159.90625,974.33984 c -0.006,0.006 0.10221,0.13479 0.10352,0.14844 0.0337,-0.002 0.0678,-0.004 0.10156,-0.006 -0.0228,-0.006 -0.19662,-0.15103 -0.20508,-0.14258 z m -187.664062,8.81446 c 0.124013,0.22427 0.275458,0.35151 0.46875,0.1582 0.02741,-0.0274 -0.01879,-0.12559 0.0059,-0.1582 -0.158231,-0.001 -0.316378,10e-4 -0.474609,0 z m 430.482422,56.7266 c -0.19264,0.054 -0.38357,0.1137 -0.57617,0.1679 -0.1176,0.2195 -0.8123,0.9571 -0.70703,0.9571 0.12383,0 0.90424,-0.828 1.2832,-1.125 z" />
      <path
         id="path101"
         style="fill:#000000;fill-opacity:1;stroke-width:1.33333"
         d="m 1730.4503,414.84985 c -464.4672,0 -550.0081,0.28568 -553.7012,1.84375 -2.4024,1.01352 -5.703,3.71352 -7.334,6 l -2.9648,4.15625 -0.3868,547.99999 c -0.2126,301.39996 -0.036,550.49226 0.3946,553.53906 0.4434,3.1381 2.1735,7.0397 3.9902,9 l 3.207,3.4609 h 555.4844 c 378.4353,0 556.3032,-0.4377 558.0508,-1.373 1.4109,-0.7551 3.4705,-3.1258 4.5781,-5.2676 1.7867,-3.4551 2.0098,-66.0453 2.0098,-554.95896 0,-544.20182 -0.037,-551.12052 -2.6074,-555.33593 -1.4315,-2.34776 -4.5803,-5.34709 -6.9961,-6.66602 -4.2081,-2.29755 -27.4181,-2.39844 -553.7246,-2.39844 z m -547.334,18 203.666,0.10938 c 173.2276,0.0925 203.0484,0.38069 199.5215,1.92773 l -4.1484,1.81836 3.1777,21.07227 c 1.7476,11.5898 6.4304,41.47292 10.4062,66.40625 3.9759,24.93334 8.2411,52.53398 9.4766,61.33398 3.9303,27.99492 17.4639,114.00691 18.0273,114.57031 0.2981,0.29809 16.9405,-1.9595 36.9844,-5.01562 l 36.4434,-5.55469 -0.791,-4.66797 c -0.4358,-2.56667 -2.902,-19.36536 -5.4805,-37.33203 -2.5785,-17.96666 -7.9363,-53.06667 -11.9063,-78 -3.9699,-24.93334 -8.4856,-54.03464 -10.0332,-64.66797 -7.7079,-52.96168 -9.4921,-64.95671 -10.1621,-68.33203 -0.7091,-3.57217 -0.5697,-3.66797 5.3789,-3.66797 3.3583,0 6.1055,0.52525 6.1055,1.16602 0,0.64076 2.3993,16.98947 5.332,36.33203 2.9327,19.34256 5.9239,39.36861 6.6465,44.50195 0.7226,5.13333 5.5204,36.03269 10.6621,68.66602 5.1418,32.63334 10.713,69.23398 12.3809,81.33398 l 3.0332,22 5.9726,-0.0781 c 3.2851,-0.0433 19.0227,-2.10526 34.9727,-4.58203 26.3101,-4.08552 29,-4.74357 29,-7.09961 0,-1.42831 -2.9623,-21.56698 -6.584,-44.75196 -7.4169,-47.48055 -13.416,-88.44157 -13.416,-91.60937 0,-1.62443 1.008,-1.27309 4.334,1.50586 4.8549,4.05632 66.8332,63.93167 101.8535,98.39843 l 22.8535,22.49219 32.2617,-5.1289 c 17.744,-2.82148 32.7497,-5.43384 33.3457,-5.80469 0.5961,-0.37087 -2.6906,-24.37513 -7.3027,-53.3418 -4.6122,-28.96667 -9.4109,-60.16732 -10.6641,-69.33398 -1.2531,-9.16667 -4.9191,-33.57919 -8.1464,-54.25196 -3.2274,-20.67276 -5.8672,-38.22276 -5.8672,-39 0,-0.77723 1.727,-1.41406 3.8379,-1.41406 3.7411,0 3.8733,0.24313 5.2968,9.66602 0.8033,5.31667 4.165,26.59599 7.4707,47.28711 3.3056,20.69112 8.4344,54.29242 11.3965,74.66797 6.5853,45.29712 12.6191,82.7792 13.461,83.62109 0.3446,0.3446 14.1068,-1.39268 30.582,-3.85938 16.4751,-2.46669 32.8038,-4.87235 36.2871,-5.34765 5.1614,-0.70431 6.334,-1.35928 6.334,-3.53711 0,-2.94855 -5.1754,-40.097 -9.3574,-67.16406 l -2.6778,-17.33399 3.1133,-8.41992 c 1.7125,-4.63065 3.6583,-8.48551 4.3242,-8.56641 1.118,-0.13588 21.2413,25.25929 36.1758,45.65235 6.0429,8.25161 27.8825,36.58526 34.1426,44.29492 l 2.9453,3.62695 16,-2.6875 c 8.8,-1.47864 27.9372,-4.44856 42.5273,-6.59961 14.5902,-2.15105 26.8274,-4.21018 27.1934,-4.57617 0.7039,-0.70393 -4.6658,-7.16493 -47.2949,-56.88867 -5.2667,-6.14319 -12.1673,-14.25998 -15.334,-18.03711 -16.4566,-19.62921 -42.1901,-49.69927 -46.0391,-53.79883 -2.4099,-2.56666 -4.7026,-5.65442 -5.0957,-6.86133 -0.4234,-1.30008 4.2823,-10.94459 11.545,-23.66601 l 12.2578,-21.47266 h 88.4531 88.4551 v 92.3457 92.34376 l -42.334,6.38671 c -23.2834,3.51281 -46.5651,7.02215 -51.7363,7.79688 l -9.4024,1.4082 7.0449,44.19336 c 3.874,24.30619 8.5815,54.99136 10.461,68.19136 1.8795,13.2 6.9642,46.5 11.3008,74 4.3366,27.5 8.8716,56.3 10.0761,64 1.2046,7.7 2.3172,14.1389 2.4727,14.3067 0.1554,0.1678 13.3588,-1.7829 29.3418,-4.334 15.983,-2.5511 29.8965,-4.6387 30.9179,-4.6387 1.5822,0 1.8575,47.1865 1.8575,318.66606 v 318.6679 h -204 c -112.2005,0 -204,-0.5043 -204,-1.1211 0,-0.6167 4.1679,-2.8001 9.2636,-4.8515 24.8126,-9.9892 49.7689,-33.4761 62.3672,-58.6954 29.5861,-59.2254 10.8669,-140.8244 -41.3027,-180.041 -29.8924,-22.4705 -73.7087,-29.5039 -116.3184,-18.6699 -36.1334,9.1874 -66.0158,32.7427 -82.0058,64.6406 -34.6921,69.207 -4.1758,164.9717 61.6387,193.4317 4.2041,1.818 7.6559,3.7566 7.6679,4.3066 0.013,0.55 -18.5772,1 -41.3105,1 -22.7334,0 -41.3344,-0.45 -41.334,-1 4e-4,-0.55 1.3397,-4.3006 2.9766,-8.334 2.6021,-6.4119 2.9692,-9.6787 2.916,-26 -0.054,-16.6251 -0.4568,-19.8594 -3.6739,-29.5762 -7.0749,-21.3686 -20.8386,-35.7548 -40.5644,-42.3984 l -8.4922,-2.8613 5.4629,-6.582 c 10.3999,-12.5311 15.019,-26.3893 14.8613,-44.5821 -0.3515,-40.5647 -25.8038,-65.3339 -67.1367,-65.3339 -5.0379,0 -18.5772,1.5234 -30.0879,3.3847 -23.9852,3.8786 -60.4573,9.3868 -70.2617,10.6113 -3.6667,0.4579 -11.493,1.5458 -17.3906,2.418 l -10.7227,1.5859 7.041,44 c 3.8725,24.2 9.4884,60.8007 12.4805,81.334 2.9921,20.5334 6.9004,46.3125 8.6836,57.2871 1.7832,10.9746 3.2422,21.3246 3.2422,23 v 3.0469 h -156.6719 -156.6699 l 0.3379,-234.9863 0.3359,-234.9863 10,-2.0899 c 26.6493,-5.569 46.8007,-16.2364 66.4492,-35.1758 19.0584,-18.3704 31.0793,-41.76506 36.3281,-70.70496 2.0263,-11.1721 1.6535,-37.9571 -0.7148,-51.3907 -6.591,-37.3863 -28.1819,-73.7806 -54.4902,-91.8457 -14.2351,-9.7747 -44.2818,-21.4883 -55.1192,-21.4883 h -3.1191 V 665.51589 c 0,-77.77777 0.4551,-118 1.334,-118 0.7333,0 1.332,1.20131 1.332,2.66797 0,3.48222 -0.4713,3.50971 35.3301,-2.07227 16.7162,-2.6063 30.8263,-4.25563 31.3555,-3.66602 1.068,1.19024 6.5735,35.40345 14.6542,91.07032 2.9275,20.16666 8.2354,54.66797 11.795,76.66795 5.8938,36.427 6.6973,39.9813 9.0019,39.7871 1.3919,-0.1172 17.0646,-2.4787 34.8281,-5.2461 30.7752,-4.7945 32.2675,-5.1618 31.6641,-7.7871 -0.3483,-1.5153 -2.459,-15.6552 -4.6894,-31.4219 -2.2305,-15.76661 -8.2043,-55.06531 -13.2754,-87.33198 -11.5845,-73.70988 -13.4469,-86.32851 -12.836,-86.93946 0.765,-0.76497 31.7673,-5.91043 32.3145,-5.36328 0.4728,0.47276 5.2804,31.38449 8.4453,54.30274 0.8608,6.23334 5.7041,37.43204 10.7637,69.33203 5.0596,31.9 10.0063,64.00065 10.9941,71.33395 l 1.7969,13.334 4.5957,-0.2168 c 6.7149,-0.3149 60.9975,-8.7964 62.5879,-9.7793 0.88,-0.5439 -0.2476,-11.0513 -3.2305,-30.08591 -6.1321,-39.1303 -9.0338,-60.7572 -8.2559,-61.53516 1.3196,-1.31955 82.6853,-13.72166 83.584,-12.74024 0.5158,0.56322 3.7656,20.82344 7.2227,45.02344 3.4571,24.2 6.8071,44.55007 7.4433,45.22267 1.0028,1.06 66.2344,-7.92893 67.7637,-9.3379 0.2856,-0.26308 -1.0578,-10.24498 -2.9844,-22.18164 -4.9819,-30.86698 -13.8388,-88.48964 -14.8125,-96.36914 -1.036,-8.3843 -7.2038,-48.39619 -13.3593,-86.66797 -2.5949,-16.13333 -5.6829,-35.93333 -6.8633,-44 -1.1804,-8.06667 -2.3704,-14.90989 -2.6446,-15.20899 -0.7727,-0.84298 -65.0389,9.4294 -66.3378,10.60352 -1.0418,0.94172 1.2011,18.00476 10.5117,79.92773 1.708,11.35999 2.9264,20.83336 2.707,21.05274 -1.0221,1.02211 -83.2972,12.84343 -84.0625,12.07812 -0.7101,-0.71007 -3.9649,-21.27169 -10.0781,-63.67773 -2.8987,-20.10747 -5.4182,-36.69355 -5.5996,-36.85742 -0.1814,-0.16388 -24.3288,3.52454 -53.6621,8.19726 -29.3334,4.67272 -72.234,11.23803 -95.334,14.58789 -23.1,3.34985 -50.7826,7.56256 -61.5156,9.36133 -10.7331,1.79877 -20.1831,3.26953 -21,3.26953 -1.0503,0 -1.4844,-9.3729 -1.4844,-32 z m 617.2734,0 h 47.9395 l 0.7324,4.33399 c 0.403,2.38333 1.6646,10.93333 2.8047,19 1.14,8.06666 4.4379,29.58943 7.3281,47.82812 2.8902,18.23869 5.2559,33.98869 5.2559,35 0,1.0113 -0.45,1.83222 -1,1.82422 -0.55,-0.008 -8.2293,-7.05687 -17.0645,-15.66602 -8.8352,-8.60916 -22.9383,-22.25364 -31.3398,-30.32031 -37.7308,-36.22697 -62.5957,-60.55665 -62.5957,-61.24804 0,-0.41317 21.5727,-0.75196 47.9394,-0.75196 z m 214.0606,0 c 4.7666,0 8.666,0.51915 8.666,1.1543 0,0.63514 -2.7392,6.93514 -6.0859,14 -3.3466,7.06485 -6.3111,12.8457 -6.5879,12.8457 -1.269,0 -2.1382,-3.21892 -3.3106,-12.24804 -2.1762,-16.75854 -2.6433,-15.75196 7.3184,-15.75196 z m 31.1425,221.42969 c -5.8482,0.17811 -11.5164,0.60889 -16.7128,1.30859 -12.6248,1.69992 -95.7251,14.74393 -95.8594,15.04688 -0.052,0.11812 2.4514,16.1155 5.5644,35.54883 3.1129,19.4333 6.6234,42.2327 7.8008,50.666 2.3543,16.8628 25.8638,169.437 26.8848,174.4805 0.7731,3.8189 -1.212,3.9853 55.1797,-4.6348 47.6941,-7.2905 55.9185,-8.9205 71.332,-14.1308 22.6101,-7.6431 39.136,-18.0955 54.3867,-34.3985 20.263,-21.6613 29.8743,-45.9144 31.252,-78.8535 2.0785,-49.6937 -16.7405,-94.4882 -50.0918,-119.23047 -12.6058,-9.35181 -28.7297,-17.76987 -40.2129,-20.99414 -12.8233,-3.60051 -31.9786,-5.34293 -49.5235,-4.80859 z m -127.2246,17.75 c -0.7906,0.30342 -17.4779,2.84655 -37.082,5.65039 -33.9102,4.84995 -35.6118,5.22935 -35.0019,7.80078 0.3525,1.4866 1.6486,9.90313 2.8808,18.70313 1.2322,8.8 7.2349,48.4 13.3399,88 6.1049,39.6 13.8982,90.5987 17.3183,113.332 3.4201,22.7334 6.4259,41.6714 6.6797,42.084 0.3952,0.6426 72.621,-10.3144 73.4492,-11.1426 0.4691,-0.4691 -8.0514,-57.799 -14.8047,-99.6074 -3.3761,-20.9 -8.4613,-54.2 -11.3008,-74 -8.8056,-61.40271 -13.9214,-91.4178 -15.4785,-90.8203 z m 358.0821,2.52344 v 27.73633 c 0,15.25513 -0.45,27.99803 -1,28.31643 -1.8402,1.0652 -16.334,2.4479 -16.334,1.5586 0,-0.8711 -6.1399,-41.99886 -7.3047,-48.92972 -0.3342,-1.98822 -0.1038,-3.9263 0.5117,-4.30664 0.6154,-0.38035 6.2959,-1.52002 12.6231,-2.53321 z m -514,25.68359 c -30.3415,0.0792 -51.6286,5.34887 -69.4824,17.20317 -3.9296,2.609 -7.675,4.7441 -8.3243,4.7441 -0.6492,0 -1.4892,-2.7302 -1.8652,-6.0664 -0.3761,-3.3362 -1.0542,-6.437 -1.5078,-6.8906 -0.4536,-0.4537 -22.2745,2.5914 -48.4902,6.7656 -26.2158,4.1742 -56.3648,8.7967 -66.9981,10.2734 -10.6333,1.4768 -26.8333,3.8537 -36,5.2813 -34.1399,5.3166 -84.7797,13.3983 -88.0801,14.0566 l -3.414,0.6797 2.9394,18.9512 c 1.6161,10.4222 6.274,39.9485 10.3516,65.6152 10.1612,63.9609 12.0191,79.3263 11.0801,91.6231 -1.8411,24.1071 -17.9446,38.1895 -42.1075,36.8242 -11.3921,-0.6437 -20.1265,-5.588 -26.4218,-14.9512 -7.9289,-11.7927 -9.9652,-21.3453 -21.6192,-101.4961 -7.1451,-49.1408 -12.6938,-83.0766 -13.7578,-84.1406 -0.4722,-0.4722 -17.4421,1.7666 -37.7109,4.9746 l -36.8516,5.832 0.7637,5.334 c 10.6646,74.5587 23.6787,157.1756 26.6777,169.3477 4.5734,18.5618 8.6639,27.9502 18.5781,42.6523 13.9141,20.63346 36.7118,35.95456 61.5723,41.37696 11.1813,2.4387 40.6695,2.4068 53.666,-0.059 29.748,-5.6431 57.1643,-20.561 71.6699,-38.99606 7.8422,-9.9666 15.8738,-26.2884 19.5137,-39.6563 2.3621,-8.6749 2.9145,-14.4004 2.961,-30.666 0.052,-18.2743 -0.6575,-24.43 -8.2227,-71.334 -4.5538,-28.2333 -8.5694,-52.6198 -8.9238,-54.1933 -0.4186,-1.8583 0.1274,-3.1567 1.5566,-3.7051 3.147,-1.2076 28.279,-4.0452 29.0449,-3.2793 0.3521,0.3521 1.8971,9.3121 3.4317,19.9101 1.5345,10.5981 7.8362,51.6676 14.0039,91.2676 6.1677,39.6 11.9108,77.5507 12.7636,84.334 0.8528,6.7833 2.0144,12.334 2.5801,12.334 2.4498,0 68.3611,-10.6287 68.8321,-11.0996 0.2869,-0.2869 -1.8557,-15.4565 -4.7618,-33.7109 -2.9061,-18.2545 -6.8507,-44.2908 -8.7656,-57.8575 -1.9149,-13.5666 -6.7522,-45.3149 -10.75,-70.5527 -3.9978,-25.2379 -7.0912,-46.065 -6.873,-46.2832 0.6047,-0.6048 25.2094,-4.4832 28.4785,-4.4902 2.7297,0 2.8745,0.609 2.9472,12.4941 0.1491,24.3495 6.3812,42.4397 19.4747,56.5293 16.182,17.4131 36.0005,24.4589 81.6308,29.0176 38.2844,3.8247 46.9519,7.2945 47.418,18.9824 0.2876,7.2131 -3.1678,11.9129 -11.5918,15.7695 -21.8755,10.0149 -54.6574,4.8314 -83.627,-13.2246 -5.5074,-3.4326 -10.5626,-6.2346 -11.2343,-6.2266 -2.3495,0.028 -34.4749,53.9571 -33.2871,55.879 1.7093,2.7658 25.1474,16.2907 36.0566,20.8066 6.2411,2.5835 17.1952,6.3309 24.3437,8.3281 12.1406,3.392 14.6688,3.6267 38.3321,3.5391 27.1339,-0.1005 35.2745,-1.4625 54.0273,-9.0371 24.8043,-10.0189 45.0689,-30.5324 52.127,-52.7676 4.2713,-13.456 4.7939,-30.3999 1.3613,-44.1445 -5.926,-23.7289 -17.0179,-39.1564 -34.9141,-48.5606 -18.4623,-9.7017 -31.4904,-12.7525 -74.457,-17.4414 -29.7819,-3.2499 -37.547,-7.0727 -37.875,-18.6445 -0.1208,-4.2618 0.633,-5.7246 4.8242,-9.3477 7.1956,-6.2201 14.8169,-7.957 34.9063,-7.957 21.044,0 31.7475,2.8447 45.0957,11.9844 4.8321,3.3086 9.0156,6.0156 9.2969,6.0156 0.7684,0 29.3055,-57.4289 28.7519,-57.8613 -0.2632,-0.2056 -5.994,-3.5252 -12.7344,-7.377 -21.2762,-12.1581 -40.7802,-16.78627 -70.4101,-16.70897 z m 295.8925,30.30667 c 33.2266,2.1785 58.1075,25.959 58.1075,55.539 0,23.9922 -17.8221,45.7528 -45.7422,55.8555 -6.6751,2.4153 -18.2634,5.0743 -28.709,6.5859 l -17.5156,2.5352 -0.8946,-4.7715 c -3.7906,-20.1777 -17.2315,-108.9534 -16.6015,-109.6523 1.944,-2.1565 40.9009,-6.7773 51.3554,-6.0918 z m 218.1075,45.9726 v 26.834 c 0,24.509 -0.4183,29.8443 -1.9707,25.166 -1.0491,-3.1617 -7.5592,-49.2474 -7.0313,-49.7754 0.2911,-0.291 2.4357,-0.911 4.7656,-1.3769 z m -1092.334,88.3399 c 2.4429,0.012 10.7189,6.1681 17.1601,12.7656 23.9896,24.5716 23.6068,70.6725 -0.7597,91.5293 -6.3681,5.4508 -15.3849,10.6034 -16.5371,9.4512 -1.2174,-1.2174 -1.0821,-113.7531 0.1367,-113.7461 z m 852.9355,77.6367 c -0.5701,-0.986 -170.578,25.2226 -171.8476,26.4922 -0.3453,0.3452 0.5491,7.8061 1.9863,16.5801 1.4372,8.7739 4.7074,30.53906 7.2676,48.36706 2.5602,17.8281 8.5229,56.8274 13.25,86.6661 7.1844,45.3498 16.7422,109.2214 16.7422,111.8847 0,0.3946 2.25,0.3363 5,-0.1289 2.75,-0.4651 21.4994,-3.2502 41.666,-6.1875 54.2519,-7.9019 125.1451,-19.3502 126.1699,-20.375 0.4924,-0.4924 -1.0668,-13.1985 -3.4648,-28.2363 -4.1821,-26.2267 -4.4758,-27.3142 -7.1993,-26.6816 -4.1383,0.9612 -65.5033,10.7479 -83.9004,13.3808 -8.6504,1.238 -16.0928,1.8857 -16.539,1.4395 -0.9646,-0.9646 -8.8487,-51.5048 -8.1445,-52.209 0.6699,-0.6699 48.0131,-8.0884 64.791,-10.1524 13.673,-1.682 13.7125,-1.6963 13,-5.0839 -0.393,-1.8688 -1.9476,-11.7804 -3.4532,-22.0254 -1.5057,-10.2451 -2.9391,-18.8298 -3.1855,-19.0762 -0.2464,-0.2464 -17.747,2.2538 -38.8906,5.5547 -21.1436,3.3008 -38.6566,5.7868 -38.918,5.5254 -0.7519,-0.7519 -8.232,-47.6377 -8.25,-51.711 -0.01,-2.0166 0.2499,-3.666 0.5742,-3.666 3.5521,0 101.0612,-14.53956 101.6836,-15.16206 0.3363,-0.3362 -7.814,-54.2892 -8.3379,-55.1953 z m -189.664,28.373 c -20.4498,2.8734 -59.9878,8.8892 -61.6641,9.3829 -1.7857,0.5258 -1.0109,7.2366 5.8398,50.65426 4.3434,27.5262 7.5452,50.4001 7.1153,50.83 -0.9964,0.9964 -74.8567,12.4433 -80.3145,12.4473 h -4.0839 l -2.9922,-20.3203 c -1.6463,-11.1756 -5.1559,-33.7395 -7.7989,-50.1426 l -4.8047,-29.82416 -6.7851,0.8847 c -14.122,1.8424 -47.2101,6.90436 -108.1172,16.53906 -27.8667,4.4082 -59.9654,9.2811 -71.332,10.8281 -23.4523,3.192 -50.7552,7.6771 -51.5469,8.4688 -0.6316,0.6316 7.3852,53.1821 8.2441,54.041 0.3264,0.3264 14.2522,-1.3198 30.9473,-3.6582 16.6951,-2.3384 31.5275,-4.3778 32.9609,-4.5332 2.4179,-0.2622 3.1152,2.946 9.6504,44.3828 8.7049,55.1935 13.3346,85.4398 19.8555,129.7168 l 5.0644,34.3828 3.4122,-0.6719 c 1.8764,-0.3698 17.5004,-2.8317 34.7207,-5.4707 17.2202,-2.6391 31.5346,-5.0247 31.8105,-5.3007 0.276,-0.2759 -3.7426,-27.3849 -8.9316,-60.2442 -5.1891,-32.8594 -11.5542,-74.4454 -14.1446,-92.4121 -2.5903,-17.9667 -5.6021,-37.7251 -6.6914,-43.9082 -1.0892,-6.1831 -1.752,-11.4686 -1.4746,-11.7461 0.5794,-0.5794 31.8775,-5.7048 32.2852,-5.2871 0.5083,0.521 13.7989,85.6361 18.4687,118.2754 5.9277,41.4302 13.6674,89.4096 14.5684,90.3105 0.8319,0.832 64.2385,-9.1402 66.3281,-10.4316 1.0243,-0.6331 -0.4202,-13.0376 -4.8242,-41.3926 -3.4586,-22.2682 -6.6027,-42.6729 -6.9863,-45.3457 -0.8391,-5.8468 -5.6503,-4.5144 44.8945,-12.4433 20.8701,-3.2739 38.271,-5.4274 38.668,-4.7852 0.3969,0.6422 3.9379,21.4755 7.8691,46.2949 3.9313,24.8195 7.2303,45.2039 7.332,45.2989 0.1018,0.095 14.2862,-2.1265 31.5196,-4.9356 17.2333,-2.8091 32.4589,-5.1369 33.8359,-5.1719 2.1961,-0.057 2.3914,-0.762 1.582,-5.7324 -0.5074,-3.1167 -3.5682,-23.666 -6.8007,-45.666 -3.2326,-22 -9.4611,-62.5 -13.8418,-90 -4.3808,-27.5 -9.2229,-59.3013 -10.7598,-70.668 -2.4133,-17.8481 -4.201,-29.65716 -7.418,-49.00576 -0.6898,-4.149 -0.9382,-4.308 -5.6601,-3.6446 z m 332.5976,237.68356 c -1.1822,-0.034 -2.9322,0.1308 -5.2031,0.4981 -3.85,0.6227 -21.6963,3.2597 -39.6582,5.8594 -17.9618,2.5996 -33.0791,5.1497 -33.5957,5.6679 -0.5166,0.5181 -3.1093,7.2414 -5.7617,14.9414 -10.8187,31.4068 -25.0758,69.334 -26.0625,69.334 -0.579,0 -8.9704,-10.6494 -18.6485,-23.666 -32.2801,-43.4169 -35.154,-47 -37.6797,-47 -2.4064,0 -72.1658,9.9555 -80.5957,11.502 -4.283,0.7857 -4.3075,0.8322 -2,3.8183 1.2848,1.6627 13.7049,17.0469 27.5997,34.1856 13.8949,17.1388 31.3269,38.6594 38.7382,47.8261 7.4114,9.1667 17.1926,21.2633 21.7364,26.8809 4.5439,5.6176 8.2617,10.9006 8.2617,11.7383 0,1.5655 -7.0525,17.9535 -30.7168,71.3808 -19.3229,43.6256 -29.3924,66.4094 -30.2012,68.334 -0.3853,0.9167 -0.012,1.666 0.832,1.666 1.2465,0 65.5789,-10.0829 80.8868,-12.6777 3.9487,-0.6693 4.3779,-1.4026 9.5586,-16.3437 2.9834,-8.6039 9.6725,-26.8743 14.8652,-40.5997 5.1927,-13.7254 9.4414,-25.8011 9.4414,-26.8359 0,-1.0349 0.8101,-2.5545 1.7988,-3.375 2.2888,-1.8996 2.3544,-1.8202 32.5371,38.5 23.3503,31.1929 26.2774,34.6343 28.9981,34.0879 1.4666,-0.2945 21.0825,-3.4007 43.5898,-6.9023 30.4341,-4.7348 40.6859,-6.7841 40,-7.9922 -0.5073,-0.8935 -2.7345,-3.6278 -4.9472,-6.0762 -2.2127,-2.4485 -12.4264,-14.0519 -22.6993,-25.7852 -51.0579,-58.3168 -66.8265,-76.2795 -69.6328,-79.332 -3.8368,-4.1734 -4.1342,-2.962 9.6953,-39.334 20.6104,-54.2052 40.6602,-108.2501 40.6602,-109.5976 0,-0.4336 -0.6146,-0.6686 -1.7969,-0.7032 z m -361.7519,126.4981 c 20.3961,0.3451 40.2642,12.9823 49.7695,32.5449 10.0388,20.6607 9.5105,45.8306 -1.3516,64.3652 -5.0516,8.62 -16.9335,18.8774 -25.873,22.334 -9.5849,3.7062 -28.9127,4.7604 -37.2813,2.0332 -34.9059,-11.3754 -52.3253,-57.0488 -34.9492,-91.6347 7.5583,-15.044 23.2602,-26.1743 40.9395,-29.0215 2.9065,-0.4681 5.8323,-0.6704 8.7461,-0.6211 z m -245.6387,31.8437 c 11.8538,-0.3471 17.3131,2.9021 20.7051,10.9161 3.9495,9.3314 1.0333,19.575 -7.0782,24.8574 -3.7593,2.4482 -8.8935,3.8773 -19.4785,5.4219 -7.9055,1.153 -15.4646,2.0976 -16.7968,2.0976 -2.0951,0 -2.7299,-2.2963 -4.6993,-17 -1.2522,-9.35 -2.3938,-18.1858 -2.5371,-19.6348 -0.2343,-2.3697 1.3487,-2.8871 15.7403,-5.1543 5.5324,-0.8715 10.1932,-1.3882 14.1445,-1.5039 z m 26.834,92.9454 c 14.6083,0.9818 23.5148,13.3431 19.625,27.2363 -2.3101,8.2508 -11.1203,15.8568 -20.377,17.5918 -20.1526,3.7771 -31.7063,5.034 -33.3906,3.6328 -1.8287,-1.5212 -8.568,-41.4925 -7.2227,-42.8379 1.685,-1.6849 34.1982,-6.105 41.3653,-5.623 z" />
    </g>
  </g>
</svg>
