<?xml version="1.0" encoding="UTF-8" standalone="no"?>
<!-- Created with Inkscape (http://www.inkscape.org/) -->

<svg
   version="1.1"
   id="svg9"
   width="35.216118"
   height="34.291687"
   viewBox="0 0 35.216118 34.291687"
   xmlns="http://www.w3.org/2000/svg"
   xmlns:svg="http://www.w3.org/2000/svg">
  <defs
     id="defs13" />
  <g
     id="g15"
     transform="translate(-3.3768405,-3.8829947)">
    <g
       id="g99"
       transform="translate(0.66550222,1.1703655)"
       style="fill:#000000">
      <path
         style="fill:#000000;fill-opacity:1;stroke-width:0.0270934"
         d="m 24.828515,36.623486 -0.05161,-0.06096 0.06096,0.05161 c 0.05729,0.0485 0.07329,0.07031 0.05161,0.07031 -0.0051,0 -0.03257,-0.02743 -0.06096,-0.06096 z m -0.469421,-6.755284 c 0.0013,-0.03156 0.0077,-0.03798 0.01637,-0.01637 0.0078,0.01956 0.0069,0.04293 -0.0021,0.05193 -0.009,0.009 -0.01541,-0.007 -0.01423,-0.03556 z m 8.128015,-10.783169 c 0.0013,-0.03156 0.0077,-0.03798 0.01637,-0.01637 0.0078,0.01956 0.0069,0.04293 -0.0021,0.05193 -0.009,0.009 -0.01541,-0.007 -0.01423,-0.03556 z m 0.75302,-10.7334965 c -0.0337,-0.042972 -0.03274,-0.04393 0.01023,-0.010229 0.04513,0.035394 0.05948,0.057643 0.03718,0.057643 -0.0056,0 -0.02696,-0.021336 -0.04741,-0.047414 z"
         id="path113" />
      <path
         style="fill:#000000;fill-opacity:1;stroke-width:0.0270934"
         d="m 14.908652,36.990791 c 0.02636,-0.0069 0.06294,-0.0064 0.08128,10e-4 0.01834,0.0074 -0.0032,0.01304 -0.04793,0.01249 -0.0447,-5.42e-4 -0.05971,-0.0066 -0.03335,-0.01349 z m 10.728465,0 c 0.02608,-0.0068 0.06875,-0.0068 0.09483,0 0.02608,0.0068 0.0047,0.01239 -0.04741,0.01239 -0.05215,0 -0.07349,-0.0056 -0.04741,-0.01239 z m 6.712387,-3.865809 c 0,-0.0056 0.02134,-0.02696 0.04741,-0.04741 0.04297,-0.0337 0.04393,-0.03274 0.01023,0.01023 -0.0354,0.04513 -0.05764,0.05948 -0.05764,0.03718 z m -7.99041,-3.33806 c 0.0013,-0.03156 0.0077,-0.03798 0.01637,-0.01637 0.0078,0.01956 0.0069,0.04293 -0.0021,0.05193 -0.009,0.009 -0.01541,-0.007 -0.01423,-0.03556 z M 8.4496807,28.563203 c -0.033701,-0.04297 -0.032742,-0.04393 0.010229,-0.01023 0.045131,0.03539 0.059483,0.05764 0.037184,0.05764 -0.00563,0 -0.026962,-0.02134 -0.047413,-0.04741 z M 8.1301551,19.05794 c 0.0013,-0.03156 0.00772,-0.03798 0.016369,-0.01637 0.00783,0.01956 0.00686,0.04293 -0.00214,0.05193 -0.009,0.009 -0.015406,-0.007 -0.01423,-0.03556 z m 7.5548649,-8.83696 -0.06568,-0.07451 0.07451,0.06568 c 0.04098,0.03613 0.07451,0.06965 0.07451,0.07451 0,0.02125 -0.02194,0.004 -0.08333,-0.06568 z"
         id="path111" />
      <path
         style="fill:#000000;fill-opacity:1;stroke-width:0.0270934"
         d="m 14.407394,33.386511 c 0.0487,-0.006 0.121848,-0.0059 0.16256,2.71e-4 0.04071,0.0062 8.7e-4,0.01111 -0.08854,0.01096 -0.08941,-2.71e-4 -0.122718,-0.0052 -0.07402,-0.01124 z m -0.02589,-2.626931 c 0.01956,-0.0078 0.04293,-0.0069 0.05193,0.0021 0.009,0.009 -0.007,0.01541 -0.03556,0.01423 -0.03156,-0.0013 -0.03798,-0.0077 -0.01637,-0.01637 z m 0.377615,5.69e-4 c 0.01863,-0.0075 0.04911,-0.0075 0.06773,0 0.01863,0.0075 0.0034,0.01367 -0.03387,0.01367 -0.03725,0 -0.05249,-0.0061 -0.03387,-0.01367 z M 2.7114777,20.98157 c 0.0013,-0.03156 0.00772,-0.03798 0.016369,-0.01637 0.00783,0.01956 0.00686,0.04293 -0.00214,0.05193 -0.009,0.009 -0.015406,-0.007 -0.014229,-0.03556 z m 35.1943083,0 c 0.0013,-0.03156 0.0077,-0.03798 0.01637,-0.01637 0.0078,0.01956 0.0069,0.04293 -0.0021,0.05193 -0.009,0.009 -0.01541,-0.007 -0.01423,-0.03556 z m 0,-1.354669 c 0.0013,-0.03156 0.0077,-0.03798 0.01637,-0.01637 0.0078,0.01956 0.0069,0.04293 -0.0021,0.05193 -0.009,0.009 -0.01541,-0.007 -0.01423,-0.03556 z M 19.339598,9.8434851 c 0.01956,-0.00783 0.04293,-0.00686 0.05193,0.00214 0.009,0.009 -0.007,0.015406 -0.03556,0.01423 -0.03156,-0.0013 -0.03798,-0.00772 -0.01637,-0.016369 z m 0.919482,-0.027706 c 0.03353,-0.00646 0.08839,-0.00646 0.12192,0 0.03353,0.00646 0.0061,0.011741 -0.06096,0.011741 -0.06706,0 -0.09449,-0.00528 -0.06096,-0.011741 z M 19.637625,2.7179243 c 0.01956,-0.00783 0.04293,-0.00686 0.05193,0.00214 0.009,0.009 -0.007,0.015406 -0.03556,0.01423 -0.03156,-0.0013 -0.03798,-0.00772 -0.01637,-0.01637 z m 1.327576,0 c 0.01956,-0.00783 0.04293,-0.00686 0.05193,0.00214 0.009,0.009 -0.007,0.015406 -0.03556,0.01423 -0.03156,-0.0013 -0.03798,-0.00772 -0.01637,-0.01637 z"
         id="path109" />
      <path
         style="fill:#000000;fill-opacity:1;stroke-width:0.0270934"
         d="m 14.273135,33.387639 c 0.01956,-0.0078 0.04293,-0.0069 0.05193,0.0021 0.009,0.009 -0.007,0.01541 -0.03556,0.01423 -0.03156,-0.0013 -0.03798,-0.0077 -0.01637,-0.01637 z m 0.379307,0 c 0.01956,-0.0078 0.04293,-0.0069 0.05193,0.0021 0.009,0.009 -0.007,0.01541 -0.03556,0.01423 -0.03156,-0.0013 -0.03798,-0.0077 -0.01637,-0.01637 z m 18.374397,-0.939992 c 0,-0.0056 0.02134,-0.02696 0.04741,-0.04741 0.04297,-0.0337 0.04393,-0.03274 0.01023,0.01023 -0.03539,0.04513 -0.05764,0.05948 -0.05764,0.03718 z M 14.515767,30.758453 c 0.0487,-0.006 0.121849,-0.0059 0.162561,2.71e-4 0.04071,0.0062 8.69e-4,0.01111 -0.08854,0.01096 -0.08941,-2.71e-4 -0.122718,-0.0052 -0.07402,-0.01124 z m 15.693359,-5.548057 c 0.035,-0.03725 0.06973,-0.06773 0.07718,-0.06773 0.0075,0 -0.01509,0.03048 -0.05008,0.06773 -0.035,0.03725 -0.06973,0.06773 -0.07718,0.06773 -0.0075,0 0.01509,-0.03048 0.05008,-0.06773 z M 10.237844,25.041063 c -0.0337,-0.04297 -0.03274,-0.04393 0.01023,-0.01023 0.02608,0.02045 0.04741,0.04179 0.04741,0.04741 0,0.0223 -0.02225,0.0079 -0.05764,-0.03718 z M 2.7114777,20.90029 c 0.0013,-0.03156 0.00772,-0.03798 0.016369,-0.01637 0.00783,0.01956 0.00686,0.04293 -0.00214,0.05193 -0.009,0.009 -0.015406,-0.007 -0.014229,-0.03556 z m 35.1943083,0 c 0.0013,-0.03156 0.0077,-0.03798 0.01637,-0.01637 0.0078,0.01956 0.0069,0.04293 -0.0021,0.05193 -0.009,0.009 -0.01541,-0.007 -0.01423,-0.03556 z M 2.7114777,19.681088 c 0.0013,-0.03156 0.00772,-0.03798 0.016369,-0.01637 0.00783,0.01956 0.00686,0.04293 -0.00214,0.05193 -0.009,0.009 -0.015406,-0.007 -0.014229,-0.03556 z M 24.790449,10.314103 c 0,-0.0047 0.03962,-0.04429 0.08805,-0.08805 l 0.08805,-0.07958 -0.07958,0.08805 c -0.07418,0.08208 -0.09653,0.100507 -0.09653,0.07958 z M 20.082973,9.8162232 c 0.02608,-0.00681 0.06875,-0.00681 0.09483,0 0.02608,0.00681 0.0047,0.012391 -0.04741,0.012391 -0.05215,0 -0.07349,-0.00558 -0.04741,-0.012391 z m 0.379823,-1.084e-4 c 0.02636,-0.00687 0.06294,-0.00642 0.08128,0.00101 0.01834,0.00742 -0.0032,0.013042 -0.04793,0.01249 -0.0447,-5.527e-4 -0.05971,-0.00662 -0.03335,-0.013494 z m 0.421125,-7.0981905 c 0.01956,-0.00783 0.04293,-0.00686 0.05193,0.00214 0.009,0.009 -0.007,0.015406 -0.03556,0.01423 -0.03156,-0.0013 -0.03798,-0.00772 -0.01637,-0.01637 z"
         id="path107" />
      <path
         style="fill:#000000;fill-opacity:1;stroke-width:0.0270934"
         d="m 10.535871,25.33909 c -0.0337,-0.04297 -0.03274,-0.04393 0.01023,-0.01023 0.02608,0.02045 0.04741,0.04179 0.04741,0.04741 0,0.0223 -0.02225,0.0079 -0.05764,-0.03718 z m 27.369915,-4.52008 c 0.0013,-0.03156 0.0077,-0.03798 0.01637,-0.01637 0.0078,0.01956 0.0069,0.04293 -0.0021,0.05193 -0.009,0.009 -0.01541,-0.007 -0.01423,-0.03556 z M 19.948022,9.816124 c 0.02636,-0.00687 0.06294,-0.00642 0.08128,0.00101 0.01834,0.00742 -0.0032,0.013042 -0.04793,0.01249 -0.0447,-5.527e-4 -0.05971,-0.00662 -0.03335,-0.013494 z m 0.650241,0 c 0.02636,-0.00687 0.06294,-0.00642 0.08128,0.00101 0.01834,0.00742 -0.0032,0.013042 -0.04793,0.01249 -0.0447,-5.527e-4 -0.05971,-0.00662 -0.03335,-0.013494 z M 7.4777748,8.2532536 c 0,-0.00563 0.021336,-0.026962 0.047413,-0.047413 0.042972,-0.033701 0.04393,-0.032742 0.010229,0.010229 -0.035394,0.045131 -0.057643,0.059483 -0.057643,0.037184 z M 32.427327,7.5387349 c -0.0337,-0.042972 -0.03274,-0.04393 0.01023,-0.010229 0.04513,0.035394 0.05948,0.057643 0.03718,0.057643 -0.0056,0 -0.02696,-0.021336 -0.04741,-0.047413 z"
         id="path105" />
      <path
         style="fill:#000000;fill-opacity:1;stroke-width:0.0270934"
         d="m 8.0035217,32.857505 -0.051613,-0.06096 0.06096,0.05161 c 0.033528,0.02839 0.06096,0.05582 0.06096,0.06096 0,0.02168 -0.021805,0.0057 -0.070308,-0.05161 z m 24.6711033,-0.06096 c 0.035,-0.03725 0.06973,-0.06773 0.07718,-0.06773 0.0074,0 -0.01509,0.03048 -0.05009,0.06773 -0.035,0.03725 -0.06973,0.06773 -0.07718,0.06773 -0.0075,0 0.01509,-0.03048 0.05008,-0.06773 z m 0.16256,-0.162561 c 0.035,-0.03725 0.06973,-0.06773 0.07718,-0.06773 0.0075,0 -0.01509,0.03048 -0.05009,0.06773 -0.035,0.03725 -0.06973,0.06773 -0.07718,0.06773 -0.0075,0 0.01509,-0.03048 0.05008,-0.06773 z m -25.1441216,-0.08805 -0.093368,-0.1016 0.1016002,0.09337 c 0.05588,0.05135 0.1016002,0.09707 0.1016002,0.1016 0,0.02069 -0.022927,0.0012 -0.1098324,-0.09337 z m 3.8452636,-2.871899 c -0.0337,-0.04297 -0.03274,-0.04393 0.01023,-0.01023 0.04513,0.03539 0.05948,0.05764 0.03718,0.05764 -0.0056,0 -0.02696,-0.02134 -0.04741,-0.04741 z m -3.9813228,-1.84235 -0.065683,-0.07451 0.074507,0.06568 c 0.069638,0.06139 0.086932,0.08333 0.065683,0.08333 -0.00485,0 -0.038381,-0.03353 -0.074507,-0.07451 z M 30.046566,25.376274 c 0,-0.0056 0.02134,-0.02696 0.04741,-0.04741 0.04297,-0.0337 0.04393,-0.03274 0.01023,0.01023 -0.03539,0.04513 -0.05764,0.05948 -0.05764,0.03718 z M 30.39878,25.02406 c 0,-0.0056 0.02134,-0.02696 0.04741,-0.04741 0.04297,-0.0337 0.04393,-0.03274 0.01023,0.01023 -0.03539,0.04513 -0.05764,0.05948 -0.05764,0.03718 z M 2.7114777,20.764823 c 0.0013,-0.03156 0.00772,-0.03798 0.016369,-0.01637 0.00783,0.01956 0.00686,0.04293 -0.00214,0.05193 -0.009,0.009 -0.015406,-0.007 -0.014229,-0.03556 z M 37.905786,20.73773 c 0.0013,-0.03156 0.0077,-0.03798 0.01637,-0.01637 0.0078,0.01956 0.0069,0.04293 -0.0021,0.05193 -0.009,0.009 -0.01541,-0.007 -0.01423,-0.03556 z M 2.7114777,19.816555 c 0.0013,-0.03156 0.00772,-0.03798 0.016369,-0.01637 0.00783,0.01956 0.00686,0.04293 -0.00214,0.05193 -0.009,0.009 -0.015406,-0.007 -0.014229,-0.03556 z m 35.1943083,0 c 0.0013,-0.03156 0.0077,-0.03798 0.01637,-0.01637 0.0078,0.01956 0.0069,0.04293 -0.0021,0.05193 -0.009,0.009 -0.01541,-0.007 -0.01423,-0.03556 z m -7.591743,-6.425649 c -0.0337,-0.04297 -0.03274,-0.04393 0.01023,-0.01023 0.04513,0.03539 0.05948,0.05764 0.03718,0.05764 -0.0056,0 -0.02696,-0.02134 -0.04741,-0.04741 z m 0.441229,-2.255524 c 0,-0.03725 0.0061,-0.05249 0.01367,-0.03387 0.0075,0.01863 0.0075,0.04911 0,0.06773 -0.0075,0.01863 -0.01367,0.0034 -0.01367,-0.03387 z m 0.0031,-0.189654 c 0,-0.06706 0.0053,-0.09449 0.01174,-0.06096 0.0065,0.03353 0.0065,0.08839 0,0.12192 -0.0065,0.03353 -0.01174,0.0061 -0.01174,-0.06096 z M 19.812555,9.816124 c 0.02636,-0.00687 0.06294,-0.00642 0.08128,0.00101 0.01834,0.00742 -0.0032,0.013042 -0.04793,0.01249 -0.0447,-5.527e-4 -0.05971,-0.00662 -0.03335,-0.013494 z m 0.921175,0 c 0.02636,-0.00687 0.06294,-0.00642 0.08128,0.00101 0.01834,0.00742 -0.0032,0.013042 -0.04793,0.01249 -0.0447,-5.527e-4 -0.05971,-0.00662 -0.03335,-0.013494 z M 33.023381,8.1347894 c -0.0337,-0.042972 -0.03274,-0.04393 0.01023,-0.010229 0.02608,0.020452 0.04741,0.041787 0.04741,0.047413 0,0.022299 -0.02225,0.00795 -0.05764,-0.037184 z M 32.508607,7.6200151 c -0.0337,-0.042972 -0.03274,-0.04393 0.01023,-0.010229 0.04513,0.035394 0.05948,0.057643 0.03718,0.057643 -0.0056,0 -0.02696,-0.021336 -0.04741,-0.047413 z M 19.827279,2.7179243 c 0.01956,-0.00783 0.04293,-0.00686 0.05193,0.00214 0.009,0.009 -0.007,0.015406 -0.03556,0.01423 -0.03156,-0.0013 -0.03798,-0.00772 -0.01637,-0.01637 z"
         id="path103" />
      <path
         style="fill:#000000;fill-opacity:1;stroke-width:0.0270934"
         d="m 14.657522,36.940324 c -0.05215,-0.02028 -0.265515,-0.0996 -0.474134,-0.176251 C 11.372891,35.731403 8.7702204,33.894897 6.8213719,31.569258 4.6231069,28.945978 3.2531349,25.788138 2.84616,22.406231 2.7534513,21.635833 2.7272138,21.17316 2.7270873,20.306493 2.7269518,19.432545 2.7547375,18.935708 2.8459961,18.179663 3.611675,11.8363 7.772126,6.4075622 13.714281,3.9982499 17.096089,2.627059 20.911285,2.3484513 24.481279,3.2119817 c 1.295947,0.3134708 2.560859,0.7809227 3.777124,1.3958467 5.260294,2.6595226 8.840176,7.7549486 9.53513,13.5718346 0.160818,1.346076 0.165605,2.754426 0.014,4.118194 -0.391561,3.52234 -1.877934,6.86566 -4.261711,9.585917 -0.371629,0.424082 -1.183501,1.23693 -1.60272,1.604641 -1.55072,1.360191 -3.309544,2.427852 -5.24257,3.182411 -0.742638,0.289888 -0.855894,0.321078 -1.104114,0.304066 -0.486375,-0.03334 -0.91982,-0.406479 -1.12489,-0.968393 l -0.07393,-0.202588 -0.01531,-3.251207 c -0.01103,-2.343098 -0.02434,-3.300394 -0.04765,-3.427313 -0.06795,-0.370012 -0.123256,-0.562919 -0.22369,-0.780227 -0.07065,-0.152875 -0.09343,-0.228289 -0.07119,-0.23568 0.01799,-0.006 0.142442,-0.0305 0.276555,-0.0545 0.54231,-0.09704 1.530617,-0.36081 2.088499,-0.557403 2.932951,-1.033548 4.882372,-2.84546 5.696704,-5.294872 0.154836,-0.465724 0.251996,-0.879717 0.335517,-1.429601 0.08013,-0.527584 0.08719,-1.960443 0.01264,-2.566353 -0.22765,-1.850215 -0.858831,-3.352332 -1.934238,-4.6032 l -0.242274,-0.281804 0.08854,-0.178783 c 0.25376,-0.512412 0.395518,-1.269352 0.396276,-2.115961 6.78e-4,-0.761135 -0.112613,-1.4153917 -0.346128,-1.9988261 -0.100046,-0.2499614 -0.31766,-0.6516954 -0.43965,-0.8116336 -0.06651,-0.087195 -0.07085,-0.088532 -0.287998,-0.088532 -0.275298,0 -0.813636,0.062161 -1.163758,0.1343767 -0.885431,0.1826289 -1.721719,0.537698 -2.524334,1.0717772 -0.456237,0.3035909 -0.747014,0.5349026 -1.079045,0.8583758 L 24.668533,10.43467 24.451786,10.3667 c -2.208199,-0.6924313 -5.514576,-0.7383275 -7.8029,-0.108308 -0.193717,0.05333 -0.426318,0.124836 -0.51689,0.158893 l -0.164676,0.06192 -0.282939,-0.27474 C 14.39934,8.9566616 12.732801,8.2081261 11.081195,8.1369189 l -0.36576,-0.015769 -0.130343,0.19986 c -0.284836,0.4367519 -0.475964,0.9188238 -0.6055868,1.5274363 -0.071047,0.3335848 -0.075055,0.3901888 -0.075772,1.0701888 -6.041e-4,0.573206 0.00888,0.769873 0.047052,0.975362 0.1053618,0.567239 0.2544678,1.023109 0.4296338,1.313537 l 0.108373,0.179686 -0.171159,0.181705 c -0.5421166,0.57552 -1.0818995,1.392853 -1.4257062,2.158786 -0.1965384,0.437849 -0.4435442,1.189516 -0.5430937,1.652697 -0.1768561,0.822872 -0.23407,1.465433 -0.213029,2.392504 0.016616,0.732121 0.06824,1.164561 0.2108613,1.766331 0.5667695,2.391404 2.1784176,4.279208 4.6541636,5.451654 0.950378,0.450074 2.082106,0.817576 3.196054,1.037848 0.188997,0.03737 0.371113,0.0741 0.404705,0.08161 l 0.06107,0.01367 -0.08473,0.167849 c -0.180527,0.357619 -0.321902,1.179849 -0.321902,1.872161 v 0.308664 l -0.115147,0.04314 c -0.720567,0.269943 -1.880023,0.313338 -2.760446,0.103321 -1.054851,-0.251627 -1.868166,-0.810705 -2.429232,-1.669871 -0.220362,-0.33744 -0.317584,-0.465865 -0.499537,-0.659851 -0.7091371,-0.756041 -1.6040736,-1.173545 -2.4320275,-1.134587 -0.4429655,0.02084 -0.6502413,0.122188 -0.6502413,0.317927 0,0.189182 0.1616774,0.371009 0.6366946,0.716046 0.6500733,0.472191 1.182534,1.210681 1.6784995,2.327974 0.2488119,0.560517 0.4651647,0.892364 0.8329047,1.27753 0.469208,0.491441 0.860682,0.778707 1.440893,1.05733 0.442841,0.212656 0.825113,0.340862 1.281957,0.429939 0.852366,0.166199 1.778297,0.154622 2.761183,-0.03453 l 0.257766,-0.0496 -0.0089,1.303221 c -0.0081,1.181895 -0.01356,1.315837 -0.05854,1.438692 -0.244824,0.668773 -0.704566,1.048576 -1.259444,1.040462 -0.09901,-0.0014 -0.222698,-0.01923 -0.274853,-0.03952 z"
         id="path101" />
    </g>
  </g>
</svg>
